G75*
%MOIN*%
%OFA0B0*%
%FSLAX25Y25*%
%IPPOS*%
%LPD*%
%AMOC8*
5,1,8,0,0,1.08239X$1,22.5*
%
%ADD10C,0.12795*%
%ADD11R,0.04331X0.09646*%
%ADD12R,0.04921X0.05118*%
%ADD13C,0.05315*%
%ADD14C,0.03740*%
%ADD15R,0.02362X0.07677*%
%ADD16C,0.04921*%
%ADD17C,0.04953*%
%ADD18R,0.04953X0.04953*%
%ADD19C,0.00500*%
%ADD20R,0.03740X0.04528*%
%ADD21R,0.12795X0.05709*%
%ADD22R,0.06890X0.06102*%
%ADD23R,0.04921X0.05315*%
%ADD24C,0.03346*%
%ADD25R,0.04134X0.06890*%
%ADD26R,0.06496X0.08465*%
%ADD27R,0.06102X0.06496*%
%ADD28R,0.04724X0.04921*%
D10*
X0014055Y0019299D03*
X0014055Y0161031D03*
X0155787Y0161031D03*
X0155787Y0019299D03*
D11*
X0045059Y0109850D03*
X0034232Y0109850D03*
D12*
X0039646Y0115854D03*
X0039646Y0103846D03*
D13*
X0041221Y0139383D03*
D14*
X0128621Y0139383D03*
D15*
X0119173Y0134063D03*
X0116811Y0134063D03*
X0114449Y0134063D03*
X0112087Y0134063D03*
X0109724Y0134063D03*
X0107362Y0134063D03*
X0105000Y0134063D03*
X0102638Y0134063D03*
X0100276Y0134063D03*
X0097913Y0134063D03*
X0095551Y0134063D03*
X0093189Y0134063D03*
X0090827Y0134063D03*
X0088465Y0134063D03*
X0086102Y0134063D03*
X0083740Y0134063D03*
X0081378Y0134063D03*
X0079016Y0134063D03*
X0076654Y0134063D03*
X0074291Y0134063D03*
X0071929Y0134063D03*
X0069567Y0134063D03*
X0067205Y0134063D03*
X0064843Y0134063D03*
X0062480Y0134063D03*
X0060118Y0134063D03*
X0057756Y0134063D03*
X0055394Y0134063D03*
X0053031Y0134063D03*
X0050669Y0134063D03*
X0050669Y0156504D03*
X0053031Y0156504D03*
X0055394Y0156504D03*
X0057756Y0156504D03*
X0060118Y0156504D03*
X0062480Y0156504D03*
X0064843Y0156504D03*
X0067205Y0156504D03*
X0069567Y0156504D03*
X0071929Y0156504D03*
X0074291Y0156504D03*
X0076654Y0156504D03*
X0079016Y0156504D03*
X0081378Y0156504D03*
X0083740Y0156504D03*
X0086102Y0156504D03*
X0088465Y0156504D03*
X0090827Y0156504D03*
X0093189Y0156504D03*
X0095551Y0156504D03*
X0097913Y0156504D03*
X0100276Y0156504D03*
X0102638Y0156504D03*
X0105000Y0156504D03*
X0107362Y0156504D03*
X0109724Y0156504D03*
X0112087Y0156504D03*
X0114449Y0156504D03*
X0116811Y0156504D03*
X0119173Y0156504D03*
D16*
X0128622Y0138197D03*
X0041220Y0138197D03*
D17*
X0156299Y0066465D03*
X0156299Y0061465D03*
X0161299Y0061465D03*
X0161299Y0056465D03*
X0156299Y0056465D03*
X0156299Y0051465D03*
X0161299Y0051465D03*
X0161299Y0046465D03*
X0156299Y0046465D03*
D18*
X0161299Y0066465D03*
D19*
X0159331Y0113000D02*
X0158647Y0113060D01*
X0157984Y0113237D01*
X0157362Y0113527D01*
X0156800Y0113921D01*
X0156315Y0114406D01*
X0155921Y0114969D01*
X0155631Y0115590D01*
X0155454Y0116253D01*
X0155394Y0116937D01*
X0155454Y0117621D01*
X0155631Y0118284D01*
X0155921Y0118906D01*
X0156315Y0119468D01*
X0156800Y0119953D01*
X0157362Y0120347D01*
X0157984Y0120637D01*
X0158647Y0120814D01*
X0159331Y0120874D01*
X0160014Y0120814D01*
X0160677Y0120637D01*
X0161299Y0120347D01*
X0161861Y0119953D01*
X0162347Y0119468D01*
X0162740Y0118906D01*
X0163030Y0118284D01*
X0163208Y0117621D01*
X0163268Y0116937D01*
X0163208Y0116253D01*
X0163030Y0115590D01*
X0162740Y0114969D01*
X0162347Y0114406D01*
X0161861Y0113921D01*
X0161299Y0113527D01*
X0160677Y0113237D01*
X0160014Y0113060D01*
X0159331Y0113000D01*
X0160435Y0113173D02*
X0158226Y0113173D01*
X0157157Y0113671D02*
X0161504Y0113671D01*
X0162110Y0114170D02*
X0156552Y0114170D01*
X0156131Y0114668D02*
X0162530Y0114668D01*
X0162833Y0115167D02*
X0155829Y0115167D01*
X0155611Y0115665D02*
X0163050Y0115665D01*
X0163184Y0116164D02*
X0155478Y0116164D01*
X0155418Y0116662D02*
X0163244Y0116662D01*
X0163248Y0117161D02*
X0155413Y0117161D01*
X0155464Y0117659D02*
X0163198Y0117659D01*
X0163064Y0118158D02*
X0155597Y0118158D01*
X0155805Y0118656D02*
X0162856Y0118656D01*
X0162566Y0119155D02*
X0156096Y0119155D01*
X0156500Y0119653D02*
X0162161Y0119653D01*
X0161577Y0120152D02*
X0157084Y0120152D01*
X0158035Y0120650D02*
X0160626Y0120650D01*
X0012480Y0116937D02*
X0012420Y0116253D01*
X0012243Y0115590D01*
X0011953Y0114969D01*
X0011559Y0114406D01*
X0011074Y0113921D01*
X0010512Y0113527D01*
X0009890Y0113237D01*
X0009227Y0113060D01*
X0008543Y0113000D01*
X0007860Y0113060D01*
X0007197Y0113237D01*
X0006575Y0113527D01*
X0006013Y0113921D01*
X0005527Y0114406D01*
X0005134Y0114969D01*
X0004844Y0115590D01*
X0004666Y0116253D01*
X0004606Y0116937D01*
X0004666Y0117621D01*
X0004844Y0118284D01*
X0005134Y0118906D01*
X0005527Y0119468D01*
X0006013Y0119953D01*
X0006575Y0120347D01*
X0007197Y0120637D01*
X0007860Y0120814D01*
X0008543Y0120874D01*
X0009227Y0120814D01*
X0009890Y0120637D01*
X0010512Y0120347D01*
X0011074Y0119953D01*
X0011559Y0119468D01*
X0011953Y0118906D01*
X0012243Y0118284D01*
X0012420Y0117621D01*
X0012480Y0116937D01*
X0012461Y0117161D02*
X0004626Y0117161D01*
X0004630Y0116662D02*
X0012456Y0116662D01*
X0012396Y0116164D02*
X0004690Y0116164D01*
X0004824Y0115665D02*
X0012263Y0115665D01*
X0012045Y0115167D02*
X0005041Y0115167D01*
X0005344Y0114668D02*
X0011743Y0114668D01*
X0011322Y0114170D02*
X0005764Y0114170D01*
X0006370Y0113671D02*
X0010717Y0113671D01*
X0009648Y0113173D02*
X0007439Y0113173D01*
X0004676Y0117659D02*
X0012410Y0117659D01*
X0012277Y0118158D02*
X0004810Y0118158D01*
X0005018Y0118656D02*
X0012069Y0118656D01*
X0011778Y0119155D02*
X0005308Y0119155D01*
X0005713Y0119653D02*
X0011374Y0119653D01*
X0010790Y0120152D02*
X0006297Y0120152D01*
X0007248Y0120650D02*
X0009839Y0120650D01*
D20*
X0123031Y0083079D03*
X0128150Y0083079D03*
D21*
X0069961Y0085047D03*
X0069961Y0077173D03*
X0069961Y0069299D03*
X0069961Y0061425D03*
X0069961Y0053551D03*
X0069961Y0045677D03*
X0069961Y0037803D03*
X0069961Y0092921D03*
X0010906Y0092921D03*
X0010906Y0085047D03*
X0010906Y0077173D03*
X0010906Y0069299D03*
X0010906Y0061425D03*
X0010906Y0053551D03*
X0010906Y0045677D03*
X0010906Y0037803D03*
D22*
X0080197Y0049417D03*
X0080197Y0056898D03*
D23*
X0080197Y0063984D03*
X0080197Y0070677D03*
D24*
X0078622Y0075205D03*
X0063661Y0069299D03*
X0079921Y0043472D03*
X0079016Y0035047D03*
X0005000Y0085047D03*
D25*
X0105315Y0033984D03*
X0109646Y0035559D03*
X0113976Y0033984D03*
X0118307Y0033197D03*
X0122638Y0033984D03*
X0126969Y0033197D03*
X0131299Y0033984D03*
X0135630Y0033984D03*
D26*
X0138740Y0024969D03*
X0086969Y0021031D03*
D27*
X0110000Y0076740D03*
X0132441Y0076740D03*
D28*
X0126969Y0077528D03*
M02*
