G75*
%MOIN*%
%OFA0B0*%
%FSLAX25Y25*%
%IPPOS*%
%LPD*%
%AMOC8*
5,1,8,0,0,1.08239X$1,22.5*
%
%ADD10C,0.00787*%
%ADD11C,0.00000*%
%ADD12C,0.00039*%
D10*
X0014055Y0007488D02*
X0155787Y0007488D01*
X0014055Y0007488D01*
X0013770Y0007491D01*
X0013484Y0007502D01*
X0013199Y0007519D01*
X0012915Y0007543D01*
X0012631Y0007574D01*
X0012348Y0007612D01*
X0012067Y0007657D01*
X0011786Y0007708D01*
X0011506Y0007766D01*
X0011228Y0007831D01*
X0010952Y0007903D01*
X0010678Y0007981D01*
X0010405Y0008066D01*
X0010135Y0008158D01*
X0009867Y0008256D01*
X0009601Y0008360D01*
X0009338Y0008471D01*
X0009078Y0008588D01*
X0008820Y0008711D01*
X0008566Y0008841D01*
X0008315Y0008977D01*
X0008067Y0009118D01*
X0007823Y0009266D01*
X0007582Y0009419D01*
X0007346Y0009579D01*
X0007113Y0009744D01*
X0006884Y0009914D01*
X0006659Y0010090D01*
X0006439Y0010272D01*
X0006223Y0010458D01*
X0006012Y0010650D01*
X0005805Y0010847D01*
X0005603Y0011049D01*
X0005406Y0011256D01*
X0005214Y0011467D01*
X0005028Y0011683D01*
X0004846Y0011903D01*
X0004670Y0012128D01*
X0004500Y0012357D01*
X0004335Y0012590D01*
X0004175Y0012826D01*
X0004022Y0013067D01*
X0003874Y0013311D01*
X0003733Y0013559D01*
X0003597Y0013810D01*
X0003467Y0014064D01*
X0003344Y0014322D01*
X0003227Y0014582D01*
X0003116Y0014845D01*
X0003012Y0015111D01*
X0002914Y0015379D01*
X0002822Y0015649D01*
X0002737Y0015922D01*
X0002659Y0016196D01*
X0002587Y0016472D01*
X0002522Y0016750D01*
X0002464Y0017030D01*
X0002413Y0017311D01*
X0002368Y0017592D01*
X0002330Y0017875D01*
X0002299Y0018159D01*
X0002275Y0018443D01*
X0002258Y0018728D01*
X0002247Y0019014D01*
X0002244Y0019299D01*
X0002244Y0161031D01*
X0002244Y0019299D01*
X0002247Y0019014D01*
X0002258Y0018728D01*
X0002275Y0018443D01*
X0002299Y0018159D01*
X0002330Y0017875D01*
X0002368Y0017592D01*
X0002413Y0017311D01*
X0002464Y0017030D01*
X0002522Y0016750D01*
X0002587Y0016472D01*
X0002659Y0016196D01*
X0002737Y0015922D01*
X0002822Y0015649D01*
X0002914Y0015379D01*
X0003012Y0015111D01*
X0003116Y0014845D01*
X0003227Y0014582D01*
X0003344Y0014322D01*
X0003467Y0014064D01*
X0003597Y0013810D01*
X0003733Y0013559D01*
X0003874Y0013311D01*
X0004022Y0013067D01*
X0004175Y0012826D01*
X0004335Y0012590D01*
X0004500Y0012357D01*
X0004670Y0012128D01*
X0004846Y0011903D01*
X0005028Y0011683D01*
X0005214Y0011467D01*
X0005406Y0011256D01*
X0005603Y0011049D01*
X0005805Y0010847D01*
X0006012Y0010650D01*
X0006223Y0010458D01*
X0006439Y0010272D01*
X0006659Y0010090D01*
X0006884Y0009914D01*
X0007113Y0009744D01*
X0007346Y0009579D01*
X0007582Y0009419D01*
X0007823Y0009266D01*
X0008067Y0009118D01*
X0008315Y0008977D01*
X0008566Y0008841D01*
X0008820Y0008711D01*
X0009078Y0008588D01*
X0009338Y0008471D01*
X0009601Y0008360D01*
X0009867Y0008256D01*
X0010135Y0008158D01*
X0010405Y0008066D01*
X0010678Y0007981D01*
X0010952Y0007903D01*
X0011228Y0007831D01*
X0011506Y0007766D01*
X0011786Y0007708D01*
X0012067Y0007657D01*
X0012348Y0007612D01*
X0012631Y0007574D01*
X0012915Y0007543D01*
X0013199Y0007519D01*
X0013484Y0007502D01*
X0013770Y0007491D01*
X0014055Y0007488D01*
X0155787Y0007488D02*
X0156072Y0007491D01*
X0156358Y0007502D01*
X0156643Y0007519D01*
X0156927Y0007543D01*
X0157211Y0007574D01*
X0157494Y0007612D01*
X0157775Y0007657D01*
X0158056Y0007708D01*
X0158336Y0007766D01*
X0158614Y0007831D01*
X0158890Y0007903D01*
X0159164Y0007981D01*
X0159437Y0008066D01*
X0159707Y0008158D01*
X0159975Y0008256D01*
X0160241Y0008360D01*
X0160504Y0008471D01*
X0160764Y0008588D01*
X0161022Y0008711D01*
X0161276Y0008841D01*
X0161527Y0008977D01*
X0161775Y0009118D01*
X0162019Y0009266D01*
X0162260Y0009419D01*
X0162496Y0009579D01*
X0162729Y0009744D01*
X0162958Y0009914D01*
X0163183Y0010090D01*
X0163403Y0010272D01*
X0163619Y0010458D01*
X0163830Y0010650D01*
X0164037Y0010847D01*
X0164239Y0011049D01*
X0164436Y0011256D01*
X0164628Y0011467D01*
X0164814Y0011683D01*
X0164996Y0011903D01*
X0165172Y0012128D01*
X0165342Y0012357D01*
X0165507Y0012590D01*
X0165667Y0012826D01*
X0165820Y0013067D01*
X0165968Y0013311D01*
X0166109Y0013559D01*
X0166245Y0013810D01*
X0166375Y0014064D01*
X0166498Y0014322D01*
X0166615Y0014582D01*
X0166726Y0014845D01*
X0166830Y0015111D01*
X0166928Y0015379D01*
X0167020Y0015649D01*
X0167105Y0015922D01*
X0167183Y0016196D01*
X0167255Y0016472D01*
X0167320Y0016750D01*
X0167378Y0017030D01*
X0167429Y0017311D01*
X0167474Y0017592D01*
X0167512Y0017875D01*
X0167543Y0018159D01*
X0167567Y0018443D01*
X0167584Y0018728D01*
X0167595Y0019014D01*
X0167598Y0019299D01*
X0167598Y0161031D01*
X0167598Y0019299D01*
X0167595Y0019014D01*
X0167584Y0018728D01*
X0167567Y0018443D01*
X0167543Y0018159D01*
X0167512Y0017875D01*
X0167474Y0017592D01*
X0167429Y0017311D01*
X0167378Y0017030D01*
X0167320Y0016750D01*
X0167255Y0016472D01*
X0167183Y0016196D01*
X0167105Y0015922D01*
X0167020Y0015649D01*
X0166928Y0015379D01*
X0166830Y0015111D01*
X0166726Y0014845D01*
X0166615Y0014582D01*
X0166498Y0014322D01*
X0166375Y0014064D01*
X0166245Y0013810D01*
X0166109Y0013559D01*
X0165968Y0013311D01*
X0165820Y0013067D01*
X0165667Y0012826D01*
X0165507Y0012590D01*
X0165342Y0012357D01*
X0165172Y0012128D01*
X0164996Y0011903D01*
X0164814Y0011683D01*
X0164628Y0011467D01*
X0164436Y0011256D01*
X0164239Y0011049D01*
X0164037Y0010847D01*
X0163830Y0010650D01*
X0163619Y0010458D01*
X0163403Y0010272D01*
X0163183Y0010090D01*
X0162958Y0009914D01*
X0162729Y0009744D01*
X0162496Y0009579D01*
X0162260Y0009419D01*
X0162019Y0009266D01*
X0161775Y0009118D01*
X0161527Y0008977D01*
X0161276Y0008841D01*
X0161022Y0008711D01*
X0160764Y0008588D01*
X0160504Y0008471D01*
X0160241Y0008360D01*
X0159975Y0008256D01*
X0159707Y0008158D01*
X0159437Y0008066D01*
X0159164Y0007981D01*
X0158890Y0007903D01*
X0158614Y0007831D01*
X0158336Y0007766D01*
X0158056Y0007708D01*
X0157775Y0007657D01*
X0157494Y0007612D01*
X0157211Y0007574D01*
X0156927Y0007543D01*
X0156643Y0007519D01*
X0156358Y0007502D01*
X0156072Y0007491D01*
X0155787Y0007488D01*
X0167598Y0161031D02*
X0167595Y0161316D01*
X0167584Y0161602D01*
X0167567Y0161887D01*
X0167543Y0162171D01*
X0167512Y0162455D01*
X0167474Y0162738D01*
X0167429Y0163019D01*
X0167378Y0163300D01*
X0167320Y0163580D01*
X0167255Y0163858D01*
X0167183Y0164134D01*
X0167105Y0164408D01*
X0167020Y0164681D01*
X0166928Y0164951D01*
X0166830Y0165219D01*
X0166726Y0165485D01*
X0166615Y0165748D01*
X0166498Y0166008D01*
X0166375Y0166266D01*
X0166245Y0166520D01*
X0166109Y0166771D01*
X0165968Y0167019D01*
X0165820Y0167263D01*
X0165667Y0167504D01*
X0165507Y0167740D01*
X0165342Y0167973D01*
X0165172Y0168202D01*
X0164996Y0168427D01*
X0164814Y0168647D01*
X0164628Y0168863D01*
X0164436Y0169074D01*
X0164239Y0169281D01*
X0164037Y0169483D01*
X0163830Y0169680D01*
X0163619Y0169872D01*
X0163403Y0170058D01*
X0163183Y0170240D01*
X0162958Y0170416D01*
X0162729Y0170586D01*
X0162496Y0170751D01*
X0162260Y0170911D01*
X0162019Y0171064D01*
X0161775Y0171212D01*
X0161527Y0171353D01*
X0161276Y0171489D01*
X0161022Y0171619D01*
X0160764Y0171742D01*
X0160504Y0171859D01*
X0160241Y0171970D01*
X0159975Y0172074D01*
X0159707Y0172172D01*
X0159437Y0172264D01*
X0159164Y0172349D01*
X0158890Y0172427D01*
X0158614Y0172499D01*
X0158336Y0172564D01*
X0158056Y0172622D01*
X0157775Y0172673D01*
X0157494Y0172718D01*
X0157211Y0172756D01*
X0156927Y0172787D01*
X0156643Y0172811D01*
X0156358Y0172828D01*
X0156072Y0172839D01*
X0155787Y0172842D01*
X0155787Y0172843D02*
X0014055Y0172843D01*
X0155787Y0172843D01*
X0155787Y0172842D02*
X0156072Y0172839D01*
X0156358Y0172828D01*
X0156643Y0172811D01*
X0156927Y0172787D01*
X0157211Y0172756D01*
X0157494Y0172718D01*
X0157775Y0172673D01*
X0158056Y0172622D01*
X0158336Y0172564D01*
X0158614Y0172499D01*
X0158890Y0172427D01*
X0159164Y0172349D01*
X0159437Y0172264D01*
X0159707Y0172172D01*
X0159975Y0172074D01*
X0160241Y0171970D01*
X0160504Y0171859D01*
X0160764Y0171742D01*
X0161022Y0171619D01*
X0161276Y0171489D01*
X0161527Y0171353D01*
X0161775Y0171212D01*
X0162019Y0171064D01*
X0162260Y0170911D01*
X0162496Y0170751D01*
X0162729Y0170586D01*
X0162958Y0170416D01*
X0163183Y0170240D01*
X0163403Y0170058D01*
X0163619Y0169872D01*
X0163830Y0169680D01*
X0164037Y0169483D01*
X0164239Y0169281D01*
X0164436Y0169074D01*
X0164628Y0168863D01*
X0164814Y0168647D01*
X0164996Y0168427D01*
X0165172Y0168202D01*
X0165342Y0167973D01*
X0165507Y0167740D01*
X0165667Y0167504D01*
X0165820Y0167263D01*
X0165968Y0167019D01*
X0166109Y0166771D01*
X0166245Y0166520D01*
X0166375Y0166266D01*
X0166498Y0166008D01*
X0166615Y0165748D01*
X0166726Y0165485D01*
X0166830Y0165219D01*
X0166928Y0164951D01*
X0167020Y0164681D01*
X0167105Y0164408D01*
X0167183Y0164134D01*
X0167255Y0163858D01*
X0167320Y0163580D01*
X0167378Y0163300D01*
X0167429Y0163019D01*
X0167474Y0162738D01*
X0167512Y0162455D01*
X0167543Y0162171D01*
X0167567Y0161887D01*
X0167584Y0161602D01*
X0167595Y0161316D01*
X0167598Y0161031D01*
X0014055Y0172842D02*
X0013770Y0172839D01*
X0013484Y0172828D01*
X0013199Y0172811D01*
X0012915Y0172787D01*
X0012631Y0172756D01*
X0012348Y0172718D01*
X0012067Y0172673D01*
X0011786Y0172622D01*
X0011506Y0172564D01*
X0011228Y0172499D01*
X0010952Y0172427D01*
X0010678Y0172349D01*
X0010405Y0172264D01*
X0010135Y0172172D01*
X0009867Y0172074D01*
X0009601Y0171970D01*
X0009338Y0171859D01*
X0009078Y0171742D01*
X0008820Y0171619D01*
X0008566Y0171489D01*
X0008315Y0171353D01*
X0008067Y0171212D01*
X0007823Y0171064D01*
X0007582Y0170911D01*
X0007346Y0170751D01*
X0007113Y0170586D01*
X0006884Y0170416D01*
X0006659Y0170240D01*
X0006439Y0170058D01*
X0006223Y0169872D01*
X0006012Y0169680D01*
X0005805Y0169483D01*
X0005603Y0169281D01*
X0005406Y0169074D01*
X0005214Y0168863D01*
X0005028Y0168647D01*
X0004846Y0168427D01*
X0004670Y0168202D01*
X0004500Y0167973D01*
X0004335Y0167740D01*
X0004175Y0167504D01*
X0004022Y0167263D01*
X0003874Y0167019D01*
X0003733Y0166771D01*
X0003597Y0166520D01*
X0003467Y0166266D01*
X0003344Y0166008D01*
X0003227Y0165748D01*
X0003116Y0165485D01*
X0003012Y0165219D01*
X0002914Y0164951D01*
X0002822Y0164681D01*
X0002737Y0164408D01*
X0002659Y0164134D01*
X0002587Y0163858D01*
X0002522Y0163580D01*
X0002464Y0163300D01*
X0002413Y0163019D01*
X0002368Y0162738D01*
X0002330Y0162455D01*
X0002299Y0162171D01*
X0002275Y0161887D01*
X0002258Y0161602D01*
X0002247Y0161316D01*
X0002244Y0161031D01*
X0002247Y0161316D01*
X0002258Y0161602D01*
X0002275Y0161887D01*
X0002299Y0162171D01*
X0002330Y0162455D01*
X0002368Y0162738D01*
X0002413Y0163019D01*
X0002464Y0163300D01*
X0002522Y0163580D01*
X0002587Y0163858D01*
X0002659Y0164134D01*
X0002737Y0164408D01*
X0002822Y0164681D01*
X0002914Y0164951D01*
X0003012Y0165219D01*
X0003116Y0165485D01*
X0003227Y0165748D01*
X0003344Y0166008D01*
X0003467Y0166266D01*
X0003597Y0166520D01*
X0003733Y0166771D01*
X0003874Y0167019D01*
X0004022Y0167263D01*
X0004175Y0167504D01*
X0004335Y0167740D01*
X0004500Y0167973D01*
X0004670Y0168202D01*
X0004846Y0168427D01*
X0005028Y0168647D01*
X0005214Y0168863D01*
X0005406Y0169074D01*
X0005603Y0169281D01*
X0005805Y0169483D01*
X0006012Y0169680D01*
X0006223Y0169872D01*
X0006439Y0170058D01*
X0006659Y0170240D01*
X0006884Y0170416D01*
X0007113Y0170586D01*
X0007346Y0170751D01*
X0007582Y0170911D01*
X0007823Y0171064D01*
X0008067Y0171212D01*
X0008315Y0171353D01*
X0008566Y0171489D01*
X0008820Y0171619D01*
X0009078Y0171742D01*
X0009338Y0171859D01*
X0009601Y0171970D01*
X0009867Y0172074D01*
X0010135Y0172172D01*
X0010405Y0172264D01*
X0010678Y0172349D01*
X0010952Y0172427D01*
X0011228Y0172499D01*
X0011506Y0172564D01*
X0011786Y0172622D01*
X0012067Y0172673D01*
X0012348Y0172718D01*
X0012631Y0172756D01*
X0012915Y0172787D01*
X0013199Y0172811D01*
X0013484Y0172828D01*
X0013770Y0172839D01*
X0014055Y0172842D01*
D11*
X0008149Y0161031D02*
X0008151Y0161184D01*
X0008157Y0161338D01*
X0008167Y0161491D01*
X0008181Y0161643D01*
X0008199Y0161796D01*
X0008221Y0161947D01*
X0008246Y0162098D01*
X0008276Y0162249D01*
X0008310Y0162399D01*
X0008347Y0162547D01*
X0008388Y0162695D01*
X0008433Y0162841D01*
X0008482Y0162987D01*
X0008535Y0163131D01*
X0008591Y0163273D01*
X0008651Y0163414D01*
X0008715Y0163554D01*
X0008782Y0163692D01*
X0008853Y0163828D01*
X0008928Y0163962D01*
X0009005Y0164094D01*
X0009087Y0164224D01*
X0009171Y0164352D01*
X0009259Y0164478D01*
X0009350Y0164601D01*
X0009444Y0164722D01*
X0009542Y0164840D01*
X0009642Y0164956D01*
X0009746Y0165069D01*
X0009852Y0165180D01*
X0009961Y0165288D01*
X0010073Y0165393D01*
X0010187Y0165494D01*
X0010305Y0165593D01*
X0010424Y0165689D01*
X0010546Y0165782D01*
X0010671Y0165871D01*
X0010798Y0165958D01*
X0010927Y0166040D01*
X0011058Y0166120D01*
X0011191Y0166196D01*
X0011326Y0166269D01*
X0011463Y0166338D01*
X0011602Y0166403D01*
X0011742Y0166465D01*
X0011884Y0166523D01*
X0012027Y0166578D01*
X0012172Y0166629D01*
X0012318Y0166676D01*
X0012465Y0166719D01*
X0012613Y0166758D01*
X0012762Y0166794D01*
X0012912Y0166825D01*
X0013063Y0166853D01*
X0013214Y0166877D01*
X0013367Y0166897D01*
X0013519Y0166913D01*
X0013672Y0166925D01*
X0013825Y0166933D01*
X0013978Y0166937D01*
X0014132Y0166937D01*
X0014285Y0166933D01*
X0014438Y0166925D01*
X0014591Y0166913D01*
X0014743Y0166897D01*
X0014896Y0166877D01*
X0015047Y0166853D01*
X0015198Y0166825D01*
X0015348Y0166794D01*
X0015497Y0166758D01*
X0015645Y0166719D01*
X0015792Y0166676D01*
X0015938Y0166629D01*
X0016083Y0166578D01*
X0016226Y0166523D01*
X0016368Y0166465D01*
X0016508Y0166403D01*
X0016647Y0166338D01*
X0016784Y0166269D01*
X0016919Y0166196D01*
X0017052Y0166120D01*
X0017183Y0166040D01*
X0017312Y0165958D01*
X0017439Y0165871D01*
X0017564Y0165782D01*
X0017686Y0165689D01*
X0017805Y0165593D01*
X0017923Y0165494D01*
X0018037Y0165393D01*
X0018149Y0165288D01*
X0018258Y0165180D01*
X0018364Y0165069D01*
X0018468Y0164956D01*
X0018568Y0164840D01*
X0018666Y0164722D01*
X0018760Y0164601D01*
X0018851Y0164478D01*
X0018939Y0164352D01*
X0019023Y0164224D01*
X0019105Y0164094D01*
X0019182Y0163962D01*
X0019257Y0163828D01*
X0019328Y0163692D01*
X0019395Y0163554D01*
X0019459Y0163414D01*
X0019519Y0163273D01*
X0019575Y0163131D01*
X0019628Y0162987D01*
X0019677Y0162841D01*
X0019722Y0162695D01*
X0019763Y0162547D01*
X0019800Y0162399D01*
X0019834Y0162249D01*
X0019864Y0162098D01*
X0019889Y0161947D01*
X0019911Y0161796D01*
X0019929Y0161643D01*
X0019943Y0161491D01*
X0019953Y0161338D01*
X0019959Y0161184D01*
X0019961Y0161031D01*
X0019959Y0160878D01*
X0019953Y0160724D01*
X0019943Y0160571D01*
X0019929Y0160419D01*
X0019911Y0160266D01*
X0019889Y0160115D01*
X0019864Y0159964D01*
X0019834Y0159813D01*
X0019800Y0159663D01*
X0019763Y0159515D01*
X0019722Y0159367D01*
X0019677Y0159221D01*
X0019628Y0159075D01*
X0019575Y0158931D01*
X0019519Y0158789D01*
X0019459Y0158648D01*
X0019395Y0158508D01*
X0019328Y0158370D01*
X0019257Y0158234D01*
X0019182Y0158100D01*
X0019105Y0157968D01*
X0019023Y0157838D01*
X0018939Y0157710D01*
X0018851Y0157584D01*
X0018760Y0157461D01*
X0018666Y0157340D01*
X0018568Y0157222D01*
X0018468Y0157106D01*
X0018364Y0156993D01*
X0018258Y0156882D01*
X0018149Y0156774D01*
X0018037Y0156669D01*
X0017923Y0156568D01*
X0017805Y0156469D01*
X0017686Y0156373D01*
X0017564Y0156280D01*
X0017439Y0156191D01*
X0017312Y0156104D01*
X0017183Y0156022D01*
X0017052Y0155942D01*
X0016919Y0155866D01*
X0016784Y0155793D01*
X0016647Y0155724D01*
X0016508Y0155659D01*
X0016368Y0155597D01*
X0016226Y0155539D01*
X0016083Y0155484D01*
X0015938Y0155433D01*
X0015792Y0155386D01*
X0015645Y0155343D01*
X0015497Y0155304D01*
X0015348Y0155268D01*
X0015198Y0155237D01*
X0015047Y0155209D01*
X0014896Y0155185D01*
X0014743Y0155165D01*
X0014591Y0155149D01*
X0014438Y0155137D01*
X0014285Y0155129D01*
X0014132Y0155125D01*
X0013978Y0155125D01*
X0013825Y0155129D01*
X0013672Y0155137D01*
X0013519Y0155149D01*
X0013367Y0155165D01*
X0013214Y0155185D01*
X0013063Y0155209D01*
X0012912Y0155237D01*
X0012762Y0155268D01*
X0012613Y0155304D01*
X0012465Y0155343D01*
X0012318Y0155386D01*
X0012172Y0155433D01*
X0012027Y0155484D01*
X0011884Y0155539D01*
X0011742Y0155597D01*
X0011602Y0155659D01*
X0011463Y0155724D01*
X0011326Y0155793D01*
X0011191Y0155866D01*
X0011058Y0155942D01*
X0010927Y0156022D01*
X0010798Y0156104D01*
X0010671Y0156191D01*
X0010546Y0156280D01*
X0010424Y0156373D01*
X0010305Y0156469D01*
X0010187Y0156568D01*
X0010073Y0156669D01*
X0009961Y0156774D01*
X0009852Y0156882D01*
X0009746Y0156993D01*
X0009642Y0157106D01*
X0009542Y0157222D01*
X0009444Y0157340D01*
X0009350Y0157461D01*
X0009259Y0157584D01*
X0009171Y0157710D01*
X0009087Y0157838D01*
X0009005Y0157968D01*
X0008928Y0158100D01*
X0008853Y0158234D01*
X0008782Y0158370D01*
X0008715Y0158508D01*
X0008651Y0158648D01*
X0008591Y0158789D01*
X0008535Y0158931D01*
X0008482Y0159075D01*
X0008433Y0159221D01*
X0008388Y0159367D01*
X0008347Y0159515D01*
X0008310Y0159663D01*
X0008276Y0159813D01*
X0008246Y0159964D01*
X0008221Y0160115D01*
X0008199Y0160266D01*
X0008181Y0160419D01*
X0008167Y0160571D01*
X0008157Y0160724D01*
X0008151Y0160878D01*
X0008149Y0161031D01*
X0039056Y0139383D02*
X0039058Y0139476D01*
X0039064Y0139568D01*
X0039074Y0139660D01*
X0039088Y0139751D01*
X0039105Y0139842D01*
X0039127Y0139932D01*
X0039152Y0140021D01*
X0039181Y0140109D01*
X0039214Y0140195D01*
X0039251Y0140280D01*
X0039291Y0140364D01*
X0039335Y0140445D01*
X0039382Y0140525D01*
X0039432Y0140603D01*
X0039486Y0140678D01*
X0039543Y0140751D01*
X0039603Y0140821D01*
X0039666Y0140889D01*
X0039732Y0140954D01*
X0039800Y0141016D01*
X0039871Y0141076D01*
X0039945Y0141132D01*
X0040021Y0141185D01*
X0040099Y0141234D01*
X0040179Y0141281D01*
X0040261Y0141323D01*
X0040345Y0141363D01*
X0040430Y0141398D01*
X0040517Y0141430D01*
X0040605Y0141459D01*
X0040694Y0141483D01*
X0040784Y0141504D01*
X0040875Y0141520D01*
X0040967Y0141533D01*
X0041059Y0141542D01*
X0041152Y0141547D01*
X0041244Y0141548D01*
X0041337Y0141545D01*
X0041429Y0141538D01*
X0041521Y0141527D01*
X0041612Y0141512D01*
X0041703Y0141494D01*
X0041793Y0141471D01*
X0041881Y0141445D01*
X0041969Y0141415D01*
X0042055Y0141381D01*
X0042139Y0141344D01*
X0042222Y0141302D01*
X0042303Y0141258D01*
X0042383Y0141210D01*
X0042460Y0141159D01*
X0042534Y0141104D01*
X0042607Y0141046D01*
X0042677Y0140986D01*
X0042744Y0140922D01*
X0042808Y0140856D01*
X0042870Y0140786D01*
X0042928Y0140715D01*
X0042983Y0140641D01*
X0043035Y0140564D01*
X0043084Y0140485D01*
X0043130Y0140405D01*
X0043172Y0140322D01*
X0043210Y0140238D01*
X0043245Y0140152D01*
X0043276Y0140065D01*
X0043303Y0139977D01*
X0043326Y0139887D01*
X0043346Y0139797D01*
X0043362Y0139706D01*
X0043374Y0139614D01*
X0043382Y0139522D01*
X0043386Y0139429D01*
X0043386Y0139337D01*
X0043382Y0139244D01*
X0043374Y0139152D01*
X0043362Y0139060D01*
X0043346Y0138969D01*
X0043326Y0138879D01*
X0043303Y0138789D01*
X0043276Y0138701D01*
X0043245Y0138614D01*
X0043210Y0138528D01*
X0043172Y0138444D01*
X0043130Y0138361D01*
X0043084Y0138281D01*
X0043035Y0138202D01*
X0042983Y0138125D01*
X0042928Y0138051D01*
X0042870Y0137980D01*
X0042808Y0137910D01*
X0042744Y0137844D01*
X0042677Y0137780D01*
X0042607Y0137720D01*
X0042534Y0137662D01*
X0042460Y0137607D01*
X0042383Y0137556D01*
X0042304Y0137508D01*
X0042222Y0137464D01*
X0042139Y0137422D01*
X0042055Y0137385D01*
X0041969Y0137351D01*
X0041881Y0137321D01*
X0041793Y0137295D01*
X0041703Y0137272D01*
X0041612Y0137254D01*
X0041521Y0137239D01*
X0041429Y0137228D01*
X0041337Y0137221D01*
X0041244Y0137218D01*
X0041152Y0137219D01*
X0041059Y0137224D01*
X0040967Y0137233D01*
X0040875Y0137246D01*
X0040784Y0137262D01*
X0040694Y0137283D01*
X0040605Y0137307D01*
X0040517Y0137336D01*
X0040430Y0137368D01*
X0040345Y0137403D01*
X0040261Y0137443D01*
X0040179Y0137485D01*
X0040099Y0137532D01*
X0040021Y0137581D01*
X0039945Y0137634D01*
X0039871Y0137690D01*
X0039800Y0137750D01*
X0039732Y0137812D01*
X0039666Y0137877D01*
X0039603Y0137945D01*
X0039543Y0138015D01*
X0039486Y0138088D01*
X0039432Y0138163D01*
X0039382Y0138241D01*
X0039335Y0138321D01*
X0039291Y0138402D01*
X0039251Y0138486D01*
X0039214Y0138571D01*
X0039181Y0138657D01*
X0039152Y0138745D01*
X0039127Y0138834D01*
X0039105Y0138924D01*
X0039088Y0139015D01*
X0039074Y0139106D01*
X0039064Y0139198D01*
X0039058Y0139290D01*
X0039056Y0139383D01*
X0039251Y0138197D02*
X0039253Y0138285D01*
X0039259Y0138373D01*
X0039269Y0138461D01*
X0039283Y0138549D01*
X0039300Y0138635D01*
X0039322Y0138721D01*
X0039347Y0138805D01*
X0039377Y0138889D01*
X0039409Y0138971D01*
X0039446Y0139051D01*
X0039486Y0139130D01*
X0039530Y0139207D01*
X0039577Y0139282D01*
X0039627Y0139354D01*
X0039681Y0139425D01*
X0039737Y0139492D01*
X0039797Y0139558D01*
X0039859Y0139620D01*
X0039925Y0139680D01*
X0039992Y0139736D01*
X0040063Y0139790D01*
X0040135Y0139840D01*
X0040210Y0139887D01*
X0040287Y0139931D01*
X0040366Y0139971D01*
X0040446Y0140008D01*
X0040528Y0140040D01*
X0040612Y0140070D01*
X0040696Y0140095D01*
X0040782Y0140117D01*
X0040868Y0140134D01*
X0040956Y0140148D01*
X0041044Y0140158D01*
X0041132Y0140164D01*
X0041220Y0140166D01*
X0041308Y0140164D01*
X0041396Y0140158D01*
X0041484Y0140148D01*
X0041572Y0140134D01*
X0041658Y0140117D01*
X0041744Y0140095D01*
X0041828Y0140070D01*
X0041912Y0140040D01*
X0041994Y0140008D01*
X0042074Y0139971D01*
X0042153Y0139931D01*
X0042230Y0139887D01*
X0042305Y0139840D01*
X0042377Y0139790D01*
X0042448Y0139736D01*
X0042515Y0139680D01*
X0042581Y0139620D01*
X0042643Y0139558D01*
X0042703Y0139492D01*
X0042759Y0139425D01*
X0042813Y0139354D01*
X0042863Y0139282D01*
X0042910Y0139207D01*
X0042954Y0139130D01*
X0042994Y0139051D01*
X0043031Y0138971D01*
X0043063Y0138889D01*
X0043093Y0138805D01*
X0043118Y0138721D01*
X0043140Y0138635D01*
X0043157Y0138549D01*
X0043171Y0138461D01*
X0043181Y0138373D01*
X0043187Y0138285D01*
X0043189Y0138197D01*
X0043187Y0138109D01*
X0043181Y0138021D01*
X0043171Y0137933D01*
X0043157Y0137845D01*
X0043140Y0137759D01*
X0043118Y0137673D01*
X0043093Y0137589D01*
X0043063Y0137505D01*
X0043031Y0137423D01*
X0042994Y0137343D01*
X0042954Y0137264D01*
X0042910Y0137187D01*
X0042863Y0137112D01*
X0042813Y0137040D01*
X0042759Y0136969D01*
X0042703Y0136902D01*
X0042643Y0136836D01*
X0042581Y0136774D01*
X0042515Y0136714D01*
X0042448Y0136658D01*
X0042377Y0136604D01*
X0042305Y0136554D01*
X0042230Y0136507D01*
X0042153Y0136463D01*
X0042074Y0136423D01*
X0041994Y0136386D01*
X0041912Y0136354D01*
X0041828Y0136324D01*
X0041744Y0136299D01*
X0041658Y0136277D01*
X0041572Y0136260D01*
X0041484Y0136246D01*
X0041396Y0136236D01*
X0041308Y0136230D01*
X0041220Y0136228D01*
X0041132Y0136230D01*
X0041044Y0136236D01*
X0040956Y0136246D01*
X0040868Y0136260D01*
X0040782Y0136277D01*
X0040696Y0136299D01*
X0040612Y0136324D01*
X0040528Y0136354D01*
X0040446Y0136386D01*
X0040366Y0136423D01*
X0040287Y0136463D01*
X0040210Y0136507D01*
X0040135Y0136554D01*
X0040063Y0136604D01*
X0039992Y0136658D01*
X0039925Y0136714D01*
X0039859Y0136774D01*
X0039797Y0136836D01*
X0039737Y0136902D01*
X0039681Y0136969D01*
X0039627Y0137040D01*
X0039577Y0137112D01*
X0039530Y0137187D01*
X0039486Y0137264D01*
X0039446Y0137343D01*
X0039409Y0137423D01*
X0039377Y0137505D01*
X0039347Y0137589D01*
X0039322Y0137673D01*
X0039300Y0137759D01*
X0039283Y0137845D01*
X0039269Y0137933D01*
X0039259Y0138021D01*
X0039253Y0138109D01*
X0039251Y0138197D01*
X0126653Y0138197D02*
X0126655Y0138285D01*
X0126661Y0138373D01*
X0126671Y0138461D01*
X0126685Y0138549D01*
X0126702Y0138635D01*
X0126724Y0138721D01*
X0126749Y0138805D01*
X0126779Y0138889D01*
X0126811Y0138971D01*
X0126848Y0139051D01*
X0126888Y0139130D01*
X0126932Y0139207D01*
X0126979Y0139282D01*
X0127029Y0139354D01*
X0127083Y0139425D01*
X0127139Y0139492D01*
X0127199Y0139558D01*
X0127261Y0139620D01*
X0127327Y0139680D01*
X0127394Y0139736D01*
X0127465Y0139790D01*
X0127537Y0139840D01*
X0127612Y0139887D01*
X0127689Y0139931D01*
X0127768Y0139971D01*
X0127848Y0140008D01*
X0127930Y0140040D01*
X0128014Y0140070D01*
X0128098Y0140095D01*
X0128184Y0140117D01*
X0128270Y0140134D01*
X0128358Y0140148D01*
X0128446Y0140158D01*
X0128534Y0140164D01*
X0128622Y0140166D01*
X0128710Y0140164D01*
X0128798Y0140158D01*
X0128886Y0140148D01*
X0128974Y0140134D01*
X0129060Y0140117D01*
X0129146Y0140095D01*
X0129230Y0140070D01*
X0129314Y0140040D01*
X0129396Y0140008D01*
X0129476Y0139971D01*
X0129555Y0139931D01*
X0129632Y0139887D01*
X0129707Y0139840D01*
X0129779Y0139790D01*
X0129850Y0139736D01*
X0129917Y0139680D01*
X0129983Y0139620D01*
X0130045Y0139558D01*
X0130105Y0139492D01*
X0130161Y0139425D01*
X0130215Y0139354D01*
X0130265Y0139282D01*
X0130312Y0139207D01*
X0130356Y0139130D01*
X0130396Y0139051D01*
X0130433Y0138971D01*
X0130465Y0138889D01*
X0130495Y0138805D01*
X0130520Y0138721D01*
X0130542Y0138635D01*
X0130559Y0138549D01*
X0130573Y0138461D01*
X0130583Y0138373D01*
X0130589Y0138285D01*
X0130591Y0138197D01*
X0130589Y0138109D01*
X0130583Y0138021D01*
X0130573Y0137933D01*
X0130559Y0137845D01*
X0130542Y0137759D01*
X0130520Y0137673D01*
X0130495Y0137589D01*
X0130465Y0137505D01*
X0130433Y0137423D01*
X0130396Y0137343D01*
X0130356Y0137264D01*
X0130312Y0137187D01*
X0130265Y0137112D01*
X0130215Y0137040D01*
X0130161Y0136969D01*
X0130105Y0136902D01*
X0130045Y0136836D01*
X0129983Y0136774D01*
X0129917Y0136714D01*
X0129850Y0136658D01*
X0129779Y0136604D01*
X0129707Y0136554D01*
X0129632Y0136507D01*
X0129555Y0136463D01*
X0129476Y0136423D01*
X0129396Y0136386D01*
X0129314Y0136354D01*
X0129230Y0136324D01*
X0129146Y0136299D01*
X0129060Y0136277D01*
X0128974Y0136260D01*
X0128886Y0136246D01*
X0128798Y0136236D01*
X0128710Y0136230D01*
X0128622Y0136228D01*
X0128534Y0136230D01*
X0128446Y0136236D01*
X0128358Y0136246D01*
X0128270Y0136260D01*
X0128184Y0136277D01*
X0128098Y0136299D01*
X0128014Y0136324D01*
X0127930Y0136354D01*
X0127848Y0136386D01*
X0127768Y0136423D01*
X0127689Y0136463D01*
X0127612Y0136507D01*
X0127537Y0136554D01*
X0127465Y0136604D01*
X0127394Y0136658D01*
X0127327Y0136714D01*
X0127261Y0136774D01*
X0127199Y0136836D01*
X0127139Y0136902D01*
X0127083Y0136969D01*
X0127029Y0137040D01*
X0126979Y0137112D01*
X0126932Y0137187D01*
X0126888Y0137264D01*
X0126848Y0137343D01*
X0126811Y0137423D01*
X0126779Y0137505D01*
X0126749Y0137589D01*
X0126724Y0137673D01*
X0126702Y0137759D01*
X0126685Y0137845D01*
X0126671Y0137933D01*
X0126661Y0138021D01*
X0126655Y0138109D01*
X0126653Y0138197D01*
X0127243Y0139383D02*
X0127245Y0139457D01*
X0127251Y0139531D01*
X0127261Y0139604D01*
X0127275Y0139677D01*
X0127292Y0139749D01*
X0127314Y0139819D01*
X0127339Y0139889D01*
X0127368Y0139957D01*
X0127401Y0140023D01*
X0127437Y0140088D01*
X0127477Y0140150D01*
X0127519Y0140211D01*
X0127565Y0140269D01*
X0127614Y0140324D01*
X0127666Y0140377D01*
X0127721Y0140427D01*
X0127778Y0140473D01*
X0127838Y0140517D01*
X0127900Y0140557D01*
X0127964Y0140594D01*
X0128030Y0140628D01*
X0128098Y0140658D01*
X0128167Y0140684D01*
X0128238Y0140707D01*
X0128309Y0140725D01*
X0128382Y0140740D01*
X0128455Y0140751D01*
X0128529Y0140758D01*
X0128603Y0140761D01*
X0128676Y0140760D01*
X0128750Y0140755D01*
X0128824Y0140746D01*
X0128897Y0140733D01*
X0128969Y0140716D01*
X0129040Y0140696D01*
X0129110Y0140671D01*
X0129178Y0140643D01*
X0129245Y0140612D01*
X0129310Y0140576D01*
X0129373Y0140538D01*
X0129434Y0140496D01*
X0129493Y0140450D01*
X0129549Y0140402D01*
X0129602Y0140351D01*
X0129652Y0140297D01*
X0129700Y0140240D01*
X0129744Y0140181D01*
X0129786Y0140119D01*
X0129824Y0140056D01*
X0129858Y0139990D01*
X0129889Y0139923D01*
X0129916Y0139854D01*
X0129939Y0139784D01*
X0129959Y0139713D01*
X0129975Y0139640D01*
X0129987Y0139567D01*
X0129995Y0139494D01*
X0129999Y0139420D01*
X0129999Y0139346D01*
X0129995Y0139272D01*
X0129987Y0139199D01*
X0129975Y0139126D01*
X0129959Y0139053D01*
X0129939Y0138982D01*
X0129916Y0138912D01*
X0129889Y0138843D01*
X0129858Y0138776D01*
X0129824Y0138710D01*
X0129786Y0138647D01*
X0129744Y0138585D01*
X0129700Y0138526D01*
X0129652Y0138469D01*
X0129602Y0138415D01*
X0129549Y0138364D01*
X0129493Y0138316D01*
X0129434Y0138270D01*
X0129373Y0138228D01*
X0129310Y0138190D01*
X0129245Y0138154D01*
X0129178Y0138123D01*
X0129110Y0138095D01*
X0129040Y0138070D01*
X0128969Y0138050D01*
X0128897Y0138033D01*
X0128824Y0138020D01*
X0128750Y0138011D01*
X0128676Y0138006D01*
X0128603Y0138005D01*
X0128529Y0138008D01*
X0128455Y0138015D01*
X0128382Y0138026D01*
X0128309Y0138041D01*
X0128238Y0138059D01*
X0128167Y0138082D01*
X0128098Y0138108D01*
X0128030Y0138138D01*
X0127964Y0138172D01*
X0127900Y0138209D01*
X0127838Y0138249D01*
X0127778Y0138293D01*
X0127721Y0138339D01*
X0127666Y0138389D01*
X0127614Y0138442D01*
X0127565Y0138497D01*
X0127519Y0138555D01*
X0127477Y0138616D01*
X0127437Y0138678D01*
X0127401Y0138743D01*
X0127368Y0138809D01*
X0127339Y0138877D01*
X0127314Y0138947D01*
X0127292Y0139017D01*
X0127275Y0139089D01*
X0127261Y0139162D01*
X0127251Y0139235D01*
X0127245Y0139309D01*
X0127243Y0139383D01*
X0149881Y0161031D02*
X0149883Y0161184D01*
X0149889Y0161338D01*
X0149899Y0161491D01*
X0149913Y0161643D01*
X0149931Y0161796D01*
X0149953Y0161947D01*
X0149978Y0162098D01*
X0150008Y0162249D01*
X0150042Y0162399D01*
X0150079Y0162547D01*
X0150120Y0162695D01*
X0150165Y0162841D01*
X0150214Y0162987D01*
X0150267Y0163131D01*
X0150323Y0163273D01*
X0150383Y0163414D01*
X0150447Y0163554D01*
X0150514Y0163692D01*
X0150585Y0163828D01*
X0150660Y0163962D01*
X0150737Y0164094D01*
X0150819Y0164224D01*
X0150903Y0164352D01*
X0150991Y0164478D01*
X0151082Y0164601D01*
X0151176Y0164722D01*
X0151274Y0164840D01*
X0151374Y0164956D01*
X0151478Y0165069D01*
X0151584Y0165180D01*
X0151693Y0165288D01*
X0151805Y0165393D01*
X0151919Y0165494D01*
X0152037Y0165593D01*
X0152156Y0165689D01*
X0152278Y0165782D01*
X0152403Y0165871D01*
X0152530Y0165958D01*
X0152659Y0166040D01*
X0152790Y0166120D01*
X0152923Y0166196D01*
X0153058Y0166269D01*
X0153195Y0166338D01*
X0153334Y0166403D01*
X0153474Y0166465D01*
X0153616Y0166523D01*
X0153759Y0166578D01*
X0153904Y0166629D01*
X0154050Y0166676D01*
X0154197Y0166719D01*
X0154345Y0166758D01*
X0154494Y0166794D01*
X0154644Y0166825D01*
X0154795Y0166853D01*
X0154946Y0166877D01*
X0155099Y0166897D01*
X0155251Y0166913D01*
X0155404Y0166925D01*
X0155557Y0166933D01*
X0155710Y0166937D01*
X0155864Y0166937D01*
X0156017Y0166933D01*
X0156170Y0166925D01*
X0156323Y0166913D01*
X0156475Y0166897D01*
X0156628Y0166877D01*
X0156779Y0166853D01*
X0156930Y0166825D01*
X0157080Y0166794D01*
X0157229Y0166758D01*
X0157377Y0166719D01*
X0157524Y0166676D01*
X0157670Y0166629D01*
X0157815Y0166578D01*
X0157958Y0166523D01*
X0158100Y0166465D01*
X0158240Y0166403D01*
X0158379Y0166338D01*
X0158516Y0166269D01*
X0158651Y0166196D01*
X0158784Y0166120D01*
X0158915Y0166040D01*
X0159044Y0165958D01*
X0159171Y0165871D01*
X0159296Y0165782D01*
X0159418Y0165689D01*
X0159537Y0165593D01*
X0159655Y0165494D01*
X0159769Y0165393D01*
X0159881Y0165288D01*
X0159990Y0165180D01*
X0160096Y0165069D01*
X0160200Y0164956D01*
X0160300Y0164840D01*
X0160398Y0164722D01*
X0160492Y0164601D01*
X0160583Y0164478D01*
X0160671Y0164352D01*
X0160755Y0164224D01*
X0160837Y0164094D01*
X0160914Y0163962D01*
X0160989Y0163828D01*
X0161060Y0163692D01*
X0161127Y0163554D01*
X0161191Y0163414D01*
X0161251Y0163273D01*
X0161307Y0163131D01*
X0161360Y0162987D01*
X0161409Y0162841D01*
X0161454Y0162695D01*
X0161495Y0162547D01*
X0161532Y0162399D01*
X0161566Y0162249D01*
X0161596Y0162098D01*
X0161621Y0161947D01*
X0161643Y0161796D01*
X0161661Y0161643D01*
X0161675Y0161491D01*
X0161685Y0161338D01*
X0161691Y0161184D01*
X0161693Y0161031D01*
X0161691Y0160878D01*
X0161685Y0160724D01*
X0161675Y0160571D01*
X0161661Y0160419D01*
X0161643Y0160266D01*
X0161621Y0160115D01*
X0161596Y0159964D01*
X0161566Y0159813D01*
X0161532Y0159663D01*
X0161495Y0159515D01*
X0161454Y0159367D01*
X0161409Y0159221D01*
X0161360Y0159075D01*
X0161307Y0158931D01*
X0161251Y0158789D01*
X0161191Y0158648D01*
X0161127Y0158508D01*
X0161060Y0158370D01*
X0160989Y0158234D01*
X0160914Y0158100D01*
X0160837Y0157968D01*
X0160755Y0157838D01*
X0160671Y0157710D01*
X0160583Y0157584D01*
X0160492Y0157461D01*
X0160398Y0157340D01*
X0160300Y0157222D01*
X0160200Y0157106D01*
X0160096Y0156993D01*
X0159990Y0156882D01*
X0159881Y0156774D01*
X0159769Y0156669D01*
X0159655Y0156568D01*
X0159537Y0156469D01*
X0159418Y0156373D01*
X0159296Y0156280D01*
X0159171Y0156191D01*
X0159044Y0156104D01*
X0158915Y0156022D01*
X0158784Y0155942D01*
X0158651Y0155866D01*
X0158516Y0155793D01*
X0158379Y0155724D01*
X0158240Y0155659D01*
X0158100Y0155597D01*
X0157958Y0155539D01*
X0157815Y0155484D01*
X0157670Y0155433D01*
X0157524Y0155386D01*
X0157377Y0155343D01*
X0157229Y0155304D01*
X0157080Y0155268D01*
X0156930Y0155237D01*
X0156779Y0155209D01*
X0156628Y0155185D01*
X0156475Y0155165D01*
X0156323Y0155149D01*
X0156170Y0155137D01*
X0156017Y0155129D01*
X0155864Y0155125D01*
X0155710Y0155125D01*
X0155557Y0155129D01*
X0155404Y0155137D01*
X0155251Y0155149D01*
X0155099Y0155165D01*
X0154946Y0155185D01*
X0154795Y0155209D01*
X0154644Y0155237D01*
X0154494Y0155268D01*
X0154345Y0155304D01*
X0154197Y0155343D01*
X0154050Y0155386D01*
X0153904Y0155433D01*
X0153759Y0155484D01*
X0153616Y0155539D01*
X0153474Y0155597D01*
X0153334Y0155659D01*
X0153195Y0155724D01*
X0153058Y0155793D01*
X0152923Y0155866D01*
X0152790Y0155942D01*
X0152659Y0156022D01*
X0152530Y0156104D01*
X0152403Y0156191D01*
X0152278Y0156280D01*
X0152156Y0156373D01*
X0152037Y0156469D01*
X0151919Y0156568D01*
X0151805Y0156669D01*
X0151693Y0156774D01*
X0151584Y0156882D01*
X0151478Y0156993D01*
X0151374Y0157106D01*
X0151274Y0157222D01*
X0151176Y0157340D01*
X0151082Y0157461D01*
X0150991Y0157584D01*
X0150903Y0157710D01*
X0150819Y0157838D01*
X0150737Y0157968D01*
X0150660Y0158100D01*
X0150585Y0158234D01*
X0150514Y0158370D01*
X0150447Y0158508D01*
X0150383Y0158648D01*
X0150323Y0158789D01*
X0150267Y0158931D01*
X0150214Y0159075D01*
X0150165Y0159221D01*
X0150120Y0159367D01*
X0150079Y0159515D01*
X0150042Y0159663D01*
X0150008Y0159813D01*
X0149978Y0159964D01*
X0149953Y0160115D01*
X0149931Y0160266D01*
X0149913Y0160419D01*
X0149899Y0160571D01*
X0149889Y0160724D01*
X0149883Y0160878D01*
X0149881Y0161031D01*
X0149881Y0019299D02*
X0149883Y0019452D01*
X0149889Y0019606D01*
X0149899Y0019759D01*
X0149913Y0019911D01*
X0149931Y0020064D01*
X0149953Y0020215D01*
X0149978Y0020366D01*
X0150008Y0020517D01*
X0150042Y0020667D01*
X0150079Y0020815D01*
X0150120Y0020963D01*
X0150165Y0021109D01*
X0150214Y0021255D01*
X0150267Y0021399D01*
X0150323Y0021541D01*
X0150383Y0021682D01*
X0150447Y0021822D01*
X0150514Y0021960D01*
X0150585Y0022096D01*
X0150660Y0022230D01*
X0150737Y0022362D01*
X0150819Y0022492D01*
X0150903Y0022620D01*
X0150991Y0022746D01*
X0151082Y0022869D01*
X0151176Y0022990D01*
X0151274Y0023108D01*
X0151374Y0023224D01*
X0151478Y0023337D01*
X0151584Y0023448D01*
X0151693Y0023556D01*
X0151805Y0023661D01*
X0151919Y0023762D01*
X0152037Y0023861D01*
X0152156Y0023957D01*
X0152278Y0024050D01*
X0152403Y0024139D01*
X0152530Y0024226D01*
X0152659Y0024308D01*
X0152790Y0024388D01*
X0152923Y0024464D01*
X0153058Y0024537D01*
X0153195Y0024606D01*
X0153334Y0024671D01*
X0153474Y0024733D01*
X0153616Y0024791D01*
X0153759Y0024846D01*
X0153904Y0024897D01*
X0154050Y0024944D01*
X0154197Y0024987D01*
X0154345Y0025026D01*
X0154494Y0025062D01*
X0154644Y0025093D01*
X0154795Y0025121D01*
X0154946Y0025145D01*
X0155099Y0025165D01*
X0155251Y0025181D01*
X0155404Y0025193D01*
X0155557Y0025201D01*
X0155710Y0025205D01*
X0155864Y0025205D01*
X0156017Y0025201D01*
X0156170Y0025193D01*
X0156323Y0025181D01*
X0156475Y0025165D01*
X0156628Y0025145D01*
X0156779Y0025121D01*
X0156930Y0025093D01*
X0157080Y0025062D01*
X0157229Y0025026D01*
X0157377Y0024987D01*
X0157524Y0024944D01*
X0157670Y0024897D01*
X0157815Y0024846D01*
X0157958Y0024791D01*
X0158100Y0024733D01*
X0158240Y0024671D01*
X0158379Y0024606D01*
X0158516Y0024537D01*
X0158651Y0024464D01*
X0158784Y0024388D01*
X0158915Y0024308D01*
X0159044Y0024226D01*
X0159171Y0024139D01*
X0159296Y0024050D01*
X0159418Y0023957D01*
X0159537Y0023861D01*
X0159655Y0023762D01*
X0159769Y0023661D01*
X0159881Y0023556D01*
X0159990Y0023448D01*
X0160096Y0023337D01*
X0160200Y0023224D01*
X0160300Y0023108D01*
X0160398Y0022990D01*
X0160492Y0022869D01*
X0160583Y0022746D01*
X0160671Y0022620D01*
X0160755Y0022492D01*
X0160837Y0022362D01*
X0160914Y0022230D01*
X0160989Y0022096D01*
X0161060Y0021960D01*
X0161127Y0021822D01*
X0161191Y0021682D01*
X0161251Y0021541D01*
X0161307Y0021399D01*
X0161360Y0021255D01*
X0161409Y0021109D01*
X0161454Y0020963D01*
X0161495Y0020815D01*
X0161532Y0020667D01*
X0161566Y0020517D01*
X0161596Y0020366D01*
X0161621Y0020215D01*
X0161643Y0020064D01*
X0161661Y0019911D01*
X0161675Y0019759D01*
X0161685Y0019606D01*
X0161691Y0019452D01*
X0161693Y0019299D01*
X0161691Y0019146D01*
X0161685Y0018992D01*
X0161675Y0018839D01*
X0161661Y0018687D01*
X0161643Y0018534D01*
X0161621Y0018383D01*
X0161596Y0018232D01*
X0161566Y0018081D01*
X0161532Y0017931D01*
X0161495Y0017783D01*
X0161454Y0017635D01*
X0161409Y0017489D01*
X0161360Y0017343D01*
X0161307Y0017199D01*
X0161251Y0017057D01*
X0161191Y0016916D01*
X0161127Y0016776D01*
X0161060Y0016638D01*
X0160989Y0016502D01*
X0160914Y0016368D01*
X0160837Y0016236D01*
X0160755Y0016106D01*
X0160671Y0015978D01*
X0160583Y0015852D01*
X0160492Y0015729D01*
X0160398Y0015608D01*
X0160300Y0015490D01*
X0160200Y0015374D01*
X0160096Y0015261D01*
X0159990Y0015150D01*
X0159881Y0015042D01*
X0159769Y0014937D01*
X0159655Y0014836D01*
X0159537Y0014737D01*
X0159418Y0014641D01*
X0159296Y0014548D01*
X0159171Y0014459D01*
X0159044Y0014372D01*
X0158915Y0014290D01*
X0158784Y0014210D01*
X0158651Y0014134D01*
X0158516Y0014061D01*
X0158379Y0013992D01*
X0158240Y0013927D01*
X0158100Y0013865D01*
X0157958Y0013807D01*
X0157815Y0013752D01*
X0157670Y0013701D01*
X0157524Y0013654D01*
X0157377Y0013611D01*
X0157229Y0013572D01*
X0157080Y0013536D01*
X0156930Y0013505D01*
X0156779Y0013477D01*
X0156628Y0013453D01*
X0156475Y0013433D01*
X0156323Y0013417D01*
X0156170Y0013405D01*
X0156017Y0013397D01*
X0155864Y0013393D01*
X0155710Y0013393D01*
X0155557Y0013397D01*
X0155404Y0013405D01*
X0155251Y0013417D01*
X0155099Y0013433D01*
X0154946Y0013453D01*
X0154795Y0013477D01*
X0154644Y0013505D01*
X0154494Y0013536D01*
X0154345Y0013572D01*
X0154197Y0013611D01*
X0154050Y0013654D01*
X0153904Y0013701D01*
X0153759Y0013752D01*
X0153616Y0013807D01*
X0153474Y0013865D01*
X0153334Y0013927D01*
X0153195Y0013992D01*
X0153058Y0014061D01*
X0152923Y0014134D01*
X0152790Y0014210D01*
X0152659Y0014290D01*
X0152530Y0014372D01*
X0152403Y0014459D01*
X0152278Y0014548D01*
X0152156Y0014641D01*
X0152037Y0014737D01*
X0151919Y0014836D01*
X0151805Y0014937D01*
X0151693Y0015042D01*
X0151584Y0015150D01*
X0151478Y0015261D01*
X0151374Y0015374D01*
X0151274Y0015490D01*
X0151176Y0015608D01*
X0151082Y0015729D01*
X0150991Y0015852D01*
X0150903Y0015978D01*
X0150819Y0016106D01*
X0150737Y0016236D01*
X0150660Y0016368D01*
X0150585Y0016502D01*
X0150514Y0016638D01*
X0150447Y0016776D01*
X0150383Y0016916D01*
X0150323Y0017057D01*
X0150267Y0017199D01*
X0150214Y0017343D01*
X0150165Y0017489D01*
X0150120Y0017635D01*
X0150079Y0017783D01*
X0150042Y0017931D01*
X0150008Y0018081D01*
X0149978Y0018232D01*
X0149953Y0018383D01*
X0149931Y0018534D01*
X0149913Y0018687D01*
X0149899Y0018839D01*
X0149889Y0018992D01*
X0149883Y0019146D01*
X0149881Y0019299D01*
X0008149Y0019299D02*
X0008151Y0019452D01*
X0008157Y0019606D01*
X0008167Y0019759D01*
X0008181Y0019911D01*
X0008199Y0020064D01*
X0008221Y0020215D01*
X0008246Y0020366D01*
X0008276Y0020517D01*
X0008310Y0020667D01*
X0008347Y0020815D01*
X0008388Y0020963D01*
X0008433Y0021109D01*
X0008482Y0021255D01*
X0008535Y0021399D01*
X0008591Y0021541D01*
X0008651Y0021682D01*
X0008715Y0021822D01*
X0008782Y0021960D01*
X0008853Y0022096D01*
X0008928Y0022230D01*
X0009005Y0022362D01*
X0009087Y0022492D01*
X0009171Y0022620D01*
X0009259Y0022746D01*
X0009350Y0022869D01*
X0009444Y0022990D01*
X0009542Y0023108D01*
X0009642Y0023224D01*
X0009746Y0023337D01*
X0009852Y0023448D01*
X0009961Y0023556D01*
X0010073Y0023661D01*
X0010187Y0023762D01*
X0010305Y0023861D01*
X0010424Y0023957D01*
X0010546Y0024050D01*
X0010671Y0024139D01*
X0010798Y0024226D01*
X0010927Y0024308D01*
X0011058Y0024388D01*
X0011191Y0024464D01*
X0011326Y0024537D01*
X0011463Y0024606D01*
X0011602Y0024671D01*
X0011742Y0024733D01*
X0011884Y0024791D01*
X0012027Y0024846D01*
X0012172Y0024897D01*
X0012318Y0024944D01*
X0012465Y0024987D01*
X0012613Y0025026D01*
X0012762Y0025062D01*
X0012912Y0025093D01*
X0013063Y0025121D01*
X0013214Y0025145D01*
X0013367Y0025165D01*
X0013519Y0025181D01*
X0013672Y0025193D01*
X0013825Y0025201D01*
X0013978Y0025205D01*
X0014132Y0025205D01*
X0014285Y0025201D01*
X0014438Y0025193D01*
X0014591Y0025181D01*
X0014743Y0025165D01*
X0014896Y0025145D01*
X0015047Y0025121D01*
X0015198Y0025093D01*
X0015348Y0025062D01*
X0015497Y0025026D01*
X0015645Y0024987D01*
X0015792Y0024944D01*
X0015938Y0024897D01*
X0016083Y0024846D01*
X0016226Y0024791D01*
X0016368Y0024733D01*
X0016508Y0024671D01*
X0016647Y0024606D01*
X0016784Y0024537D01*
X0016919Y0024464D01*
X0017052Y0024388D01*
X0017183Y0024308D01*
X0017312Y0024226D01*
X0017439Y0024139D01*
X0017564Y0024050D01*
X0017686Y0023957D01*
X0017805Y0023861D01*
X0017923Y0023762D01*
X0018037Y0023661D01*
X0018149Y0023556D01*
X0018258Y0023448D01*
X0018364Y0023337D01*
X0018468Y0023224D01*
X0018568Y0023108D01*
X0018666Y0022990D01*
X0018760Y0022869D01*
X0018851Y0022746D01*
X0018939Y0022620D01*
X0019023Y0022492D01*
X0019105Y0022362D01*
X0019182Y0022230D01*
X0019257Y0022096D01*
X0019328Y0021960D01*
X0019395Y0021822D01*
X0019459Y0021682D01*
X0019519Y0021541D01*
X0019575Y0021399D01*
X0019628Y0021255D01*
X0019677Y0021109D01*
X0019722Y0020963D01*
X0019763Y0020815D01*
X0019800Y0020667D01*
X0019834Y0020517D01*
X0019864Y0020366D01*
X0019889Y0020215D01*
X0019911Y0020064D01*
X0019929Y0019911D01*
X0019943Y0019759D01*
X0019953Y0019606D01*
X0019959Y0019452D01*
X0019961Y0019299D01*
X0019959Y0019146D01*
X0019953Y0018992D01*
X0019943Y0018839D01*
X0019929Y0018687D01*
X0019911Y0018534D01*
X0019889Y0018383D01*
X0019864Y0018232D01*
X0019834Y0018081D01*
X0019800Y0017931D01*
X0019763Y0017783D01*
X0019722Y0017635D01*
X0019677Y0017489D01*
X0019628Y0017343D01*
X0019575Y0017199D01*
X0019519Y0017057D01*
X0019459Y0016916D01*
X0019395Y0016776D01*
X0019328Y0016638D01*
X0019257Y0016502D01*
X0019182Y0016368D01*
X0019105Y0016236D01*
X0019023Y0016106D01*
X0018939Y0015978D01*
X0018851Y0015852D01*
X0018760Y0015729D01*
X0018666Y0015608D01*
X0018568Y0015490D01*
X0018468Y0015374D01*
X0018364Y0015261D01*
X0018258Y0015150D01*
X0018149Y0015042D01*
X0018037Y0014937D01*
X0017923Y0014836D01*
X0017805Y0014737D01*
X0017686Y0014641D01*
X0017564Y0014548D01*
X0017439Y0014459D01*
X0017312Y0014372D01*
X0017183Y0014290D01*
X0017052Y0014210D01*
X0016919Y0014134D01*
X0016784Y0014061D01*
X0016647Y0013992D01*
X0016508Y0013927D01*
X0016368Y0013865D01*
X0016226Y0013807D01*
X0016083Y0013752D01*
X0015938Y0013701D01*
X0015792Y0013654D01*
X0015645Y0013611D01*
X0015497Y0013572D01*
X0015348Y0013536D01*
X0015198Y0013505D01*
X0015047Y0013477D01*
X0014896Y0013453D01*
X0014743Y0013433D01*
X0014591Y0013417D01*
X0014438Y0013405D01*
X0014285Y0013397D01*
X0014132Y0013393D01*
X0013978Y0013393D01*
X0013825Y0013397D01*
X0013672Y0013405D01*
X0013519Y0013417D01*
X0013367Y0013433D01*
X0013214Y0013453D01*
X0013063Y0013477D01*
X0012912Y0013505D01*
X0012762Y0013536D01*
X0012613Y0013572D01*
X0012465Y0013611D01*
X0012318Y0013654D01*
X0012172Y0013701D01*
X0012027Y0013752D01*
X0011884Y0013807D01*
X0011742Y0013865D01*
X0011602Y0013927D01*
X0011463Y0013992D01*
X0011326Y0014061D01*
X0011191Y0014134D01*
X0011058Y0014210D01*
X0010927Y0014290D01*
X0010798Y0014372D01*
X0010671Y0014459D01*
X0010546Y0014548D01*
X0010424Y0014641D01*
X0010305Y0014737D01*
X0010187Y0014836D01*
X0010073Y0014937D01*
X0009961Y0015042D01*
X0009852Y0015150D01*
X0009746Y0015261D01*
X0009642Y0015374D01*
X0009542Y0015490D01*
X0009444Y0015608D01*
X0009350Y0015729D01*
X0009259Y0015852D01*
X0009171Y0015978D01*
X0009087Y0016106D01*
X0009005Y0016236D01*
X0008928Y0016368D01*
X0008853Y0016502D01*
X0008782Y0016638D01*
X0008715Y0016776D01*
X0008651Y0016916D01*
X0008591Y0017057D01*
X0008535Y0017199D01*
X0008482Y0017343D01*
X0008433Y0017489D01*
X0008388Y0017635D01*
X0008347Y0017783D01*
X0008310Y0017931D01*
X0008276Y0018081D01*
X0008246Y0018232D01*
X0008221Y0018383D01*
X0008199Y0018534D01*
X0008181Y0018687D01*
X0008167Y0018839D01*
X0008157Y0018992D01*
X0008151Y0019146D01*
X0008149Y0019299D01*
D12*
X0034528Y0017528D02*
X0034528Y0013984D01*
X0035709Y0012803D02*
X0035775Y0012805D01*
X0035841Y0012810D01*
X0035907Y0012820D01*
X0035972Y0012833D01*
X0036036Y0012849D01*
X0036099Y0012869D01*
X0036161Y0012893D01*
X0036221Y0012920D01*
X0036280Y0012950D01*
X0036337Y0012984D01*
X0036392Y0013021D01*
X0036445Y0013061D01*
X0036496Y0013103D01*
X0036544Y0013149D01*
X0036590Y0013197D01*
X0036632Y0013248D01*
X0036672Y0013301D01*
X0036709Y0013356D01*
X0036743Y0013413D01*
X0036773Y0013472D01*
X0036800Y0013532D01*
X0036824Y0013594D01*
X0036844Y0013657D01*
X0036860Y0013721D01*
X0036873Y0013786D01*
X0036883Y0013852D01*
X0036888Y0013918D01*
X0036890Y0013984D01*
X0036890Y0017528D01*
X0035709Y0018709D02*
X0035643Y0018707D01*
X0035577Y0018702D01*
X0035511Y0018692D01*
X0035446Y0018679D01*
X0035382Y0018663D01*
X0035319Y0018643D01*
X0035257Y0018619D01*
X0035197Y0018592D01*
X0035138Y0018562D01*
X0035081Y0018528D01*
X0035026Y0018491D01*
X0034973Y0018451D01*
X0034922Y0018409D01*
X0034874Y0018363D01*
X0034828Y0018315D01*
X0034786Y0018264D01*
X0034746Y0018211D01*
X0034709Y0018156D01*
X0034675Y0018099D01*
X0034645Y0018040D01*
X0034618Y0017980D01*
X0034594Y0017918D01*
X0034574Y0017855D01*
X0034558Y0017791D01*
X0034545Y0017726D01*
X0034535Y0017660D01*
X0034530Y0017594D01*
X0034528Y0017528D01*
X0035709Y0018709D02*
X0035775Y0018707D01*
X0035841Y0018702D01*
X0035907Y0018692D01*
X0035972Y0018679D01*
X0036036Y0018663D01*
X0036099Y0018643D01*
X0036161Y0018619D01*
X0036221Y0018592D01*
X0036280Y0018562D01*
X0036337Y0018528D01*
X0036392Y0018491D01*
X0036445Y0018451D01*
X0036496Y0018409D01*
X0036544Y0018363D01*
X0036590Y0018315D01*
X0036632Y0018264D01*
X0036672Y0018211D01*
X0036709Y0018156D01*
X0036743Y0018099D01*
X0036773Y0018040D01*
X0036800Y0017980D01*
X0036824Y0017918D01*
X0036844Y0017855D01*
X0036860Y0017791D01*
X0036873Y0017726D01*
X0036883Y0017660D01*
X0036888Y0017594D01*
X0036890Y0017528D01*
X0034528Y0013984D02*
X0034530Y0013918D01*
X0034535Y0013852D01*
X0034545Y0013786D01*
X0034558Y0013721D01*
X0034574Y0013657D01*
X0034594Y0013594D01*
X0034618Y0013532D01*
X0034645Y0013472D01*
X0034675Y0013413D01*
X0034709Y0013356D01*
X0034746Y0013301D01*
X0034786Y0013248D01*
X0034828Y0013197D01*
X0034874Y0013149D01*
X0034922Y0013103D01*
X0034973Y0013061D01*
X0035026Y0013021D01*
X0035081Y0012984D01*
X0035138Y0012950D01*
X0035197Y0012920D01*
X0035257Y0012893D01*
X0035319Y0012869D01*
X0035382Y0012849D01*
X0035446Y0012833D01*
X0035511Y0012820D01*
X0035577Y0012810D01*
X0035643Y0012805D01*
X0035709Y0012803D01*
X0039646Y0024693D02*
X0039727Y0024695D01*
X0039807Y0024701D01*
X0039887Y0024710D01*
X0039966Y0024724D01*
X0040045Y0024741D01*
X0040123Y0024762D01*
X0040200Y0024786D01*
X0040275Y0024814D01*
X0040349Y0024846D01*
X0040422Y0024881D01*
X0040493Y0024920D01*
X0040561Y0024962D01*
X0040628Y0025007D01*
X0040693Y0025055D01*
X0040755Y0025107D01*
X0040814Y0025161D01*
X0040871Y0025218D01*
X0040925Y0025277D01*
X0040977Y0025339D01*
X0041025Y0025404D01*
X0041070Y0025471D01*
X0041112Y0025540D01*
X0041151Y0025610D01*
X0041186Y0025683D01*
X0041218Y0025757D01*
X0041246Y0025832D01*
X0041270Y0025909D01*
X0041291Y0025987D01*
X0041308Y0026066D01*
X0041322Y0026145D01*
X0041331Y0026225D01*
X0041337Y0026305D01*
X0041339Y0026386D01*
X0041337Y0026467D01*
X0041331Y0026547D01*
X0041322Y0026627D01*
X0041308Y0026706D01*
X0041291Y0026785D01*
X0041270Y0026863D01*
X0041246Y0026940D01*
X0041218Y0027015D01*
X0041186Y0027089D01*
X0041151Y0027162D01*
X0041112Y0027233D01*
X0041070Y0027301D01*
X0041025Y0027368D01*
X0040977Y0027433D01*
X0040925Y0027495D01*
X0040871Y0027554D01*
X0040814Y0027611D01*
X0040755Y0027665D01*
X0040693Y0027717D01*
X0040628Y0027765D01*
X0040561Y0027810D01*
X0040493Y0027852D01*
X0040422Y0027891D01*
X0040349Y0027926D01*
X0040275Y0027958D01*
X0040200Y0027986D01*
X0040123Y0028010D01*
X0040045Y0028031D01*
X0039966Y0028048D01*
X0039887Y0028062D01*
X0039807Y0028071D01*
X0039727Y0028077D01*
X0039646Y0028079D01*
X0039565Y0028077D01*
X0039485Y0028071D01*
X0039405Y0028062D01*
X0039326Y0028048D01*
X0039247Y0028031D01*
X0039169Y0028010D01*
X0039092Y0027986D01*
X0039017Y0027958D01*
X0038943Y0027926D01*
X0038870Y0027891D01*
X0038800Y0027852D01*
X0038731Y0027810D01*
X0038664Y0027765D01*
X0038599Y0027717D01*
X0038537Y0027665D01*
X0038478Y0027611D01*
X0038421Y0027554D01*
X0038367Y0027495D01*
X0038315Y0027433D01*
X0038267Y0027368D01*
X0038222Y0027301D01*
X0038180Y0027233D01*
X0038141Y0027162D01*
X0038106Y0027089D01*
X0038074Y0027015D01*
X0038046Y0026940D01*
X0038022Y0026863D01*
X0038001Y0026785D01*
X0037984Y0026706D01*
X0037970Y0026627D01*
X0037961Y0026547D01*
X0037955Y0026467D01*
X0037953Y0026386D01*
X0037955Y0026305D01*
X0037961Y0026225D01*
X0037970Y0026145D01*
X0037984Y0026066D01*
X0038001Y0025987D01*
X0038022Y0025909D01*
X0038046Y0025832D01*
X0038074Y0025757D01*
X0038106Y0025683D01*
X0038141Y0025610D01*
X0038180Y0025540D01*
X0038222Y0025471D01*
X0038267Y0025404D01*
X0038315Y0025339D01*
X0038367Y0025277D01*
X0038421Y0025218D01*
X0038478Y0025161D01*
X0038537Y0025107D01*
X0038599Y0025055D01*
X0038664Y0025007D01*
X0038731Y0024962D01*
X0038800Y0024920D01*
X0038870Y0024881D01*
X0038943Y0024846D01*
X0039017Y0024814D01*
X0039092Y0024786D01*
X0039169Y0024762D01*
X0039247Y0024741D01*
X0039326Y0024724D01*
X0039405Y0024710D01*
X0039485Y0024701D01*
X0039565Y0024695D01*
X0039646Y0024693D01*
X0059331Y0024693D02*
X0059412Y0024695D01*
X0059492Y0024701D01*
X0059572Y0024710D01*
X0059651Y0024724D01*
X0059730Y0024741D01*
X0059808Y0024762D01*
X0059885Y0024786D01*
X0059960Y0024814D01*
X0060034Y0024846D01*
X0060107Y0024881D01*
X0060178Y0024920D01*
X0060246Y0024962D01*
X0060313Y0025007D01*
X0060378Y0025055D01*
X0060440Y0025107D01*
X0060499Y0025161D01*
X0060556Y0025218D01*
X0060610Y0025277D01*
X0060662Y0025339D01*
X0060710Y0025404D01*
X0060755Y0025471D01*
X0060797Y0025540D01*
X0060836Y0025610D01*
X0060871Y0025683D01*
X0060903Y0025757D01*
X0060931Y0025832D01*
X0060955Y0025909D01*
X0060976Y0025987D01*
X0060993Y0026066D01*
X0061007Y0026145D01*
X0061016Y0026225D01*
X0061022Y0026305D01*
X0061024Y0026386D01*
X0061022Y0026467D01*
X0061016Y0026547D01*
X0061007Y0026627D01*
X0060993Y0026706D01*
X0060976Y0026785D01*
X0060955Y0026863D01*
X0060931Y0026940D01*
X0060903Y0027015D01*
X0060871Y0027089D01*
X0060836Y0027162D01*
X0060797Y0027233D01*
X0060755Y0027301D01*
X0060710Y0027368D01*
X0060662Y0027433D01*
X0060610Y0027495D01*
X0060556Y0027554D01*
X0060499Y0027611D01*
X0060440Y0027665D01*
X0060378Y0027717D01*
X0060313Y0027765D01*
X0060246Y0027810D01*
X0060178Y0027852D01*
X0060107Y0027891D01*
X0060034Y0027926D01*
X0059960Y0027958D01*
X0059885Y0027986D01*
X0059808Y0028010D01*
X0059730Y0028031D01*
X0059651Y0028048D01*
X0059572Y0028062D01*
X0059492Y0028071D01*
X0059412Y0028077D01*
X0059331Y0028079D01*
X0059250Y0028077D01*
X0059170Y0028071D01*
X0059090Y0028062D01*
X0059011Y0028048D01*
X0058932Y0028031D01*
X0058854Y0028010D01*
X0058777Y0027986D01*
X0058702Y0027958D01*
X0058628Y0027926D01*
X0058555Y0027891D01*
X0058485Y0027852D01*
X0058416Y0027810D01*
X0058349Y0027765D01*
X0058284Y0027717D01*
X0058222Y0027665D01*
X0058163Y0027611D01*
X0058106Y0027554D01*
X0058052Y0027495D01*
X0058000Y0027433D01*
X0057952Y0027368D01*
X0057907Y0027301D01*
X0057865Y0027233D01*
X0057826Y0027162D01*
X0057791Y0027089D01*
X0057759Y0027015D01*
X0057731Y0026940D01*
X0057707Y0026863D01*
X0057686Y0026785D01*
X0057669Y0026706D01*
X0057655Y0026627D01*
X0057646Y0026547D01*
X0057640Y0026467D01*
X0057638Y0026386D01*
X0057640Y0026305D01*
X0057646Y0026225D01*
X0057655Y0026145D01*
X0057669Y0026066D01*
X0057686Y0025987D01*
X0057707Y0025909D01*
X0057731Y0025832D01*
X0057759Y0025757D01*
X0057791Y0025683D01*
X0057826Y0025610D01*
X0057865Y0025540D01*
X0057907Y0025471D01*
X0057952Y0025404D01*
X0058000Y0025339D01*
X0058052Y0025277D01*
X0058106Y0025218D01*
X0058163Y0025161D01*
X0058222Y0025107D01*
X0058284Y0025055D01*
X0058349Y0025007D01*
X0058416Y0024962D01*
X0058485Y0024920D01*
X0058555Y0024881D01*
X0058628Y0024846D01*
X0058702Y0024814D01*
X0058777Y0024786D01*
X0058854Y0024762D01*
X0058932Y0024741D01*
X0059011Y0024724D01*
X0059090Y0024710D01*
X0059170Y0024701D01*
X0059250Y0024695D01*
X0059331Y0024693D01*
X0062087Y0017528D02*
X0062087Y0013984D01*
X0063268Y0012803D02*
X0063334Y0012805D01*
X0063400Y0012810D01*
X0063466Y0012820D01*
X0063531Y0012833D01*
X0063595Y0012849D01*
X0063658Y0012869D01*
X0063720Y0012893D01*
X0063780Y0012920D01*
X0063839Y0012950D01*
X0063896Y0012984D01*
X0063951Y0013021D01*
X0064004Y0013061D01*
X0064055Y0013103D01*
X0064103Y0013149D01*
X0064149Y0013197D01*
X0064191Y0013248D01*
X0064231Y0013301D01*
X0064268Y0013356D01*
X0064302Y0013413D01*
X0064332Y0013472D01*
X0064359Y0013532D01*
X0064383Y0013594D01*
X0064403Y0013657D01*
X0064419Y0013721D01*
X0064432Y0013786D01*
X0064442Y0013852D01*
X0064447Y0013918D01*
X0064449Y0013984D01*
X0064449Y0017528D01*
X0063268Y0018709D02*
X0063202Y0018707D01*
X0063136Y0018702D01*
X0063070Y0018692D01*
X0063005Y0018679D01*
X0062941Y0018663D01*
X0062878Y0018643D01*
X0062816Y0018619D01*
X0062756Y0018592D01*
X0062697Y0018562D01*
X0062640Y0018528D01*
X0062585Y0018491D01*
X0062532Y0018451D01*
X0062481Y0018409D01*
X0062433Y0018363D01*
X0062387Y0018315D01*
X0062345Y0018264D01*
X0062305Y0018211D01*
X0062268Y0018156D01*
X0062234Y0018099D01*
X0062204Y0018040D01*
X0062177Y0017980D01*
X0062153Y0017918D01*
X0062133Y0017855D01*
X0062117Y0017791D01*
X0062104Y0017726D01*
X0062094Y0017660D01*
X0062089Y0017594D01*
X0062087Y0017528D01*
X0063268Y0018709D02*
X0063334Y0018707D01*
X0063400Y0018702D01*
X0063466Y0018692D01*
X0063531Y0018679D01*
X0063595Y0018663D01*
X0063658Y0018643D01*
X0063720Y0018619D01*
X0063780Y0018592D01*
X0063839Y0018562D01*
X0063896Y0018528D01*
X0063951Y0018491D01*
X0064004Y0018451D01*
X0064055Y0018409D01*
X0064103Y0018363D01*
X0064149Y0018315D01*
X0064191Y0018264D01*
X0064231Y0018211D01*
X0064268Y0018156D01*
X0064302Y0018099D01*
X0064332Y0018040D01*
X0064359Y0017980D01*
X0064383Y0017918D01*
X0064403Y0017855D01*
X0064419Y0017791D01*
X0064432Y0017726D01*
X0064442Y0017660D01*
X0064447Y0017594D01*
X0064449Y0017528D01*
X0062087Y0013984D02*
X0062089Y0013918D01*
X0062094Y0013852D01*
X0062104Y0013786D01*
X0062117Y0013721D01*
X0062133Y0013657D01*
X0062153Y0013594D01*
X0062177Y0013532D01*
X0062204Y0013472D01*
X0062234Y0013413D01*
X0062268Y0013356D01*
X0062305Y0013301D01*
X0062345Y0013248D01*
X0062387Y0013197D01*
X0062433Y0013149D01*
X0062481Y0013103D01*
X0062532Y0013061D01*
X0062585Y0013021D01*
X0062640Y0012984D01*
X0062697Y0012950D01*
X0062756Y0012920D01*
X0062816Y0012893D01*
X0062878Y0012869D01*
X0062941Y0012849D01*
X0063005Y0012833D01*
X0063070Y0012820D01*
X0063136Y0012810D01*
X0063202Y0012805D01*
X0063268Y0012803D01*
M02*
