G75*
%MOIN*%
%OFA0B0*%
%FSLAX25Y25*%
%IPPOS*%
%LPD*%
%AMOC8*
5,1,8,0,0,1.08239X$1,22.5*
%
%ADD10R,0.03346X0.08661*%
%ADD11R,0.03937X0.04134*%
%ADD12R,0.01378X0.06693*%
%ADD13R,0.02756X0.03543*%
%ADD14R,0.11811X0.04724*%
%ADD15R,0.05906X0.05118*%
%ADD16R,0.03937X0.04331*%
%ADD17R,0.03150X0.05906*%
%ADD18R,0.05512X0.07480*%
%ADD19R,0.05118X0.05512*%
%ADD20R,0.03740X0.03937*%
D10*
X0034232Y0109850D03*
X0045059Y0109850D03*
D11*
X0039646Y0115854D03*
X0039646Y0103846D03*
D12*
X0050669Y0134063D03*
X0053031Y0134063D03*
X0055394Y0134063D03*
X0057756Y0134063D03*
X0060118Y0134063D03*
X0062480Y0134063D03*
X0064843Y0134063D03*
X0067205Y0134063D03*
X0069567Y0134063D03*
X0071929Y0134063D03*
X0074291Y0134063D03*
X0076654Y0134063D03*
X0079016Y0134063D03*
X0081378Y0134063D03*
X0083740Y0134063D03*
X0086102Y0134063D03*
X0088465Y0134063D03*
X0090827Y0134063D03*
X0093189Y0134063D03*
X0095551Y0134063D03*
X0097913Y0134063D03*
X0100276Y0134063D03*
X0102638Y0134063D03*
X0105000Y0134063D03*
X0107362Y0134063D03*
X0109724Y0134063D03*
X0112087Y0134063D03*
X0114449Y0134063D03*
X0116811Y0134063D03*
X0119173Y0134063D03*
X0119173Y0156504D03*
X0116811Y0156504D03*
X0114449Y0156504D03*
X0112087Y0156504D03*
X0109724Y0156504D03*
X0107362Y0156504D03*
X0105000Y0156504D03*
X0102638Y0156504D03*
X0100276Y0156504D03*
X0097913Y0156504D03*
X0095551Y0156504D03*
X0093189Y0156504D03*
X0090827Y0156504D03*
X0088465Y0156504D03*
X0086102Y0156504D03*
X0083740Y0156504D03*
X0081378Y0156504D03*
X0079016Y0156504D03*
X0076654Y0156504D03*
X0074291Y0156504D03*
X0071929Y0156504D03*
X0069567Y0156504D03*
X0067205Y0156504D03*
X0064843Y0156504D03*
X0062480Y0156504D03*
X0060118Y0156504D03*
X0057756Y0156504D03*
X0055394Y0156504D03*
X0053031Y0156504D03*
X0050669Y0156504D03*
D13*
X0123031Y0083079D03*
X0128150Y0083079D03*
D14*
X0010906Y0037803D03*
X0010906Y0045677D03*
X0010906Y0053551D03*
X0010906Y0061425D03*
X0010906Y0069299D03*
X0010906Y0077173D03*
X0010906Y0085047D03*
X0010906Y0092921D03*
X0069961Y0092921D03*
X0069961Y0085047D03*
X0069961Y0077173D03*
X0069961Y0069299D03*
X0069961Y0061425D03*
X0069961Y0053551D03*
X0069961Y0045677D03*
X0069961Y0037803D03*
D15*
X0080197Y0049417D03*
X0080197Y0056898D03*
D16*
X0080197Y0063984D03*
X0080197Y0070677D03*
D17*
X0109646Y0035559D03*
X0105315Y0033984D03*
X0113976Y0033984D03*
X0118307Y0033197D03*
X0122638Y0033984D03*
X0126969Y0033197D03*
X0131299Y0033984D03*
X0135630Y0033984D03*
D18*
X0138740Y0024969D03*
X0086969Y0021031D03*
D19*
X0110000Y0076740D03*
X0132441Y0076740D03*
D20*
X0126969Y0077528D03*
M02*
