%
M48
M72
T01C0.0157
T02C0.0197
T03C0.0276
T04C0.0394
T05C0.0433
T06C0.1181
%
T01
X12559Y14253
X12315Y13706
X12311Y13229
X13295Y12875
X13768Y12914
X14161Y12560
X14555Y12127
X14201Y11851
X13531Y11654
X13094Y11650
X13689Y11143
X14673Y11143
X15933Y10709
X16406Y10513
X15972Y10080
X15736Y8702
X14909Y8387
X14280Y8308
X13768Y7599
X14388Y7471
X14374Y7024
X14988Y7363
X13638Y9312
X13969Y9698
X11850Y11650
X11409Y11654
X11169Y11182
X10972Y11654
X9358Y10552
X8768Y10631
X8528Y11300
X7390Y11969
X6917Y11930
X6917Y11457
X6130Y11418
X5657Y11024
X5106Y11497
X5697Y11930
X5106Y12639
X4634Y12757
X4634Y13229
X3768Y14607
X4850Y14607
X5343Y14450
X5835Y14607
X6327Y14450
X6819Y14607
X7311Y14450
X7803Y14607
X8295Y14450
X8787Y14607
X9280Y14450
X9772Y14607
X10177Y14434
X10555Y14662
X10933Y14442
X11366Y14532
X12350Y15473
X12803Y15788
X13315Y15906
X13728Y15040
X14201Y14765
X13846Y14450
X13807Y13985
X14693Y14430
X14909Y14017
X15224Y14509
X15756Y14627
X15874Y13977
X15854Y13465
X16287Y12835
X15382Y12442
X12528Y14942
X8098Y16261
X7213Y16261
X6327Y16261
X5343Y16261
X2862Y13662
X2547Y13977
X2232Y14292
X1917Y14607
X1602Y14292
X1287Y13977
X972Y13662
X3098Y11772
X1366Y11182
X2902Y9804
X4004Y8662
X3531Y8150
X4201Y7087
X3650Y6615
X3217Y5591
X3768Y5001
X3098Y4765
X2390Y4568
X1957Y3977
X1878Y3269
X3374Y2757
X5736Y4213
X6051Y3741
X6484Y2757
X7705Y3095
X8366Y2851
X8228Y3871
X8854Y3914
X9343Y4040
X8894Y4568
X10386Y5371
X10862Y5158
X11366Y5080
X11854Y4780
X11909Y5457
X11445Y6103
X11602Y6654
X12134Y6733
X12406Y6359
X12614Y7143
X11602Y7284
X11118Y7127
X11366Y8702
X9870Y9765
X9205Y9269
X9740Y8702
X8374Y8426
X8177Y8859
X7862Y9213
X8413Y9804
X6917Y8505
X8059Y7875
X8413Y7402
X9043Y7206
X5736Y7560
X5343Y8465
X5028Y8820
X4555Y9804
X5736Y6379
X5657Y5828
X9339Y1938
X9516Y1418
X10657Y2639
X11130Y2639
X11445Y1398
X12744Y1068
X14043Y1733
X14425Y2717
X14634Y3426
X15146Y3426
X15539Y3977
X14980Y4343
X15268Y4898
X15268Y5391
X14280Y4961
X13965Y4646
X14114Y3564
X776Y9292
T02
X15630Y6646
X15630Y6146
X15630Y5646
X15630Y5146
X15630Y4646
X16130Y4646
X16130Y5146
X16130Y5646
X16130Y6146
X16130Y6646
T03
X12862Y13938
T04
X4122Y13820
X12862Y13820
T05
X4122Y13938
T06
X1406Y1930
X1406Y16103
X15579Y16103
X15579Y1930
M30
