G75*
%MOIN*%
%OFA0B0*%
%FSLAX25Y25*%
%IPPOS*%
%LPD*%
%AMOC8*
5,1,8,0,0,1.08239X$1,22.5*
%
%ADD10R,0.03937X0.04331*%
%ADD11R,0.01378X0.09646*%
%ADD12R,0.03150X0.03150*%
%ADD13R,0.04331X0.03937*%
%ADD14R,0.02756X0.03543*%
%ADD15R,0.03543X0.02756*%
%ADD16R,0.01100X0.05800*%
%ADD17R,0.05512X0.04724*%
%ADD18R,0.00984X0.01575*%
%ADD19R,0.01575X0.00984*%
%ADD20R,0.05906X0.07480*%
%ADD21R,0.01575X0.05315*%
%ADD22C,0.05709*%
%ADD23C,0.00039*%
%ADD24R,0.01063X0.01772*%
%ADD25R,0.01772X0.01063*%
%ADD26R,0.05118X0.05906*%
%ADD27R,0.03543X0.03150*%
%ADD28R,0.02165X0.02362*%
D10*
X0023898Y0036425D03*
X0023898Y0043118D03*
X0031772Y0043118D03*
X0031772Y0036425D03*
X0044370Y0036425D03*
X0044370Y0043118D03*
X0051850Y0043118D03*
X0051850Y0036425D03*
X0071929Y0028551D03*
X0071929Y0021858D03*
X0083346Y0050598D03*
X0083346Y0057291D03*
D11*
X0083740Y0136524D03*
X0081378Y0136524D03*
X0079016Y0136524D03*
X0076654Y0136524D03*
X0074291Y0136524D03*
X0071929Y0136524D03*
X0069567Y0136524D03*
X0067205Y0136524D03*
X0064843Y0136524D03*
X0062480Y0136524D03*
X0060118Y0136524D03*
X0057756Y0136524D03*
X0055394Y0136524D03*
X0053031Y0136524D03*
X0050669Y0136524D03*
X0050669Y0154043D03*
X0053031Y0154043D03*
X0055394Y0154043D03*
X0057756Y0154043D03*
X0060118Y0154043D03*
X0062480Y0154043D03*
X0064843Y0154043D03*
X0067205Y0154043D03*
X0069567Y0154043D03*
X0071929Y0154043D03*
X0074291Y0154043D03*
X0076654Y0154043D03*
X0079016Y0154043D03*
X0081378Y0154043D03*
X0083740Y0154043D03*
X0086102Y0154043D03*
X0088465Y0154043D03*
X0090827Y0154043D03*
X0093189Y0154043D03*
X0095551Y0154043D03*
X0097913Y0154043D03*
X0100276Y0154043D03*
X0102638Y0154043D03*
X0105000Y0154043D03*
X0107362Y0154043D03*
X0109724Y0154043D03*
X0112087Y0154043D03*
X0114449Y0154043D03*
X0116811Y0154043D03*
X0119173Y0154043D03*
X0119173Y0136524D03*
X0116811Y0136524D03*
X0114449Y0136524D03*
X0112087Y0136524D03*
X0109724Y0136524D03*
X0107362Y0136524D03*
X0105000Y0136524D03*
X0102638Y0136524D03*
X0100276Y0136524D03*
X0097913Y0136524D03*
X0095551Y0136524D03*
X0093189Y0136524D03*
X0090827Y0136524D03*
X0088465Y0136524D03*
X0086102Y0136524D03*
D12*
X0029016Y0010835D03*
X0029016Y0016740D03*
X0029016Y0020677D03*
X0029016Y0026583D03*
X0071535Y0016740D03*
X0071535Y0010835D03*
D13*
X0102835Y0020874D03*
X0109528Y0020874D03*
X0048110Y0092134D03*
X0041417Y0092134D03*
D14*
X0043780Y0085835D03*
X0048898Y0085835D03*
X0117402Y0017724D03*
X0117402Y0013394D03*
X0122520Y0013394D03*
X0122520Y0017724D03*
D15*
X0131772Y0020677D03*
X0131772Y0025795D03*
X0136890Y0030520D03*
X0136890Y0035638D03*
X0131457Y0038000D03*
X0126772Y0038000D03*
X0122008Y0038000D03*
X0122008Y0043118D03*
X0126772Y0043118D03*
X0131457Y0032882D03*
X0123465Y0053984D03*
X0123465Y0059102D03*
X0142795Y0060441D03*
X0142795Y0055323D03*
X0157362Y0090362D03*
X0162087Y0090362D03*
X0162087Y0095480D03*
X0157362Y0095480D03*
X0097126Y0034063D03*
X0097126Y0028945D03*
X0093976Y0051386D03*
X0089646Y0051386D03*
X0089646Y0056504D03*
X0093976Y0056504D03*
X0077047Y0056504D03*
X0077047Y0051386D03*
X0069961Y0051386D03*
X0069961Y0056504D03*
X0051850Y0075008D03*
X0047520Y0075008D03*
X0047520Y0080126D03*
X0051850Y0080126D03*
X0043189Y0080126D03*
X0043189Y0075008D03*
X0037677Y0042331D03*
X0037677Y0037213D03*
D16*
G36*
X0070815Y0068352D02*
X0070037Y0069130D01*
X0074137Y0073230D01*
X0074915Y0072452D01*
X0070815Y0068352D01*
G37*
G36*
X0072229Y0066937D02*
X0071451Y0067715D01*
X0075551Y0071815D01*
X0076329Y0071037D01*
X0072229Y0066937D01*
G37*
G36*
X0073644Y0065523D02*
X0072866Y0066301D01*
X0076966Y0070401D01*
X0077744Y0069623D01*
X0073644Y0065523D01*
G37*
G36*
X0074987Y0064180D02*
X0074209Y0064958D01*
X0078309Y0069058D01*
X0079087Y0068280D01*
X0074987Y0064180D01*
G37*
G36*
X0076401Y0062765D02*
X0075623Y0063543D01*
X0079723Y0067643D01*
X0080501Y0066865D01*
X0076401Y0062765D01*
G37*
G36*
X0077816Y0061351D02*
X0077038Y0062129D01*
X0081138Y0066229D01*
X0081916Y0065451D01*
X0077816Y0061351D01*
G37*
G36*
X0069472Y0069695D02*
X0068694Y0070473D01*
X0072794Y0074573D01*
X0073572Y0073795D01*
X0069472Y0069695D01*
G37*
G36*
X0068057Y0071109D02*
X0067279Y0071887D01*
X0071379Y0075987D01*
X0072157Y0075209D01*
X0068057Y0071109D01*
G37*
G36*
X0066643Y0072524D02*
X0065865Y0073302D01*
X0069965Y0077402D01*
X0070743Y0076624D01*
X0066643Y0072524D01*
G37*
G36*
X0065229Y0073938D02*
X0064451Y0074716D01*
X0068551Y0078816D01*
X0069329Y0078038D01*
X0065229Y0073938D01*
G37*
G36*
X0063886Y0075281D02*
X0063108Y0076059D01*
X0067208Y0080159D01*
X0067986Y0079381D01*
X0063886Y0075281D01*
G37*
G36*
X0062471Y0076695D02*
X0061693Y0077473D01*
X0065793Y0081573D01*
X0066571Y0080795D01*
X0062471Y0076695D01*
G37*
G36*
X0061057Y0078110D02*
X0060279Y0078888D01*
X0064379Y0082988D01*
X0065157Y0082210D01*
X0061057Y0078110D01*
G37*
G36*
X0059714Y0079453D02*
X0058936Y0080231D01*
X0063036Y0084331D01*
X0063814Y0083553D01*
X0059714Y0079453D01*
G37*
G36*
X0058299Y0080867D02*
X0057521Y0081645D01*
X0061621Y0085745D01*
X0062399Y0084967D01*
X0058299Y0080867D01*
G37*
G36*
X0056885Y0082282D02*
X0056107Y0083060D01*
X0060207Y0087160D01*
X0060985Y0086382D01*
X0056885Y0082282D01*
G37*
G36*
X0056107Y0097271D02*
X0056885Y0098049D01*
X0060985Y0093949D01*
X0060207Y0093171D01*
X0056107Y0097271D01*
G37*
G36*
X0057521Y0098685D02*
X0058299Y0099463D01*
X0062399Y0095363D01*
X0061621Y0094585D01*
X0057521Y0098685D01*
G37*
G36*
X0058936Y0100099D02*
X0059714Y0100877D01*
X0063814Y0096777D01*
X0063036Y0095999D01*
X0058936Y0100099D01*
G37*
G36*
X0060279Y0101443D02*
X0061057Y0102221D01*
X0065157Y0098121D01*
X0064379Y0097343D01*
X0060279Y0101443D01*
G37*
G36*
X0061693Y0102857D02*
X0062471Y0103635D01*
X0066571Y0099535D01*
X0065793Y0098757D01*
X0061693Y0102857D01*
G37*
G36*
X0063108Y0104271D02*
X0063886Y0105049D01*
X0067986Y0100949D01*
X0067208Y0100171D01*
X0063108Y0104271D01*
G37*
G36*
X0064451Y0105615D02*
X0065229Y0106393D01*
X0069329Y0102293D01*
X0068551Y0101515D01*
X0064451Y0105615D01*
G37*
G36*
X0065865Y0107029D02*
X0066643Y0107807D01*
X0070743Y0103707D01*
X0069965Y0102929D01*
X0065865Y0107029D01*
G37*
G36*
X0067279Y0108443D02*
X0068057Y0109221D01*
X0072157Y0105121D01*
X0071379Y0104343D01*
X0067279Y0108443D01*
G37*
G36*
X0068694Y0109858D02*
X0069472Y0110636D01*
X0073572Y0106536D01*
X0072794Y0105758D01*
X0068694Y0109858D01*
G37*
G36*
X0070037Y0111201D02*
X0070815Y0111979D01*
X0074915Y0107879D01*
X0074137Y0107101D01*
X0070037Y0111201D01*
G37*
G36*
X0071451Y0112615D02*
X0072229Y0113393D01*
X0076329Y0109293D01*
X0075551Y0108515D01*
X0071451Y0112615D01*
G37*
G36*
X0072866Y0114030D02*
X0073644Y0114808D01*
X0077744Y0110708D01*
X0076966Y0109930D01*
X0072866Y0114030D01*
G37*
G36*
X0074209Y0115373D02*
X0074987Y0116151D01*
X0079087Y0112051D01*
X0078309Y0111273D01*
X0074209Y0115373D01*
G37*
G36*
X0075623Y0116787D02*
X0076401Y0117565D01*
X0080501Y0113465D01*
X0079723Y0112687D01*
X0075623Y0116787D01*
G37*
G36*
X0077038Y0118201D02*
X0077816Y0118979D01*
X0081916Y0114879D01*
X0081138Y0114101D01*
X0077038Y0118201D01*
G37*
G36*
X0088705Y0114101D02*
X0087927Y0114879D01*
X0092027Y0118979D01*
X0092805Y0118201D01*
X0088705Y0114101D01*
G37*
G36*
X0090119Y0112687D02*
X0089341Y0113465D01*
X0093441Y0117565D01*
X0094219Y0116787D01*
X0090119Y0112687D01*
G37*
G36*
X0091533Y0111273D02*
X0090755Y0112051D01*
X0094855Y0116151D01*
X0095633Y0115373D01*
X0091533Y0111273D01*
G37*
G36*
X0092877Y0109930D02*
X0092099Y0110708D01*
X0096199Y0114808D01*
X0096977Y0114030D01*
X0092877Y0109930D01*
G37*
G36*
X0094291Y0108515D02*
X0093513Y0109293D01*
X0097613Y0113393D01*
X0098391Y0112615D01*
X0094291Y0108515D01*
G37*
G36*
X0095705Y0107101D02*
X0094927Y0107879D01*
X0099027Y0111979D01*
X0099805Y0111201D01*
X0095705Y0107101D01*
G37*
G36*
X0097049Y0105758D02*
X0096271Y0106536D01*
X0100371Y0110636D01*
X0101149Y0109858D01*
X0097049Y0105758D01*
G37*
G36*
X0098463Y0104343D02*
X0097685Y0105121D01*
X0101785Y0109221D01*
X0102563Y0108443D01*
X0098463Y0104343D01*
G37*
G36*
X0099877Y0102929D02*
X0099099Y0103707D01*
X0103199Y0107807D01*
X0103977Y0107029D01*
X0099877Y0102929D01*
G37*
G36*
X0101291Y0101515D02*
X0100513Y0102293D01*
X0104613Y0106393D01*
X0105391Y0105615D01*
X0101291Y0101515D01*
G37*
G36*
X0102635Y0100171D02*
X0101857Y0100949D01*
X0105957Y0105049D01*
X0106735Y0104271D01*
X0102635Y0100171D01*
G37*
G36*
X0104049Y0098757D02*
X0103271Y0099535D01*
X0107371Y0103635D01*
X0108149Y0102857D01*
X0104049Y0098757D01*
G37*
G36*
X0105463Y0097343D02*
X0104685Y0098121D01*
X0108785Y0102221D01*
X0109563Y0101443D01*
X0105463Y0097343D01*
G37*
G36*
X0106807Y0095999D02*
X0106029Y0096777D01*
X0110129Y0100877D01*
X0110907Y0100099D01*
X0106807Y0095999D01*
G37*
G36*
X0108221Y0094585D02*
X0107443Y0095363D01*
X0111543Y0099463D01*
X0112321Y0098685D01*
X0108221Y0094585D01*
G37*
G36*
X0109635Y0093171D02*
X0108857Y0093949D01*
X0112957Y0098049D01*
X0113735Y0097271D01*
X0109635Y0093171D01*
G37*
G36*
X0108857Y0086382D02*
X0109635Y0087160D01*
X0113735Y0083060D01*
X0112957Y0082282D01*
X0108857Y0086382D01*
G37*
G36*
X0107443Y0084967D02*
X0108221Y0085745D01*
X0112321Y0081645D01*
X0111543Y0080867D01*
X0107443Y0084967D01*
G37*
G36*
X0106029Y0083553D02*
X0106807Y0084331D01*
X0110907Y0080231D01*
X0110129Y0079453D01*
X0106029Y0083553D01*
G37*
G36*
X0104685Y0082210D02*
X0105463Y0082988D01*
X0109563Y0078888D01*
X0108785Y0078110D01*
X0104685Y0082210D01*
G37*
G36*
X0103271Y0080795D02*
X0104049Y0081573D01*
X0108149Y0077473D01*
X0107371Y0076695D01*
X0103271Y0080795D01*
G37*
G36*
X0101857Y0079381D02*
X0102635Y0080159D01*
X0106735Y0076059D01*
X0105957Y0075281D01*
X0101857Y0079381D01*
G37*
G36*
X0100513Y0078038D02*
X0101291Y0078816D01*
X0105391Y0074716D01*
X0104613Y0073938D01*
X0100513Y0078038D01*
G37*
G36*
X0099099Y0076624D02*
X0099877Y0077402D01*
X0103977Y0073302D01*
X0103199Y0072524D01*
X0099099Y0076624D01*
G37*
G36*
X0097685Y0075209D02*
X0098463Y0075987D01*
X0102563Y0071887D01*
X0101785Y0071109D01*
X0097685Y0075209D01*
G37*
G36*
X0096271Y0073795D02*
X0097049Y0074573D01*
X0101149Y0070473D01*
X0100371Y0069695D01*
X0096271Y0073795D01*
G37*
G36*
X0094927Y0072452D02*
X0095705Y0073230D01*
X0099805Y0069130D01*
X0099027Y0068352D01*
X0094927Y0072452D01*
G37*
G36*
X0093513Y0071037D02*
X0094291Y0071815D01*
X0098391Y0067715D01*
X0097613Y0066937D01*
X0093513Y0071037D01*
G37*
G36*
X0092099Y0069623D02*
X0092877Y0070401D01*
X0096977Y0066301D01*
X0096199Y0065523D01*
X0092099Y0069623D01*
G37*
G36*
X0090755Y0068280D02*
X0091533Y0069058D01*
X0095633Y0064958D01*
X0094855Y0064180D01*
X0090755Y0068280D01*
G37*
G36*
X0089341Y0066865D02*
X0090119Y0067643D01*
X0094219Y0063543D01*
X0093441Y0062765D01*
X0089341Y0066865D01*
G37*
G36*
X0087927Y0065451D02*
X0088705Y0066229D01*
X0092805Y0062129D01*
X0092027Y0061351D01*
X0087927Y0065451D01*
G37*
D17*
X0121220Y0090205D03*
X0121220Y0096504D03*
X0129882Y0096504D03*
X0129882Y0090205D03*
D18*
X0130000Y0066150D03*
X0131969Y0066150D03*
X0133937Y0066150D03*
X0135906Y0066150D03*
X0135906Y0055126D03*
X0133937Y0055126D03*
X0131969Y0055126D03*
X0130000Y0055126D03*
D19*
X0127441Y0057685D03*
X0127441Y0059654D03*
X0127441Y0061622D03*
X0127441Y0063591D03*
X0138465Y0063591D03*
X0138465Y0061622D03*
X0138465Y0059654D03*
X0138465Y0057685D03*
D20*
X0053425Y0015756D03*
X0045551Y0015756D03*
D21*
X0044370Y0026386D03*
X0046929Y0026386D03*
X0049488Y0026386D03*
X0052047Y0026386D03*
X0054606Y0026386D03*
D22*
X0059331Y0026386D03*
X0039646Y0026386D03*
D23*
X0040433Y0019496D02*
X0034528Y0019496D01*
X0034265Y0019466D01*
X0034015Y0019379D01*
X0033791Y0019238D01*
X0033604Y0019051D01*
X0033463Y0018827D01*
X0033376Y0018578D01*
X0033346Y0018315D01*
X0033346Y0013197D01*
X0033376Y0012934D01*
X0033463Y0012684D01*
X0033604Y0012460D01*
X0033791Y0012273D01*
X0034015Y0012133D01*
X0034265Y0012045D01*
X0034528Y0012016D01*
X0040433Y0012016D01*
X0040433Y0019496D01*
X0040433Y0019459D02*
X0034243Y0019459D01*
X0034134Y0019421D02*
X0040433Y0019421D01*
X0040433Y0019383D02*
X0034026Y0019383D01*
X0033961Y0019345D02*
X0040433Y0019345D01*
X0040433Y0019307D02*
X0033901Y0019307D01*
X0033840Y0019269D02*
X0040433Y0019269D01*
X0040433Y0019231D02*
X0033784Y0019231D01*
X0033746Y0019194D02*
X0040433Y0019194D01*
X0040433Y0019156D02*
X0033708Y0019156D01*
X0033671Y0019118D02*
X0040433Y0019118D01*
X0040433Y0019080D02*
X0033633Y0019080D01*
X0033598Y0019042D02*
X0040433Y0019042D01*
X0040433Y0019004D02*
X0033574Y0019004D01*
X0033551Y0018966D02*
X0040433Y0018966D01*
X0040433Y0018928D02*
X0033527Y0018928D01*
X0033503Y0018890D02*
X0040433Y0018890D01*
X0040433Y0018853D02*
X0033479Y0018853D01*
X0033459Y0018815D02*
X0040433Y0018815D01*
X0040433Y0018777D02*
X0033446Y0018777D01*
X0033432Y0018739D02*
X0040433Y0018739D01*
X0040433Y0018701D02*
X0033419Y0018701D01*
X0033406Y0018663D02*
X0040433Y0018663D01*
X0040433Y0018625D02*
X0033393Y0018625D01*
X0033379Y0018587D02*
X0040433Y0018587D01*
X0040433Y0018550D02*
X0033373Y0018550D01*
X0033369Y0018512D02*
X0040433Y0018512D01*
X0040433Y0018474D02*
X0033364Y0018474D01*
X0033360Y0018436D02*
X0040433Y0018436D01*
X0040433Y0018398D02*
X0033356Y0018398D01*
X0033352Y0018360D02*
X0040433Y0018360D01*
X0040433Y0018322D02*
X0033347Y0018322D01*
X0033346Y0018284D02*
X0040433Y0018284D01*
X0040433Y0018247D02*
X0033346Y0018247D01*
X0033346Y0018209D02*
X0040433Y0018209D01*
X0040433Y0018171D02*
X0033346Y0018171D01*
X0033346Y0018133D02*
X0040433Y0018133D01*
X0040433Y0018095D02*
X0033346Y0018095D01*
X0033346Y0018057D02*
X0040433Y0018057D01*
X0040433Y0018019D02*
X0033346Y0018019D01*
X0033346Y0017981D02*
X0040433Y0017981D01*
X0040433Y0017943D02*
X0033346Y0017943D01*
X0033346Y0017906D02*
X0040433Y0017906D01*
X0040433Y0017868D02*
X0033346Y0017868D01*
X0033346Y0017830D02*
X0040433Y0017830D01*
X0040433Y0017792D02*
X0033346Y0017792D01*
X0033346Y0017754D02*
X0040433Y0017754D01*
X0040433Y0017716D02*
X0033346Y0017716D01*
X0033346Y0017678D02*
X0040433Y0017678D01*
X0040433Y0017640D02*
X0033346Y0017640D01*
X0033346Y0017603D02*
X0040433Y0017603D01*
X0040433Y0017565D02*
X0033346Y0017565D01*
X0033346Y0017527D02*
X0040433Y0017527D01*
X0040433Y0017489D02*
X0033346Y0017489D01*
X0033346Y0017451D02*
X0040433Y0017451D01*
X0040433Y0017413D02*
X0033346Y0017413D01*
X0033346Y0017375D02*
X0040433Y0017375D01*
X0040433Y0017337D02*
X0033346Y0017337D01*
X0033346Y0017299D02*
X0040433Y0017299D01*
X0040433Y0017262D02*
X0033346Y0017262D01*
X0033346Y0017224D02*
X0040433Y0017224D01*
X0040433Y0017186D02*
X0033346Y0017186D01*
X0033346Y0017148D02*
X0040433Y0017148D01*
X0040433Y0017110D02*
X0033346Y0017110D01*
X0033346Y0017072D02*
X0040433Y0017072D01*
X0040433Y0017034D02*
X0033346Y0017034D01*
X0033346Y0016996D02*
X0040433Y0016996D01*
X0040433Y0016959D02*
X0033346Y0016959D01*
X0033346Y0016921D02*
X0040433Y0016921D01*
X0040433Y0016883D02*
X0033346Y0016883D01*
X0033346Y0016845D02*
X0040433Y0016845D01*
X0040433Y0016807D02*
X0033346Y0016807D01*
X0033346Y0016769D02*
X0040433Y0016769D01*
X0040433Y0016731D02*
X0033346Y0016731D01*
X0033346Y0016693D02*
X0040433Y0016693D01*
X0040433Y0016655D02*
X0033346Y0016655D01*
X0033346Y0016618D02*
X0040433Y0016618D01*
X0040433Y0016580D02*
X0033346Y0016580D01*
X0033346Y0016542D02*
X0040433Y0016542D01*
X0040433Y0016504D02*
X0033346Y0016504D01*
X0033346Y0016466D02*
X0040433Y0016466D01*
X0040433Y0016428D02*
X0033346Y0016428D01*
X0033346Y0016390D02*
X0040433Y0016390D01*
X0040433Y0016352D02*
X0033346Y0016352D01*
X0033346Y0016315D02*
X0040433Y0016315D01*
X0040433Y0016277D02*
X0033346Y0016277D01*
X0033346Y0016239D02*
X0040433Y0016239D01*
X0040433Y0016201D02*
X0033346Y0016201D01*
X0033346Y0016163D02*
X0040433Y0016163D01*
X0040433Y0016125D02*
X0033346Y0016125D01*
X0033346Y0016087D02*
X0040433Y0016087D01*
X0040433Y0016049D02*
X0033346Y0016049D01*
X0033346Y0016012D02*
X0040433Y0016012D01*
X0040433Y0015974D02*
X0033346Y0015974D01*
X0033346Y0015936D02*
X0040433Y0015936D01*
X0040433Y0015898D02*
X0033346Y0015898D01*
X0033346Y0015860D02*
X0040433Y0015860D01*
X0040433Y0015822D02*
X0033346Y0015822D01*
X0033346Y0015784D02*
X0040433Y0015784D01*
X0040433Y0015746D02*
X0033346Y0015746D01*
X0033346Y0015708D02*
X0040433Y0015708D01*
X0040433Y0015671D02*
X0033346Y0015671D01*
X0033346Y0015633D02*
X0040433Y0015633D01*
X0040433Y0015595D02*
X0033346Y0015595D01*
X0033346Y0015557D02*
X0040433Y0015557D01*
X0040433Y0015519D02*
X0033346Y0015519D01*
X0033346Y0015481D02*
X0040433Y0015481D01*
X0040433Y0015443D02*
X0033346Y0015443D01*
X0033346Y0015405D02*
X0040433Y0015405D01*
X0040433Y0015368D02*
X0033346Y0015368D01*
X0033346Y0015330D02*
X0040433Y0015330D01*
X0040433Y0015292D02*
X0033346Y0015292D01*
X0033346Y0015254D02*
X0040433Y0015254D01*
X0040433Y0015216D02*
X0033346Y0015216D01*
X0033346Y0015178D02*
X0040433Y0015178D01*
X0040433Y0015140D02*
X0033346Y0015140D01*
X0033346Y0015102D02*
X0040433Y0015102D01*
X0040433Y0015064D02*
X0033346Y0015064D01*
X0033346Y0015027D02*
X0040433Y0015027D01*
X0040433Y0014989D02*
X0033346Y0014989D01*
X0033346Y0014951D02*
X0040433Y0014951D01*
X0040433Y0014913D02*
X0033346Y0014913D01*
X0033346Y0014875D02*
X0040433Y0014875D01*
X0040433Y0014837D02*
X0033346Y0014837D01*
X0033346Y0014799D02*
X0040433Y0014799D01*
X0040433Y0014761D02*
X0033346Y0014761D01*
X0033346Y0014724D02*
X0040433Y0014724D01*
X0040433Y0014686D02*
X0033346Y0014686D01*
X0033346Y0014648D02*
X0040433Y0014648D01*
X0040433Y0014610D02*
X0033346Y0014610D01*
X0033346Y0014572D02*
X0040433Y0014572D01*
X0040433Y0014534D02*
X0033346Y0014534D01*
X0033346Y0014496D02*
X0040433Y0014496D01*
X0040433Y0014458D02*
X0033346Y0014458D01*
X0033346Y0014420D02*
X0040433Y0014420D01*
X0040433Y0014383D02*
X0033346Y0014383D01*
X0033346Y0014345D02*
X0040433Y0014345D01*
X0040433Y0014307D02*
X0033346Y0014307D01*
X0033346Y0014269D02*
X0040433Y0014269D01*
X0040433Y0014231D02*
X0033346Y0014231D01*
X0033346Y0014193D02*
X0040433Y0014193D01*
X0040433Y0014155D02*
X0033346Y0014155D01*
X0033346Y0014117D02*
X0040433Y0014117D01*
X0040433Y0014080D02*
X0033346Y0014080D01*
X0033346Y0014042D02*
X0040433Y0014042D01*
X0040433Y0014004D02*
X0033346Y0014004D01*
X0033346Y0013966D02*
X0040433Y0013966D01*
X0040433Y0013928D02*
X0033346Y0013928D01*
X0033346Y0013890D02*
X0040433Y0013890D01*
X0040433Y0013852D02*
X0033346Y0013852D01*
X0033346Y0013814D02*
X0040433Y0013814D01*
X0040433Y0013777D02*
X0033346Y0013777D01*
X0033346Y0013739D02*
X0040433Y0013739D01*
X0040433Y0013701D02*
X0033346Y0013701D01*
X0033346Y0013663D02*
X0040433Y0013663D01*
X0040433Y0013625D02*
X0033346Y0013625D01*
X0033346Y0013587D02*
X0040433Y0013587D01*
X0040433Y0013549D02*
X0033346Y0013549D01*
X0033346Y0013511D02*
X0040433Y0013511D01*
X0040433Y0013473D02*
X0033346Y0013473D01*
X0033346Y0013436D02*
X0040433Y0013436D01*
X0040433Y0013398D02*
X0033346Y0013398D01*
X0033346Y0013360D02*
X0040433Y0013360D01*
X0040433Y0013322D02*
X0033346Y0013322D01*
X0033346Y0013284D02*
X0040433Y0013284D01*
X0040433Y0013246D02*
X0033346Y0013246D01*
X0033346Y0013208D02*
X0040433Y0013208D01*
X0040433Y0013170D02*
X0033349Y0013170D01*
X0033354Y0013133D02*
X0040433Y0013133D01*
X0040433Y0013095D02*
X0033358Y0013095D01*
X0033362Y0013057D02*
X0040433Y0013057D01*
X0040433Y0013019D02*
X0033366Y0013019D01*
X0033371Y0012981D02*
X0040433Y0012981D01*
X0040433Y0012943D02*
X0033375Y0012943D01*
X0033386Y0012905D02*
X0040433Y0012905D01*
X0040433Y0012867D02*
X0033399Y0012867D01*
X0033413Y0012829D02*
X0040433Y0012829D01*
X0040433Y0012792D02*
X0033426Y0012792D01*
X0033439Y0012754D02*
X0040433Y0012754D01*
X0040433Y0012716D02*
X0033452Y0012716D01*
X0033467Y0012678D02*
X0040433Y0012678D01*
X0040433Y0012640D02*
X0033491Y0012640D01*
X0033515Y0012602D02*
X0040433Y0012602D01*
X0040433Y0012564D02*
X0033539Y0012564D01*
X0033563Y0012526D02*
X0040433Y0012526D01*
X0040433Y0012489D02*
X0033586Y0012489D01*
X0033614Y0012451D02*
X0040433Y0012451D01*
X0040433Y0012413D02*
X0033652Y0012413D01*
X0033690Y0012375D02*
X0040433Y0012375D01*
X0040433Y0012337D02*
X0033728Y0012337D01*
X0033765Y0012299D02*
X0040433Y0012299D01*
X0040433Y0012261D02*
X0033811Y0012261D01*
X0033871Y0012223D02*
X0040433Y0012223D01*
X0040433Y0012185D02*
X0033931Y0012185D01*
X0033991Y0012148D02*
X0040433Y0012148D01*
X0040433Y0012110D02*
X0034081Y0012110D01*
X0034189Y0012072D02*
X0040433Y0012072D01*
X0040433Y0012034D02*
X0034366Y0012034D01*
X0058543Y0012034D02*
X0064610Y0012034D01*
X0064712Y0012045D02*
X0064961Y0012133D01*
X0065185Y0012273D01*
X0065372Y0012460D01*
X0065513Y0012684D01*
X0065600Y0012934D01*
X0065630Y0013197D01*
X0065630Y0018315D01*
X0065600Y0018578D01*
X0065513Y0018827D01*
X0065372Y0019051D01*
X0065185Y0019238D01*
X0064961Y0019379D01*
X0064712Y0019466D01*
X0064449Y0019496D01*
X0058543Y0019496D01*
X0058543Y0012016D01*
X0064449Y0012016D01*
X0064712Y0012045D01*
X0064787Y0012072D02*
X0058543Y0012072D01*
X0058543Y0012110D02*
X0064896Y0012110D01*
X0064985Y0012148D02*
X0058543Y0012148D01*
X0058543Y0012185D02*
X0065045Y0012185D01*
X0065106Y0012223D02*
X0058543Y0012223D01*
X0058543Y0012261D02*
X0065166Y0012261D01*
X0065211Y0012299D02*
X0058543Y0012299D01*
X0058543Y0012337D02*
X0065249Y0012337D01*
X0065287Y0012375D02*
X0058543Y0012375D01*
X0058543Y0012413D02*
X0065325Y0012413D01*
X0065362Y0012451D02*
X0058543Y0012451D01*
X0058543Y0012489D02*
X0065390Y0012489D01*
X0065414Y0012526D02*
X0058543Y0012526D01*
X0058543Y0012564D02*
X0065437Y0012564D01*
X0065461Y0012602D02*
X0058543Y0012602D01*
X0058543Y0012640D02*
X0065485Y0012640D01*
X0065509Y0012678D02*
X0058543Y0012678D01*
X0058543Y0012716D02*
X0065524Y0012716D01*
X0065537Y0012754D02*
X0058543Y0012754D01*
X0058543Y0012792D02*
X0065550Y0012792D01*
X0065564Y0012829D02*
X0058543Y0012829D01*
X0058543Y0012867D02*
X0065577Y0012867D01*
X0065590Y0012905D02*
X0058543Y0012905D01*
X0058543Y0012943D02*
X0065601Y0012943D01*
X0065606Y0012981D02*
X0058543Y0012981D01*
X0058543Y0013019D02*
X0065610Y0013019D01*
X0065614Y0013057D02*
X0058543Y0013057D01*
X0058543Y0013095D02*
X0065618Y0013095D01*
X0065623Y0013133D02*
X0058543Y0013133D01*
X0058543Y0013170D02*
X0065627Y0013170D01*
X0065630Y0013208D02*
X0058543Y0013208D01*
X0058543Y0013246D02*
X0065630Y0013246D01*
X0065630Y0013284D02*
X0058543Y0013284D01*
X0058543Y0013322D02*
X0065630Y0013322D01*
X0065630Y0013360D02*
X0058543Y0013360D01*
X0058543Y0013398D02*
X0065630Y0013398D01*
X0065630Y0013436D02*
X0058543Y0013436D01*
X0058543Y0013473D02*
X0065630Y0013473D01*
X0065630Y0013511D02*
X0058543Y0013511D01*
X0058543Y0013549D02*
X0065630Y0013549D01*
X0065630Y0013587D02*
X0058543Y0013587D01*
X0058543Y0013625D02*
X0065630Y0013625D01*
X0065630Y0013663D02*
X0058543Y0013663D01*
X0058543Y0013701D02*
X0065630Y0013701D01*
X0065630Y0013739D02*
X0058543Y0013739D01*
X0058543Y0013777D02*
X0065630Y0013777D01*
X0065630Y0013814D02*
X0058543Y0013814D01*
X0058543Y0013852D02*
X0065630Y0013852D01*
X0065630Y0013890D02*
X0058543Y0013890D01*
X0058543Y0013928D02*
X0065630Y0013928D01*
X0065630Y0013966D02*
X0058543Y0013966D01*
X0058543Y0014004D02*
X0065630Y0014004D01*
X0065630Y0014042D02*
X0058543Y0014042D01*
X0058543Y0014080D02*
X0065630Y0014080D01*
X0065630Y0014117D02*
X0058543Y0014117D01*
X0058543Y0014155D02*
X0065630Y0014155D01*
X0065630Y0014193D02*
X0058543Y0014193D01*
X0058543Y0014231D02*
X0065630Y0014231D01*
X0065630Y0014269D02*
X0058543Y0014269D01*
X0058543Y0014307D02*
X0065630Y0014307D01*
X0065630Y0014345D02*
X0058543Y0014345D01*
X0058543Y0014383D02*
X0065630Y0014383D01*
X0065630Y0014420D02*
X0058543Y0014420D01*
X0058543Y0014458D02*
X0065630Y0014458D01*
X0065630Y0014496D02*
X0058543Y0014496D01*
X0058543Y0014534D02*
X0065630Y0014534D01*
X0065630Y0014572D02*
X0058543Y0014572D01*
X0058543Y0014610D02*
X0065630Y0014610D01*
X0065630Y0014648D02*
X0058543Y0014648D01*
X0058543Y0014686D02*
X0065630Y0014686D01*
X0065630Y0014724D02*
X0058543Y0014724D01*
X0058543Y0014761D02*
X0065630Y0014761D01*
X0065630Y0014799D02*
X0058543Y0014799D01*
X0058543Y0014837D02*
X0065630Y0014837D01*
X0065630Y0014875D02*
X0058543Y0014875D01*
X0058543Y0014913D02*
X0065630Y0014913D01*
X0065630Y0014951D02*
X0058543Y0014951D01*
X0058543Y0014989D02*
X0065630Y0014989D01*
X0065630Y0015027D02*
X0058543Y0015027D01*
X0058543Y0015064D02*
X0065630Y0015064D01*
X0065630Y0015102D02*
X0058543Y0015102D01*
X0058543Y0015140D02*
X0065630Y0015140D01*
X0065630Y0015178D02*
X0058543Y0015178D01*
X0058543Y0015216D02*
X0065630Y0015216D01*
X0065630Y0015254D02*
X0058543Y0015254D01*
X0058543Y0015292D02*
X0065630Y0015292D01*
X0065630Y0015330D02*
X0058543Y0015330D01*
X0058543Y0015368D02*
X0065630Y0015368D01*
X0065630Y0015405D02*
X0058543Y0015405D01*
X0058543Y0015443D02*
X0065630Y0015443D01*
X0065630Y0015481D02*
X0058543Y0015481D01*
X0058543Y0015519D02*
X0065630Y0015519D01*
X0065630Y0015557D02*
X0058543Y0015557D01*
X0058543Y0015595D02*
X0065630Y0015595D01*
X0065630Y0015633D02*
X0058543Y0015633D01*
X0058543Y0015671D02*
X0065630Y0015671D01*
X0065630Y0015708D02*
X0058543Y0015708D01*
X0058543Y0015746D02*
X0065630Y0015746D01*
X0065630Y0015784D02*
X0058543Y0015784D01*
X0058543Y0015822D02*
X0065630Y0015822D01*
X0065630Y0015860D02*
X0058543Y0015860D01*
X0058543Y0015898D02*
X0065630Y0015898D01*
X0065630Y0015936D02*
X0058543Y0015936D01*
X0058543Y0015974D02*
X0065630Y0015974D01*
X0065630Y0016012D02*
X0058543Y0016012D01*
X0058543Y0016049D02*
X0065630Y0016049D01*
X0065630Y0016087D02*
X0058543Y0016087D01*
X0058543Y0016125D02*
X0065630Y0016125D01*
X0065630Y0016163D02*
X0058543Y0016163D01*
X0058543Y0016201D02*
X0065630Y0016201D01*
X0065630Y0016239D02*
X0058543Y0016239D01*
X0058543Y0016277D02*
X0065630Y0016277D01*
X0065630Y0016315D02*
X0058543Y0016315D01*
X0058543Y0016352D02*
X0065630Y0016352D01*
X0065630Y0016390D02*
X0058543Y0016390D01*
X0058543Y0016428D02*
X0065630Y0016428D01*
X0065630Y0016466D02*
X0058543Y0016466D01*
X0058543Y0016504D02*
X0065630Y0016504D01*
X0065630Y0016542D02*
X0058543Y0016542D01*
X0058543Y0016580D02*
X0065630Y0016580D01*
X0065630Y0016618D02*
X0058543Y0016618D01*
X0058543Y0016655D02*
X0065630Y0016655D01*
X0065630Y0016693D02*
X0058543Y0016693D01*
X0058543Y0016731D02*
X0065630Y0016731D01*
X0065630Y0016769D02*
X0058543Y0016769D01*
X0058543Y0016807D02*
X0065630Y0016807D01*
X0065630Y0016845D02*
X0058543Y0016845D01*
X0058543Y0016883D02*
X0065630Y0016883D01*
X0065630Y0016921D02*
X0058543Y0016921D01*
X0058543Y0016959D02*
X0065630Y0016959D01*
X0065630Y0016996D02*
X0058543Y0016996D01*
X0058543Y0017034D02*
X0065630Y0017034D01*
X0065630Y0017072D02*
X0058543Y0017072D01*
X0058543Y0017110D02*
X0065630Y0017110D01*
X0065630Y0017148D02*
X0058543Y0017148D01*
X0058543Y0017186D02*
X0065630Y0017186D01*
X0065630Y0017224D02*
X0058543Y0017224D01*
X0058543Y0017262D02*
X0065630Y0017262D01*
X0065630Y0017299D02*
X0058543Y0017299D01*
X0058543Y0017337D02*
X0065630Y0017337D01*
X0065630Y0017375D02*
X0058543Y0017375D01*
X0058543Y0017413D02*
X0065630Y0017413D01*
X0065630Y0017451D02*
X0058543Y0017451D01*
X0058543Y0017489D02*
X0065630Y0017489D01*
X0065630Y0017527D02*
X0058543Y0017527D01*
X0058543Y0017565D02*
X0065630Y0017565D01*
X0065630Y0017603D02*
X0058543Y0017603D01*
X0058543Y0017640D02*
X0065630Y0017640D01*
X0065630Y0017678D02*
X0058543Y0017678D01*
X0058543Y0017716D02*
X0065630Y0017716D01*
X0065630Y0017754D02*
X0058543Y0017754D01*
X0058543Y0017792D02*
X0065630Y0017792D01*
X0065630Y0017830D02*
X0058543Y0017830D01*
X0058543Y0017868D02*
X0065630Y0017868D01*
X0065630Y0017906D02*
X0058543Y0017906D01*
X0058543Y0017943D02*
X0065630Y0017943D01*
X0065630Y0017981D02*
X0058543Y0017981D01*
X0058543Y0018019D02*
X0065630Y0018019D01*
X0065630Y0018057D02*
X0058543Y0018057D01*
X0058543Y0018095D02*
X0065630Y0018095D01*
X0065630Y0018133D02*
X0058543Y0018133D01*
X0058543Y0018171D02*
X0065630Y0018171D01*
X0065630Y0018209D02*
X0058543Y0018209D01*
X0058543Y0018247D02*
X0065630Y0018247D01*
X0065630Y0018284D02*
X0058543Y0018284D01*
X0058543Y0018322D02*
X0065629Y0018322D01*
X0065625Y0018360D02*
X0058543Y0018360D01*
X0058543Y0018398D02*
X0065621Y0018398D01*
X0065616Y0018436D02*
X0058543Y0018436D01*
X0058543Y0018474D02*
X0065612Y0018474D01*
X0065608Y0018512D02*
X0058543Y0018512D01*
X0058543Y0018550D02*
X0065603Y0018550D01*
X0065597Y0018587D02*
X0058543Y0018587D01*
X0058543Y0018625D02*
X0065584Y0018625D01*
X0065570Y0018663D02*
X0058543Y0018663D01*
X0058543Y0018701D02*
X0065557Y0018701D01*
X0065544Y0018739D02*
X0058543Y0018739D01*
X0058543Y0018777D02*
X0065531Y0018777D01*
X0065517Y0018815D02*
X0058543Y0018815D01*
X0058543Y0018853D02*
X0065497Y0018853D01*
X0065473Y0018890D02*
X0058543Y0018890D01*
X0058543Y0018928D02*
X0065450Y0018928D01*
X0065426Y0018966D02*
X0058543Y0018966D01*
X0058543Y0019004D02*
X0065402Y0019004D01*
X0065378Y0019042D02*
X0058543Y0019042D01*
X0058543Y0019080D02*
X0065344Y0019080D01*
X0065306Y0019118D02*
X0058543Y0019118D01*
X0058543Y0019156D02*
X0065268Y0019156D01*
X0065230Y0019194D02*
X0058543Y0019194D01*
X0058543Y0019231D02*
X0065192Y0019231D01*
X0065136Y0019269D02*
X0058543Y0019269D01*
X0058543Y0019307D02*
X0065076Y0019307D01*
X0065015Y0019345D02*
X0058543Y0019345D01*
X0058543Y0019383D02*
X0064950Y0019383D01*
X0064842Y0019421D02*
X0058543Y0019421D01*
X0058543Y0019459D02*
X0064734Y0019459D01*
D24*
X0115610Y0021957D03*
X0117303Y0021957D03*
X0118996Y0021957D03*
X0120689Y0021957D03*
X0122382Y0021957D03*
X0124075Y0021957D03*
X0125768Y0021957D03*
X0127461Y0021957D03*
X0127461Y0031602D03*
X0125768Y0031602D03*
X0124075Y0031602D03*
X0122382Y0031602D03*
X0120689Y0031602D03*
X0118996Y0031602D03*
X0117303Y0031602D03*
X0115610Y0031602D03*
D25*
X0115728Y0029319D03*
X0115728Y0027626D03*
X0115728Y0025933D03*
X0115728Y0024240D03*
X0127343Y0024240D03*
X0127343Y0025933D03*
X0127343Y0027626D03*
X0127343Y0029319D03*
D26*
X0130787Y0013000D03*
X0138268Y0013000D03*
X0109134Y0012213D03*
X0101654Y0012213D03*
D27*
X0101850Y0027764D03*
X0101850Y0035244D03*
X0110118Y0031504D03*
D28*
X0087697Y0018472D03*
X0087697Y0011386D03*
X0076083Y0011386D03*
X0076083Y0018472D03*
M02*
