G75*
%MOIN*%
%OFA0B0*%
%FSLAX25Y25*%
%IPPOS*%
%LPD*%
%AMOC8*
5,1,8,0,0,1.08239X$1,22.5*
%
%ADD10C,0.00500*%
%ADD11C,0.00400*%
%ADD12C,0.01100*%
%ADD13C,0.00700*%
%ADD14R,0.17300X0.00100*%
%ADD15R,0.06800X0.00100*%
%ADD16R,0.10000X0.00100*%
%ADD17R,0.01000X0.00100*%
%ADD18R,0.00800X0.00100*%
%ADD19R,0.00400X0.00100*%
%ADD20R,0.00200X0.00100*%
%ADD21R,0.00900X0.00100*%
%ADD22R,0.00700X0.00100*%
%ADD23R,0.00300X0.00100*%
%ADD24R,0.00600X0.00100*%
%ADD25R,0.00100X0.00100*%
%ADD26R,0.00500X0.00100*%
%ADD27R,0.01500X0.00100*%
%ADD28R,0.01200X0.00100*%
%ADD29R,0.01300X0.00100*%
%ADD30R,0.01400X0.00100*%
%ADD31R,0.01600X0.00100*%
%ADD32R,0.01700X0.00100*%
%ADD33R,0.08700X0.00100*%
%ADD34R,0.02300X0.00100*%
%ADD35R,0.04200X0.00100*%
%ADD36R,0.06300X0.00100*%
%ADD37R,0.04300X0.00100*%
%ADD38R,0.03800X0.00100*%
%ADD39R,0.05400X0.00100*%
%ADD40R,0.03500X0.00100*%
%ADD41R,0.04800X0.00100*%
%ADD42R,0.03300X0.00100*%
%ADD43R,0.04400X0.00100*%
%ADD44R,0.03100X0.00100*%
%ADD45R,0.04000X0.00100*%
%ADD46R,0.03000X0.00100*%
%ADD47R,0.02800X0.00100*%
%ADD48R,0.03400X0.00100*%
%ADD49R,0.02900X0.00100*%
%ADD50R,0.02700X0.00100*%
%ADD51R,0.03200X0.00100*%
%ADD52R,0.02600X0.00100*%
%ADD53R,0.02500X0.00100*%
%ADD54R,0.02400X0.00100*%
%ADD55R,0.02200X0.00100*%
%ADD56R,0.01100X0.00100*%
%ADD57R,0.02100X0.00100*%
%ADD58R,0.02000X0.00100*%
%ADD59R,0.01900X0.00100*%
%ADD60R,0.01800X0.00100*%
%ADD61R,0.05500X0.00100*%
%ADD62R,0.05600X0.00100*%
%ADD63R,0.05300X0.00100*%
%ADD64R,0.03700X0.00100*%
%ADD65R,0.03600X0.00100*%
%ADD66R,0.04100X0.00100*%
%ADD67R,0.04900X0.00100*%
%ADD68R,0.05000X0.00100*%
%ADD69R,0.06200X0.00100*%
%ADD70R,0.14200X0.00100*%
%ADD71R,0.14000X0.00100*%
%ADD72R,0.13900X0.00100*%
%ADD73R,0.13800X0.00100*%
%ADD74R,0.13700X0.00100*%
%ADD75R,0.13600X0.00100*%
%ADD76R,0.13500X0.00100*%
%ADD77R,0.13400X0.00100*%
%ADD78R,0.13300X0.00100*%
%ADD79R,0.13200X0.00100*%
%ADD80R,0.13100X0.00100*%
%ADD81R,0.13000X0.00100*%
%ADD82R,0.12900X0.00100*%
%ADD83R,0.12800X0.00100*%
%ADD84R,0.11900X0.00100*%
%ADD85R,0.08300X0.00100*%
%ADD86R,0.08000X0.00100*%
%ADD87R,0.07700X0.00100*%
%ADD88R,0.07500X0.00100*%
%ADD89R,0.07300X0.00100*%
%ADD90R,0.07100X0.00100*%
%ADD91R,0.07000X0.00100*%
%ADD92R,0.06700X0.00100*%
%ADD93R,0.06600X0.00100*%
%ADD94R,0.06500X0.00100*%
%ADD95R,0.06400X0.00100*%
%ADD96R,0.06100X0.00100*%
%ADD97R,0.06000X0.00100*%
%ADD98R,0.05900X0.00100*%
%ADD99R,0.05800X0.00100*%
%ADD100R,0.05700X0.00100*%
%ADD101R,0.03900X0.00100*%
%ADD102R,0.04600X0.00100*%
%ADD103R,0.05100X0.00100*%
%ADD104R,0.11300X0.00100*%
%ADD105R,0.11800X0.00100*%
%ADD106C,0.00600*%
%ADD107R,0.01181X0.02362*%
%ADD108C,0.00800*%
%ADD109R,0.05709X0.02953*%
%ADD110R,0.03740X0.01969*%
%ADD111C,0.01181*%
D10*
X0015688Y0029392D02*
X0015311Y0029768D01*
X0015311Y0030521D01*
X0015688Y0030897D01*
X0016440Y0030897D01*
X0016817Y0030521D01*
X0016817Y0029768D01*
X0016440Y0029392D01*
X0015688Y0029392D01*
X0017756Y0029392D02*
X0018508Y0029392D01*
X0018132Y0029392D02*
X0018132Y0030897D01*
X0018508Y0030897D01*
X0018132Y0031650D02*
X0018132Y0032026D01*
X0019541Y0031650D02*
X0019541Y0029392D01*
X0020670Y0029392D01*
X0021046Y0029768D01*
X0021046Y0030521D01*
X0020670Y0030897D01*
X0019541Y0030897D01*
X0022078Y0030521D02*
X0022078Y0029392D01*
X0023207Y0029392D01*
X0023584Y0029768D01*
X0023207Y0030144D01*
X0022078Y0030144D01*
X0022078Y0030521D02*
X0022455Y0030897D01*
X0023207Y0030897D01*
X0024569Y0030897D02*
X0024946Y0030897D01*
X0025698Y0030144D01*
X0025698Y0029392D02*
X0025698Y0030897D01*
X0029268Y0030897D02*
X0030773Y0029392D01*
X0029268Y0029392D01*
X0029268Y0030897D02*
X0030773Y0030897D01*
X0031806Y0030521D02*
X0033311Y0030521D01*
X0033311Y0029392D02*
X0033311Y0031650D01*
X0034343Y0031650D02*
X0035096Y0030897D01*
X0035849Y0031650D01*
X0035849Y0029392D01*
X0036881Y0029768D02*
X0037257Y0029392D01*
X0038010Y0029392D01*
X0038386Y0029768D01*
X0039419Y0029768D02*
X0039795Y0029392D01*
X0040548Y0029392D01*
X0040924Y0029768D01*
X0040171Y0030521D02*
X0039795Y0030521D01*
X0039419Y0030144D01*
X0039419Y0029768D01*
X0039795Y0030521D02*
X0039419Y0030897D01*
X0039419Y0031273D01*
X0039795Y0031650D01*
X0040548Y0031650D01*
X0040924Y0031273D01*
X0041956Y0030521D02*
X0043461Y0030521D01*
X0042333Y0031650D01*
X0042333Y0029392D01*
X0047031Y0029768D02*
X0047031Y0031273D01*
X0047408Y0031650D01*
X0048160Y0031650D01*
X0048537Y0031273D01*
X0048537Y0030897D01*
X0048160Y0030521D01*
X0047031Y0030521D01*
X0047031Y0029768D02*
X0047408Y0029392D01*
X0048160Y0029392D01*
X0048537Y0029768D01*
X0049569Y0029768D02*
X0049945Y0029392D01*
X0050698Y0029392D01*
X0051074Y0029768D01*
X0051074Y0030521D01*
X0049945Y0030521D01*
X0049569Y0030144D01*
X0049569Y0029768D01*
X0050322Y0031273D02*
X0051074Y0030521D01*
X0050322Y0031273D02*
X0049569Y0031650D01*
X0052107Y0031650D02*
X0052107Y0029392D01*
X0053612Y0029392D02*
X0053612Y0031650D01*
X0052859Y0030897D01*
X0052107Y0031650D01*
X0054644Y0031650D02*
X0056149Y0031650D01*
X0056149Y0029392D01*
X0057182Y0029392D02*
X0057934Y0030144D01*
X0057558Y0030144D02*
X0058687Y0030144D01*
X0058687Y0029392D02*
X0058687Y0031650D01*
X0057558Y0031650D01*
X0057182Y0031273D01*
X0057182Y0030521D01*
X0057558Y0030144D01*
X0056149Y0030521D02*
X0055397Y0030521D01*
X0038386Y0031273D02*
X0038010Y0031650D01*
X0037257Y0031650D01*
X0036881Y0031273D01*
X0036881Y0030897D01*
X0037257Y0030521D01*
X0036881Y0030144D01*
X0036881Y0029768D01*
X0037257Y0030521D02*
X0037634Y0030521D01*
X0034343Y0031650D02*
X0034343Y0029392D01*
X0031806Y0029392D02*
X0031806Y0031650D01*
X0085394Y0026740D02*
X0085394Y0078315D01*
X0105866Y0078315D01*
X0114528Y0078315D02*
X0123189Y0078315D01*
X0136575Y0078315D02*
X0140512Y0078315D01*
X0140512Y0030283D01*
X0145407Y0030321D02*
X0147175Y0030321D01*
X0147175Y0029879D01*
X0148059Y0030321D02*
X0148501Y0030321D01*
X0148059Y0028747D02*
X0145407Y0028747D01*
X0145407Y0029879D02*
X0145407Y0030763D01*
X0145849Y0031813D02*
X0145407Y0032255D01*
X0145407Y0033581D01*
X0145407Y0034713D02*
X0147175Y0034713D01*
X0146291Y0034713D02*
X0147175Y0035597D01*
X0147175Y0036039D01*
X0146733Y0037129D02*
X0145849Y0037129D01*
X0145407Y0037571D01*
X0145407Y0038455D01*
X0145849Y0038897D01*
X0146733Y0038897D01*
X0147175Y0038455D01*
X0147175Y0037571D01*
X0146733Y0037129D01*
X0147175Y0033581D02*
X0147175Y0032255D01*
X0146733Y0031813D01*
X0145849Y0031813D01*
X0148059Y0028747D02*
X0147175Y0027863D01*
X0148059Y0026979D01*
X0145407Y0026979D01*
X0140512Y0022409D02*
X0140512Y0078315D01*
X0085394Y0078315D01*
X0085394Y0018472D01*
X0095236Y0018472D01*
X0091299Y0018472D01*
X0095236Y0018472D02*
X0095236Y0022409D01*
X0134213Y0022409D01*
X0140512Y0022409D02*
X0095236Y0022409D01*
X0095236Y0018472D01*
X0145407Y0043372D02*
X0145849Y0042930D01*
X0145407Y0043372D02*
X0145407Y0044256D01*
X0145849Y0044698D01*
X0146291Y0044698D01*
X0146733Y0044256D01*
X0146733Y0043372D01*
X0147175Y0042930D01*
X0147617Y0042930D01*
X0148059Y0043372D01*
X0148059Y0044256D01*
X0147617Y0044698D01*
X0148059Y0045830D02*
X0148059Y0047156D01*
X0147617Y0047598D01*
X0145849Y0047598D01*
X0145407Y0047156D01*
X0145407Y0045830D01*
X0148059Y0045830D01*
X0146733Y0051630D02*
X0147175Y0052072D01*
X0147175Y0053398D01*
X0146291Y0052956D02*
X0146291Y0052072D01*
X0146733Y0051630D01*
X0145407Y0051630D02*
X0145407Y0052956D01*
X0145849Y0053398D01*
X0146291Y0052956D01*
X0145849Y0054530D02*
X0145407Y0054972D01*
X0145407Y0055856D01*
X0145849Y0056298D01*
X0146733Y0056298D01*
X0147175Y0055856D01*
X0147175Y0054972D01*
X0146733Y0054530D01*
X0145849Y0054530D01*
X0145849Y0057430D02*
X0145407Y0057872D01*
X0145407Y0059198D01*
X0145407Y0060330D02*
X0148059Y0060330D01*
X0147175Y0059198D02*
X0147175Y0057872D01*
X0146733Y0057430D01*
X0145849Y0057430D01*
X0146291Y0060330D02*
X0147175Y0061656D01*
X0146733Y0062747D02*
X0147175Y0063189D01*
X0147175Y0064073D01*
X0146733Y0064515D01*
X0146291Y0064515D01*
X0146291Y0062747D01*
X0145849Y0062747D02*
X0146733Y0062747D01*
X0145849Y0062747D02*
X0145407Y0063189D01*
X0145407Y0064073D01*
X0145849Y0066089D02*
X0145407Y0066531D01*
X0145849Y0066089D02*
X0147617Y0066089D01*
X0147175Y0065647D02*
X0147175Y0066531D01*
X0145407Y0061656D02*
X0146291Y0060330D01*
X0133346Y0134260D02*
X0040827Y0134260D01*
X0036496Y0138591D01*
X0036496Y0156307D01*
X0133346Y0156307D01*
X0133346Y0134260D01*
X0058687Y0123399D02*
X0058687Y0121894D01*
X0058311Y0121518D01*
X0057558Y0121518D01*
X0057182Y0121894D01*
X0056149Y0121894D02*
X0055773Y0121518D01*
X0055020Y0121518D01*
X0054644Y0121894D01*
X0054644Y0122647D01*
X0055020Y0123023D01*
X0055773Y0123023D01*
X0056149Y0122647D01*
X0056149Y0121894D01*
X0057182Y0123399D02*
X0057558Y0123776D01*
X0058311Y0123776D01*
X0058687Y0123399D01*
X0053612Y0121894D02*
X0053236Y0122270D01*
X0052107Y0122270D01*
X0052107Y0122647D02*
X0052107Y0121518D01*
X0053236Y0121518D01*
X0053612Y0121894D01*
X0053236Y0123023D02*
X0052483Y0123023D01*
X0052107Y0122647D01*
X0051074Y0123023D02*
X0049569Y0121518D01*
X0048537Y0121518D02*
X0047784Y0121518D01*
X0048160Y0121518D02*
X0048160Y0123023D01*
X0048537Y0123023D01*
X0048160Y0123776D02*
X0048160Y0124152D01*
X0049569Y0123023D02*
X0051074Y0121518D01*
X0046845Y0121894D02*
X0046469Y0122270D01*
X0045340Y0122270D01*
X0045340Y0122647D02*
X0045340Y0121518D01*
X0046469Y0121518D01*
X0046845Y0121894D01*
X0046469Y0123023D02*
X0045716Y0123023D01*
X0045340Y0122647D01*
X0044307Y0123776D02*
X0043931Y0123776D01*
X0043931Y0121518D01*
X0044307Y0121518D02*
X0043555Y0121518D01*
X0040078Y0121894D02*
X0039702Y0121518D01*
X0038573Y0121518D01*
X0037540Y0121894D02*
X0037164Y0121518D01*
X0036411Y0121518D01*
X0036035Y0121894D01*
X0036035Y0122647D01*
X0036411Y0123023D01*
X0037164Y0123023D01*
X0037540Y0122647D01*
X0037540Y0121894D01*
X0038573Y0123023D02*
X0039702Y0123023D01*
X0040078Y0122647D01*
X0040078Y0121894D01*
X0035003Y0121518D02*
X0035003Y0123023D01*
X0033874Y0123023D01*
X0033498Y0122647D01*
X0033498Y0121518D01*
X0032465Y0121518D02*
X0032465Y0123023D01*
X0031336Y0123023D01*
X0030960Y0122647D01*
X0030960Y0121518D01*
X0029928Y0121894D02*
X0029928Y0122647D01*
X0029551Y0123023D01*
X0028799Y0123023D01*
X0028422Y0122647D01*
X0028422Y0122270D01*
X0029928Y0122270D01*
X0029928Y0121894D02*
X0029551Y0121518D01*
X0028799Y0121518D01*
X0027390Y0121894D02*
X0027390Y0122647D01*
X0027014Y0123023D01*
X0025885Y0123023D01*
X0024852Y0123023D02*
X0024100Y0123023D01*
X0024476Y0123399D02*
X0024476Y0121894D01*
X0024100Y0121518D01*
X0023161Y0121894D02*
X0023161Y0122647D01*
X0022784Y0123023D01*
X0022032Y0123023D01*
X0021655Y0122647D01*
X0021655Y0121894D01*
X0022032Y0121518D01*
X0022784Y0121518D01*
X0023161Y0121894D01*
X0020623Y0121518D02*
X0020623Y0123023D01*
X0020623Y0122270D02*
X0019870Y0123023D01*
X0019494Y0123023D01*
X0025885Y0121518D02*
X0027014Y0121518D01*
X0027390Y0121894D01*
X0031772Y0114969D02*
X0036890Y0114969D01*
X0031772Y0114969D02*
X0031772Y0104732D01*
X0031772Y0103945D01*
X0036890Y0103945D01*
X0036890Y0104732D01*
X0031772Y0104732D01*
X0031772Y0104339D02*
X0036890Y0104339D01*
X0042402Y0104339D02*
X0047520Y0104339D01*
X0047520Y0104732D02*
X0047520Y0103945D01*
X0042402Y0103945D01*
X0042402Y0104732D01*
X0047520Y0104732D01*
X0047520Y0114969D01*
X0042402Y0114969D01*
D11*
X0035509Y0102566D02*
X0035509Y0100601D01*
X0035116Y0100208D01*
X0034330Y0100208D01*
X0033937Y0100601D01*
X0033937Y0102566D01*
X0032971Y0100601D02*
X0032578Y0100601D01*
X0032578Y0100208D01*
X0032971Y0100208D01*
X0032971Y0100601D01*
X0031702Y0100208D02*
X0031702Y0102566D01*
X0030130Y0102566D01*
X0029165Y0102566D02*
X0029165Y0100208D01*
X0027593Y0100208D01*
X0030916Y0101387D02*
X0031702Y0101387D01*
X0025666Y0086030D02*
X0024357Y0086030D01*
X0025012Y0086030D02*
X0025012Y0084067D01*
X0023491Y0084067D02*
X0023491Y0086030D01*
X0022509Y0086030D01*
X0022182Y0085703D01*
X0022182Y0085048D01*
X0022509Y0084721D01*
X0023491Y0084721D01*
X0021316Y0084067D02*
X0020007Y0084067D01*
X0020661Y0084067D02*
X0020661Y0086030D01*
X0021316Y0085376D01*
X0019141Y0085048D02*
X0017832Y0085048D01*
X0018159Y0084067D02*
X0018159Y0086030D01*
X0019141Y0085048D01*
X0053658Y0069955D02*
X0053658Y0069628D01*
X0053986Y0069300D01*
X0053658Y0068973D01*
X0053658Y0068646D01*
X0053986Y0068319D01*
X0054640Y0068319D01*
X0054968Y0068646D01*
X0055833Y0068319D02*
X0057143Y0068319D01*
X0056488Y0068319D02*
X0056488Y0070282D01*
X0057143Y0069628D01*
X0058009Y0069955D02*
X0058009Y0069300D01*
X0058336Y0068973D01*
X0059318Y0068973D01*
X0059318Y0068319D02*
X0059318Y0070282D01*
X0058336Y0070282D01*
X0058009Y0069955D01*
X0060184Y0070282D02*
X0061493Y0070282D01*
X0060838Y0070282D02*
X0060838Y0068319D01*
X0054968Y0069955D02*
X0054640Y0070282D01*
X0053986Y0070282D01*
X0053658Y0069955D01*
X0053986Y0069300D02*
X0054313Y0069300D01*
X0076853Y0077989D02*
X0078817Y0077989D01*
X0078817Y0077334D02*
X0078817Y0078644D01*
X0078817Y0079509D02*
X0078817Y0080491D01*
X0078490Y0080819D01*
X0077835Y0080819D01*
X0077508Y0080491D01*
X0077508Y0079509D01*
X0076853Y0079509D02*
X0078817Y0079509D01*
X0078162Y0081684D02*
X0078817Y0082339D01*
X0076853Y0082339D01*
X0076853Y0081684D02*
X0076853Y0082994D01*
X0076853Y0083860D02*
X0078162Y0085169D01*
X0078490Y0085169D01*
X0078817Y0084841D01*
X0078817Y0084187D01*
X0078490Y0083860D01*
X0076853Y0083860D02*
X0076853Y0085169D01*
X0080862Y0077176D02*
X0080535Y0076849D01*
X0080535Y0076195D01*
X0080862Y0075867D01*
X0081189Y0075867D01*
X0081517Y0076195D01*
X0081517Y0076849D01*
X0081189Y0077176D01*
X0080862Y0077176D01*
X0081517Y0076849D02*
X0081844Y0077176D01*
X0082171Y0077176D01*
X0082499Y0076849D01*
X0082499Y0076195D01*
X0082171Y0075867D01*
X0081844Y0075867D01*
X0081517Y0076195D01*
X0082171Y0075001D02*
X0082499Y0074674D01*
X0082499Y0074019D01*
X0082171Y0073692D01*
X0080862Y0073692D01*
X0080535Y0074019D01*
X0080535Y0074674D01*
X0080862Y0075001D01*
X0081898Y0068732D02*
X0081898Y0065929D01*
X0078547Y0065929D02*
X0078547Y0068732D01*
X0077598Y0054657D02*
X0077598Y0051657D01*
X0082795Y0051657D02*
X0082795Y0054559D01*
X0081776Y0045597D02*
X0081121Y0045597D01*
X0080794Y0045270D01*
X0079928Y0045597D02*
X0078619Y0045597D01*
X0078619Y0045270D01*
X0079928Y0043960D01*
X0079928Y0043633D01*
X0080794Y0043960D02*
X0081121Y0043633D01*
X0081776Y0043633D01*
X0082103Y0043960D01*
X0082103Y0045270D01*
X0081776Y0045597D01*
X0082910Y0044522D02*
X0084220Y0043213D01*
X0083892Y0042885D01*
X0083238Y0042885D01*
X0082910Y0043213D01*
X0082910Y0044522D01*
X0083238Y0044849D01*
X0083892Y0044849D01*
X0084220Y0044522D01*
X0084220Y0043213D01*
X0085085Y0042885D02*
X0086395Y0042885D01*
X0085740Y0042885D02*
X0085740Y0044849D01*
X0086395Y0044195D01*
X0087261Y0044522D02*
X0087261Y0043867D01*
X0087588Y0043540D01*
X0088570Y0043540D01*
X0088570Y0042885D02*
X0088570Y0044849D01*
X0087588Y0044849D01*
X0087261Y0044522D01*
X0089436Y0044849D02*
X0090745Y0044849D01*
X0090090Y0044849D02*
X0090090Y0042885D01*
X0080786Y0032152D02*
X0078822Y0032152D01*
X0078822Y0031497D02*
X0078822Y0032807D01*
X0080131Y0031497D02*
X0080786Y0032152D01*
X0080786Y0029977D02*
X0078822Y0029977D01*
X0078822Y0029322D02*
X0078822Y0030632D01*
X0080131Y0029322D02*
X0080786Y0029977D01*
X0080458Y0028456D02*
X0079804Y0028456D01*
X0079476Y0028129D01*
X0079476Y0027147D01*
X0078822Y0027147D02*
X0080786Y0027147D01*
X0080786Y0028129D01*
X0080458Y0028456D01*
X0080786Y0026281D02*
X0080786Y0024972D01*
X0080786Y0025627D02*
X0078822Y0025627D01*
X0132795Y0082235D02*
X0133449Y0082235D01*
X0133777Y0082563D01*
X0132467Y0083872D01*
X0132467Y0082563D01*
X0132795Y0082235D01*
X0133777Y0082563D02*
X0133777Y0083872D01*
X0133449Y0084199D01*
X0132795Y0084199D01*
X0132467Y0083872D01*
X0135080Y0083594D02*
X0138149Y0083594D01*
X0135080Y0086663D01*
X0135080Y0087430D01*
X0135847Y0088198D01*
X0137382Y0088198D01*
X0138149Y0087430D01*
X0139683Y0088198D02*
X0141218Y0088198D01*
X0140451Y0088198D02*
X0140451Y0084361D01*
X0141218Y0083594D01*
X0141985Y0083594D01*
X0142753Y0084361D01*
X0138127Y0084199D02*
X0138127Y0082235D01*
X0138127Y0082890D02*
X0137145Y0082890D01*
X0136818Y0083217D01*
X0136818Y0083872D01*
X0137145Y0084199D01*
X0138127Y0084199D01*
X0137472Y0082890D02*
X0136818Y0082235D01*
X0135952Y0082235D02*
X0134642Y0082235D01*
X0135297Y0082235D02*
X0135297Y0084199D01*
X0135952Y0083545D01*
X0156555Y0122649D02*
X0156555Y0124613D01*
X0157536Y0123631D01*
X0156227Y0123631D01*
X0158402Y0124285D02*
X0158730Y0124613D01*
X0159712Y0124613D01*
X0159712Y0122649D01*
X0158730Y0122649D01*
X0158402Y0122976D01*
X0158402Y0124285D01*
X0160577Y0124613D02*
X0161887Y0124613D01*
X0161887Y0122649D01*
X0161887Y0123631D02*
X0161232Y0123631D01*
X0012113Y0123830D02*
X0012113Y0125794D01*
X0010803Y0125794D01*
X0009938Y0125794D02*
X0009938Y0123830D01*
X0008956Y0123830D01*
X0008628Y0124157D01*
X0008628Y0125466D01*
X0008956Y0125794D01*
X0009938Y0125794D01*
X0011458Y0124812D02*
X0012113Y0124812D01*
X0007762Y0125466D02*
X0007435Y0125794D01*
X0006781Y0125794D01*
X0006453Y0125466D01*
X0006453Y0125139D01*
X0006781Y0124812D01*
X0006453Y0124485D01*
X0006453Y0124157D01*
X0006781Y0123830D01*
X0007435Y0123830D01*
X0007762Y0124157D01*
X0007108Y0124812D02*
X0006781Y0124812D01*
D12*
X0048784Y0100994D02*
X0051991Y0098589D01*
X0054222Y0100994D02*
X0057428Y0100994D01*
X0059660Y0103399D02*
X0062866Y0103399D01*
X0061263Y0103399D02*
X0061263Y0098589D01*
X0065097Y0098589D02*
X0065097Y0103399D01*
X0068304Y0103399D02*
X0065097Y0098589D01*
X0068304Y0098589D02*
X0068304Y0103399D01*
X0070535Y0101796D02*
X0070535Y0098589D01*
X0070535Y0100994D02*
X0073741Y0100994D01*
X0073741Y0101796D02*
X0073741Y0098589D01*
X0073741Y0101796D02*
X0072138Y0103399D01*
X0070535Y0101796D01*
X0051991Y0103399D02*
X0048784Y0100994D01*
D13*
X0014656Y0099717D02*
X0014116Y0099177D01*
X0013036Y0099177D01*
X0012496Y0099717D01*
X0012496Y0102417D01*
X0011031Y0101337D02*
X0009951Y0102417D01*
X0009951Y0099177D01*
X0011031Y0099177D02*
X0008871Y0099177D01*
X0014656Y0099717D02*
X0014656Y0102417D01*
X0152695Y0086163D02*
X0153235Y0086703D01*
X0155935Y0086703D01*
X0155935Y0085083D01*
X0155395Y0084543D01*
X0154315Y0084543D01*
X0153775Y0085083D01*
X0153775Y0086703D01*
X0152695Y0086163D02*
X0152695Y0085623D01*
X0153775Y0083078D02*
X0155935Y0083078D01*
X0155935Y0080918D02*
X0154315Y0080918D01*
X0153775Y0081458D01*
X0153775Y0083078D01*
X0154315Y0079453D02*
X0153775Y0078913D01*
X0153775Y0077293D01*
X0157015Y0077293D01*
X0155935Y0077293D02*
X0155935Y0078913D01*
X0155395Y0079453D01*
X0154315Y0079453D01*
X0154855Y0075828D02*
X0154855Y0073668D01*
X0154315Y0073668D02*
X0155395Y0073668D01*
X0155935Y0074208D01*
X0155935Y0075288D01*
X0155395Y0075828D01*
X0154855Y0075828D01*
X0153775Y0075288D02*
X0153775Y0074208D01*
X0154315Y0073668D01*
X0153775Y0072203D02*
X0153775Y0070583D01*
X0154315Y0070043D01*
X0155395Y0070043D01*
X0155935Y0070583D01*
X0155935Y0072203D01*
X0157015Y0072203D02*
X0153775Y0072203D01*
X0159681Y0071663D02*
X0159681Y0070583D01*
X0160221Y0070043D01*
X0161301Y0070583D02*
X0161301Y0071663D01*
X0160761Y0072203D01*
X0160221Y0072203D01*
X0159681Y0071663D01*
X0161301Y0070583D02*
X0161841Y0070043D01*
X0162381Y0070043D01*
X0162920Y0070583D01*
X0162920Y0071663D01*
X0162381Y0072203D01*
X0162920Y0073668D02*
X0159681Y0073668D01*
X0160761Y0074748D01*
X0159681Y0075828D01*
X0162920Y0075828D01*
X0162920Y0077293D02*
X0162920Y0078913D01*
X0162381Y0079453D01*
X0160221Y0079453D01*
X0159681Y0078913D01*
X0159681Y0077293D01*
X0162920Y0077293D01*
D14*
X0125434Y0086722D03*
X0125434Y0086822D03*
X0125434Y0086922D03*
X0125434Y0089622D03*
X0125434Y0089722D03*
X0125434Y0089822D03*
X0125434Y0089922D03*
X0125434Y0090022D03*
X0125434Y0090122D03*
X0125434Y0090222D03*
X0125434Y0090322D03*
X0125434Y0090422D03*
X0125434Y0098922D03*
X0125434Y0108922D03*
D15*
X0127684Y0101322D03*
X0130684Y0087522D03*
X0130684Y0087422D03*
X0130684Y0087322D03*
X0130684Y0087222D03*
X0130684Y0087122D03*
X0130684Y0087022D03*
D16*
X0127384Y0089522D03*
X0121784Y0087522D03*
X0121784Y0087422D03*
X0121784Y0087322D03*
X0121784Y0087222D03*
X0121784Y0087122D03*
X0121784Y0087022D03*
D17*
X0131884Y0087622D03*
X0133584Y0087622D03*
X0133584Y0089522D03*
X0129184Y0094522D03*
X0121684Y0097322D03*
X0121484Y0102022D03*
X0117284Y0102622D03*
X0117284Y0102722D03*
X0117284Y0106622D03*
X0117284Y0106722D03*
X0117284Y0106822D03*
X0126084Y0105722D03*
X0126084Y0105622D03*
X0126084Y0105522D03*
X0126084Y0105422D03*
D18*
X0117184Y0106022D03*
X0117184Y0106122D03*
X0117184Y0106222D03*
X0117184Y0106322D03*
X0117184Y0103322D03*
X0117184Y0103222D03*
X0117184Y0103122D03*
X0118684Y0089022D03*
X0118684Y0087622D03*
X0117184Y0087622D03*
X0130384Y0087622D03*
X0130384Y0089022D03*
X0133684Y0089422D03*
X0133684Y0087722D03*
D19*
X0133884Y0088122D03*
X0133884Y0088222D03*
X0133884Y0088322D03*
X0133884Y0088822D03*
X0133884Y0088922D03*
X0133884Y0089022D03*
X0131984Y0088022D03*
X0131984Y0087922D03*
X0131084Y0088022D03*
X0131084Y0088622D03*
X0130184Y0088622D03*
X0130184Y0088722D03*
X0130184Y0088022D03*
X0130184Y0087922D03*
X0129284Y0087922D03*
X0129284Y0087822D03*
X0129284Y0087722D03*
X0129284Y0087622D03*
X0129284Y0088022D03*
X0129284Y0088122D03*
X0129284Y0088222D03*
X0129284Y0088322D03*
X0129284Y0088422D03*
X0129284Y0088522D03*
X0128384Y0088522D03*
X0128384Y0088422D03*
X0128384Y0088322D03*
X0128384Y0088222D03*
X0128384Y0088122D03*
X0128384Y0088022D03*
X0128384Y0087922D03*
X0128384Y0087822D03*
X0128384Y0087722D03*
X0128384Y0087622D03*
X0127484Y0087622D03*
X0127484Y0087722D03*
X0127484Y0087822D03*
X0127484Y0087922D03*
X0127484Y0088022D03*
X0127484Y0088122D03*
X0127484Y0088222D03*
X0127484Y0088322D03*
X0127484Y0088422D03*
X0127484Y0088522D03*
X0127484Y0088622D03*
X0127484Y0088722D03*
X0126484Y0088622D03*
X0126484Y0088022D03*
X0125584Y0088322D03*
X0125584Y0088722D03*
X0124684Y0088222D03*
X0124784Y0088022D03*
X0123984Y0088922D03*
X0121684Y0088922D03*
X0121684Y0088822D03*
X0121684Y0088722D03*
X0121684Y0088622D03*
X0121684Y0088522D03*
X0121684Y0088422D03*
X0121684Y0088322D03*
X0121684Y0088222D03*
X0121684Y0088122D03*
X0121684Y0088022D03*
X0121684Y0087922D03*
X0121684Y0087822D03*
X0121684Y0087722D03*
X0121684Y0087622D03*
X0120684Y0088022D03*
X0120684Y0088622D03*
X0119784Y0088622D03*
X0119784Y0088522D03*
X0119784Y0088422D03*
X0119784Y0088322D03*
X0119784Y0088222D03*
X0119784Y0088122D03*
X0119784Y0088022D03*
X0119784Y0087922D03*
X0119784Y0088722D03*
X0118884Y0088722D03*
X0118884Y0088622D03*
X0118884Y0088022D03*
X0118884Y0087922D03*
X0121684Y0089022D03*
X0121684Y0089222D03*
X0121684Y0089322D03*
X0121684Y0089422D03*
X0121684Y0089522D03*
X0130284Y0095722D03*
D20*
X0130384Y0095622D03*
X0129184Y0094622D03*
X0129384Y0089022D03*
X0131084Y0088722D03*
X0131084Y0087922D03*
X0126684Y0087622D03*
X0126484Y0087922D03*
X0126684Y0089022D03*
X0124784Y0087922D03*
X0124584Y0087622D03*
X0122484Y0088822D03*
X0122484Y0088922D03*
X0122484Y0089022D03*
X0120884Y0089022D03*
X0120684Y0087922D03*
X0120884Y0087622D03*
D21*
X0117234Y0089022D03*
X0125634Y0089022D03*
X0125634Y0087622D03*
X0133634Y0100622D03*
X0133634Y0100722D03*
X0133634Y0100822D03*
X0133634Y0100922D03*
X0133634Y0101022D03*
X0133634Y0101122D03*
X0133634Y0101222D03*
X0133634Y0101322D03*
X0133634Y0101422D03*
X0133634Y0101522D03*
X0133634Y0101622D03*
X0133634Y0101722D03*
X0133634Y0101822D03*
X0133634Y0101922D03*
X0133634Y0102022D03*
X0133634Y0102122D03*
X0133634Y0102222D03*
X0133634Y0102322D03*
X0133634Y0102422D03*
X0133634Y0102522D03*
X0133634Y0102622D03*
X0133634Y0102722D03*
X0133634Y0102822D03*
X0133634Y0102922D03*
X0133634Y0103022D03*
X0133634Y0103122D03*
X0133634Y0103222D03*
X0133634Y0103322D03*
X0133634Y0103422D03*
X0133634Y0103522D03*
X0133634Y0103622D03*
X0133634Y0103722D03*
X0133634Y0103822D03*
X0133634Y0103922D03*
X0133634Y0104022D03*
X0133634Y0104122D03*
X0133634Y0104222D03*
X0133634Y0104322D03*
X0133634Y0104422D03*
X0133634Y0104522D03*
X0133634Y0104622D03*
X0133634Y0104722D03*
X0133634Y0104822D03*
X0133634Y0104922D03*
X0133634Y0105022D03*
X0133634Y0105122D03*
X0133634Y0105222D03*
X0133634Y0105322D03*
X0133634Y0105422D03*
X0133634Y0105522D03*
X0133634Y0105622D03*
X0133634Y0105722D03*
X0133634Y0105822D03*
X0133634Y0105922D03*
X0133634Y0106022D03*
X0133634Y0106122D03*
X0133634Y0106222D03*
X0133634Y0106322D03*
X0133634Y0106422D03*
X0133634Y0106522D03*
X0133634Y0106622D03*
X0133634Y0106722D03*
X0133634Y0106822D03*
X0133634Y0106922D03*
X0133634Y0107022D03*
X0133634Y0107122D03*
X0133634Y0107222D03*
X0133634Y0107322D03*
X0133634Y0107422D03*
X0133634Y0107522D03*
X0133634Y0107622D03*
X0133634Y0107722D03*
X0133634Y0107822D03*
X0133634Y0107922D03*
X0133634Y0108022D03*
X0133634Y0108122D03*
X0133634Y0108222D03*
X0133634Y0108322D03*
X0133634Y0108422D03*
X0133634Y0108522D03*
X0133634Y0108622D03*
X0121534Y0107322D03*
X0117234Y0106522D03*
X0117234Y0106422D03*
X0117234Y0103022D03*
X0117234Y0102922D03*
X0117234Y0102822D03*
D22*
X0117134Y0103422D03*
X0117134Y0103522D03*
X0117134Y0103622D03*
X0117134Y0103722D03*
X0117134Y0103822D03*
X0117134Y0105522D03*
X0117134Y0105622D03*
X0117134Y0105722D03*
X0117134Y0105822D03*
X0117134Y0105922D03*
X0130134Y0095822D03*
X0132634Y0089122D03*
X0132634Y0088022D03*
X0127634Y0089022D03*
X0125434Y0088522D03*
X0123634Y0087622D03*
X0122734Y0088022D03*
X0122734Y0088122D03*
X0122734Y0088222D03*
X0122734Y0088322D03*
X0122734Y0088422D03*
X0122734Y0088522D03*
X0122734Y0088622D03*
X0122734Y0088722D03*
X0122734Y0089222D03*
X0122734Y0089322D03*
X0122734Y0089422D03*
X0119934Y0089022D03*
X0119934Y0087622D03*
X0117134Y0088922D03*
D23*
X0118034Y0088722D03*
X0118934Y0088522D03*
X0118934Y0088422D03*
X0118934Y0088322D03*
X0118934Y0088222D03*
X0118934Y0088122D03*
X0122534Y0087822D03*
X0122534Y0087722D03*
X0122534Y0087622D03*
X0123934Y0088822D03*
X0125634Y0088222D03*
X0125634Y0088122D03*
X0125634Y0088022D03*
X0125634Y0087922D03*
X0128334Y0088622D03*
X0129234Y0088622D03*
X0130134Y0088522D03*
X0130134Y0088422D03*
X0130134Y0088322D03*
X0130134Y0088222D03*
X0130134Y0088122D03*
X0133934Y0088422D03*
X0133934Y0088522D03*
X0133934Y0088622D03*
X0133934Y0088722D03*
D24*
X0133784Y0089322D03*
X0133784Y0087822D03*
X0131884Y0087722D03*
X0131084Y0088122D03*
X0131084Y0088222D03*
X0131084Y0088322D03*
X0131084Y0088422D03*
X0131084Y0088522D03*
X0130284Y0088922D03*
X0130284Y0087722D03*
X0129184Y0091822D03*
X0126484Y0088422D03*
X0126484Y0088322D03*
X0126484Y0088222D03*
X0125684Y0087722D03*
X0125684Y0088922D03*
X0124884Y0088722D03*
X0124084Y0089022D03*
X0123784Y0088622D03*
X0123784Y0088522D03*
X0123784Y0088422D03*
X0123684Y0087722D03*
X0122684Y0087922D03*
X0120684Y0088222D03*
X0120684Y0088322D03*
X0120684Y0088422D03*
X0119884Y0088922D03*
X0118784Y0088922D03*
X0117984Y0088522D03*
X0117084Y0088722D03*
X0117084Y0088822D03*
X0118784Y0087722D03*
X0119884Y0087722D03*
X0121684Y0091922D03*
X0117084Y0103922D03*
X0117084Y0104022D03*
X0117084Y0104122D03*
X0117084Y0104222D03*
X0117084Y0104322D03*
X0117084Y0104422D03*
X0117084Y0104522D03*
X0117084Y0104622D03*
X0117084Y0104722D03*
X0117084Y0104822D03*
X0117084Y0104922D03*
X0117084Y0105022D03*
X0117084Y0105122D03*
X0117084Y0105222D03*
X0117084Y0105322D03*
X0117084Y0105422D03*
D25*
X0130434Y0095522D03*
X0129434Y0088922D03*
X0128634Y0088922D03*
X0126734Y0088922D03*
X0126534Y0088722D03*
X0126734Y0087722D03*
X0124534Y0087722D03*
X0120934Y0087722D03*
X0120734Y0088722D03*
X0120934Y0088922D03*
D26*
X0120734Y0088522D03*
X0120734Y0088122D03*
X0119834Y0087822D03*
X0119834Y0088822D03*
X0118834Y0088822D03*
X0118034Y0088622D03*
X0117834Y0087922D03*
X0117034Y0087922D03*
X0117034Y0087822D03*
X0117034Y0087722D03*
X0117034Y0088222D03*
X0117034Y0088322D03*
X0117034Y0088422D03*
X0117034Y0088522D03*
X0117034Y0088622D03*
X0118834Y0087822D03*
X0123734Y0087822D03*
X0123734Y0087922D03*
X0123734Y0088022D03*
X0123734Y0088122D03*
X0123734Y0088222D03*
X0123734Y0088322D03*
X0123834Y0088722D03*
X0124734Y0088122D03*
X0125534Y0088422D03*
X0125634Y0088822D03*
X0126534Y0088522D03*
X0126534Y0088122D03*
X0125634Y0087822D03*
X0127534Y0088822D03*
X0127534Y0088922D03*
X0128634Y0089022D03*
X0130234Y0088822D03*
X0130234Y0087822D03*
X0131934Y0087822D03*
X0133834Y0087922D03*
X0133834Y0088022D03*
X0133834Y0089122D03*
X0133834Y0089222D03*
X0121634Y0097422D03*
D27*
X0121634Y0097122D03*
X0117534Y0099322D03*
X0117534Y0101822D03*
X0117534Y0107522D03*
X0121534Y0107222D03*
X0125934Y0106922D03*
X0125934Y0106822D03*
X0126334Y0104422D03*
X0126334Y0104322D03*
X0130334Y0104922D03*
X0130334Y0107122D03*
X0125734Y0094822D03*
X0125734Y0094722D03*
X0125434Y0092822D03*
X0125434Y0092722D03*
X0125434Y0092622D03*
X0121634Y0092222D03*
X0117534Y0088122D03*
X0117534Y0088022D03*
X0132434Y0088822D03*
X0132534Y0088722D03*
X0132534Y0088622D03*
D28*
X0132484Y0088122D03*
X0125484Y0093322D03*
X0125484Y0093422D03*
X0125484Y0093522D03*
X0125584Y0094122D03*
X0117384Y0102222D03*
X0117384Y0102322D03*
X0117384Y0107122D03*
X0125984Y0106422D03*
X0125984Y0106322D03*
X0125984Y0106222D03*
X0126184Y0104922D03*
X0126184Y0104822D03*
X0126284Y0104622D03*
D29*
X0126234Y0104722D03*
X0125934Y0106522D03*
X0125934Y0106622D03*
X0117434Y0107222D03*
X0117434Y0107322D03*
X0117434Y0102122D03*
X0117434Y0099122D03*
X0117434Y0099022D03*
X0121634Y0097222D03*
X0125634Y0094422D03*
X0125634Y0094322D03*
X0125634Y0094222D03*
X0125534Y0094022D03*
X0125534Y0093922D03*
X0125534Y0093822D03*
X0125534Y0093722D03*
X0125534Y0093622D03*
X0125434Y0093222D03*
X0125434Y0093122D03*
X0129234Y0094422D03*
X0132534Y0088322D03*
X0132534Y0088222D03*
X0125134Y0088622D03*
X0121634Y0092122D03*
D30*
X0120284Y0089522D03*
X0120284Y0089422D03*
X0120284Y0089322D03*
X0120284Y0089222D03*
X0120284Y0089122D03*
X0125484Y0092922D03*
X0125484Y0093022D03*
X0125684Y0094522D03*
X0125684Y0094622D03*
X0129184Y0092022D03*
X0132584Y0088522D03*
X0132584Y0088422D03*
X0126284Y0104522D03*
X0125984Y0106722D03*
X0117484Y0107422D03*
X0117484Y0102022D03*
X0117484Y0101922D03*
X0117484Y0099222D03*
D31*
X0117584Y0099422D03*
X0117584Y0101722D03*
X0121484Y0102122D03*
X0126384Y0104222D03*
X0125884Y0107022D03*
X0117584Y0107622D03*
X0117584Y0095722D03*
X0117584Y0095622D03*
X0117584Y0095522D03*
X0117584Y0095422D03*
X0117584Y0095322D03*
X0117584Y0095222D03*
X0117584Y0095122D03*
X0117584Y0095022D03*
X0117584Y0094922D03*
X0117584Y0094822D03*
X0117584Y0094722D03*
X0117584Y0094622D03*
X0117584Y0094522D03*
X0117584Y0094422D03*
X0117584Y0094322D03*
X0117584Y0094222D03*
X0117584Y0094122D03*
X0117584Y0094022D03*
X0117584Y0093922D03*
X0117584Y0093822D03*
X0117584Y0093722D03*
X0117584Y0093622D03*
X0122284Y0089122D03*
X0125384Y0092522D03*
X0125784Y0094922D03*
X0129184Y0094322D03*
X0129184Y0092122D03*
X0133284Y0093622D03*
X0133284Y0093722D03*
X0133284Y0093822D03*
X0133284Y0093922D03*
X0133284Y0094022D03*
X0133284Y0094122D03*
X0133284Y0094222D03*
X0133284Y0094322D03*
X0133284Y0094422D03*
X0133284Y0094522D03*
X0133284Y0094622D03*
X0133284Y0094722D03*
X0133284Y0094822D03*
X0133284Y0094922D03*
X0133284Y0095022D03*
X0133284Y0095122D03*
X0133284Y0095222D03*
X0133284Y0095322D03*
X0133284Y0095422D03*
X0132384Y0088922D03*
D32*
X0132234Y0089022D03*
X0133234Y0093022D03*
X0133234Y0093122D03*
X0133234Y0093222D03*
X0133234Y0093322D03*
X0133234Y0093422D03*
X0133234Y0093522D03*
X0133234Y0095522D03*
X0133234Y0095622D03*
X0133234Y0095722D03*
X0133234Y0095822D03*
X0133234Y0095922D03*
X0133234Y0096022D03*
X0129234Y0094222D03*
X0129234Y0092222D03*
X0125434Y0092322D03*
X0125434Y0092422D03*
X0125834Y0095022D03*
X0121634Y0097022D03*
X0117634Y0096222D03*
X0117634Y0096122D03*
X0117634Y0096022D03*
X0117634Y0095922D03*
X0117634Y0095822D03*
X0117634Y0093522D03*
X0117634Y0093422D03*
X0117634Y0093322D03*
X0117634Y0093222D03*
X0117634Y0093122D03*
X0121634Y0092322D03*
X0117634Y0099522D03*
X0117634Y0101622D03*
X0117634Y0107722D03*
X0126434Y0104122D03*
D33*
X0127834Y0089422D03*
X0127834Y0089322D03*
X0127834Y0089222D03*
X0127834Y0089122D03*
D34*
X0132934Y0091722D03*
X0132934Y0097322D03*
X0126034Y0095522D03*
X0125534Y0097322D03*
X0125534Y0097422D03*
X0121634Y0096222D03*
X0121634Y0096122D03*
X0121634Y0096022D03*
X0121634Y0095922D03*
X0121634Y0093422D03*
X0121634Y0093322D03*
X0121634Y0093222D03*
X0117934Y0091822D03*
X0117934Y0091722D03*
X0117934Y0089522D03*
X0117934Y0089422D03*
X0117934Y0089322D03*
X0117934Y0089222D03*
X0117934Y0089122D03*
X0117934Y0097522D03*
X0117934Y0097622D03*
X0117934Y0100222D03*
X0117934Y0101122D03*
X0121534Y0102322D03*
X0126734Y0103722D03*
X0129934Y0105522D03*
X0129934Y0105622D03*
X0129934Y0105722D03*
X0129934Y0106322D03*
X0129934Y0106422D03*
X0129934Y0106522D03*
X0117934Y0108222D03*
D35*
X0131984Y0090522D03*
D36*
X0125434Y0090522D03*
X0127934Y0101822D03*
X0127934Y0101922D03*
D37*
X0131934Y0098722D03*
X0118934Y0098822D03*
X0118934Y0090522D03*
D38*
X0118684Y0090622D03*
X0125384Y0091022D03*
X0132184Y0090622D03*
X0121484Y0103622D03*
X0121484Y0103722D03*
X0121484Y0105522D03*
X0121484Y0105622D03*
X0121484Y0105722D03*
X0125884Y0108222D03*
X0118684Y0098722D03*
D39*
X0125384Y0090622D03*
X0127384Y0096722D03*
X0127284Y0096922D03*
D40*
X0132334Y0098422D03*
X0127234Y0103422D03*
X0125834Y0108122D03*
X0121534Y0106122D03*
X0121534Y0103222D03*
X0121534Y0103122D03*
X0118534Y0098622D03*
X0118534Y0090722D03*
X0132334Y0090722D03*
D41*
X0125384Y0090722D03*
D42*
X0118434Y0090822D03*
X0118434Y0098522D03*
X0121534Y0102922D03*
X0121534Y0103022D03*
X0121534Y0106322D03*
X0125034Y0098422D03*
X0132434Y0098322D03*
X0132434Y0090822D03*
D43*
X0125384Y0090822D03*
D44*
X0132534Y0090922D03*
X0121534Y0102822D03*
X0121534Y0106522D03*
X0118334Y0108622D03*
X0118334Y0098422D03*
X0118334Y0090922D03*
D45*
X0125384Y0090922D03*
X0132084Y0098622D03*
X0121484Y0104322D03*
X0121484Y0104422D03*
X0121484Y0104522D03*
X0121484Y0104622D03*
X0121484Y0104722D03*
X0121484Y0104822D03*
X0121484Y0104922D03*
X0121484Y0105022D03*
X0118784Y0108822D03*
D46*
X0121484Y0106622D03*
X0121484Y0102722D03*
X0118284Y0098322D03*
X0118284Y0091022D03*
X0125384Y0091322D03*
X0126384Y0095822D03*
X0125184Y0098222D03*
X0126984Y0103522D03*
X0132584Y0098122D03*
X0132584Y0091022D03*
D47*
X0132684Y0091122D03*
X0132684Y0097922D03*
X0125284Y0098022D03*
X0125384Y0091422D03*
X0118184Y0091222D03*
X0118184Y0098122D03*
X0118184Y0100722D03*
X0118184Y0100822D03*
X0121484Y0106722D03*
X0118184Y0108522D03*
D48*
X0118484Y0108722D03*
X0121484Y0106222D03*
X0126584Y0095922D03*
X0125384Y0091122D03*
D49*
X0128334Y0097122D03*
X0125234Y0098122D03*
X0121534Y0102622D03*
X0118234Y0098222D03*
X0118234Y0091122D03*
X0132634Y0098022D03*
X0125834Y0107922D03*
D50*
X0125834Y0107822D03*
X0121534Y0106822D03*
X0121534Y0102522D03*
X0118134Y0100622D03*
X0125334Y0097922D03*
X0126234Y0095722D03*
X0132734Y0097822D03*
X0132734Y0091222D03*
D51*
X0132484Y0098222D03*
X0125384Y0091222D03*
X0125084Y0098322D03*
X0121484Y0106422D03*
X0125884Y0108022D03*
D52*
X0126884Y0103622D03*
X0125384Y0097822D03*
X0125384Y0091522D03*
X0132784Y0091322D03*
X0132784Y0097722D03*
X0118084Y0097922D03*
X0118084Y0098022D03*
X0118084Y0100522D03*
X0118084Y0100922D03*
X0118084Y0108422D03*
X0118084Y0091422D03*
X0118084Y0091322D03*
D53*
X0118034Y0091522D03*
X0121634Y0094222D03*
X0121634Y0094322D03*
X0121634Y0094422D03*
X0121634Y0094522D03*
X0121634Y0094622D03*
X0121634Y0094722D03*
X0121634Y0094822D03*
X0121634Y0094922D03*
X0121634Y0095022D03*
X0121634Y0095122D03*
X0118034Y0097822D03*
X0118034Y0100422D03*
X0118034Y0101022D03*
X0121534Y0102422D03*
X0121534Y0106922D03*
X0125834Y0107722D03*
X0125434Y0097722D03*
X0125434Y0097622D03*
X0126134Y0095622D03*
X0125434Y0091622D03*
X0132834Y0091522D03*
X0132834Y0091422D03*
X0132834Y0097522D03*
X0132834Y0097622D03*
D54*
X0132884Y0097422D03*
X0128384Y0097222D03*
X0125484Y0097522D03*
X0121684Y0095822D03*
X0121684Y0095722D03*
X0121684Y0095622D03*
X0121684Y0095522D03*
X0121684Y0095422D03*
X0121684Y0095322D03*
X0121684Y0095222D03*
X0121684Y0094122D03*
X0121684Y0094022D03*
X0121684Y0093922D03*
X0121684Y0093822D03*
X0121684Y0093722D03*
X0121684Y0093622D03*
X0121684Y0093522D03*
X0117984Y0091622D03*
X0117984Y0097722D03*
X0117984Y0100322D03*
X0117984Y0108322D03*
X0125884Y0107622D03*
X0129884Y0106222D03*
X0129884Y0106122D03*
X0129884Y0106022D03*
X0129884Y0105922D03*
X0129884Y0105822D03*
X0132884Y0091622D03*
X0125384Y0091722D03*
D55*
X0125384Y0091822D03*
X0125984Y0095422D03*
X0125584Y0097122D03*
X0125584Y0097222D03*
X0129184Y0093522D03*
X0129184Y0093422D03*
X0129184Y0093322D03*
X0129184Y0093222D03*
X0129184Y0093122D03*
X0129184Y0093022D03*
X0129184Y0092922D03*
X0132984Y0091922D03*
X0132984Y0091822D03*
X0132984Y0097122D03*
X0132984Y0097222D03*
X0126684Y0103822D03*
X0129984Y0105322D03*
X0129984Y0105422D03*
X0129984Y0106622D03*
X0129984Y0106722D03*
X0125884Y0107522D03*
X0121484Y0107022D03*
X0117884Y0101222D03*
X0117884Y0100122D03*
X0117884Y0097422D03*
X0121684Y0096422D03*
X0121684Y0096322D03*
X0121684Y0093122D03*
X0121684Y0093022D03*
X0121684Y0092922D03*
X0117884Y0091922D03*
D56*
X0121634Y0092022D03*
X0128434Y0097422D03*
X0129934Y0095922D03*
X0129234Y0091922D03*
X0117334Y0102422D03*
X0117334Y0102522D03*
X0117334Y0106922D03*
X0117334Y0107022D03*
X0126034Y0106122D03*
X0126034Y0106022D03*
X0126034Y0105922D03*
X0126034Y0105822D03*
X0126134Y0105322D03*
X0126134Y0105222D03*
X0126134Y0105122D03*
X0126134Y0105022D03*
D57*
X0125834Y0107422D03*
X0130034Y0106822D03*
X0130034Y0105222D03*
X0133034Y0097022D03*
X0133034Y0096922D03*
X0129234Y0093722D03*
X0129234Y0093622D03*
X0129234Y0092822D03*
X0129234Y0092722D03*
X0133034Y0092122D03*
X0133034Y0092022D03*
X0125434Y0091922D03*
X0125934Y0095322D03*
X0121634Y0096522D03*
X0121634Y0096622D03*
X0121634Y0092822D03*
X0121634Y0092722D03*
X0117834Y0092122D03*
X0117834Y0092022D03*
X0117834Y0097222D03*
X0117834Y0097322D03*
X0117834Y0100022D03*
X0117834Y0108122D03*
D58*
X0117784Y0108022D03*
X0117784Y0101322D03*
X0117784Y0099922D03*
X0117784Y0097122D03*
X0117784Y0097022D03*
X0121684Y0096722D03*
X0121684Y0092622D03*
X0117784Y0092322D03*
X0117784Y0092222D03*
X0125384Y0092022D03*
X0129184Y0092522D03*
X0129184Y0092622D03*
X0129184Y0093822D03*
X0129184Y0093922D03*
X0133084Y0092322D03*
X0133084Y0092222D03*
X0133084Y0096722D03*
X0133084Y0096822D03*
X0126584Y0103922D03*
X0125884Y0107322D03*
X0130084Y0106922D03*
X0130084Y0105122D03*
X0121484Y0102222D03*
D59*
X0117734Y0101422D03*
X0117734Y0099822D03*
X0117734Y0099722D03*
X0117734Y0096922D03*
X0117734Y0096822D03*
X0117734Y0096722D03*
X0121634Y0096822D03*
X0121634Y0092522D03*
X0117734Y0092522D03*
X0117734Y0092422D03*
X0117734Y0092622D03*
X0125434Y0092122D03*
X0125934Y0095222D03*
X0128434Y0097322D03*
X0129234Y0094022D03*
X0129234Y0092422D03*
X0133134Y0092422D03*
X0133134Y0092522D03*
X0133134Y0092622D03*
X0133134Y0096422D03*
X0133134Y0096522D03*
X0133134Y0096622D03*
X0126534Y0104022D03*
X0121534Y0107122D03*
X0117734Y0107922D03*
D60*
X0117684Y0107822D03*
X0117684Y0101522D03*
X0117684Y0099622D03*
X0117684Y0096622D03*
X0117684Y0096522D03*
X0117684Y0096422D03*
X0117684Y0096322D03*
X0117684Y0093022D03*
X0117684Y0092922D03*
X0117684Y0092822D03*
X0117684Y0092722D03*
X0121684Y0092422D03*
X0121684Y0096922D03*
X0125884Y0095122D03*
X0125384Y0092222D03*
X0129184Y0092322D03*
X0129184Y0094122D03*
X0133184Y0092922D03*
X0133184Y0092822D03*
X0133184Y0092722D03*
X0133184Y0096122D03*
X0133184Y0096222D03*
X0133184Y0096322D03*
X0130184Y0105022D03*
X0130184Y0107022D03*
X0125884Y0107122D03*
X0125884Y0107222D03*
D61*
X0127334Y0096822D03*
X0127434Y0096622D03*
X0127534Y0096422D03*
X0127634Y0096022D03*
D62*
X0127584Y0096122D03*
X0127584Y0096222D03*
X0127584Y0096322D03*
X0127484Y0096522D03*
X0128284Y0103222D03*
X0128284Y0103322D03*
D63*
X0127234Y0097022D03*
D64*
X0132234Y0098522D03*
X0121534Y0103422D03*
X0121534Y0103522D03*
X0121534Y0105822D03*
D65*
X0121484Y0105922D03*
X0121484Y0106022D03*
X0121484Y0103322D03*
X0124984Y0098522D03*
D66*
X0125034Y0098622D03*
X0125834Y0108322D03*
D67*
X0125134Y0098722D03*
D68*
X0131584Y0098822D03*
D69*
X0127984Y0102022D03*
X0125384Y0098822D03*
D70*
X0126984Y0099022D03*
D71*
X0127084Y0099122D03*
D72*
X0127134Y0099222D03*
D73*
X0127184Y0099322D03*
D74*
X0127234Y0099422D03*
X0127234Y0099522D03*
D75*
X0127284Y0099622D03*
D76*
X0127334Y0099722D03*
D77*
X0127384Y0099822D03*
D78*
X0127434Y0099922D03*
D79*
X0127484Y0100022D03*
D80*
X0127534Y0100122D03*
D81*
X0127584Y0100222D03*
D82*
X0127634Y0100322D03*
D83*
X0127684Y0100422D03*
D84*
X0128134Y0100522D03*
D85*
X0126934Y0100622D03*
D86*
X0127084Y0100722D03*
D87*
X0127234Y0100822D03*
D88*
X0127334Y0100922D03*
D89*
X0127434Y0101022D03*
D90*
X0127534Y0101122D03*
D91*
X0127584Y0101222D03*
D92*
X0127734Y0101422D03*
D93*
X0127784Y0101522D03*
D94*
X0127834Y0101622D03*
D95*
X0127884Y0101722D03*
D96*
X0128034Y0102122D03*
D97*
X0128084Y0102222D03*
X0128084Y0102322D03*
D98*
X0128134Y0102422D03*
X0128134Y0102522D03*
D99*
X0128184Y0102622D03*
X0128184Y0102722D03*
X0128184Y0102822D03*
X0126084Y0108622D03*
D100*
X0128234Y0103122D03*
X0128234Y0103022D03*
X0128234Y0102922D03*
D101*
X0121534Y0103822D03*
X0121534Y0103922D03*
X0121534Y0104022D03*
X0121534Y0104122D03*
X0121534Y0104222D03*
X0121534Y0105122D03*
X0121534Y0105222D03*
X0121534Y0105322D03*
X0121534Y0105422D03*
D102*
X0125884Y0108422D03*
D103*
X0125934Y0108522D03*
D104*
X0128434Y0108722D03*
D105*
X0128184Y0108822D03*
D106*
X0126555Y0083961D02*
X0124626Y0083961D01*
X0124626Y0082197D02*
X0126555Y0082197D01*
X0023143Y0038598D02*
X0021675Y0040066D01*
X0021675Y0035662D01*
X0023143Y0035662D02*
X0020207Y0035662D01*
D107*
X0123981Y0083060D03*
X0127181Y0083060D03*
D108*
X0071929Y0096858D02*
X0071929Y0033866D01*
X0008937Y0033866D01*
X0008937Y0096858D01*
X0071929Y0096858D01*
X0040433Y0057488D02*
X0040433Y0041740D01*
X0024685Y0041740D01*
X0024685Y0057488D01*
X0040433Y0057488D01*
X0048307Y0053551D02*
X0056181Y0053551D01*
X0056181Y0045677D01*
X0048307Y0045677D01*
X0048307Y0053551D01*
D109*
X0080192Y0055981D03*
X0080192Y0050281D03*
D110*
X0080217Y0065015D03*
X0080217Y0069615D03*
D111*
X0104685Y0033827D02*
X0104687Y0033866D01*
X0104693Y0033905D01*
X0104703Y0033943D01*
X0104716Y0033980D01*
X0104733Y0034015D01*
X0104753Y0034049D01*
X0104777Y0034080D01*
X0104804Y0034109D01*
X0104833Y0034135D01*
X0104865Y0034158D01*
X0104899Y0034178D01*
X0104935Y0034194D01*
X0104972Y0034206D01*
X0105011Y0034215D01*
X0105050Y0034220D01*
X0105089Y0034221D01*
X0105128Y0034218D01*
X0105167Y0034211D01*
X0105204Y0034200D01*
X0105241Y0034186D01*
X0105276Y0034168D01*
X0105309Y0034147D01*
X0105340Y0034122D01*
X0105368Y0034095D01*
X0105393Y0034065D01*
X0105415Y0034032D01*
X0105434Y0033998D01*
X0105449Y0033962D01*
X0105461Y0033924D01*
X0105469Y0033886D01*
X0105473Y0033847D01*
X0105473Y0033807D01*
X0105469Y0033768D01*
X0105461Y0033730D01*
X0105449Y0033692D01*
X0105434Y0033656D01*
X0105415Y0033622D01*
X0105393Y0033589D01*
X0105368Y0033559D01*
X0105340Y0033532D01*
X0105309Y0033507D01*
X0105276Y0033486D01*
X0105241Y0033468D01*
X0105204Y0033454D01*
X0105167Y0033443D01*
X0105128Y0033436D01*
X0105089Y0033433D01*
X0105050Y0033434D01*
X0105011Y0033439D01*
X0104972Y0033448D01*
X0104935Y0033460D01*
X0104899Y0033476D01*
X0104865Y0033496D01*
X0104833Y0033519D01*
X0104804Y0033545D01*
X0104777Y0033574D01*
X0104753Y0033605D01*
X0104733Y0033639D01*
X0104716Y0033674D01*
X0104703Y0033711D01*
X0104693Y0033749D01*
X0104687Y0033788D01*
X0104685Y0033827D01*
X0104685Y0019654D02*
X0104687Y0019693D01*
X0104693Y0019732D01*
X0104703Y0019770D01*
X0104716Y0019807D01*
X0104733Y0019842D01*
X0104753Y0019876D01*
X0104777Y0019907D01*
X0104804Y0019936D01*
X0104833Y0019962D01*
X0104865Y0019985D01*
X0104899Y0020005D01*
X0104935Y0020021D01*
X0104972Y0020033D01*
X0105011Y0020042D01*
X0105050Y0020047D01*
X0105089Y0020048D01*
X0105128Y0020045D01*
X0105167Y0020038D01*
X0105204Y0020027D01*
X0105241Y0020013D01*
X0105276Y0019995D01*
X0105309Y0019974D01*
X0105340Y0019949D01*
X0105368Y0019922D01*
X0105393Y0019892D01*
X0105415Y0019859D01*
X0105434Y0019825D01*
X0105449Y0019789D01*
X0105461Y0019751D01*
X0105469Y0019713D01*
X0105473Y0019674D01*
X0105473Y0019634D01*
X0105469Y0019595D01*
X0105461Y0019557D01*
X0105449Y0019519D01*
X0105434Y0019483D01*
X0105415Y0019449D01*
X0105393Y0019416D01*
X0105368Y0019386D01*
X0105340Y0019359D01*
X0105309Y0019334D01*
X0105276Y0019313D01*
X0105241Y0019295D01*
X0105204Y0019281D01*
X0105167Y0019270D01*
X0105128Y0019263D01*
X0105089Y0019260D01*
X0105050Y0019261D01*
X0105011Y0019266D01*
X0104972Y0019275D01*
X0104935Y0019287D01*
X0104899Y0019303D01*
X0104865Y0019323D01*
X0104833Y0019346D01*
X0104804Y0019372D01*
X0104777Y0019401D01*
X0104753Y0019432D01*
X0104733Y0019466D01*
X0104716Y0019501D01*
X0104703Y0019538D01*
X0104693Y0019576D01*
X0104687Y0019615D01*
X0104685Y0019654D01*
M02*
