G75*
%MOIN*%
%OFA0B0*%
%FSLAX25Y25*%
%IPPOS*%
%LPD*%
%AMOC8*
5,1,8,0,0,1.08239X$1,22.5*
%
%ADD10R,0.01378X0.09646*%
D10*
X0070526Y0137766D03*
X0072889Y0137766D03*
X0075251Y0137766D03*
X0077613Y0137766D03*
X0079975Y0137766D03*
X0082337Y0137766D03*
X0084700Y0137766D03*
X0087062Y0137766D03*
X0089424Y0137766D03*
X0091786Y0137766D03*
X0094148Y0137766D03*
X0096511Y0137766D03*
X0098873Y0137766D03*
X0101235Y0137766D03*
X0103597Y0137766D03*
X0105959Y0137766D03*
X0108322Y0137766D03*
X0110684Y0137766D03*
X0113046Y0137766D03*
X0115408Y0137766D03*
X0117770Y0137766D03*
X0120133Y0137766D03*
X0122495Y0137766D03*
X0124857Y0137766D03*
X0127219Y0137766D03*
X0129581Y0137766D03*
X0131944Y0137766D03*
X0134306Y0137766D03*
X0136668Y0137766D03*
X0139030Y0137766D03*
X0139030Y0155285D03*
X0136668Y0155285D03*
X0134306Y0155285D03*
X0131944Y0155285D03*
X0129581Y0155285D03*
X0127219Y0155285D03*
X0124857Y0155285D03*
X0122495Y0155285D03*
X0120133Y0155285D03*
X0117770Y0155285D03*
X0115408Y0155285D03*
X0113046Y0155285D03*
X0110684Y0155285D03*
X0108322Y0155285D03*
X0105959Y0155285D03*
X0103597Y0155285D03*
X0101235Y0155285D03*
X0098873Y0155285D03*
X0096511Y0155285D03*
X0094148Y0155285D03*
X0091786Y0155285D03*
X0089424Y0155285D03*
X0087062Y0155285D03*
X0084700Y0155285D03*
X0082337Y0155285D03*
X0079975Y0155285D03*
X0077613Y0155285D03*
X0075251Y0155285D03*
X0072889Y0155285D03*
X0070526Y0155285D03*
M02*
