G75*
%MOIN*%
%OFA0B0*%
%FSLAX25Y25*%
%IPPOS*%
%LPD*%
%AMOC8*
5,1,8,0,0,1.08239X$1,22.5*
%
%ADD10C,0.01100*%
%ADD11C,0.00600*%
%ADD12C,0.00400*%
%ADD13C,0.01400*%
%ADD14C,0.00700*%
%ADD15C,0.01600*%
%ADD16C,0.00500*%
%ADD17R,0.17300X0.00100*%
%ADD18R,0.06800X0.00100*%
%ADD19R,0.10000X0.00100*%
%ADD20R,0.01000X0.00100*%
%ADD21R,0.00800X0.00100*%
%ADD22R,0.00400X0.00100*%
%ADD23R,0.00200X0.00100*%
%ADD24R,0.00900X0.00100*%
%ADD25R,0.00700X0.00100*%
%ADD26R,0.00300X0.00100*%
%ADD27R,0.00600X0.00100*%
%ADD28R,0.00100X0.00100*%
%ADD29R,0.00500X0.00100*%
%ADD30R,0.01500X0.00100*%
%ADD31R,0.01200X0.00100*%
%ADD32R,0.01300X0.00100*%
%ADD33R,0.01400X0.00100*%
%ADD34R,0.01600X0.00100*%
%ADD35R,0.01700X0.00100*%
%ADD36R,0.08700X0.00100*%
%ADD37R,0.02300X0.00100*%
%ADD38R,0.04200X0.00100*%
%ADD39R,0.06300X0.00100*%
%ADD40R,0.04300X0.00100*%
%ADD41R,0.03800X0.00100*%
%ADD42R,0.05400X0.00100*%
%ADD43R,0.03500X0.00100*%
%ADD44R,0.04800X0.00100*%
%ADD45R,0.03300X0.00100*%
%ADD46R,0.04400X0.00100*%
%ADD47R,0.03100X0.00100*%
%ADD48R,0.04000X0.00100*%
%ADD49R,0.03000X0.00100*%
%ADD50R,0.02800X0.00100*%
%ADD51R,0.03400X0.00100*%
%ADD52R,0.02900X0.00100*%
%ADD53R,0.02700X0.00100*%
%ADD54R,0.03200X0.00100*%
%ADD55R,0.02600X0.00100*%
%ADD56R,0.02500X0.00100*%
%ADD57R,0.02400X0.00100*%
%ADD58R,0.02200X0.00100*%
%ADD59R,0.01100X0.00100*%
%ADD60R,0.02100X0.00100*%
%ADD61R,0.02000X0.00100*%
%ADD62R,0.01900X0.00100*%
%ADD63R,0.01800X0.00100*%
%ADD64R,0.05500X0.00100*%
%ADD65R,0.05600X0.00100*%
%ADD66R,0.05300X0.00100*%
%ADD67R,0.03700X0.00100*%
%ADD68R,0.03600X0.00100*%
%ADD69R,0.04100X0.00100*%
%ADD70R,0.04900X0.00100*%
%ADD71R,0.05000X0.00100*%
%ADD72R,0.06200X0.00100*%
%ADD73R,0.14200X0.00100*%
%ADD74R,0.14000X0.00100*%
%ADD75R,0.13900X0.00100*%
%ADD76R,0.13800X0.00100*%
%ADD77R,0.13700X0.00100*%
%ADD78R,0.13600X0.00100*%
%ADD79R,0.13500X0.00100*%
%ADD80R,0.13400X0.00100*%
%ADD81R,0.13300X0.00100*%
%ADD82R,0.13200X0.00100*%
%ADD83R,0.13100X0.00100*%
%ADD84R,0.13000X0.00100*%
%ADD85R,0.12900X0.00100*%
%ADD86R,0.12800X0.00100*%
%ADD87R,0.11900X0.00100*%
%ADD88R,0.08300X0.00100*%
%ADD89R,0.08000X0.00100*%
%ADD90R,0.07700X0.00100*%
%ADD91R,0.07500X0.00100*%
%ADD92R,0.07300X0.00100*%
%ADD93R,0.07100X0.00100*%
%ADD94R,0.07000X0.00100*%
%ADD95R,0.06700X0.00100*%
%ADD96R,0.06600X0.00100*%
%ADD97R,0.06500X0.00100*%
%ADD98R,0.06400X0.00100*%
%ADD99R,0.06100X0.00100*%
%ADD100R,0.06000X0.00100*%
%ADD101R,0.05900X0.00100*%
%ADD102R,0.05800X0.00100*%
%ADD103R,0.05700X0.00100*%
%ADD104R,0.03900X0.00100*%
%ADD105R,0.04600X0.00100*%
%ADD106R,0.05100X0.00100*%
%ADD107R,0.11300X0.00100*%
%ADD108R,0.11800X0.00100*%
%ADD109R,0.00142X0.00047*%
%ADD110R,0.00094X0.00047*%
%ADD111R,0.00236X0.00047*%
%ADD112R,0.00189X0.00047*%
%ADD113R,0.00283X0.00047*%
%ADD114R,0.00614X0.00047*%
%ADD115R,0.00378X0.00047*%
%ADD116R,0.00520X0.00047*%
%ADD117R,0.00709X0.00047*%
%ADD118R,0.00425X0.00047*%
%ADD119R,0.00472X0.00047*%
%ADD120R,0.00756X0.00047*%
%ADD121R,0.00803X0.00047*%
%ADD122R,0.00850X0.00047*%
%ADD123R,0.00661X0.00047*%
%ADD124R,0.00331X0.00047*%
%ADD125R,0.01039X0.00047*%
%ADD126R,0.00047X0.00047*%
%ADD127R,0.00992X0.00047*%
%ADD128R,0.00898X0.00047*%
%ADD129R,0.00945X0.00047*%
%ADD130R,0.00567X0.00047*%
%ADD131R,0.01323X0.00047*%
%ADD132R,0.01134X0.00047*%
%ADD133R,0.01701X0.00047*%
%ADD134R,0.02409X0.00047*%
%ADD135R,0.01370X0.00047*%
%ADD136R,0.02031X0.00047*%
%ADD137R,0.02740X0.00047*%
%ADD138R,0.01559X0.00047*%
%ADD139R,0.02268X0.00047*%
%ADD140R,0.02882X0.00047*%
%ADD141R,0.01087X0.00047*%
%ADD142R,0.02457X0.00047*%
%ADD143R,0.02976X0.00047*%
%ADD144R,0.01276X0.00047*%
%ADD145R,0.01843X0.00047*%
%ADD146R,0.01181X0.00047*%
%ADD147R,0.02646X0.00047*%
%ADD148R,0.03071X0.00047*%
%ADD149R,0.01937X0.00047*%
%ADD150R,0.01228X0.00047*%
%ADD151R,0.02787X0.00047*%
%ADD152R,0.03165X0.00047*%
%ADD153R,0.01417X0.00047*%
%ADD154R,0.02079X0.00047*%
%ADD155R,0.03260X0.00047*%
%ADD156R,0.01465X0.00047*%
%ADD157R,0.02173X0.00047*%
%ADD158R,0.02220X0.00047*%
%ADD159R,0.03213X0.00047*%
%ADD160R,0.03307X0.00047*%
%ADD161R,0.02315X0.00047*%
%ADD162R,0.03354X0.00047*%
%ADD163R,0.01606X0.00047*%
%ADD164R,0.03449X0.00047*%
%ADD165R,0.01654X0.00047*%
%ADD166R,0.03543X0.00047*%
%ADD167R,0.03638X0.00047*%
%ADD168R,0.03402X0.00047*%
%ADD169R,0.03685X0.00047*%
%ADD170R,0.02504X0.00047*%
%ADD171R,0.03780X0.00047*%
%ADD172R,0.02551X0.00047*%
%ADD173R,0.03827X0.00047*%
%ADD174R,0.03921X0.00047*%
%ADD175R,0.01748X0.00047*%
%ADD176R,0.03969X0.00047*%
%ADD177R,0.04016X0.00047*%
%ADD178R,0.03118X0.00047*%
%ADD179R,0.04110X0.00047*%
%ADD180R,0.04063X0.00047*%
%ADD181R,0.04205X0.00047*%
%ADD182R,0.03024X0.00047*%
%ADD183R,0.04299X0.00047*%
%ADD184R,0.02929X0.00047*%
%ADD185R,0.01984X0.00047*%
%ADD186R,0.02835X0.00047*%
%ADD187R,0.03732X0.00047*%
%ADD188R,0.02362X0.00047*%
%ADD189R,0.02598X0.00047*%
%ADD190R,0.01512X0.00047*%
%ADD191R,0.03496X0.00047*%
%ADD192R,0.03591X0.00047*%
%ADD193R,0.02693X0.00047*%
%ADD194R,0.02126X0.00047*%
%ADD195R,0.01890X0.00047*%
%ADD196R,0.01795X0.00047*%
%ADD197R,0.04394X0.00047*%
%ADD198R,0.04583X0.00047*%
%ADD199R,0.04630X0.00047*%
%ADD200R,0.04677X0.00047*%
%ADD201R,0.04772X0.00047*%
%ADD202R,0.04866X0.00047*%
%ADD203R,0.01360X0.00080*%
%ADD204R,0.02960X0.00080*%
%ADD205R,0.03760X0.00080*%
%ADD206R,0.04560X0.00080*%
%ADD207R,0.05200X0.00080*%
%ADD208R,0.05680X0.00080*%
%ADD209R,0.06160X0.00080*%
%ADD210R,0.06640X0.00080*%
%ADD211R,0.07120X0.00080*%
%ADD212R,0.07440X0.00080*%
%ADD213R,0.03280X0.00080*%
%ADD214R,0.02800X0.00080*%
%ADD215R,0.00880X0.00080*%
%ADD216R,0.02560X0.00080*%
%ADD217R,0.01280X0.00080*%
%ADD218R,0.02320X0.00080*%
%ADD219R,0.01600X0.00080*%
%ADD220R,0.02160X0.00080*%
%ADD221R,0.01840X0.00080*%
%ADD222R,0.02000X0.00080*%
%ADD223R,0.01920X0.00080*%
%ADD224R,0.03680X0.00080*%
%ADD225R,0.03520X0.00080*%
%ADD226R,0.01760X0.00080*%
%ADD227R,0.03440X0.00080*%
%ADD228R,0.01680X0.00080*%
%ADD229R,0.03120X0.00080*%
%ADD230R,0.03040X0.00080*%
%ADD231R,0.02880X0.00080*%
%ADD232R,0.01520X0.00080*%
%ADD233R,0.01440X0.00080*%
%ADD234R,0.01200X0.00080*%
%ADD235R,0.02720X0.00080*%
%ADD236R,0.01120X0.00080*%
%ADD237R,0.01120X0.00080*%
%ADD238R,0.01040X0.00080*%
%ADD239R,0.02720X0.00080*%
%ADD240R,0.01040X0.00080*%
%ADD241R,0.00960X0.00080*%
%ADD242R,0.06960X0.00080*%
%ADD243R,0.00800X0.00080*%
%ADD244R,0.00720X0.00080*%
%ADD245R,0.02640X0.00080*%
%ADD246R,0.01440X0.00080*%
%ADD247R,0.03120X0.00080*%
%ADD248R,0.03200X0.00080*%
%ADD249R,0.01920X0.00080*%
%ADD250R,0.00400X0.00080*%
%ADD251R,0.02240X0.00080*%
%ADD252R,0.02400X0.00080*%
%ADD253R,0.02640X0.00080*%
%ADD254R,0.07600X0.00080*%
%ADD255R,0.07280X0.00080*%
%ADD256R,0.06480X0.00080*%
%ADD257R,0.06000X0.00080*%
%ADD258R,0.05520X0.00080*%
%ADD259R,0.04880X0.00080*%
%ADD260R,0.04240X0.00080*%
%ADD261R,0.02320X0.00080*%
D10*
X0025407Y0112430D02*
X0028613Y0112430D01*
X0030845Y0112430D02*
X0030845Y0117240D01*
X0033250Y0117240D01*
X0034051Y0116438D01*
X0034051Y0114835D01*
X0033250Y0114033D01*
X0030845Y0114033D01*
X0028613Y0117240D02*
X0025407Y0117240D01*
X0025407Y0112430D01*
X0025407Y0114835D02*
X0027010Y0114835D01*
X0025407Y0121288D02*
X0025407Y0126098D01*
X0027812Y0126098D01*
X0028613Y0125296D01*
X0028613Y0123693D01*
X0027812Y0122891D01*
X0025407Y0122891D01*
X0030845Y0122090D02*
X0031646Y0121288D01*
X0033250Y0121288D01*
X0034051Y0122090D01*
X0034051Y0123693D01*
X0033250Y0124495D01*
X0031646Y0124495D01*
X0030845Y0123693D01*
X0030845Y0122090D01*
X0036283Y0122090D02*
X0037084Y0121288D01*
X0039489Y0121288D01*
X0041720Y0121288D02*
X0041720Y0126098D01*
X0039489Y0124495D02*
X0037084Y0124495D01*
X0036283Y0123693D01*
X0036283Y0122090D01*
X0037084Y0117240D02*
X0036283Y0116438D01*
X0036283Y0115636D01*
X0037084Y0114835D01*
X0038687Y0114835D01*
X0039489Y0114033D01*
X0039489Y0113232D01*
X0038687Y0112430D01*
X0037084Y0112430D01*
X0036283Y0113232D01*
X0037084Y0117240D02*
X0038687Y0117240D01*
X0039489Y0116438D01*
X0044125Y0121288D02*
X0041720Y0122891D01*
X0044125Y0124495D01*
X0046252Y0123693D02*
X0046252Y0122090D01*
X0047053Y0121288D01*
X0048656Y0121288D01*
X0049458Y0122891D02*
X0049458Y0123693D01*
X0048656Y0124495D01*
X0047053Y0124495D01*
X0046252Y0123693D01*
X0046252Y0122891D02*
X0049458Y0122891D01*
X0051689Y0124495D02*
X0053293Y0124495D01*
X0052491Y0125296D02*
X0052491Y0122090D01*
X0053293Y0121288D01*
X0055314Y0122090D02*
X0056116Y0121288D01*
X0057719Y0121288D01*
X0058521Y0122090D01*
X0058521Y0125296D01*
X0057719Y0126098D01*
X0056116Y0126098D01*
X0055314Y0125296D01*
X0055314Y0122090D01*
X0056918Y0122891D02*
X0058521Y0121288D01*
X0060752Y0122090D02*
X0061554Y0121288D01*
X0063959Y0121288D01*
X0063959Y0124495D01*
X0066190Y0124495D02*
X0068595Y0124495D01*
X0069396Y0123693D01*
X0069396Y0122090D01*
X0068595Y0121288D01*
X0066190Y0121288D01*
X0066190Y0126098D01*
X0060752Y0124495D02*
X0060752Y0122090D01*
X0071628Y0122090D02*
X0071628Y0123693D01*
X0072429Y0124495D01*
X0074032Y0124495D01*
X0074834Y0123693D01*
X0074834Y0122891D01*
X0071628Y0122891D01*
X0071628Y0122090D02*
X0072429Y0121288D01*
X0074032Y0121288D01*
D11*
X0031383Y0056496D02*
X0031383Y0056070D01*
X0031383Y0055220D02*
X0031383Y0053519D01*
X0031808Y0053519D02*
X0030957Y0053519D01*
X0029758Y0053519D02*
X0029758Y0055220D01*
X0030957Y0055220D02*
X0031383Y0055220D01*
X0032891Y0056070D02*
X0033316Y0056070D01*
X0033316Y0053519D01*
X0032891Y0053519D02*
X0033741Y0053519D01*
X0034824Y0053944D02*
X0034824Y0054794D01*
X0035249Y0055220D01*
X0036525Y0055220D01*
X0036525Y0056070D02*
X0036525Y0053519D01*
X0035249Y0053519D01*
X0034824Y0053944D01*
X0037724Y0053944D02*
X0038150Y0053519D01*
X0039425Y0053519D01*
X0039425Y0055220D01*
X0040624Y0055220D02*
X0041900Y0055220D01*
X0042326Y0054794D01*
X0042326Y0053944D01*
X0041900Y0053519D01*
X0040624Y0053519D01*
X0040624Y0056070D01*
X0037724Y0055220D02*
X0037724Y0053944D01*
X0043524Y0053944D02*
X0043950Y0053519D01*
X0044800Y0053519D01*
X0045226Y0053944D01*
X0045226Y0054794D01*
X0044800Y0055220D01*
X0043950Y0055220D01*
X0043524Y0054794D01*
X0043524Y0053944D01*
X0046425Y0053944D02*
X0046850Y0053944D01*
X0046850Y0053519D01*
X0046425Y0053519D01*
X0046425Y0053944D01*
X0047875Y0053944D02*
X0047875Y0054794D01*
X0048300Y0055220D01*
X0049576Y0055220D01*
X0050775Y0054794D02*
X0050775Y0053944D01*
X0051200Y0053519D01*
X0052051Y0053519D01*
X0052476Y0053944D01*
X0052476Y0054794D01*
X0052051Y0055220D01*
X0051200Y0055220D01*
X0050775Y0054794D01*
X0049576Y0053519D02*
X0048300Y0053519D01*
X0047875Y0053944D01*
X0053675Y0053944D02*
X0054100Y0053944D01*
X0054100Y0053519D01*
X0053675Y0053519D01*
X0053675Y0053944D01*
X0055125Y0053944D02*
X0055125Y0055220D01*
X0055125Y0053944D02*
X0055550Y0053519D01*
X0056826Y0053519D01*
X0056826Y0055220D01*
X0058025Y0056070D02*
X0058025Y0053519D01*
X0058025Y0054369D02*
X0059301Y0055220D01*
X0058025Y0054369D02*
X0059301Y0053519D01*
X0059504Y0034811D02*
X0057834Y0034811D01*
X0057834Y0031471D01*
X0057834Y0032585D02*
X0059504Y0032585D01*
X0060061Y0033141D01*
X0060061Y0034254D01*
X0059504Y0034811D01*
X0061459Y0033141D02*
X0061459Y0032028D01*
X0062016Y0031471D01*
X0063129Y0031471D01*
X0063686Y0032028D01*
X0063686Y0033141D01*
X0063129Y0033698D01*
X0062016Y0033698D01*
X0061459Y0033141D01*
X0065085Y0033698D02*
X0065085Y0032028D01*
X0065641Y0031471D01*
X0066198Y0032028D01*
X0066754Y0031471D01*
X0067311Y0032028D01*
X0067311Y0033698D01*
X0068710Y0033141D02*
X0069266Y0033698D01*
X0070380Y0033698D01*
X0070936Y0033141D01*
X0070936Y0032585D01*
X0068710Y0032585D01*
X0068710Y0033141D02*
X0068710Y0032028D01*
X0069266Y0031471D01*
X0070380Y0031471D01*
X0072335Y0031471D02*
X0072335Y0033698D01*
X0073448Y0033698D02*
X0074005Y0033698D01*
X0073448Y0033698D02*
X0072335Y0032585D01*
X0072796Y0027792D02*
X0071683Y0027792D01*
X0071126Y0027236D01*
X0071126Y0026122D01*
X0071683Y0025566D01*
X0072796Y0025566D01*
X0073353Y0026679D02*
X0071126Y0026679D01*
X0069728Y0026122D02*
X0069171Y0025566D01*
X0067501Y0025566D01*
X0067501Y0024452D02*
X0067501Y0027792D01*
X0069171Y0027792D01*
X0069728Y0027236D01*
X0069728Y0026122D01*
X0072796Y0027792D02*
X0073353Y0027236D01*
X0073353Y0026679D01*
X0074752Y0026679D02*
X0075865Y0027792D01*
X0076421Y0027792D01*
X0074752Y0027792D02*
X0074752Y0025566D01*
X0066103Y0025566D02*
X0066103Y0027236D01*
X0065546Y0027792D01*
X0064989Y0027236D01*
X0064989Y0025566D01*
X0063876Y0025566D02*
X0063876Y0027792D01*
X0064433Y0027792D01*
X0064989Y0027236D01*
X0062478Y0027792D02*
X0062478Y0025566D01*
X0060808Y0025566D01*
X0060251Y0026122D01*
X0060251Y0027792D01*
X0058948Y0027792D02*
X0058948Y0025009D01*
X0058391Y0024452D01*
X0057834Y0024452D01*
X0058948Y0028906D02*
X0058948Y0029462D01*
X0029758Y0053519D02*
X0028482Y0053519D01*
X0028057Y0053944D01*
X0028057Y0055220D01*
X0026858Y0054794D02*
X0026858Y0053944D01*
X0026433Y0053519D01*
X0025157Y0053519D01*
X0025157Y0056070D01*
X0025157Y0055220D02*
X0026433Y0055220D01*
X0026858Y0054794D01*
X0152390Y0055437D02*
X0155730Y0055437D01*
X0155730Y0053767D01*
X0155173Y0053211D01*
X0154060Y0053211D01*
X0153504Y0053767D01*
X0153504Y0055437D01*
X0154060Y0051812D02*
X0153504Y0051255D01*
X0153504Y0050142D01*
X0154060Y0049585D01*
X0155173Y0049585D01*
X0155730Y0050142D01*
X0155730Y0051255D01*
X0155173Y0051812D01*
X0154060Y0051812D01*
X0153504Y0048187D02*
X0153504Y0047074D01*
X0153504Y0047630D02*
X0156843Y0047630D01*
X0156843Y0048187D01*
X0155730Y0045770D02*
X0154060Y0045770D01*
X0153504Y0045213D01*
X0153504Y0043544D01*
X0152947Y0043544D02*
X0152390Y0044100D01*
X0152390Y0044657D01*
X0152947Y0043544D02*
X0155730Y0043544D01*
X0155730Y0042145D02*
X0155730Y0041588D01*
X0155173Y0041032D01*
X0155730Y0040475D01*
X0155173Y0039918D01*
X0153504Y0039918D01*
X0153504Y0041032D02*
X0155173Y0041032D01*
X0155730Y0042145D02*
X0153504Y0042145D01*
X0154060Y0038520D02*
X0155173Y0038520D01*
X0155730Y0037963D01*
X0155730Y0036850D01*
X0155173Y0036293D01*
X0154617Y0036293D01*
X0154617Y0038520D01*
X0154060Y0038520D02*
X0153504Y0037963D01*
X0153504Y0036850D01*
X0153504Y0034895D02*
X0155730Y0034895D01*
X0154617Y0034895D02*
X0155730Y0033781D01*
X0155730Y0033225D01*
X0155173Y0060461D02*
X0153504Y0060461D01*
X0153504Y0061574D02*
X0155173Y0061574D01*
X0155730Y0061017D01*
X0155173Y0060461D01*
X0155173Y0061574D02*
X0155730Y0062131D01*
X0155730Y0062687D01*
X0153504Y0062687D01*
X0153504Y0064086D02*
X0155730Y0064086D01*
X0153504Y0064086D02*
X0153504Y0065756D01*
X0154060Y0066313D01*
X0155730Y0066313D01*
X0155730Y0068173D02*
X0153504Y0068173D01*
X0153504Y0068729D02*
X0153504Y0067616D01*
X0155730Y0068173D02*
X0155730Y0068729D01*
X0156843Y0068173D02*
X0157400Y0068173D01*
X0155173Y0070128D02*
X0153504Y0070128D01*
X0155173Y0070128D02*
X0155730Y0070685D01*
X0155730Y0071798D01*
X0155173Y0072354D01*
X0155730Y0073658D02*
X0155730Y0074771D01*
X0156287Y0074215D02*
X0154060Y0074215D01*
X0153504Y0073658D01*
X0153504Y0072354D02*
X0156843Y0072354D01*
X0156843Y0076631D02*
X0157400Y0076631D01*
X0155730Y0076631D02*
X0153504Y0076631D01*
X0153504Y0076075D02*
X0153504Y0077188D01*
X0153504Y0078491D02*
X0153504Y0079605D01*
X0153504Y0079048D02*
X0156843Y0079048D01*
X0156843Y0079605D01*
X0155730Y0077188D02*
X0155730Y0076631D01*
X0153504Y0084533D02*
X0153504Y0085647D01*
X0153504Y0085090D02*
X0156843Y0085090D01*
X0156843Y0085647D01*
X0156843Y0087507D02*
X0153504Y0087507D01*
X0153504Y0088063D02*
X0153504Y0086950D01*
X0154617Y0089462D02*
X0154617Y0091689D01*
X0155173Y0091689D02*
X0155730Y0091132D01*
X0155730Y0090019D01*
X0155173Y0089462D01*
X0154617Y0089462D01*
X0153504Y0090019D02*
X0153504Y0091132D01*
X0154060Y0091689D01*
X0155173Y0091689D01*
X0155730Y0093087D02*
X0155730Y0094757D01*
X0155173Y0095314D01*
X0154060Y0095314D01*
X0153504Y0094757D01*
X0153504Y0093087D01*
X0156843Y0088063D02*
X0156843Y0087507D01*
X0155173Y0100337D02*
X0154617Y0100337D01*
X0154617Y0102564D01*
X0155173Y0102564D02*
X0155730Y0102007D01*
X0155730Y0100894D01*
X0155173Y0100337D01*
X0153504Y0100894D02*
X0153504Y0102007D01*
X0154060Y0102564D01*
X0155173Y0102564D01*
X0153504Y0103867D02*
X0153504Y0104981D01*
X0153504Y0104424D02*
X0156843Y0104424D01*
X0156843Y0104981D01*
X0155730Y0106379D02*
X0155730Y0108049D01*
X0155173Y0108606D01*
X0154060Y0108606D01*
X0153504Y0108049D01*
X0153504Y0106379D01*
X0152947Y0106379D02*
X0155730Y0106379D01*
X0152947Y0106379D02*
X0152390Y0106936D01*
X0152390Y0107493D01*
X0153504Y0110004D02*
X0155173Y0110004D01*
X0155730Y0110561D01*
X0155730Y0112231D01*
X0153504Y0112231D01*
X0153504Y0113534D02*
X0153504Y0114648D01*
X0153504Y0114091D02*
X0155730Y0114091D01*
X0155730Y0114648D01*
X0156843Y0114091D02*
X0157400Y0114091D01*
X0156287Y0116046D02*
X0156843Y0116603D01*
X0156843Y0117716D01*
X0156287Y0118273D01*
X0155730Y0118273D01*
X0155173Y0117716D01*
X0155173Y0116603D01*
X0154617Y0116046D01*
X0154060Y0116046D01*
X0153504Y0116603D01*
X0153504Y0117716D01*
X0154060Y0118273D01*
D12*
X0049467Y0013256D02*
X0049467Y0011293D01*
X0049467Y0012274D02*
X0050121Y0012274D01*
X0049467Y0013256D02*
X0050776Y0013256D01*
X0051642Y0013256D02*
X0051642Y0011293D01*
X0052624Y0011293D01*
X0052951Y0011620D01*
X0052951Y0012929D01*
X0052624Y0013256D01*
X0051642Y0013256D01*
X0053817Y0012274D02*
X0055126Y0012274D01*
X0054799Y0011293D02*
X0054799Y0013256D01*
X0053817Y0012274D01*
X0168758Y0040004D02*
X0168758Y0040658D01*
X0169085Y0040985D01*
X0169740Y0040985D01*
X0170067Y0040658D01*
X0170067Y0040004D01*
X0169740Y0039676D01*
X0169413Y0039676D01*
X0169413Y0040985D01*
X0170067Y0041781D02*
X0170067Y0042435D01*
X0170394Y0042108D02*
X0169085Y0042108D01*
X0168758Y0041781D01*
X0168758Y0043301D02*
X0168758Y0044283D01*
X0169085Y0044611D01*
X0169413Y0044283D01*
X0169413Y0043301D01*
X0169740Y0043301D02*
X0168758Y0043301D01*
X0169740Y0043301D02*
X0170067Y0043629D01*
X0170067Y0044283D01*
X0170067Y0045441D02*
X0170067Y0045769D01*
X0169413Y0046423D01*
X0170067Y0046423D02*
X0168758Y0046423D01*
X0169413Y0049464D02*
X0169413Y0050773D01*
X0169740Y0050773D02*
X0170067Y0050446D01*
X0170067Y0049791D01*
X0169740Y0049464D01*
X0169413Y0049464D01*
X0168758Y0049791D02*
X0168758Y0050446D01*
X0169085Y0050773D01*
X0169740Y0050773D01*
X0170067Y0051639D02*
X0168431Y0051639D01*
X0168103Y0051966D01*
X0168103Y0052294D01*
X0168758Y0052621D02*
X0168758Y0051639D01*
X0168758Y0052621D02*
X0169085Y0052948D01*
X0169740Y0052948D01*
X0170067Y0052621D01*
X0170067Y0051639D01*
X0170067Y0053779D02*
X0170067Y0054106D01*
X0169413Y0054761D01*
X0170067Y0054761D02*
X0168758Y0054761D01*
X0168758Y0055627D02*
X0168758Y0056609D01*
X0169085Y0056936D01*
X0169413Y0056609D01*
X0169413Y0055627D01*
X0169740Y0055627D02*
X0168758Y0055627D01*
X0169740Y0055627D02*
X0170067Y0055954D01*
X0170067Y0056609D01*
X0169740Y0057802D02*
X0170067Y0058129D01*
X0170067Y0058784D01*
X0169740Y0059111D01*
X0170067Y0059977D02*
X0170067Y0060959D01*
X0169740Y0061286D01*
X0169085Y0061286D01*
X0168758Y0060959D01*
X0168758Y0059977D01*
X0168758Y0059111D02*
X0170722Y0059111D01*
X0172301Y0058784D02*
X0172628Y0059111D01*
X0173938Y0057802D01*
X0172628Y0057802D01*
X0172301Y0058129D01*
X0172301Y0058784D01*
X0172628Y0059111D02*
X0173938Y0059111D01*
X0174265Y0058784D01*
X0174265Y0058129D01*
X0173938Y0057802D01*
X0173938Y0056936D02*
X0174265Y0056609D01*
X0174265Y0055954D01*
X0173938Y0055627D01*
X0172628Y0056936D01*
X0172301Y0056609D01*
X0172301Y0055954D01*
X0172628Y0055627D01*
X0173938Y0055627D01*
X0173610Y0054761D02*
X0173610Y0054434D01*
X0173283Y0054106D01*
X0173610Y0053779D01*
X0173283Y0053452D01*
X0172301Y0053452D01*
X0172301Y0054106D02*
X0173283Y0054106D01*
X0173610Y0054761D02*
X0172301Y0054761D01*
X0172628Y0056936D02*
X0173938Y0056936D01*
X0175844Y0057042D02*
X0175844Y0057696D01*
X0176172Y0058024D01*
X0176826Y0058024D02*
X0177154Y0057369D01*
X0177154Y0057042D01*
X0176826Y0056714D01*
X0176172Y0056714D01*
X0175844Y0057042D01*
X0176826Y0058024D02*
X0177808Y0058024D01*
X0177808Y0056714D01*
X0176826Y0055849D02*
X0176826Y0054539D01*
X0176826Y0053673D02*
X0176826Y0052364D01*
X0175844Y0052691D02*
X0177808Y0052691D01*
X0176826Y0053673D01*
X0176172Y0051498D02*
X0176172Y0051171D01*
X0175844Y0051171D01*
X0175844Y0051498D01*
X0176172Y0051498D01*
X0175844Y0050411D02*
X0177154Y0049102D01*
X0177481Y0049102D01*
X0177808Y0049429D01*
X0177808Y0050083D01*
X0177481Y0050411D01*
X0175844Y0050411D02*
X0175844Y0049102D01*
X0176499Y0048236D02*
X0175844Y0047581D01*
X0176499Y0046926D01*
X0177808Y0046926D01*
X0177808Y0048236D02*
X0176499Y0048236D01*
X0179388Y0046786D02*
X0179388Y0045476D01*
X0179388Y0044611D02*
X0179388Y0043956D01*
X0179388Y0044283D02*
X0180697Y0044283D01*
X0180697Y0044611D01*
X0181352Y0044283D02*
X0181679Y0044283D01*
X0180370Y0043161D02*
X0180370Y0041851D01*
X0180697Y0040985D02*
X0180697Y0040658D01*
X0179388Y0040658D01*
X0179388Y0040985D02*
X0179388Y0040331D01*
X0179715Y0039535D02*
X0179388Y0039208D01*
X0179388Y0038553D01*
X0179715Y0038226D01*
X0180370Y0038226D01*
X0180697Y0038553D01*
X0180697Y0039208D01*
X0180370Y0039535D01*
X0179715Y0039535D01*
X0181352Y0040658D02*
X0181679Y0040658D01*
X0180697Y0037360D02*
X0179388Y0037360D01*
X0179388Y0036051D02*
X0180370Y0036051D01*
X0180697Y0036378D01*
X0180697Y0037360D01*
X0173610Y0042576D02*
X0172301Y0043886D01*
X0172301Y0044751D02*
X0172301Y0045733D01*
X0172628Y0046061D01*
X0172956Y0045733D01*
X0172956Y0044751D01*
X0173283Y0044751D02*
X0172301Y0044751D01*
X0173283Y0044751D02*
X0173610Y0045079D01*
X0173610Y0045733D01*
X0173283Y0046926D02*
X0172301Y0046926D01*
X0172301Y0047581D02*
X0173283Y0047581D01*
X0173610Y0047254D01*
X0173283Y0046926D01*
X0173283Y0047581D02*
X0173610Y0047908D01*
X0173610Y0048236D01*
X0172301Y0048236D01*
X0172301Y0051277D02*
X0173610Y0051277D01*
X0174265Y0051931D01*
X0173610Y0052586D01*
X0172301Y0052586D01*
X0173283Y0052586D02*
X0173283Y0051277D01*
X0179388Y0051136D02*
X0181352Y0049827D01*
X0181352Y0046786D02*
X0179388Y0046786D01*
X0173610Y0043886D02*
X0172301Y0042576D01*
X0179715Y0054177D02*
X0180370Y0054177D01*
X0180697Y0054504D01*
X0180697Y0055159D01*
X0180370Y0055486D01*
X0179715Y0055486D01*
X0179388Y0055159D01*
X0179388Y0054504D01*
X0179715Y0054177D01*
X0180370Y0056352D02*
X0180042Y0056679D01*
X0180042Y0057661D01*
X0179388Y0057661D02*
X0181352Y0057661D01*
X0181352Y0056679D01*
X0181024Y0056352D01*
X0180370Y0056352D01*
X0179388Y0058457D02*
X0179388Y0059111D01*
X0179388Y0058784D02*
X0180697Y0058784D01*
X0180697Y0059111D01*
X0181352Y0058784D02*
X0181679Y0058784D01*
X0181352Y0061286D02*
X0179388Y0061286D01*
X0179388Y0059977D01*
X0177808Y0060304D02*
X0177481Y0059977D01*
X0177154Y0059977D01*
X0176826Y0060304D01*
X0176499Y0059977D01*
X0176172Y0059977D01*
X0175844Y0060304D01*
X0175844Y0060959D01*
X0176172Y0061286D01*
X0176826Y0060632D02*
X0176826Y0060304D01*
X0177808Y0060304D02*
X0177808Y0060959D01*
X0177481Y0061286D01*
X0176172Y0059111D02*
X0176172Y0058784D01*
X0175844Y0058784D01*
X0175844Y0059111D01*
X0176172Y0059111D01*
X0174265Y0059977D02*
X0174265Y0061286D01*
X0173283Y0061286D01*
X0173610Y0060632D01*
X0173610Y0060304D01*
X0173283Y0059977D01*
X0172628Y0059977D01*
X0172301Y0060304D01*
X0172301Y0060959D01*
X0172628Y0061286D01*
X0169740Y0057802D02*
X0168758Y0057802D01*
X0140426Y0129009D02*
X0139444Y0129991D01*
X0139117Y0129664D02*
X0140426Y0130973D01*
X0139117Y0130973D02*
X0139117Y0129009D01*
X0138251Y0129336D02*
X0138251Y0130973D01*
X0136942Y0130973D02*
X0136942Y0129336D01*
X0137269Y0129009D01*
X0137924Y0129009D01*
X0138251Y0129336D01*
X0133901Y0129664D02*
X0132592Y0129664D01*
X0132592Y0129991D02*
X0132592Y0129336D01*
X0132919Y0129009D01*
X0133573Y0129009D01*
X0133901Y0129664D02*
X0133901Y0129991D01*
X0133573Y0130318D01*
X0132919Y0130318D01*
X0132592Y0129991D01*
X0131726Y0129991D02*
X0131726Y0129009D01*
X0131726Y0129991D02*
X0131398Y0130318D01*
X0130744Y0130318D01*
X0130416Y0129991D01*
X0129621Y0130318D02*
X0128966Y0130318D01*
X0129294Y0130646D02*
X0129294Y0129336D01*
X0129621Y0129009D01*
X0130416Y0129009D02*
X0130416Y0130973D01*
X0125925Y0129991D02*
X0125925Y0129009D01*
X0125925Y0129991D02*
X0125598Y0130318D01*
X0124616Y0130318D01*
X0124616Y0129009D01*
X0123821Y0129009D02*
X0123166Y0129009D01*
X0123493Y0129009D02*
X0123493Y0130318D01*
X0123166Y0130318D01*
X0123493Y0130973D02*
X0123493Y0131300D01*
X0120125Y0130973D02*
X0120125Y0129009D01*
X0119143Y0129009D01*
X0118816Y0129336D01*
X0118816Y0129991D01*
X0119143Y0130318D01*
X0120125Y0130318D01*
X0117950Y0129991D02*
X0117950Y0129664D01*
X0116641Y0129664D01*
X0116641Y0129991D02*
X0116641Y0129336D01*
X0116968Y0129009D01*
X0117623Y0129009D01*
X0117950Y0129991D02*
X0117623Y0130318D01*
X0116968Y0130318D01*
X0116641Y0129991D01*
X0115810Y0130318D02*
X0115483Y0130318D01*
X0114828Y0129664D01*
X0114828Y0130318D02*
X0114828Y0129009D01*
X0113963Y0129009D02*
X0113963Y0130318D01*
X0113963Y0129009D02*
X0112981Y0129009D01*
X0112653Y0129336D01*
X0112653Y0130318D01*
X0111858Y0130318D02*
X0111203Y0130318D01*
X0111531Y0130646D02*
X0111531Y0129336D01*
X0111858Y0129009D01*
X0110337Y0129009D02*
X0109355Y0129009D01*
X0109028Y0129336D01*
X0109028Y0129991D01*
X0109355Y0130318D01*
X0110337Y0130318D01*
X0108162Y0129991D02*
X0108162Y0129009D01*
X0107180Y0129009D01*
X0106853Y0129336D01*
X0107180Y0129664D01*
X0108162Y0129664D01*
X0108162Y0129991D02*
X0107835Y0130318D01*
X0107180Y0130318D01*
X0106058Y0129991D02*
X0105403Y0129991D01*
X0105730Y0130646D02*
X0105730Y0129009D01*
X0104537Y0129009D02*
X0104537Y0130318D01*
X0105730Y0130646D02*
X0106058Y0130973D01*
X0104537Y0129009D02*
X0103555Y0129009D01*
X0103228Y0129336D01*
X0103228Y0130318D01*
X0102362Y0129991D02*
X0102362Y0129009D01*
X0102362Y0129991D02*
X0102035Y0130318D01*
X0101053Y0130318D01*
X0101053Y0129009D01*
X0100187Y0129009D02*
X0099205Y0129009D01*
X0098878Y0129336D01*
X0099205Y0129664D01*
X0100187Y0129664D01*
X0100187Y0129991D02*
X0100187Y0129009D01*
X0100187Y0129991D02*
X0099860Y0130318D01*
X0099205Y0130318D01*
X0098012Y0129991D02*
X0098012Y0129009D01*
X0097357Y0129009D02*
X0097357Y0129991D01*
X0097685Y0130318D01*
X0098012Y0129991D01*
X0097357Y0129991D02*
X0097030Y0130318D01*
X0096703Y0130318D01*
X0096703Y0129009D01*
X0093662Y0129009D02*
X0092680Y0129009D01*
X0092352Y0129336D01*
X0092352Y0129991D01*
X0092680Y0130318D01*
X0093662Y0130318D01*
X0093662Y0130973D02*
X0093662Y0129009D01*
X0091487Y0129009D02*
X0091487Y0129991D01*
X0091159Y0130318D01*
X0090177Y0130318D01*
X0090177Y0129009D01*
X0089312Y0129009D02*
X0089312Y0129991D01*
X0088984Y0130318D01*
X0088330Y0130318D01*
X0088330Y0129664D02*
X0089312Y0129664D01*
X0089312Y0129009D02*
X0088330Y0129009D01*
X0088002Y0129336D01*
X0088330Y0129664D01*
X0084961Y0130318D02*
X0083979Y0130318D01*
X0083652Y0129991D01*
X0083652Y0129336D01*
X0083979Y0129009D01*
X0084961Y0129009D01*
X0084961Y0130973D01*
X0082786Y0129991D02*
X0082786Y0129664D01*
X0081477Y0129664D01*
X0081477Y0129991D02*
X0081477Y0129336D01*
X0081804Y0129009D01*
X0082459Y0129009D01*
X0082786Y0129991D02*
X0082459Y0130318D01*
X0081804Y0130318D01*
X0081477Y0129991D01*
X0080611Y0129991D02*
X0080611Y0129009D01*
X0080611Y0129991D02*
X0080284Y0130318D01*
X0079302Y0130318D01*
X0079302Y0129009D01*
X0078436Y0129009D02*
X0077454Y0129009D01*
X0077127Y0129336D01*
X0077127Y0129991D01*
X0077454Y0130318D01*
X0078436Y0130318D01*
X0078436Y0128682D01*
X0078109Y0128354D01*
X0077782Y0128354D01*
X0076331Y0129009D02*
X0075677Y0129009D01*
X0076004Y0129009D02*
X0076004Y0130318D01*
X0075677Y0130318D01*
X0076004Y0130973D02*
X0076004Y0131300D01*
X0074811Y0130318D02*
X0073829Y0130318D01*
X0073502Y0129991D01*
X0073829Y0129664D01*
X0074484Y0129664D01*
X0074811Y0129336D01*
X0074484Y0129009D01*
X0073502Y0129009D01*
X0072636Y0129664D02*
X0071327Y0129664D01*
X0071327Y0129991D02*
X0071327Y0129336D01*
X0071654Y0129009D01*
X0072309Y0129009D01*
X0072636Y0129664D02*
X0072636Y0129991D01*
X0072309Y0130318D01*
X0071654Y0130318D01*
X0071327Y0129991D01*
X0070461Y0130646D02*
X0070134Y0130973D01*
X0069152Y0130973D01*
X0069152Y0129009D01*
X0070134Y0129009D01*
X0070461Y0129336D01*
X0070461Y0130646D01*
X0054799Y0158143D02*
X0054144Y0158143D01*
X0053817Y0158470D01*
X0052951Y0158470D02*
X0052951Y0159779D01*
X0052624Y0160107D01*
X0051642Y0160107D01*
X0051642Y0158143D01*
X0052624Y0158143D01*
X0052951Y0158470D01*
X0053817Y0159779D02*
X0054144Y0160107D01*
X0054799Y0160107D01*
X0055126Y0159779D01*
X0055126Y0159452D01*
X0054799Y0159125D01*
X0055126Y0158798D01*
X0055126Y0158470D01*
X0054799Y0158143D01*
X0054799Y0159125D02*
X0054471Y0159125D01*
X0050776Y0160107D02*
X0049467Y0160107D01*
X0049467Y0158143D01*
X0049467Y0159125D02*
X0050121Y0159125D01*
X0060030Y0169560D02*
X0060685Y0169560D01*
X0061012Y0169888D01*
X0061878Y0169888D02*
X0062205Y0169560D01*
X0062860Y0169560D01*
X0063187Y0169888D01*
X0063187Y0170542D01*
X0062860Y0170869D01*
X0062205Y0170869D01*
X0061878Y0170542D01*
X0061878Y0169888D01*
X0061012Y0171197D02*
X0060685Y0171524D01*
X0060030Y0171524D01*
X0059703Y0171197D01*
X0059703Y0169888D01*
X0060030Y0169560D01*
X0064053Y0169560D02*
X0065035Y0169560D01*
X0065362Y0169888D01*
X0065362Y0170542D01*
X0065035Y0170869D01*
X0064053Y0170869D01*
X0064053Y0168906D01*
X0066228Y0169888D02*
X0066228Y0170869D01*
X0066228Y0169888D02*
X0066555Y0169560D01*
X0067537Y0169560D01*
X0067537Y0169233D02*
X0067210Y0168906D01*
X0066883Y0168906D01*
X0067537Y0169233D02*
X0067537Y0170869D01*
X0068403Y0170869D02*
X0068403Y0169560D01*
X0068403Y0170215D02*
X0069058Y0170869D01*
X0069385Y0170869D01*
X0070216Y0170869D02*
X0070543Y0170869D01*
X0070543Y0169560D01*
X0070216Y0169560D02*
X0070870Y0169560D01*
X0071666Y0169888D02*
X0071993Y0169560D01*
X0072975Y0169560D01*
X0072975Y0169233D02*
X0072975Y0170869D01*
X0071993Y0170869D01*
X0071666Y0170542D01*
X0071666Y0169888D01*
X0072320Y0168906D02*
X0072648Y0168906D01*
X0072975Y0169233D01*
X0073841Y0169560D02*
X0073841Y0171524D01*
X0074168Y0170869D02*
X0074823Y0170869D01*
X0075150Y0170542D01*
X0075150Y0169560D01*
X0076343Y0169888D02*
X0076343Y0171197D01*
X0076016Y0170869D02*
X0076671Y0170869D01*
X0076343Y0169888D02*
X0076671Y0169560D01*
X0079641Y0169560D02*
X0080950Y0170869D01*
X0080950Y0171197D01*
X0080623Y0171524D01*
X0079968Y0171524D01*
X0079641Y0171197D01*
X0079641Y0169560D02*
X0080950Y0169560D01*
X0081816Y0169888D02*
X0083125Y0171197D01*
X0083125Y0169888D01*
X0082798Y0169560D01*
X0082143Y0169560D01*
X0081816Y0169888D01*
X0081816Y0171197D01*
X0082143Y0171524D01*
X0082798Y0171524D01*
X0083125Y0171197D01*
X0083991Y0170869D02*
X0084646Y0171524D01*
X0084646Y0169560D01*
X0085300Y0169560D02*
X0083991Y0169560D01*
X0086166Y0169888D02*
X0086494Y0169560D01*
X0087148Y0169560D01*
X0087476Y0169888D01*
X0087476Y0171197D01*
X0087148Y0171524D01*
X0086494Y0171524D01*
X0086166Y0171197D01*
X0086166Y0170869D01*
X0086494Y0170542D01*
X0087476Y0170542D01*
X0090516Y0170869D02*
X0090844Y0170542D01*
X0091498Y0170542D01*
X0091826Y0170215D01*
X0091826Y0169888D01*
X0091498Y0169560D01*
X0090844Y0169560D01*
X0090516Y0169888D01*
X0090516Y0170869D02*
X0090516Y0171197D01*
X0090844Y0171524D01*
X0091498Y0171524D01*
X0091826Y0171197D01*
X0093019Y0170869D02*
X0093673Y0170869D01*
X0094001Y0170542D01*
X0094001Y0169560D01*
X0093019Y0169560D01*
X0092692Y0169888D01*
X0093019Y0170215D01*
X0094001Y0170215D01*
X0094867Y0170869D02*
X0095521Y0170869D01*
X0095194Y0171197D02*
X0095194Y0169888D01*
X0095521Y0169560D01*
X0096317Y0169888D02*
X0096317Y0170542D01*
X0096644Y0170869D01*
X0097299Y0170869D01*
X0097626Y0170542D01*
X0097626Y0170215D01*
X0096317Y0170215D01*
X0096317Y0169888D02*
X0096644Y0169560D01*
X0097299Y0169560D01*
X0098492Y0169560D02*
X0099146Y0169560D01*
X0098819Y0169560D02*
X0098819Y0171524D01*
X0098492Y0171524D01*
X0099942Y0171524D02*
X0100269Y0171524D01*
X0100269Y0169560D01*
X0099942Y0169560D02*
X0100596Y0169560D01*
X0101392Y0169560D02*
X0102046Y0169560D01*
X0101719Y0169560D02*
X0101719Y0170869D01*
X0101392Y0170869D01*
X0101719Y0171524D02*
X0101719Y0171851D01*
X0102842Y0170869D02*
X0103497Y0170869D01*
X0103169Y0171197D02*
X0103169Y0169888D01*
X0103497Y0169560D01*
X0104292Y0169888D02*
X0104292Y0170542D01*
X0104619Y0170869D01*
X0105274Y0170869D01*
X0105601Y0170542D01*
X0105601Y0170215D01*
X0104292Y0170215D01*
X0104292Y0169888D02*
X0104619Y0169560D01*
X0105274Y0169560D01*
X0108642Y0169560D02*
X0108642Y0170869D01*
X0109297Y0171524D01*
X0109951Y0170869D01*
X0109951Y0169560D01*
X0110817Y0169560D02*
X0111799Y0169560D01*
X0112126Y0169888D01*
X0112126Y0170542D01*
X0111799Y0170869D01*
X0110817Y0170869D01*
X0110817Y0168906D01*
X0109951Y0170542D02*
X0108642Y0170542D01*
X0112992Y0170869D02*
X0112992Y0168906D01*
X0112992Y0169560D02*
X0113974Y0169560D01*
X0114302Y0169888D01*
X0114302Y0170542D01*
X0113974Y0170869D01*
X0112992Y0170869D01*
X0115167Y0171524D02*
X0115495Y0171524D01*
X0115495Y0169560D01*
X0115822Y0169560D02*
X0115167Y0169560D01*
X0116617Y0169560D02*
X0117272Y0169560D01*
X0116945Y0169560D02*
X0116945Y0170869D01*
X0116617Y0170869D01*
X0116945Y0171524D02*
X0116945Y0171851D01*
X0118067Y0170542D02*
X0118067Y0169888D01*
X0118395Y0169560D01*
X0119377Y0169560D01*
X0120243Y0169888D02*
X0120570Y0170215D01*
X0121552Y0170215D01*
X0121552Y0170542D02*
X0121552Y0169560D01*
X0120570Y0169560D01*
X0120243Y0169888D01*
X0120570Y0170869D02*
X0121225Y0170869D01*
X0121552Y0170542D01*
X0122418Y0170869D02*
X0123072Y0170869D01*
X0122745Y0171197D02*
X0122745Y0169888D01*
X0123072Y0169560D01*
X0123868Y0169560D02*
X0124522Y0169560D01*
X0124195Y0169560D02*
X0124195Y0170869D01*
X0123868Y0170869D01*
X0124195Y0171524D02*
X0124195Y0171851D01*
X0125318Y0170542D02*
X0125318Y0169888D01*
X0125645Y0169560D01*
X0126300Y0169560D01*
X0126627Y0169888D01*
X0126627Y0170542D01*
X0126300Y0170869D01*
X0125645Y0170869D01*
X0125318Y0170542D01*
X0127493Y0170869D02*
X0127493Y0169560D01*
X0128802Y0169560D02*
X0128802Y0170542D01*
X0128475Y0170869D01*
X0127493Y0170869D01*
X0129668Y0170542D02*
X0129995Y0170215D01*
X0130650Y0170215D01*
X0130977Y0169888D01*
X0130650Y0169560D01*
X0129668Y0169560D01*
X0129668Y0170542D02*
X0129995Y0170869D01*
X0130977Y0170869D01*
X0134018Y0171197D02*
X0134018Y0169888D01*
X0134345Y0169560D01*
X0135000Y0169560D01*
X0135327Y0169888D01*
X0136193Y0169888D02*
X0136520Y0170215D01*
X0137502Y0170215D01*
X0137502Y0170542D02*
X0137502Y0169560D01*
X0136520Y0169560D01*
X0136193Y0169888D01*
X0136520Y0170869D02*
X0137175Y0170869D01*
X0137502Y0170542D01*
X0138368Y0170869D02*
X0139023Y0170869D01*
X0138696Y0171197D02*
X0138696Y0169888D01*
X0139023Y0169560D01*
X0139818Y0169888D02*
X0140146Y0170215D01*
X0141128Y0170215D01*
X0141128Y0170542D02*
X0141128Y0169560D01*
X0140146Y0169560D01*
X0139818Y0169888D01*
X0140146Y0170869D02*
X0140800Y0170869D01*
X0141128Y0170542D01*
X0141993Y0170869D02*
X0142975Y0170869D01*
X0143303Y0170542D01*
X0143303Y0169888D01*
X0142975Y0169560D01*
X0141993Y0169560D01*
X0141993Y0168906D02*
X0141993Y0170869D01*
X0144168Y0170869D02*
X0144168Y0169888D01*
X0144496Y0169560D01*
X0145478Y0169560D01*
X0145478Y0170869D01*
X0146344Y0171524D02*
X0146671Y0171524D01*
X0146671Y0169560D01*
X0146344Y0169560D02*
X0146998Y0169560D01*
X0148121Y0169888D02*
X0148448Y0169560D01*
X0148121Y0169888D02*
X0148121Y0171197D01*
X0147794Y0170869D02*
X0148448Y0170869D01*
X0135327Y0171197D02*
X0135000Y0171524D01*
X0134345Y0171524D01*
X0134018Y0171197D01*
X0119377Y0170869D02*
X0118395Y0170869D01*
X0118067Y0170542D01*
X0074168Y0170869D02*
X0073841Y0170542D01*
X0070543Y0171524D02*
X0070543Y0171851D01*
D13*
X0054286Y0146922D02*
X0049967Y0146922D01*
X0029089Y0146922D02*
X0024770Y0146922D01*
X0026930Y0149082D02*
X0026930Y0144762D01*
D14*
X0034262Y0151746D02*
X0034802Y0151206D01*
X0035882Y0151206D01*
X0036422Y0151746D01*
X0037887Y0151746D02*
X0037887Y0152826D01*
X0038427Y0153366D01*
X0039507Y0153366D01*
X0040047Y0152826D01*
X0040047Y0152286D01*
X0037887Y0152286D01*
X0037887Y0151746D02*
X0038427Y0151206D01*
X0039507Y0151206D01*
X0041512Y0151206D02*
X0042592Y0151206D01*
X0042052Y0151206D02*
X0042052Y0154446D01*
X0041512Y0154446D01*
X0043929Y0154446D02*
X0044469Y0154446D01*
X0044469Y0151206D01*
X0043929Y0151206D02*
X0045009Y0151206D01*
X0036422Y0153906D02*
X0035882Y0154446D01*
X0034802Y0154446D01*
X0034262Y0153906D01*
X0034262Y0151746D01*
X0027367Y0107596D02*
X0027367Y0105436D01*
X0026287Y0104356D01*
X0025207Y0105436D01*
X0025207Y0107596D01*
X0028832Y0105976D02*
X0028832Y0104896D01*
X0029372Y0104356D01*
X0030452Y0104356D01*
X0030992Y0105436D02*
X0028832Y0105436D01*
X0028832Y0105976D02*
X0029372Y0106516D01*
X0030452Y0106516D01*
X0030992Y0105976D01*
X0030992Y0105436D01*
X0032457Y0105436D02*
X0033537Y0106516D01*
X0034077Y0106516D01*
X0035478Y0106516D02*
X0035478Y0105976D01*
X0036018Y0105976D01*
X0036018Y0106516D01*
X0035478Y0106516D01*
X0035478Y0104896D02*
X0035478Y0104356D01*
X0036018Y0104356D01*
X0036018Y0104896D01*
X0035478Y0104896D01*
X0032457Y0104356D02*
X0032457Y0106516D01*
X0032457Y0100610D02*
X0033537Y0098450D01*
X0034617Y0100610D01*
X0036082Y0100610D02*
X0036082Y0100070D01*
X0036622Y0100070D01*
X0036622Y0100610D01*
X0036082Y0100610D01*
X0036082Y0098990D02*
X0036082Y0098450D01*
X0036622Y0098450D01*
X0036622Y0098990D01*
X0036082Y0098990D01*
X0030992Y0099530D02*
X0028832Y0099530D01*
X0028832Y0098990D02*
X0028832Y0100070D01*
X0029372Y0100610D01*
X0030452Y0100610D01*
X0030992Y0100070D01*
X0030992Y0099530D01*
X0030452Y0098450D02*
X0029372Y0098450D01*
X0028832Y0098990D01*
X0027367Y0098450D02*
X0026287Y0099530D01*
X0026827Y0099530D02*
X0025207Y0099530D01*
X0025207Y0098450D02*
X0025207Y0101690D01*
X0026827Y0101690D01*
X0027367Y0101150D01*
X0027367Y0100070D01*
X0026827Y0099530D01*
X0040916Y0104356D02*
X0043076Y0106516D01*
X0043076Y0107056D01*
X0042536Y0107596D01*
X0041456Y0107596D01*
X0040916Y0107056D01*
X0040916Y0104356D02*
X0043076Y0104356D01*
X0044541Y0104356D02*
X0045081Y0104356D01*
X0045081Y0104896D01*
X0044541Y0104896D01*
X0044541Y0104356D01*
X0046354Y0104896D02*
X0046354Y0107056D01*
X0046894Y0107596D01*
X0047974Y0107596D01*
X0048514Y0107056D01*
X0046354Y0104896D01*
X0046894Y0104356D01*
X0047974Y0104356D01*
X0048514Y0104896D01*
X0048514Y0107056D01*
X0043140Y0101690D02*
X0042060Y0101690D01*
X0041520Y0101150D01*
X0041520Y0098990D01*
X0042060Y0098450D01*
X0043140Y0098450D01*
X0043680Y0098990D01*
X0043680Y0101150D02*
X0043140Y0101690D01*
D15*
X0052022Y0117392D02*
X0052022Y0072904D01*
X0052022Y0049675D02*
X0052022Y0026053D01*
X0055172Y0026053D01*
X0063046Y0021722D02*
X0067770Y0021722D01*
X0067770Y0013061D01*
X0066589Y0012274D02*
X0066589Y0020541D01*
X0065408Y0020541D02*
X0065408Y0011880D01*
X0065015Y0011486D01*
X0064621Y0011486D01*
X0065015Y0011093D01*
X0065802Y0011093D01*
X0065408Y0009518D02*
X0070526Y0014636D01*
X0060290Y0014636D01*
X0065408Y0009518D01*
X0064227Y0012274D02*
X0064227Y0020541D01*
X0063046Y0021722D02*
X0063046Y0013061D01*
X0079188Y0026053D02*
X0147298Y0026053D01*
X0147298Y0126841D01*
X0077219Y0126841D01*
X0147298Y0126841D02*
X0163833Y0126841D01*
X0163833Y0026053D01*
X0147298Y0026053D01*
D16*
X0153204Y0136486D02*
X0060290Y0136486D01*
X0056353Y0140620D01*
X0056353Y0156565D01*
X0153204Y0156565D01*
X0153204Y0136486D01*
X0047790Y0136683D02*
X0047790Y0149281D01*
X0031058Y0149281D01*
X0031058Y0136683D01*
X0047790Y0136683D01*
D17*
X0175289Y0088904D03*
X0175289Y0078904D03*
X0175289Y0070404D03*
X0175289Y0070304D03*
X0175289Y0070204D03*
X0175289Y0070104D03*
X0175289Y0070004D03*
X0175289Y0069904D03*
X0175289Y0069804D03*
X0175289Y0069704D03*
X0175289Y0069604D03*
X0175289Y0066904D03*
X0175289Y0066804D03*
X0175289Y0066704D03*
D18*
X0170039Y0067004D03*
X0170039Y0067104D03*
X0170039Y0067204D03*
X0170039Y0067304D03*
X0170039Y0067404D03*
X0170039Y0067504D03*
X0173039Y0081304D03*
D19*
X0173339Y0069504D03*
X0178939Y0067504D03*
X0178939Y0067404D03*
X0178939Y0067304D03*
X0178939Y0067204D03*
X0178939Y0067104D03*
X0178939Y0067004D03*
D20*
X0171539Y0074504D03*
X0167139Y0069504D03*
X0167139Y0067604D03*
X0168839Y0067604D03*
X0179039Y0077304D03*
X0179239Y0082004D03*
X0183439Y0082604D03*
X0183439Y0082704D03*
X0183439Y0086604D03*
X0183439Y0086704D03*
X0183439Y0086804D03*
X0174639Y0085704D03*
X0174639Y0085604D03*
X0174639Y0085504D03*
X0174639Y0085404D03*
D21*
X0183539Y0086004D03*
X0183539Y0086104D03*
X0183539Y0086204D03*
X0183539Y0086304D03*
X0183539Y0083304D03*
X0183539Y0083204D03*
X0183539Y0083104D03*
X0182039Y0069004D03*
X0182039Y0067604D03*
X0183539Y0067604D03*
X0170339Y0067604D03*
X0170339Y0069004D03*
X0167039Y0069404D03*
X0167039Y0067704D03*
D22*
X0166839Y0068104D03*
X0166839Y0068204D03*
X0166839Y0068304D03*
X0166839Y0068804D03*
X0166839Y0068904D03*
X0166839Y0069004D03*
X0168739Y0068004D03*
X0168739Y0067904D03*
X0169639Y0068004D03*
X0169639Y0068604D03*
X0170539Y0068604D03*
X0170539Y0068704D03*
X0170539Y0068004D03*
X0170539Y0067904D03*
X0171439Y0067904D03*
X0171439Y0067804D03*
X0171439Y0067704D03*
X0171439Y0067604D03*
X0171439Y0068004D03*
X0171439Y0068104D03*
X0171439Y0068204D03*
X0171439Y0068304D03*
X0171439Y0068404D03*
X0171439Y0068504D03*
X0172339Y0068504D03*
X0172339Y0068404D03*
X0172339Y0068304D03*
X0172339Y0068204D03*
X0172339Y0068104D03*
X0172339Y0068004D03*
X0172339Y0067904D03*
X0172339Y0067804D03*
X0172339Y0067704D03*
X0172339Y0067604D03*
X0173239Y0067604D03*
X0173239Y0067704D03*
X0173239Y0067804D03*
X0173239Y0067904D03*
X0173239Y0068004D03*
X0173239Y0068104D03*
X0173239Y0068204D03*
X0173239Y0068304D03*
X0173239Y0068404D03*
X0173239Y0068504D03*
X0173239Y0068604D03*
X0173239Y0068704D03*
X0174239Y0068604D03*
X0174239Y0068004D03*
X0175139Y0068304D03*
X0175139Y0068704D03*
X0176039Y0068204D03*
X0175939Y0068004D03*
X0176739Y0068904D03*
X0179039Y0068904D03*
X0179039Y0068804D03*
X0179039Y0068704D03*
X0179039Y0068604D03*
X0179039Y0068504D03*
X0179039Y0068404D03*
X0179039Y0068304D03*
X0179039Y0068204D03*
X0179039Y0068104D03*
X0179039Y0068004D03*
X0179039Y0067904D03*
X0179039Y0067804D03*
X0179039Y0067704D03*
X0179039Y0067604D03*
X0180039Y0068004D03*
X0180039Y0068604D03*
X0180939Y0068604D03*
X0180939Y0068504D03*
X0180939Y0068404D03*
X0180939Y0068304D03*
X0180939Y0068204D03*
X0180939Y0068104D03*
X0180939Y0068004D03*
X0180939Y0067904D03*
X0180939Y0068704D03*
X0181839Y0068704D03*
X0181839Y0068604D03*
X0181839Y0068004D03*
X0181839Y0067904D03*
X0179039Y0069004D03*
X0179039Y0069204D03*
X0179039Y0069304D03*
X0179039Y0069404D03*
X0179039Y0069504D03*
X0170439Y0075704D03*
D23*
X0170339Y0075604D03*
X0171539Y0074604D03*
X0171339Y0069004D03*
X0169639Y0068704D03*
X0169639Y0067904D03*
X0174039Y0067604D03*
X0174239Y0067904D03*
X0174039Y0069004D03*
X0175939Y0067904D03*
X0176139Y0067604D03*
X0178239Y0068804D03*
X0178239Y0068904D03*
X0178239Y0069004D03*
X0179839Y0069004D03*
X0180039Y0067904D03*
X0179839Y0067604D03*
D24*
X0183489Y0069004D03*
X0175089Y0069004D03*
X0175089Y0067604D03*
X0167089Y0080604D03*
X0167089Y0080704D03*
X0167089Y0080804D03*
X0167089Y0080904D03*
X0167089Y0081004D03*
X0167089Y0081104D03*
X0167089Y0081204D03*
X0167089Y0081304D03*
X0167089Y0081404D03*
X0167089Y0081504D03*
X0167089Y0081604D03*
X0167089Y0081704D03*
X0167089Y0081804D03*
X0167089Y0081904D03*
X0167089Y0082004D03*
X0167089Y0082104D03*
X0167089Y0082204D03*
X0167089Y0082304D03*
X0167089Y0082404D03*
X0167089Y0082504D03*
X0167089Y0082604D03*
X0167089Y0082704D03*
X0167089Y0082804D03*
X0167089Y0082904D03*
X0167089Y0083004D03*
X0167089Y0083104D03*
X0167089Y0083204D03*
X0167089Y0083304D03*
X0167089Y0083404D03*
X0167089Y0083504D03*
X0167089Y0083604D03*
X0167089Y0083704D03*
X0167089Y0083804D03*
X0167089Y0083904D03*
X0167089Y0084004D03*
X0167089Y0084104D03*
X0167089Y0084204D03*
X0167089Y0084304D03*
X0167089Y0084404D03*
X0167089Y0084504D03*
X0167089Y0084604D03*
X0167089Y0084704D03*
X0167089Y0084804D03*
X0167089Y0084904D03*
X0167089Y0085004D03*
X0167089Y0085104D03*
X0167089Y0085204D03*
X0167089Y0085304D03*
X0167089Y0085404D03*
X0167089Y0085504D03*
X0167089Y0085604D03*
X0167089Y0085704D03*
X0167089Y0085804D03*
X0167089Y0085904D03*
X0167089Y0086004D03*
X0167089Y0086104D03*
X0167089Y0086204D03*
X0167089Y0086304D03*
X0167089Y0086404D03*
X0167089Y0086504D03*
X0167089Y0086604D03*
X0167089Y0086704D03*
X0167089Y0086804D03*
X0167089Y0086904D03*
X0167089Y0087004D03*
X0167089Y0087104D03*
X0167089Y0087204D03*
X0167089Y0087304D03*
X0167089Y0087404D03*
X0167089Y0087504D03*
X0167089Y0087604D03*
X0167089Y0087704D03*
X0167089Y0087804D03*
X0167089Y0087904D03*
X0167089Y0088004D03*
X0167089Y0088104D03*
X0167089Y0088204D03*
X0167089Y0088304D03*
X0167089Y0088404D03*
X0167089Y0088504D03*
X0167089Y0088604D03*
X0179189Y0087304D03*
X0183489Y0086504D03*
X0183489Y0086404D03*
X0183489Y0083004D03*
X0183489Y0082904D03*
X0183489Y0082804D03*
D25*
X0183589Y0083404D03*
X0183589Y0083504D03*
X0183589Y0083604D03*
X0183589Y0083704D03*
X0183589Y0083804D03*
X0183589Y0085504D03*
X0183589Y0085604D03*
X0183589Y0085704D03*
X0183589Y0085804D03*
X0183589Y0085904D03*
X0170589Y0075804D03*
X0168089Y0069104D03*
X0168089Y0068004D03*
X0173089Y0069004D03*
X0175289Y0068504D03*
X0177089Y0067604D03*
X0177989Y0068004D03*
X0177989Y0068104D03*
X0177989Y0068204D03*
X0177989Y0068304D03*
X0177989Y0068404D03*
X0177989Y0068504D03*
X0177989Y0068604D03*
X0177989Y0068704D03*
X0177989Y0069204D03*
X0177989Y0069304D03*
X0177989Y0069404D03*
X0180789Y0069004D03*
X0180789Y0067604D03*
X0183589Y0068904D03*
D26*
X0182689Y0068704D03*
X0181789Y0068504D03*
X0181789Y0068404D03*
X0181789Y0068304D03*
X0181789Y0068204D03*
X0181789Y0068104D03*
X0178189Y0067804D03*
X0178189Y0067704D03*
X0178189Y0067604D03*
X0176789Y0068804D03*
X0175089Y0068204D03*
X0175089Y0068104D03*
X0175089Y0068004D03*
X0175089Y0067904D03*
X0172389Y0068604D03*
X0171489Y0068604D03*
X0170589Y0068504D03*
X0170589Y0068404D03*
X0170589Y0068304D03*
X0170589Y0068204D03*
X0170589Y0068104D03*
X0166789Y0068404D03*
X0166789Y0068504D03*
X0166789Y0068604D03*
X0166789Y0068704D03*
D27*
X0166939Y0069304D03*
X0166939Y0067804D03*
X0168839Y0067704D03*
X0169639Y0068104D03*
X0169639Y0068204D03*
X0169639Y0068304D03*
X0169639Y0068404D03*
X0169639Y0068504D03*
X0170439Y0068904D03*
X0170439Y0067704D03*
X0174239Y0068204D03*
X0174239Y0068304D03*
X0174239Y0068404D03*
X0175039Y0068904D03*
X0175839Y0068704D03*
X0176639Y0069004D03*
X0176939Y0068604D03*
X0176939Y0068504D03*
X0176939Y0068404D03*
X0177039Y0067704D03*
X0178039Y0067904D03*
X0180039Y0068204D03*
X0180039Y0068304D03*
X0180039Y0068404D03*
X0180839Y0068904D03*
X0181939Y0068904D03*
X0182739Y0068504D03*
X0183639Y0068704D03*
X0183639Y0068804D03*
X0181939Y0067704D03*
X0180839Y0067704D03*
X0179039Y0071904D03*
X0175039Y0067704D03*
X0171539Y0071804D03*
X0183639Y0083904D03*
X0183639Y0084004D03*
X0183639Y0084104D03*
X0183639Y0084204D03*
X0183639Y0084304D03*
X0183639Y0084404D03*
X0183639Y0084504D03*
X0183639Y0084604D03*
X0183639Y0084704D03*
X0183639Y0084804D03*
X0183639Y0084904D03*
X0183639Y0085004D03*
X0183639Y0085104D03*
X0183639Y0085204D03*
X0183639Y0085304D03*
X0183639Y0085404D03*
D28*
X0170289Y0075504D03*
X0171289Y0068904D03*
X0172089Y0068904D03*
X0173989Y0068904D03*
X0174189Y0068704D03*
X0173989Y0067704D03*
X0176189Y0067704D03*
X0179789Y0067704D03*
X0179989Y0068704D03*
X0179789Y0068904D03*
D29*
X0179989Y0068504D03*
X0179989Y0068104D03*
X0180889Y0067804D03*
X0180889Y0068804D03*
X0181889Y0068804D03*
X0182689Y0068604D03*
X0182889Y0067904D03*
X0183689Y0067904D03*
X0183689Y0067804D03*
X0183689Y0067704D03*
X0183689Y0068204D03*
X0183689Y0068304D03*
X0183689Y0068404D03*
X0183689Y0068504D03*
X0183689Y0068604D03*
X0181889Y0067804D03*
X0176989Y0067804D03*
X0176989Y0067904D03*
X0176989Y0068004D03*
X0176989Y0068104D03*
X0176989Y0068204D03*
X0176989Y0068304D03*
X0176889Y0068704D03*
X0175989Y0068104D03*
X0175189Y0068404D03*
X0175089Y0068804D03*
X0174189Y0068504D03*
X0174189Y0068104D03*
X0175089Y0067804D03*
X0173189Y0068804D03*
X0173189Y0068904D03*
X0172089Y0069004D03*
X0170489Y0068804D03*
X0170489Y0067804D03*
X0168789Y0067804D03*
X0166889Y0067904D03*
X0166889Y0068004D03*
X0166889Y0069104D03*
X0166889Y0069204D03*
X0179089Y0077404D03*
D30*
X0179089Y0077104D03*
X0183189Y0079304D03*
X0183189Y0081804D03*
X0183189Y0087504D03*
X0179189Y0087204D03*
X0174789Y0086904D03*
X0174789Y0086804D03*
X0174389Y0084404D03*
X0174389Y0084304D03*
X0170389Y0084904D03*
X0170389Y0087104D03*
X0174989Y0074804D03*
X0174989Y0074704D03*
X0175289Y0072804D03*
X0175289Y0072704D03*
X0175289Y0072604D03*
X0179089Y0072204D03*
X0183189Y0068104D03*
X0183189Y0068004D03*
X0168289Y0068804D03*
X0168189Y0068704D03*
X0168189Y0068604D03*
D31*
X0168239Y0068104D03*
X0175239Y0073304D03*
X0175239Y0073404D03*
X0175239Y0073504D03*
X0175139Y0074104D03*
X0183339Y0082204D03*
X0183339Y0082304D03*
X0183339Y0087104D03*
X0174739Y0086404D03*
X0174739Y0086304D03*
X0174739Y0086204D03*
X0174539Y0084904D03*
X0174539Y0084804D03*
X0174439Y0084604D03*
D32*
X0174489Y0084704D03*
X0174789Y0086504D03*
X0174789Y0086604D03*
X0183289Y0087204D03*
X0183289Y0087304D03*
X0183289Y0082104D03*
X0183289Y0079104D03*
X0183289Y0079004D03*
X0179089Y0077204D03*
X0175089Y0074404D03*
X0175089Y0074304D03*
X0175089Y0074204D03*
X0175189Y0074004D03*
X0175189Y0073904D03*
X0175189Y0073804D03*
X0175189Y0073704D03*
X0175189Y0073604D03*
X0175289Y0073204D03*
X0175289Y0073104D03*
X0179089Y0072104D03*
X0175589Y0068604D03*
X0171489Y0074404D03*
X0168189Y0068304D03*
X0168189Y0068204D03*
D33*
X0168139Y0068404D03*
X0168139Y0068504D03*
X0171539Y0072004D03*
X0175239Y0072904D03*
X0175239Y0073004D03*
X0175039Y0074504D03*
X0175039Y0074604D03*
X0180439Y0069504D03*
X0180439Y0069404D03*
X0180439Y0069304D03*
X0180439Y0069204D03*
X0180439Y0069104D03*
X0183239Y0079204D03*
X0183239Y0081904D03*
X0183239Y0082004D03*
X0183239Y0087404D03*
X0174739Y0086704D03*
X0174439Y0084504D03*
D34*
X0174339Y0084204D03*
X0174839Y0087004D03*
X0179239Y0082104D03*
X0183139Y0081704D03*
X0183139Y0079404D03*
X0183139Y0075704D03*
X0183139Y0075604D03*
X0183139Y0075504D03*
X0183139Y0075404D03*
X0183139Y0075304D03*
X0183139Y0075204D03*
X0183139Y0075104D03*
X0183139Y0075004D03*
X0183139Y0074904D03*
X0183139Y0074804D03*
X0183139Y0074704D03*
X0183139Y0074604D03*
X0183139Y0074504D03*
X0183139Y0074404D03*
X0183139Y0074304D03*
X0183139Y0074204D03*
X0183139Y0074104D03*
X0183139Y0074004D03*
X0183139Y0073904D03*
X0183139Y0073804D03*
X0183139Y0073704D03*
X0183139Y0073604D03*
X0178439Y0069104D03*
X0175339Y0072504D03*
X0174939Y0074904D03*
X0171539Y0074304D03*
X0171539Y0072104D03*
X0167439Y0073604D03*
X0167439Y0073704D03*
X0167439Y0073804D03*
X0167439Y0073904D03*
X0167439Y0074004D03*
X0167439Y0074104D03*
X0167439Y0074204D03*
X0167439Y0074304D03*
X0167439Y0074404D03*
X0167439Y0074504D03*
X0167439Y0074604D03*
X0167439Y0074704D03*
X0167439Y0074804D03*
X0167439Y0074904D03*
X0167439Y0075004D03*
X0167439Y0075104D03*
X0167439Y0075204D03*
X0167439Y0075304D03*
X0167439Y0075404D03*
X0168339Y0068904D03*
X0183139Y0087604D03*
D35*
X0183089Y0087704D03*
X0183089Y0081604D03*
X0183089Y0079504D03*
X0183089Y0076204D03*
X0183089Y0076104D03*
X0183089Y0076004D03*
X0183089Y0075904D03*
X0183089Y0075804D03*
X0183089Y0073504D03*
X0183089Y0073404D03*
X0183089Y0073304D03*
X0183089Y0073204D03*
X0183089Y0073104D03*
X0179089Y0072304D03*
X0175289Y0072304D03*
X0175289Y0072404D03*
X0174889Y0075004D03*
X0171489Y0074204D03*
X0171489Y0072204D03*
X0167489Y0073004D03*
X0167489Y0073104D03*
X0167489Y0073204D03*
X0167489Y0073304D03*
X0167489Y0073404D03*
X0167489Y0073504D03*
X0167489Y0075504D03*
X0167489Y0075604D03*
X0167489Y0075704D03*
X0167489Y0075804D03*
X0167489Y0075904D03*
X0167489Y0076004D03*
X0168489Y0069004D03*
X0179089Y0077004D03*
X0174289Y0084104D03*
D36*
X0172889Y0069404D03*
X0172889Y0069304D03*
X0172889Y0069204D03*
X0172889Y0069104D03*
D37*
X0167789Y0071704D03*
X0167789Y0077304D03*
X0174689Y0075504D03*
X0175189Y0077304D03*
X0175189Y0077404D03*
X0179089Y0076204D03*
X0179089Y0076104D03*
X0179089Y0076004D03*
X0179089Y0075904D03*
X0179089Y0073404D03*
X0179089Y0073304D03*
X0179089Y0073204D03*
X0182789Y0071804D03*
X0182789Y0071704D03*
X0182789Y0069504D03*
X0182789Y0069404D03*
X0182789Y0069304D03*
X0182789Y0069204D03*
X0182789Y0069104D03*
X0182789Y0077504D03*
X0182789Y0077604D03*
X0182789Y0080204D03*
X0182789Y0081104D03*
X0179189Y0082304D03*
X0173989Y0083704D03*
X0170789Y0085504D03*
X0170789Y0085604D03*
X0170789Y0085704D03*
X0170789Y0086304D03*
X0170789Y0086404D03*
X0170789Y0086504D03*
X0182789Y0088204D03*
D38*
X0168739Y0070504D03*
D39*
X0175289Y0070504D03*
X0172789Y0081804D03*
X0172789Y0081904D03*
D40*
X0168789Y0078704D03*
X0181789Y0078804D03*
X0181789Y0070504D03*
D41*
X0182039Y0070604D03*
X0175339Y0071004D03*
X0168539Y0070604D03*
X0182039Y0078704D03*
X0179239Y0083604D03*
X0179239Y0083704D03*
X0179239Y0085504D03*
X0179239Y0085604D03*
X0179239Y0085704D03*
X0174839Y0088204D03*
D42*
X0173439Y0076904D03*
X0173339Y0076704D03*
X0175339Y0070604D03*
D43*
X0168389Y0070704D03*
X0168389Y0078404D03*
X0173489Y0083404D03*
X0174889Y0088104D03*
X0179189Y0086104D03*
X0179189Y0083204D03*
X0179189Y0083104D03*
X0182189Y0078604D03*
X0182189Y0070704D03*
D44*
X0175339Y0070704D03*
D45*
X0168289Y0070804D03*
X0168289Y0078304D03*
X0175689Y0078404D03*
X0179189Y0082904D03*
X0179189Y0083004D03*
X0179189Y0086304D03*
X0182289Y0078504D03*
X0182289Y0070804D03*
D46*
X0175339Y0070804D03*
D47*
X0168189Y0070904D03*
X0182389Y0070904D03*
X0182389Y0078404D03*
X0179189Y0082804D03*
X0179189Y0086504D03*
X0182389Y0088604D03*
D48*
X0181939Y0088804D03*
X0179239Y0085004D03*
X0179239Y0084904D03*
X0179239Y0084804D03*
X0179239Y0084704D03*
X0179239Y0084604D03*
X0179239Y0084504D03*
X0179239Y0084404D03*
X0179239Y0084304D03*
X0168639Y0078604D03*
X0175339Y0070904D03*
D49*
X0175339Y0071304D03*
X0174339Y0075804D03*
X0175539Y0078204D03*
X0173739Y0083504D03*
X0179239Y0082704D03*
X0179239Y0086604D03*
X0182439Y0078304D03*
X0182439Y0071004D03*
X0168139Y0071004D03*
X0168139Y0078104D03*
D50*
X0168039Y0077904D03*
X0175439Y0078004D03*
X0175339Y0071404D03*
X0168039Y0071104D03*
X0182539Y0071204D03*
X0182539Y0078104D03*
X0182539Y0080704D03*
X0182539Y0080804D03*
X0179239Y0086704D03*
X0182539Y0088504D03*
D51*
X0182239Y0088704D03*
X0179239Y0086204D03*
X0174139Y0075904D03*
X0175339Y0071104D03*
D52*
X0172389Y0077104D03*
X0175489Y0078104D03*
X0179189Y0082604D03*
X0182489Y0078204D03*
X0182489Y0071104D03*
X0168089Y0078004D03*
X0174889Y0087904D03*
D53*
X0174889Y0087804D03*
X0179189Y0086804D03*
X0179189Y0082504D03*
X0182589Y0080604D03*
X0175389Y0077904D03*
X0174489Y0075704D03*
X0167989Y0077804D03*
X0167989Y0071204D03*
D54*
X0175339Y0071204D03*
X0175639Y0078304D03*
X0168239Y0078204D03*
X0179239Y0086404D03*
X0174839Y0088004D03*
D55*
X0173839Y0083604D03*
X0175339Y0077804D03*
X0175339Y0071504D03*
X0182639Y0071404D03*
X0182639Y0071304D03*
X0182639Y0077904D03*
X0182639Y0078004D03*
X0182639Y0080504D03*
X0182639Y0080904D03*
X0182639Y0088404D03*
X0167939Y0077704D03*
X0167939Y0071304D03*
D56*
X0167889Y0071404D03*
X0167889Y0071504D03*
X0167889Y0077504D03*
X0167889Y0077604D03*
X0174589Y0075604D03*
X0175289Y0077604D03*
X0175289Y0077704D03*
X0179089Y0075104D03*
X0179089Y0075004D03*
X0179089Y0074904D03*
X0179089Y0074804D03*
X0179089Y0074704D03*
X0179089Y0074604D03*
X0179089Y0074504D03*
X0179089Y0074404D03*
X0179089Y0074304D03*
X0179089Y0074204D03*
X0182689Y0071504D03*
X0182689Y0077804D03*
X0182689Y0080404D03*
X0182689Y0081004D03*
X0179189Y0082404D03*
X0179189Y0086904D03*
X0174889Y0087704D03*
X0175289Y0071604D03*
D57*
X0175339Y0071704D03*
X0179039Y0073504D03*
X0179039Y0073604D03*
X0179039Y0073704D03*
X0179039Y0073804D03*
X0179039Y0073904D03*
X0179039Y0074004D03*
X0179039Y0074104D03*
X0179039Y0075204D03*
X0179039Y0075304D03*
X0179039Y0075404D03*
X0179039Y0075504D03*
X0179039Y0075604D03*
X0179039Y0075704D03*
X0179039Y0075804D03*
X0182739Y0077704D03*
X0182739Y0080304D03*
X0175239Y0077504D03*
X0172339Y0077204D03*
X0167839Y0077404D03*
X0167839Y0071604D03*
X0170839Y0085804D03*
X0170839Y0085904D03*
X0170839Y0086004D03*
X0170839Y0086104D03*
X0170839Y0086204D03*
X0174839Y0087604D03*
X0182739Y0088304D03*
X0182739Y0071604D03*
D58*
X0182839Y0071904D03*
X0179039Y0072904D03*
X0179039Y0073004D03*
X0179039Y0073104D03*
X0179039Y0076304D03*
X0179039Y0076404D03*
X0182839Y0077404D03*
X0182839Y0080104D03*
X0182839Y0081204D03*
X0179239Y0087004D03*
X0174839Y0087504D03*
X0174039Y0083804D03*
X0170739Y0085304D03*
X0170739Y0085404D03*
X0170739Y0086604D03*
X0170739Y0086704D03*
X0167739Y0077204D03*
X0167739Y0077104D03*
X0171539Y0073504D03*
X0171539Y0073404D03*
X0171539Y0073304D03*
X0171539Y0073204D03*
X0171539Y0073104D03*
X0171539Y0073004D03*
X0171539Y0072904D03*
X0167739Y0071904D03*
X0167739Y0071804D03*
X0175339Y0071804D03*
X0174739Y0075404D03*
X0175139Y0077104D03*
X0175139Y0077204D03*
D59*
X0172289Y0077404D03*
X0170789Y0075904D03*
X0171489Y0071904D03*
X0179089Y0072004D03*
X0183389Y0082404D03*
X0183389Y0082504D03*
X0183389Y0086904D03*
X0183389Y0087004D03*
X0174689Y0086104D03*
X0174689Y0086004D03*
X0174689Y0085904D03*
X0174689Y0085804D03*
X0174589Y0085304D03*
X0174589Y0085204D03*
X0174589Y0085104D03*
X0174589Y0085004D03*
D60*
X0174889Y0087404D03*
X0170689Y0086804D03*
X0170689Y0085204D03*
X0167689Y0077004D03*
X0167689Y0076904D03*
X0167689Y0072104D03*
X0167689Y0072004D03*
X0171489Y0072704D03*
X0171489Y0072804D03*
X0171489Y0073604D03*
X0171489Y0073704D03*
X0174789Y0075304D03*
X0175289Y0071904D03*
X0179089Y0072704D03*
X0179089Y0072804D03*
X0179089Y0076504D03*
X0179089Y0076604D03*
X0182889Y0077204D03*
X0182889Y0077304D03*
X0182889Y0080004D03*
X0182889Y0072104D03*
X0182889Y0072004D03*
X0182889Y0088104D03*
D61*
X0182939Y0088004D03*
X0182939Y0081304D03*
X0182939Y0079904D03*
X0182939Y0077104D03*
X0182939Y0077004D03*
X0179039Y0076704D03*
X0179039Y0072604D03*
X0175339Y0072004D03*
X0171539Y0072504D03*
X0171539Y0072604D03*
X0171539Y0073804D03*
X0171539Y0073904D03*
X0167639Y0072304D03*
X0167639Y0072204D03*
X0167639Y0076704D03*
X0167639Y0076804D03*
X0174139Y0083904D03*
X0174839Y0087304D03*
X0170639Y0086904D03*
X0170639Y0085104D03*
X0179239Y0082204D03*
X0182939Y0072304D03*
X0182939Y0072204D03*
D62*
X0182989Y0072404D03*
X0182989Y0072504D03*
X0182989Y0072604D03*
X0179089Y0072504D03*
X0175289Y0072104D03*
X0174789Y0075204D03*
X0172289Y0077304D03*
X0171489Y0074004D03*
X0171489Y0072404D03*
X0167589Y0072404D03*
X0167589Y0072504D03*
X0167589Y0072604D03*
X0167589Y0076404D03*
X0167589Y0076504D03*
X0167589Y0076604D03*
X0174189Y0084004D03*
X0179189Y0087104D03*
X0182989Y0087904D03*
X0182989Y0081404D03*
X0182989Y0079804D03*
X0182989Y0079704D03*
X0182989Y0076904D03*
X0182989Y0076804D03*
X0182989Y0076704D03*
X0179089Y0076804D03*
D63*
X0179039Y0076904D03*
X0183039Y0076604D03*
X0183039Y0076504D03*
X0183039Y0076404D03*
X0183039Y0076304D03*
X0183039Y0073004D03*
X0183039Y0072904D03*
X0183039Y0072804D03*
X0183039Y0072704D03*
X0179039Y0072404D03*
X0175339Y0072204D03*
X0174839Y0075104D03*
X0171539Y0074104D03*
X0171539Y0072304D03*
X0167539Y0072704D03*
X0167539Y0072804D03*
X0167539Y0072904D03*
X0167539Y0076104D03*
X0167539Y0076204D03*
X0167539Y0076304D03*
X0170539Y0085004D03*
X0170539Y0087004D03*
X0174839Y0087104D03*
X0174839Y0087204D03*
X0183039Y0087804D03*
X0183039Y0081504D03*
X0183039Y0079604D03*
D64*
X0173389Y0076804D03*
X0173289Y0076604D03*
X0173189Y0076404D03*
X0173089Y0076004D03*
D65*
X0173139Y0076104D03*
X0173139Y0076204D03*
X0173139Y0076304D03*
X0173239Y0076504D03*
X0172439Y0083204D03*
X0172439Y0083304D03*
D66*
X0173489Y0077004D03*
D67*
X0168489Y0078504D03*
X0179189Y0083404D03*
X0179189Y0083504D03*
X0179189Y0085804D03*
D68*
X0179239Y0085904D03*
X0179239Y0086004D03*
X0179239Y0083304D03*
X0175739Y0078504D03*
D69*
X0175689Y0078604D03*
X0174889Y0088304D03*
D70*
X0175589Y0078704D03*
D71*
X0169139Y0078804D03*
D72*
X0172739Y0082004D03*
X0175339Y0078804D03*
D73*
X0173739Y0079004D03*
D74*
X0173639Y0079104D03*
D75*
X0173589Y0079204D03*
D76*
X0173539Y0079304D03*
D77*
X0173489Y0079404D03*
X0173489Y0079504D03*
D78*
X0173439Y0079604D03*
D79*
X0173389Y0079704D03*
D80*
X0173339Y0079804D03*
D81*
X0173289Y0079904D03*
D82*
X0173239Y0080004D03*
D83*
X0173189Y0080104D03*
D84*
X0173139Y0080204D03*
D85*
X0173089Y0080304D03*
D86*
X0173039Y0080404D03*
D87*
X0172589Y0080504D03*
D88*
X0173789Y0080604D03*
D89*
X0173639Y0080704D03*
D90*
X0173489Y0080804D03*
D91*
X0173389Y0080904D03*
D92*
X0173289Y0081004D03*
D93*
X0173189Y0081104D03*
D94*
X0173139Y0081204D03*
D95*
X0172989Y0081404D03*
D96*
X0172939Y0081504D03*
D97*
X0172889Y0081604D03*
D98*
X0172839Y0081704D03*
D99*
X0172689Y0082104D03*
D100*
X0172639Y0082204D03*
X0172639Y0082304D03*
D101*
X0172589Y0082404D03*
X0172589Y0082504D03*
D102*
X0172539Y0082604D03*
X0172539Y0082704D03*
X0172539Y0082804D03*
X0174639Y0088604D03*
D103*
X0172489Y0083104D03*
X0172489Y0083004D03*
X0172489Y0082904D03*
D104*
X0179189Y0083804D03*
X0179189Y0083904D03*
X0179189Y0084004D03*
X0179189Y0084104D03*
X0179189Y0084204D03*
X0179189Y0085104D03*
X0179189Y0085204D03*
X0179189Y0085304D03*
X0179189Y0085404D03*
D105*
X0174839Y0088404D03*
D106*
X0174789Y0088504D03*
D107*
X0172289Y0088704D03*
D108*
X0172539Y0088804D03*
D109*
X0049424Y0060447D03*
X0048857Y0060778D03*
X0048290Y0060447D03*
X0046400Y0060447D03*
X0045975Y0060872D03*
X0044889Y0060447D03*
X0043849Y0060447D03*
X0043849Y0059124D03*
X0040589Y0060778D03*
X0040070Y0060872D03*
X0040070Y0060447D03*
X0040070Y0059549D03*
X0037660Y0060778D03*
X0037141Y0060447D03*
D110*
X0035794Y0060825D03*
X0038865Y0059785D03*
X0041794Y0059785D03*
X0044912Y0059124D03*
X0047322Y0060211D03*
X0052282Y0060211D03*
D111*
X0052259Y0060258D03*
X0051881Y0060258D03*
X0051456Y0060163D03*
X0051456Y0060116D03*
X0051456Y0060069D03*
X0051456Y0060022D03*
X0051456Y0059974D03*
X0051456Y0059927D03*
X0051456Y0059880D03*
X0051456Y0059833D03*
X0051456Y0059785D03*
X0051456Y0059738D03*
X0051456Y0059691D03*
X0051456Y0059644D03*
X0051456Y0059596D03*
X0051456Y0059549D03*
X0051833Y0059738D03*
X0052306Y0059738D03*
X0052306Y0059785D03*
X0050841Y0059596D03*
X0050463Y0059880D03*
X0050463Y0059927D03*
X0050463Y0060069D03*
X0050133Y0059502D03*
X0049802Y0059880D03*
X0049802Y0059927D03*
X0049802Y0059974D03*
X0049802Y0060022D03*
X0049802Y0060069D03*
X0049424Y0060069D03*
X0049424Y0060116D03*
X0049424Y0060163D03*
X0049424Y0060211D03*
X0049424Y0060258D03*
X0049424Y0060305D03*
X0049424Y0060352D03*
X0049424Y0060400D03*
X0049424Y0060636D03*
X0049424Y0060825D03*
X0048857Y0060730D03*
X0048857Y0060683D03*
X0048857Y0060636D03*
X0048857Y0060589D03*
X0048857Y0060541D03*
X0048857Y0060494D03*
X0048857Y0060211D03*
X0048857Y0060163D03*
X0048857Y0060116D03*
X0048857Y0060069D03*
X0048857Y0060022D03*
X0048857Y0059974D03*
X0048857Y0059927D03*
X0048857Y0059880D03*
X0048857Y0059833D03*
X0048857Y0059785D03*
X0048857Y0059738D03*
X0048857Y0059691D03*
X0048857Y0059644D03*
X0048857Y0059596D03*
X0049424Y0059596D03*
X0049424Y0059644D03*
X0049424Y0059691D03*
X0049424Y0059738D03*
X0049424Y0059785D03*
X0049424Y0059833D03*
X0049424Y0059880D03*
X0049424Y0059927D03*
X0049424Y0059974D03*
X0049424Y0060022D03*
X0048290Y0060022D03*
X0048290Y0060069D03*
X0048290Y0060116D03*
X0048290Y0059974D03*
X0048290Y0059927D03*
X0048290Y0059880D03*
X0047629Y0059880D03*
X0047629Y0059927D03*
X0047629Y0059974D03*
X0047629Y0060022D03*
X0047629Y0060069D03*
X0047298Y0059738D03*
X0047109Y0059502D03*
X0046778Y0059880D03*
X0046778Y0059927D03*
X0046778Y0060069D03*
X0046400Y0060400D03*
X0046400Y0060636D03*
X0045975Y0060636D03*
X0045975Y0060683D03*
X0045975Y0060730D03*
X0045975Y0060778D03*
X0045975Y0060825D03*
X0045975Y0060589D03*
X0045975Y0060541D03*
X0045975Y0060494D03*
X0045975Y0060447D03*
X0045975Y0060400D03*
X0045975Y0060352D03*
X0045975Y0060305D03*
X0045975Y0060258D03*
X0045975Y0060211D03*
X0045975Y0060163D03*
X0045975Y0060116D03*
X0045975Y0060069D03*
X0045975Y0060022D03*
X0045975Y0059974D03*
X0045975Y0059927D03*
X0045975Y0059880D03*
X0045975Y0059833D03*
X0045975Y0059785D03*
X0045975Y0059738D03*
X0045975Y0059691D03*
X0045975Y0059644D03*
X0045975Y0059596D03*
X0046400Y0059596D03*
X0044511Y0059880D03*
X0044511Y0060116D03*
X0043849Y0060069D03*
X0043849Y0060022D03*
X0043849Y0059974D03*
X0043849Y0059927D03*
X0043849Y0059502D03*
X0043849Y0059455D03*
X0043849Y0059407D03*
X0043849Y0059360D03*
X0043849Y0059313D03*
X0043849Y0059266D03*
X0043849Y0059219D03*
X0043849Y0059171D03*
X0044227Y0059502D03*
X0043849Y0060400D03*
X0043282Y0060305D03*
X0043282Y0060258D03*
X0043235Y0060400D03*
X0043235Y0060447D03*
X0042904Y0060447D03*
X0042904Y0060400D03*
X0042857Y0060305D03*
X0042810Y0060163D03*
X0043330Y0060116D03*
X0043046Y0060778D03*
X0042621Y0059596D03*
X0042621Y0059549D03*
X0041770Y0060116D03*
X0041770Y0060163D03*
X0040589Y0060163D03*
X0040589Y0060116D03*
X0040589Y0060069D03*
X0040589Y0060022D03*
X0040589Y0059974D03*
X0040589Y0059927D03*
X0040589Y0059880D03*
X0040589Y0059833D03*
X0040589Y0059785D03*
X0040589Y0059738D03*
X0040589Y0059691D03*
X0040589Y0059644D03*
X0040589Y0059596D03*
X0040070Y0059596D03*
X0040070Y0059644D03*
X0040070Y0059691D03*
X0040070Y0059738D03*
X0040070Y0059785D03*
X0040070Y0059833D03*
X0040070Y0059880D03*
X0040070Y0059927D03*
X0040070Y0059974D03*
X0040070Y0060022D03*
X0040070Y0060069D03*
X0040070Y0060116D03*
X0040070Y0060163D03*
X0040070Y0060211D03*
X0040070Y0060258D03*
X0040070Y0060305D03*
X0040070Y0060352D03*
X0040070Y0060400D03*
X0040070Y0060636D03*
X0040070Y0060825D03*
X0039644Y0060825D03*
X0039644Y0060778D03*
X0039644Y0060730D03*
X0039644Y0060683D03*
X0039644Y0060636D03*
X0039644Y0060589D03*
X0039644Y0060541D03*
X0039644Y0060494D03*
X0039644Y0060447D03*
X0039644Y0060400D03*
X0039644Y0060352D03*
X0039644Y0060305D03*
X0039644Y0060258D03*
X0039644Y0060211D03*
X0039644Y0060163D03*
X0039644Y0060116D03*
X0039644Y0060069D03*
X0039644Y0060022D03*
X0039644Y0059974D03*
X0039644Y0059927D03*
X0039644Y0059880D03*
X0039644Y0059833D03*
X0039644Y0059785D03*
X0039644Y0059738D03*
X0039644Y0059691D03*
X0039644Y0059644D03*
X0039644Y0059596D03*
X0038841Y0060116D03*
X0038841Y0060163D03*
X0037660Y0060163D03*
X0037660Y0060116D03*
X0037660Y0060069D03*
X0037660Y0060022D03*
X0037660Y0059974D03*
X0037660Y0059927D03*
X0037660Y0059880D03*
X0037660Y0059833D03*
X0037660Y0059785D03*
X0037660Y0059738D03*
X0037660Y0059691D03*
X0037660Y0059644D03*
X0037660Y0059596D03*
X0037141Y0059927D03*
X0037141Y0059974D03*
X0037141Y0060022D03*
X0037141Y0060400D03*
X0037660Y0060494D03*
X0037660Y0060541D03*
X0037660Y0060589D03*
X0037660Y0060636D03*
X0037660Y0060683D03*
X0037660Y0060730D03*
X0036479Y0060116D03*
X0036479Y0059833D03*
X0036763Y0059502D03*
X0036007Y0060541D03*
X0035487Y0059785D03*
X0040589Y0060494D03*
X0040589Y0060541D03*
X0040589Y0060589D03*
X0040589Y0060636D03*
X0040589Y0060683D03*
X0040589Y0060730D03*
X0030668Y0061770D03*
X0027172Y0062856D03*
D112*
X0037117Y0059549D03*
X0037684Y0059549D03*
X0039243Y0059549D03*
X0039668Y0059549D03*
X0040613Y0059549D03*
X0039668Y0060872D03*
X0039243Y0060872D03*
X0043495Y0059549D03*
X0044912Y0059171D03*
X0045290Y0059502D03*
X0045952Y0059549D03*
X0046377Y0059549D03*
X0046377Y0060872D03*
X0047936Y0059502D03*
X0048314Y0059549D03*
X0048833Y0059549D03*
X0049448Y0059549D03*
X0049448Y0060872D03*
X0050865Y0060447D03*
X0050865Y0059549D03*
D113*
X0050865Y0059644D03*
X0050865Y0059691D03*
X0050865Y0059738D03*
X0050865Y0059785D03*
X0050865Y0059833D03*
X0050865Y0059880D03*
X0050865Y0059927D03*
X0050865Y0059974D03*
X0050865Y0060022D03*
X0050865Y0060069D03*
X0050865Y0060116D03*
X0050865Y0060163D03*
X0050865Y0060211D03*
X0050487Y0060022D03*
X0050487Y0059974D03*
X0050440Y0059833D03*
X0050440Y0060116D03*
X0050440Y0060163D03*
X0049826Y0060163D03*
X0049826Y0060116D03*
X0049826Y0059833D03*
X0049448Y0060683D03*
X0048267Y0060163D03*
X0048267Y0059833D03*
X0048267Y0059785D03*
X0047652Y0059833D03*
X0047652Y0060116D03*
X0047652Y0060163D03*
X0047700Y0060211D03*
X0046802Y0060163D03*
X0046802Y0060116D03*
X0046755Y0060022D03*
X0046755Y0059974D03*
X0046802Y0059833D03*
X0046377Y0059833D03*
X0046377Y0059880D03*
X0046377Y0059927D03*
X0046377Y0059974D03*
X0046377Y0060022D03*
X0046377Y0060069D03*
X0046377Y0060116D03*
X0046377Y0060163D03*
X0046377Y0060211D03*
X0046377Y0060258D03*
X0046377Y0060305D03*
X0046377Y0060352D03*
X0046377Y0060683D03*
X0046377Y0060825D03*
X0046377Y0059785D03*
X0046377Y0059738D03*
X0046377Y0059691D03*
X0046377Y0059644D03*
X0045574Y0059833D03*
X0045574Y0059880D03*
X0045574Y0059927D03*
X0045574Y0059974D03*
X0045574Y0060022D03*
X0045574Y0060069D03*
X0045574Y0060116D03*
X0045574Y0060163D03*
X0045526Y0060211D03*
X0045526Y0059785D03*
X0044912Y0059880D03*
X0044912Y0059927D03*
X0044912Y0059974D03*
X0044912Y0060022D03*
X0044912Y0060069D03*
X0044912Y0060116D03*
X0044534Y0060069D03*
X0044534Y0060022D03*
X0044534Y0059974D03*
X0044534Y0059927D03*
X0044487Y0059833D03*
X0044487Y0060163D03*
X0043873Y0060163D03*
X0043873Y0060116D03*
X0043873Y0059880D03*
X0043873Y0059833D03*
X0043495Y0059691D03*
X0043495Y0059644D03*
X0043495Y0059596D03*
X0043448Y0059738D03*
X0043353Y0060022D03*
X0043353Y0060069D03*
X0043306Y0060163D03*
X0043306Y0060211D03*
X0043259Y0060352D03*
X0042881Y0060352D03*
X0042833Y0060258D03*
X0042833Y0060211D03*
X0042786Y0060116D03*
X0042786Y0060069D03*
X0042786Y0060022D03*
X0042644Y0059738D03*
X0042644Y0059691D03*
X0042644Y0059644D03*
X0041747Y0059738D03*
X0041463Y0059502D03*
X0041133Y0059833D03*
X0041133Y0059880D03*
X0041133Y0060116D03*
X0041133Y0060163D03*
X0041180Y0060211D03*
X0041700Y0060258D03*
X0041747Y0060211D03*
X0040613Y0060211D03*
X0040093Y0060683D03*
X0039243Y0060683D03*
X0039243Y0060636D03*
X0039243Y0060589D03*
X0039243Y0060541D03*
X0039243Y0060494D03*
X0039243Y0060447D03*
X0039243Y0060400D03*
X0039243Y0060352D03*
X0039243Y0060305D03*
X0039243Y0060258D03*
X0039243Y0060211D03*
X0039243Y0060163D03*
X0039243Y0060116D03*
X0039243Y0060069D03*
X0039243Y0060022D03*
X0039243Y0059974D03*
X0039243Y0059927D03*
X0039243Y0059880D03*
X0039243Y0059833D03*
X0039243Y0059785D03*
X0039243Y0059738D03*
X0039243Y0059691D03*
X0039243Y0059644D03*
X0039243Y0059596D03*
X0038818Y0059738D03*
X0038534Y0059502D03*
X0038204Y0059833D03*
X0038204Y0059880D03*
X0038204Y0060116D03*
X0038204Y0060163D03*
X0038251Y0060211D03*
X0038770Y0060258D03*
X0038818Y0060211D03*
X0039243Y0060730D03*
X0039243Y0060778D03*
X0039243Y0060825D03*
X0037684Y0060211D03*
X0037117Y0060163D03*
X0037117Y0060116D03*
X0037117Y0060069D03*
X0037117Y0059880D03*
X0037117Y0059833D03*
X0036503Y0059785D03*
X0036456Y0059880D03*
X0036456Y0059927D03*
X0036456Y0059974D03*
X0036456Y0060022D03*
X0036456Y0060069D03*
X0036503Y0060163D03*
X0036078Y0059927D03*
X0036078Y0059880D03*
X0036078Y0059833D03*
X0035747Y0059502D03*
X0035511Y0060494D03*
X0032062Y0061770D03*
X0028235Y0061770D03*
X0035180Y0066589D03*
X0044912Y0059549D03*
X0044912Y0059502D03*
X0044912Y0059455D03*
X0044912Y0059407D03*
X0044912Y0059360D03*
X0044912Y0059313D03*
X0044912Y0059266D03*
X0044912Y0059219D03*
X0051432Y0060211D03*
X0051857Y0060211D03*
X0051857Y0060163D03*
X0051904Y0060116D03*
X0052282Y0059833D03*
X0052046Y0059502D03*
D114*
X0052070Y0059596D03*
X0052117Y0060352D03*
X0050133Y0059596D03*
X0047109Y0059596D03*
X0040637Y0060258D03*
X0037707Y0060258D03*
X0035865Y0060116D03*
X0035676Y0060258D03*
X0035723Y0059549D03*
X0030668Y0061817D03*
X0029440Y0065549D03*
X0027172Y0064085D03*
D115*
X0026393Y0061722D03*
X0036550Y0059738D03*
X0036739Y0059549D03*
X0037070Y0059738D03*
X0038534Y0060447D03*
X0041463Y0060447D03*
X0043070Y0060683D03*
X0043920Y0059738D03*
X0044440Y0059738D03*
X0044959Y0060211D03*
X0045290Y0060447D03*
X0045290Y0059549D03*
X0048219Y0059738D03*
X0051243Y0060447D03*
X0052093Y0060447D03*
X0052235Y0059880D03*
D116*
X0052117Y0059974D03*
X0052117Y0060400D03*
X0050133Y0060400D03*
X0047109Y0059549D03*
X0044085Y0061722D03*
X0043046Y0060494D03*
X0041487Y0059549D03*
X0038558Y0059549D03*
X0035912Y0060069D03*
X0042432Y0067628D03*
X0027172Y0064037D03*
D117*
X0035770Y0060683D03*
X0035770Y0060636D03*
X0035723Y0059596D03*
X0038558Y0059596D03*
X0038227Y0061817D03*
X0041487Y0059596D03*
X0044085Y0059549D03*
X0045172Y0060400D03*
X0047062Y0060305D03*
X0047062Y0060258D03*
X0047062Y0059691D03*
X0048054Y0060400D03*
X0050133Y0060352D03*
X0050133Y0059644D03*
X0052070Y0059691D03*
D118*
X0052164Y0059927D03*
X0051975Y0060069D03*
X0051550Y0061770D03*
X0050133Y0060447D03*
X0047912Y0059549D03*
X0047109Y0060447D03*
X0044983Y0059738D03*
X0043046Y0060636D03*
X0036007Y0060022D03*
X0045739Y0068006D03*
D119*
X0044251Y0060400D03*
X0043070Y0060541D03*
X0043070Y0060589D03*
X0050156Y0059549D03*
X0052046Y0059549D03*
X0052046Y0060022D03*
X0036739Y0060400D03*
X0035794Y0060778D03*
X0035605Y0060305D03*
X0027148Y0062809D03*
D120*
X0028235Y0061864D03*
X0030644Y0061864D03*
X0035747Y0060589D03*
X0036881Y0059596D03*
X0038534Y0060305D03*
X0041463Y0060305D03*
X0044109Y0059596D03*
X0048030Y0059596D03*
X0045763Y0067959D03*
D121*
X0042432Y0067581D03*
X0035204Y0066541D03*
X0033597Y0061864D03*
X0036857Y0060352D03*
X0036857Y0059644D03*
X0035723Y0059644D03*
X0038558Y0059644D03*
X0038558Y0059691D03*
X0041487Y0059691D03*
X0041487Y0059644D03*
X0044133Y0059644D03*
X0044133Y0060352D03*
X0045172Y0060352D03*
X0045172Y0059596D03*
X0048007Y0059644D03*
X0048007Y0059691D03*
X0048007Y0060305D03*
X0048007Y0060352D03*
X0050133Y0060305D03*
X0050133Y0060258D03*
X0050133Y0059691D03*
X0051125Y0060352D03*
X0051125Y0060400D03*
X0051550Y0061817D03*
X0028967Y0064652D03*
X0027125Y0064179D03*
X0027125Y0062667D03*
D122*
X0026393Y0061770D03*
X0028235Y0061911D03*
X0028235Y0061959D03*
X0028802Y0064085D03*
X0028849Y0064226D03*
X0028849Y0064274D03*
X0028896Y0064368D03*
X0028896Y0064415D03*
X0028896Y0064463D03*
X0028944Y0064510D03*
X0028944Y0064557D03*
X0028944Y0064604D03*
X0028991Y0064699D03*
X0029889Y0064699D03*
X0029936Y0064604D03*
X0029463Y0065502D03*
X0026440Y0065030D03*
X0030644Y0061911D03*
X0032062Y0061864D03*
X0035747Y0059738D03*
X0035747Y0059691D03*
X0036833Y0059691D03*
X0036833Y0060258D03*
X0036833Y0060305D03*
X0044156Y0060305D03*
X0044156Y0060258D03*
X0044156Y0059691D03*
X0045196Y0059691D03*
X0045196Y0059644D03*
X0045196Y0060305D03*
X0047983Y0060258D03*
X0051148Y0060305D03*
X0047747Y0068289D03*
D123*
X0047085Y0060352D03*
X0047085Y0059644D03*
X0048881Y0060305D03*
X0048881Y0060352D03*
X0048881Y0060400D03*
X0052093Y0060305D03*
X0052046Y0059644D03*
X0041463Y0060352D03*
X0040613Y0060352D03*
X0040613Y0060305D03*
X0040613Y0060400D03*
X0038534Y0060352D03*
X0037684Y0060352D03*
X0037684Y0060305D03*
X0037684Y0060400D03*
X0036644Y0061817D03*
X0035794Y0060730D03*
X0035747Y0060211D03*
X0035794Y0060163D03*
X0033621Y0061817D03*
X0032062Y0061817D03*
X0027148Y0062715D03*
X0027148Y0064132D03*
D124*
X0027172Y0063990D03*
X0026416Y0065077D03*
X0033597Y0061770D03*
X0035534Y0060541D03*
X0035487Y0060447D03*
X0035487Y0060400D03*
X0035534Y0060352D03*
X0036054Y0059974D03*
X0036054Y0059785D03*
X0036526Y0060211D03*
X0036763Y0060447D03*
X0037093Y0060211D03*
X0037093Y0059785D03*
X0038227Y0059785D03*
X0038274Y0059738D03*
X0038274Y0060258D03*
X0038227Y0061770D03*
X0036668Y0061770D03*
X0040070Y0060778D03*
X0040070Y0060730D03*
X0041204Y0060258D03*
X0041156Y0059785D03*
X0041204Y0059738D03*
X0043046Y0060730D03*
X0043896Y0060211D03*
X0044227Y0060447D03*
X0044463Y0060211D03*
X0044463Y0059785D03*
X0044936Y0059785D03*
X0044936Y0059833D03*
X0044936Y0060163D03*
X0045503Y0059738D03*
X0046826Y0059785D03*
X0046873Y0059738D03*
X0046826Y0060211D03*
X0046400Y0060730D03*
X0046400Y0060778D03*
X0047912Y0060447D03*
X0048243Y0060211D03*
X0047723Y0059738D03*
X0047676Y0059785D03*
X0049424Y0060730D03*
X0049424Y0060778D03*
X0049849Y0060211D03*
X0049849Y0059785D03*
X0049896Y0059738D03*
X0050369Y0059738D03*
X0050416Y0059785D03*
X0050416Y0060211D03*
X0050889Y0060258D03*
X0051408Y0060258D03*
X0043896Y0059785D03*
D125*
X0043070Y0059785D03*
X0043070Y0059833D03*
X0038204Y0061911D03*
X0033621Y0061959D03*
X0032062Y0062006D03*
X0030644Y0062053D03*
X0030644Y0062100D03*
X0030644Y0062148D03*
X0028330Y0062384D03*
X0028330Y0062431D03*
X0028282Y0062242D03*
X0028282Y0062195D03*
X0025448Y0062809D03*
X0025448Y0063990D03*
X0025495Y0064085D03*
X0034471Y0065077D03*
X0034519Y0065219D03*
X0034566Y0065360D03*
X0034566Y0065407D03*
X0034613Y0065455D03*
X0034613Y0065502D03*
X0035180Y0066494D03*
X0047747Y0068242D03*
D126*
X0046400Y0060589D03*
X0043046Y0060825D03*
X0040070Y0060589D03*
X0034637Y0062715D03*
X0049424Y0060589D03*
X0051833Y0059785D03*
D127*
X0051550Y0061864D03*
X0043046Y0059880D03*
X0036668Y0061911D03*
X0033597Y0061911D03*
X0032038Y0061959D03*
X0030668Y0062006D03*
X0030290Y0063376D03*
X0030290Y0063423D03*
X0030290Y0063470D03*
X0030196Y0063754D03*
X0029440Y0065455D03*
X0027078Y0064226D03*
X0025471Y0064037D03*
X0025424Y0063943D03*
X0025377Y0063848D03*
X0025377Y0062951D03*
X0025377Y0062904D03*
X0025424Y0062856D03*
X0028259Y0062148D03*
X0028259Y0062100D03*
X0028259Y0062053D03*
X0042432Y0067533D03*
D128*
X0038227Y0061864D03*
X0036668Y0061864D03*
X0038511Y0060069D03*
X0038511Y0059974D03*
X0038511Y0059927D03*
X0041440Y0059927D03*
X0041440Y0059974D03*
X0041440Y0060069D03*
X0045219Y0060258D03*
X0030101Y0064085D03*
X0030054Y0064179D03*
X0030054Y0064226D03*
X0030007Y0064321D03*
X0030007Y0064368D03*
X0030007Y0064415D03*
X0029959Y0064463D03*
X0029959Y0064510D03*
X0029959Y0064557D03*
X0029912Y0064652D03*
X0028873Y0064321D03*
X0028826Y0064179D03*
X0028826Y0064132D03*
X0028778Y0064037D03*
X0028778Y0063990D03*
X0028778Y0063943D03*
X0028731Y0063896D03*
X0028731Y0063848D03*
X0028731Y0063801D03*
X0028684Y0063707D03*
X0028684Y0063659D03*
X0028637Y0063518D03*
X0027078Y0062620D03*
X0025330Y0063140D03*
X0025330Y0063187D03*
X0025330Y0063612D03*
X0025330Y0063659D03*
D129*
X0025353Y0063707D03*
X0025353Y0063754D03*
X0025353Y0063801D03*
X0025400Y0063896D03*
X0025306Y0063565D03*
X0025306Y0063518D03*
X0025306Y0063470D03*
X0025306Y0063423D03*
X0025306Y0063376D03*
X0025306Y0063329D03*
X0025306Y0063281D03*
X0025306Y0063234D03*
X0025353Y0063093D03*
X0025353Y0063045D03*
X0025353Y0062998D03*
X0028235Y0062006D03*
X0028613Y0063376D03*
X0028613Y0063423D03*
X0028613Y0063470D03*
X0028660Y0063565D03*
X0028660Y0063612D03*
X0028707Y0063754D03*
X0030030Y0064274D03*
X0030078Y0064132D03*
X0030125Y0064037D03*
X0030125Y0063990D03*
X0030125Y0063943D03*
X0030172Y0063896D03*
X0030172Y0063848D03*
X0030172Y0063801D03*
X0030219Y0063707D03*
X0030219Y0063659D03*
X0030219Y0063612D03*
X0030267Y0063565D03*
X0030267Y0063518D03*
X0030644Y0061959D03*
X0032062Y0061911D03*
X0038534Y0060022D03*
X0041463Y0060022D03*
X0043070Y0059974D03*
X0043070Y0059927D03*
X0045763Y0067911D03*
D130*
X0047747Y0068337D03*
X0047133Y0060400D03*
X0048881Y0060447D03*
X0048881Y0060258D03*
X0041463Y0060400D03*
X0040613Y0060447D03*
X0038534Y0060400D03*
X0037684Y0060447D03*
X0028235Y0061817D03*
X0027148Y0062762D03*
D131*
X0029463Y0065219D03*
X0029463Y0065266D03*
X0033763Y0062667D03*
X0033715Y0062573D03*
X0033715Y0062526D03*
X0033668Y0062431D03*
X0033668Y0062384D03*
X0033668Y0062337D03*
X0036644Y0062242D03*
X0036644Y0062195D03*
X0036644Y0062148D03*
X0038204Y0062148D03*
X0035180Y0066400D03*
X0044109Y0061770D03*
X0045763Y0067722D03*
X0047747Y0068100D03*
D132*
X0051526Y0061911D03*
X0038204Y0061959D03*
X0036644Y0062006D03*
X0035936Y0064841D03*
X0035889Y0064982D03*
X0035889Y0065030D03*
X0035841Y0065124D03*
X0035841Y0065171D03*
X0035841Y0065219D03*
X0035794Y0065266D03*
X0035794Y0065313D03*
X0035794Y0065360D03*
X0035747Y0065455D03*
X0035747Y0065502D03*
X0034424Y0064935D03*
X0034377Y0064793D03*
X0034330Y0064652D03*
X0034330Y0064604D03*
X0034282Y0064557D03*
X0034282Y0064510D03*
X0034282Y0064463D03*
X0034235Y0064415D03*
X0034235Y0064368D03*
X0034235Y0064321D03*
X0034235Y0064274D03*
X0034188Y0064179D03*
X0034141Y0064037D03*
X0033621Y0062053D03*
X0032062Y0062100D03*
X0032062Y0062148D03*
X0032062Y0062195D03*
X0032062Y0062242D03*
X0032062Y0062289D03*
X0032062Y0062337D03*
X0032062Y0062384D03*
X0032062Y0062431D03*
X0032062Y0062478D03*
X0032062Y0062526D03*
X0032062Y0062573D03*
X0032062Y0062620D03*
X0032062Y0062667D03*
X0032062Y0062715D03*
X0032062Y0062762D03*
X0032062Y0062809D03*
X0032062Y0062856D03*
X0032062Y0062904D03*
X0032062Y0062951D03*
X0032062Y0062998D03*
X0032062Y0063045D03*
X0032062Y0063093D03*
X0032062Y0063140D03*
X0032062Y0063187D03*
X0032062Y0063234D03*
X0032062Y0063281D03*
X0032062Y0063329D03*
X0032062Y0063376D03*
X0032062Y0063423D03*
X0032062Y0063470D03*
X0032062Y0063518D03*
X0032062Y0063565D03*
X0032062Y0063612D03*
X0032062Y0063659D03*
X0032062Y0063707D03*
X0032062Y0063754D03*
X0032062Y0063801D03*
X0032062Y0063848D03*
X0032062Y0063896D03*
X0032062Y0063943D03*
X0032062Y0063990D03*
X0032062Y0064037D03*
X0032062Y0064085D03*
X0032062Y0064132D03*
X0032062Y0064179D03*
X0032062Y0064226D03*
X0032062Y0064274D03*
X0032062Y0064321D03*
X0032062Y0064368D03*
X0032062Y0064415D03*
X0032062Y0064463D03*
X0032062Y0064510D03*
X0032062Y0064557D03*
X0032062Y0064604D03*
X0032062Y0064652D03*
X0032062Y0064699D03*
X0032062Y0064746D03*
X0032062Y0064793D03*
X0032062Y0064841D03*
X0026440Y0064982D03*
X0025589Y0064179D03*
X0025542Y0062667D03*
X0026393Y0061817D03*
D133*
X0026393Y0061959D03*
X0026440Y0064841D03*
X0029463Y0064793D03*
X0035180Y0066116D03*
X0038770Y0067014D03*
X0040424Y0065880D03*
X0040424Y0064463D03*
X0042739Y0063140D03*
X0044109Y0061817D03*
X0045479Y0063140D03*
X0051574Y0062526D03*
D134*
X0048668Y0061817D03*
X0038936Y0066919D03*
X0026369Y0064463D03*
X0026369Y0062337D03*
X0026369Y0062289D03*
D135*
X0026369Y0061864D03*
X0026463Y0064935D03*
X0033692Y0062478D03*
X0033739Y0062620D03*
X0033786Y0062715D03*
X0036526Y0062667D03*
X0036526Y0062620D03*
X0036574Y0062573D03*
X0036574Y0062526D03*
X0036574Y0062478D03*
X0036574Y0062431D03*
X0036621Y0062384D03*
X0036621Y0062337D03*
X0036621Y0062289D03*
X0038227Y0062289D03*
X0038227Y0062242D03*
X0038227Y0062195D03*
X0038227Y0062337D03*
X0038180Y0064415D03*
X0038180Y0064463D03*
X0038180Y0064510D03*
X0038180Y0064557D03*
X0038180Y0064604D03*
X0038180Y0064652D03*
X0038180Y0064699D03*
X0038180Y0064746D03*
X0038180Y0064793D03*
X0038180Y0064841D03*
X0038180Y0064888D03*
X0038180Y0064935D03*
X0038180Y0064982D03*
X0038180Y0065030D03*
X0038180Y0065077D03*
X0038180Y0065124D03*
X0038180Y0065171D03*
X0038180Y0065219D03*
X0038180Y0065266D03*
X0038180Y0065313D03*
X0038180Y0065360D03*
X0038180Y0065407D03*
X0038180Y0065455D03*
X0038180Y0065502D03*
X0038180Y0065549D03*
X0038180Y0065596D03*
X0038180Y0065644D03*
X0038180Y0065691D03*
X0038180Y0065738D03*
X0038180Y0065785D03*
X0038180Y0065833D03*
X0038180Y0065880D03*
X0038180Y0065927D03*
X0040684Y0065360D03*
X0040684Y0065313D03*
X0040684Y0065030D03*
X0040684Y0064982D03*
X0040684Y0064935D03*
X0042432Y0067250D03*
X0042432Y0067297D03*
X0045739Y0067675D03*
X0051550Y0062006D03*
X0035204Y0066352D03*
D136*
X0035204Y0065738D03*
X0044085Y0061864D03*
D137*
X0048692Y0061864D03*
X0039007Y0066825D03*
X0029463Y0063329D03*
X0029463Y0063281D03*
X0029463Y0063234D03*
D138*
X0029440Y0064982D03*
X0026369Y0061911D03*
X0035204Y0066258D03*
X0040542Y0065785D03*
X0040542Y0064557D03*
X0042526Y0063518D03*
X0042574Y0063423D03*
X0042574Y0063376D03*
X0045597Y0063376D03*
X0045597Y0063329D03*
X0045644Y0063423D03*
X0045644Y0063470D03*
X0047770Y0067817D03*
X0051550Y0062195D03*
X0051550Y0062148D03*
D139*
X0044109Y0061911D03*
D140*
X0048668Y0061911D03*
X0039078Y0066778D03*
X0038936Y0063470D03*
X0032038Y0065785D03*
D141*
X0034448Y0065030D03*
X0034448Y0064982D03*
X0034400Y0064888D03*
X0034400Y0064841D03*
X0034353Y0064746D03*
X0034353Y0064699D03*
X0034495Y0065124D03*
X0034495Y0065171D03*
X0034542Y0065266D03*
X0034542Y0065313D03*
X0035770Y0065407D03*
X0036668Y0061959D03*
X0033597Y0062006D03*
X0032038Y0062053D03*
X0030621Y0062195D03*
X0030621Y0062242D03*
X0030621Y0062289D03*
X0030621Y0062337D03*
X0030574Y0062384D03*
X0030574Y0062431D03*
X0030574Y0062478D03*
X0028353Y0062478D03*
X0028306Y0062337D03*
X0028306Y0062289D03*
X0025519Y0062715D03*
X0025471Y0062762D03*
X0025519Y0064132D03*
X0029440Y0065407D03*
X0042432Y0067486D03*
X0045739Y0067864D03*
D142*
X0044109Y0061959D03*
X0026345Y0062384D03*
X0026345Y0062431D03*
X0026393Y0064415D03*
D143*
X0032038Y0065077D03*
X0044085Y0062100D03*
X0048668Y0061959D03*
D144*
X0051550Y0061959D03*
X0045739Y0067770D03*
X0042432Y0067392D03*
X0042432Y0067344D03*
X0038227Y0062100D03*
X0038227Y0062053D03*
X0036196Y0063896D03*
X0033644Y0062289D03*
X0033644Y0062242D03*
X0025660Y0064226D03*
D145*
X0026416Y0064793D03*
X0026369Y0062006D03*
X0035204Y0065974D03*
X0040353Y0065927D03*
X0040353Y0064415D03*
X0042810Y0063045D03*
X0045361Y0063045D03*
D146*
X0045739Y0067817D03*
X0047770Y0068195D03*
X0042432Y0067439D03*
X0038227Y0062006D03*
X0036101Y0064226D03*
X0036054Y0064368D03*
X0036054Y0064415D03*
X0036007Y0064510D03*
X0036007Y0064557D03*
X0036007Y0064604D03*
X0036007Y0064652D03*
X0035959Y0064699D03*
X0035959Y0064746D03*
X0035959Y0064793D03*
X0035912Y0064888D03*
X0035912Y0064935D03*
X0035865Y0065077D03*
X0035204Y0066447D03*
X0034211Y0064226D03*
X0034164Y0064132D03*
X0034164Y0064085D03*
X0034117Y0063990D03*
X0034117Y0063943D03*
X0034117Y0063896D03*
X0034070Y0063848D03*
X0034070Y0063801D03*
X0029440Y0065360D03*
X0025613Y0062620D03*
D147*
X0044109Y0062006D03*
D148*
X0044085Y0062148D03*
X0048668Y0062006D03*
X0039125Y0066683D03*
X0032038Y0065596D03*
X0032038Y0065549D03*
X0032038Y0065219D03*
X0032038Y0065171D03*
X0029440Y0062809D03*
D149*
X0026369Y0062053D03*
X0035204Y0065833D03*
X0035204Y0065880D03*
D150*
X0036030Y0064463D03*
X0036078Y0064321D03*
X0036078Y0064274D03*
X0036125Y0064179D03*
X0036125Y0064132D03*
X0036125Y0064085D03*
X0036172Y0064037D03*
X0036172Y0063990D03*
X0036172Y0063943D03*
X0036219Y0063848D03*
X0036219Y0063801D03*
X0036644Y0062100D03*
X0036644Y0062053D03*
X0033621Y0062100D03*
X0033621Y0062148D03*
X0033621Y0062195D03*
X0029463Y0065313D03*
X0047747Y0068148D03*
D151*
X0044085Y0062053D03*
X0038889Y0063423D03*
X0032038Y0065833D03*
D152*
X0029440Y0062667D03*
X0039125Y0066636D03*
X0048526Y0063140D03*
X0048668Y0062053D03*
D153*
X0051526Y0062053D03*
X0047747Y0068006D03*
X0047747Y0068053D03*
X0045763Y0067628D03*
X0045763Y0067581D03*
X0045763Y0067533D03*
X0042456Y0067203D03*
X0040660Y0065549D03*
X0040660Y0065502D03*
X0040660Y0065455D03*
X0040660Y0065407D03*
X0040707Y0065266D03*
X0040707Y0065219D03*
X0040707Y0065171D03*
X0040707Y0065124D03*
X0040707Y0065077D03*
X0040660Y0064888D03*
X0040660Y0064841D03*
X0040660Y0064793D03*
X0038204Y0063281D03*
X0038204Y0063234D03*
X0038204Y0063187D03*
X0038204Y0063140D03*
X0038204Y0063093D03*
X0038204Y0063045D03*
X0038204Y0062998D03*
X0038204Y0062951D03*
X0038204Y0062904D03*
X0038204Y0062856D03*
X0038204Y0062809D03*
X0038204Y0062762D03*
X0038204Y0062715D03*
X0038204Y0062667D03*
X0038204Y0062620D03*
X0038204Y0062573D03*
X0038204Y0062526D03*
X0038204Y0062478D03*
X0038204Y0062431D03*
X0038204Y0062384D03*
X0036503Y0062715D03*
X0029463Y0065124D03*
X0029463Y0065171D03*
D154*
X0026440Y0064699D03*
X0026393Y0062100D03*
X0035180Y0065644D03*
X0035180Y0065691D03*
D155*
X0039172Y0066589D03*
X0039125Y0063659D03*
X0048574Y0063045D03*
X0048668Y0062148D03*
X0048668Y0062100D03*
D156*
X0045739Y0063848D03*
X0045739Y0063896D03*
X0045739Y0063943D03*
X0045739Y0063990D03*
X0045739Y0064037D03*
X0045739Y0064085D03*
X0045739Y0064132D03*
X0045739Y0064179D03*
X0045739Y0064226D03*
X0045739Y0064274D03*
X0045739Y0064321D03*
X0045739Y0064368D03*
X0045739Y0064415D03*
X0045739Y0064463D03*
X0045739Y0064510D03*
X0045739Y0064557D03*
X0045739Y0064604D03*
X0045739Y0064652D03*
X0045739Y0064699D03*
X0045739Y0064746D03*
X0045739Y0064793D03*
X0045739Y0064841D03*
X0045739Y0064888D03*
X0045739Y0064935D03*
X0045739Y0064982D03*
X0045739Y0065030D03*
X0045739Y0065077D03*
X0045739Y0065124D03*
X0045739Y0065171D03*
X0045739Y0065219D03*
X0045739Y0065266D03*
X0045739Y0065313D03*
X0045739Y0065360D03*
X0045739Y0065407D03*
X0045739Y0065455D03*
X0045739Y0065502D03*
X0045739Y0065549D03*
X0045739Y0065596D03*
X0045739Y0065644D03*
X0045739Y0065691D03*
X0045739Y0065738D03*
X0045739Y0065785D03*
X0045739Y0065833D03*
X0045739Y0065880D03*
X0045739Y0065927D03*
X0045739Y0065974D03*
X0045739Y0066022D03*
X0045739Y0066069D03*
X0045739Y0066116D03*
X0045739Y0066163D03*
X0045739Y0066211D03*
X0045739Y0066258D03*
X0045739Y0066305D03*
X0045739Y0066352D03*
X0045739Y0066400D03*
X0045739Y0066447D03*
X0045739Y0066494D03*
X0045739Y0066541D03*
X0045739Y0066589D03*
X0045739Y0066636D03*
X0045739Y0066683D03*
X0045739Y0066730D03*
X0045739Y0066778D03*
X0045739Y0066825D03*
X0045739Y0066872D03*
X0045739Y0066919D03*
X0045739Y0066967D03*
X0045739Y0067014D03*
X0045739Y0067061D03*
X0045739Y0067108D03*
X0045739Y0067156D03*
X0045739Y0067250D03*
X0045739Y0067297D03*
X0045739Y0067344D03*
X0045739Y0067392D03*
X0045739Y0067439D03*
X0045739Y0067486D03*
X0042432Y0067156D03*
X0042432Y0067108D03*
X0042432Y0067061D03*
X0042432Y0067014D03*
X0042432Y0066967D03*
X0042432Y0066919D03*
X0042432Y0066872D03*
X0042432Y0066825D03*
X0042432Y0066778D03*
X0042432Y0066730D03*
X0042432Y0066683D03*
X0042432Y0066636D03*
X0042432Y0066589D03*
X0042432Y0066541D03*
X0042432Y0066494D03*
X0042432Y0066447D03*
X0042432Y0066400D03*
X0042432Y0066352D03*
X0042432Y0066305D03*
X0042432Y0066258D03*
X0042432Y0066211D03*
X0042432Y0066163D03*
X0042432Y0066116D03*
X0042432Y0066069D03*
X0042432Y0066022D03*
X0042432Y0065974D03*
X0042432Y0065927D03*
X0042432Y0065880D03*
X0042432Y0065833D03*
X0042432Y0065785D03*
X0042432Y0065738D03*
X0042432Y0065691D03*
X0042432Y0065644D03*
X0042432Y0065596D03*
X0042432Y0065549D03*
X0042432Y0065502D03*
X0042432Y0065455D03*
X0042432Y0065407D03*
X0042432Y0065360D03*
X0042432Y0065313D03*
X0042432Y0065266D03*
X0042432Y0065219D03*
X0042432Y0065171D03*
X0042432Y0065124D03*
X0042432Y0065077D03*
X0042432Y0065030D03*
X0042432Y0064982D03*
X0042432Y0064935D03*
X0042432Y0064888D03*
X0042432Y0064841D03*
X0042432Y0064793D03*
X0042432Y0064746D03*
X0042432Y0064699D03*
X0042432Y0064652D03*
X0042432Y0064604D03*
X0042432Y0064557D03*
X0042432Y0064510D03*
X0042432Y0064463D03*
X0042432Y0064415D03*
X0042432Y0064368D03*
X0042432Y0064321D03*
X0042432Y0064274D03*
X0042432Y0064226D03*
X0042432Y0064179D03*
X0042432Y0064132D03*
X0042432Y0064085D03*
X0042432Y0064037D03*
X0042432Y0063990D03*
X0042479Y0063801D03*
X0042479Y0063754D03*
X0042479Y0063707D03*
X0040637Y0064699D03*
X0040637Y0064746D03*
X0040637Y0065596D03*
X0040589Y0065691D03*
X0035204Y0066305D03*
X0029440Y0065077D03*
X0051550Y0062100D03*
D157*
X0035180Y0065549D03*
X0026440Y0064652D03*
X0026393Y0062148D03*
D158*
X0026369Y0062195D03*
X0026416Y0064604D03*
D159*
X0029463Y0062620D03*
X0029463Y0062573D03*
X0029463Y0062526D03*
X0039101Y0063612D03*
X0044109Y0062195D03*
X0048550Y0063093D03*
D160*
X0048597Y0062998D03*
X0048644Y0062195D03*
X0044109Y0062242D03*
X0039148Y0063707D03*
X0039196Y0066541D03*
D161*
X0026416Y0064557D03*
X0026369Y0062242D03*
D162*
X0039172Y0063754D03*
X0039219Y0066494D03*
X0048621Y0062951D03*
X0048621Y0062904D03*
X0048621Y0062856D03*
X0048668Y0062337D03*
X0048668Y0062289D03*
X0048668Y0062242D03*
D163*
X0047747Y0063281D03*
X0047747Y0063329D03*
X0047747Y0063376D03*
X0047747Y0063423D03*
X0047747Y0063470D03*
X0047747Y0063518D03*
X0047747Y0063565D03*
X0047747Y0063612D03*
X0047747Y0063659D03*
X0047747Y0063707D03*
X0047747Y0063754D03*
X0047747Y0063801D03*
X0047747Y0063848D03*
X0047747Y0063896D03*
X0047747Y0063943D03*
X0047747Y0063990D03*
X0047747Y0064037D03*
X0047747Y0064085D03*
X0047747Y0064132D03*
X0047747Y0064179D03*
X0047747Y0064226D03*
X0047747Y0064274D03*
X0047747Y0064321D03*
X0047747Y0064368D03*
X0047747Y0064415D03*
X0047747Y0064463D03*
X0047747Y0064510D03*
X0047747Y0064557D03*
X0047747Y0064604D03*
X0047747Y0064652D03*
X0047747Y0064699D03*
X0047747Y0064746D03*
X0047747Y0064793D03*
X0047747Y0064841D03*
X0047747Y0064888D03*
X0047747Y0064935D03*
X0047747Y0064982D03*
X0047747Y0065030D03*
X0047747Y0065077D03*
X0047747Y0065124D03*
X0047747Y0065171D03*
X0047747Y0065219D03*
X0047747Y0065266D03*
X0047747Y0065313D03*
X0047747Y0065360D03*
X0047747Y0065407D03*
X0047747Y0065455D03*
X0047747Y0065502D03*
X0047747Y0065549D03*
X0047747Y0065596D03*
X0047747Y0065644D03*
X0047747Y0065691D03*
X0047747Y0065738D03*
X0047747Y0065785D03*
X0047747Y0065833D03*
X0047747Y0065880D03*
X0047747Y0065927D03*
X0047747Y0065974D03*
X0047747Y0066022D03*
X0047747Y0066069D03*
X0047747Y0066116D03*
X0047747Y0066163D03*
X0047747Y0066211D03*
X0047747Y0066258D03*
X0047747Y0066305D03*
X0047747Y0066352D03*
X0047747Y0066400D03*
X0047747Y0066447D03*
X0047747Y0066494D03*
X0047747Y0066541D03*
X0047747Y0066589D03*
X0047747Y0066636D03*
X0047747Y0066683D03*
X0047747Y0066730D03*
X0047747Y0066778D03*
X0047747Y0066825D03*
X0047747Y0066872D03*
X0047747Y0066919D03*
X0047747Y0066967D03*
X0047747Y0067014D03*
X0047747Y0067061D03*
X0047747Y0067108D03*
X0047747Y0067156D03*
X0047747Y0067203D03*
X0047747Y0067250D03*
X0047747Y0067297D03*
X0047747Y0067344D03*
X0047747Y0067392D03*
X0047747Y0067439D03*
X0047747Y0067486D03*
X0047747Y0067533D03*
X0047747Y0067581D03*
X0047747Y0067628D03*
X0047747Y0067675D03*
X0047747Y0067722D03*
X0047747Y0067770D03*
X0045574Y0063281D03*
X0042644Y0063281D03*
X0042644Y0063234D03*
X0042597Y0063329D03*
X0040519Y0064510D03*
X0035180Y0066211D03*
X0029463Y0064935D03*
X0051526Y0062242D03*
D164*
X0044085Y0062289D03*
X0039219Y0063848D03*
X0035156Y0063707D03*
X0035156Y0063659D03*
D165*
X0035204Y0066163D03*
X0040495Y0065833D03*
X0042668Y0063187D03*
X0045503Y0063187D03*
X0045550Y0063234D03*
X0051550Y0062478D03*
X0051550Y0062431D03*
X0051550Y0062384D03*
X0051550Y0062337D03*
X0051550Y0062289D03*
X0029440Y0064841D03*
X0029440Y0064888D03*
D166*
X0035156Y0063612D03*
X0035156Y0063565D03*
X0035156Y0063518D03*
X0039267Y0063943D03*
X0039267Y0066352D03*
X0044085Y0062337D03*
D167*
X0044085Y0062384D03*
X0039314Y0064085D03*
X0039314Y0066211D03*
X0039314Y0066258D03*
X0035156Y0063470D03*
X0035156Y0063423D03*
X0035156Y0063376D03*
D168*
X0035180Y0063754D03*
X0039196Y0063801D03*
X0039243Y0066447D03*
X0048644Y0062809D03*
X0048644Y0062762D03*
X0048644Y0062715D03*
X0048644Y0062667D03*
X0048644Y0062620D03*
X0048644Y0062573D03*
X0048644Y0062526D03*
X0048644Y0062478D03*
X0048644Y0062431D03*
X0048644Y0062384D03*
D169*
X0044109Y0062431D03*
X0039337Y0064132D03*
X0039337Y0064179D03*
X0039337Y0066116D03*
X0039337Y0066163D03*
D170*
X0026369Y0064368D03*
X0026322Y0064321D03*
X0026322Y0064274D03*
X0026322Y0062478D03*
D171*
X0039385Y0064321D03*
X0039385Y0064368D03*
X0039385Y0065974D03*
X0044109Y0062478D03*
D172*
X0026298Y0062526D03*
X0026298Y0062573D03*
D173*
X0035156Y0063093D03*
X0035156Y0063140D03*
X0035156Y0063187D03*
X0044085Y0062526D03*
D174*
X0044085Y0062573D03*
X0035156Y0062951D03*
X0035156Y0062998D03*
X0035156Y0063045D03*
D175*
X0035204Y0066069D03*
X0029440Y0064746D03*
X0042763Y0063093D03*
X0045456Y0063093D03*
X0051550Y0063093D03*
X0051550Y0063140D03*
X0051550Y0063187D03*
X0051550Y0063234D03*
X0051550Y0063281D03*
X0051550Y0063329D03*
X0051550Y0063376D03*
X0051550Y0063423D03*
X0051550Y0063470D03*
X0051550Y0063518D03*
X0051550Y0063565D03*
X0051550Y0063612D03*
X0051550Y0063659D03*
X0051550Y0063707D03*
X0051550Y0063754D03*
X0051550Y0063801D03*
X0051550Y0063848D03*
X0051550Y0063896D03*
X0051550Y0063943D03*
X0051550Y0063990D03*
X0051550Y0064037D03*
X0051550Y0064085D03*
X0051550Y0064132D03*
X0051550Y0064179D03*
X0051550Y0064226D03*
X0051550Y0064274D03*
X0051550Y0064321D03*
X0051550Y0064368D03*
X0051550Y0064415D03*
X0051550Y0064463D03*
X0051550Y0064510D03*
X0051550Y0064557D03*
X0051550Y0064604D03*
X0051550Y0064652D03*
X0051550Y0064699D03*
X0051550Y0064746D03*
X0051550Y0064793D03*
X0051550Y0064841D03*
X0051550Y0064888D03*
X0051550Y0064935D03*
X0051550Y0064982D03*
X0051550Y0065030D03*
X0051550Y0065077D03*
X0051550Y0065124D03*
X0051550Y0065171D03*
X0051550Y0065219D03*
X0051550Y0065266D03*
X0051550Y0065313D03*
X0051550Y0065360D03*
X0051550Y0065407D03*
X0051550Y0065455D03*
X0051550Y0065502D03*
X0051550Y0065549D03*
X0051550Y0065596D03*
X0051550Y0065644D03*
X0051550Y0065691D03*
X0051550Y0065738D03*
X0051550Y0065785D03*
X0051550Y0065833D03*
X0051550Y0065880D03*
X0051550Y0065927D03*
X0051550Y0065974D03*
X0051550Y0066022D03*
X0051550Y0066069D03*
X0051550Y0066116D03*
X0051550Y0066163D03*
X0051550Y0066211D03*
X0051550Y0066258D03*
X0051550Y0066305D03*
X0051550Y0066352D03*
X0051550Y0066400D03*
X0051550Y0066447D03*
X0051550Y0066494D03*
X0051550Y0066541D03*
X0051550Y0066589D03*
X0051550Y0066636D03*
X0051550Y0066683D03*
X0051550Y0066730D03*
X0051550Y0066778D03*
X0051550Y0066825D03*
X0051550Y0066872D03*
X0051550Y0066919D03*
X0051550Y0066967D03*
X0051550Y0067014D03*
X0051550Y0067061D03*
X0051550Y0067108D03*
X0051550Y0063045D03*
X0051550Y0062998D03*
X0051550Y0062951D03*
X0051550Y0062904D03*
X0051550Y0062856D03*
X0051550Y0062809D03*
X0051550Y0062762D03*
X0051550Y0062715D03*
X0051550Y0062667D03*
X0051550Y0062620D03*
X0051550Y0062573D03*
D176*
X0044109Y0062620D03*
D177*
X0044085Y0062667D03*
X0035156Y0062856D03*
X0035156Y0062904D03*
D178*
X0039054Y0063565D03*
X0032062Y0065266D03*
X0032062Y0065313D03*
X0032062Y0065360D03*
X0032062Y0065407D03*
X0032062Y0065455D03*
X0032062Y0065502D03*
X0029463Y0062762D03*
X0029463Y0062715D03*
X0048503Y0063187D03*
D179*
X0044085Y0062762D03*
X0044085Y0062715D03*
X0051550Y0067156D03*
X0051550Y0068620D03*
D180*
X0035133Y0062809D03*
X0035133Y0062762D03*
D181*
X0044085Y0062809D03*
X0044085Y0062856D03*
D182*
X0039007Y0063518D03*
X0039101Y0066730D03*
X0032062Y0065691D03*
X0032062Y0065644D03*
X0032062Y0065124D03*
X0029463Y0062904D03*
X0029463Y0062856D03*
D183*
X0044085Y0062904D03*
X0044085Y0062951D03*
X0051550Y0067203D03*
X0051550Y0068573D03*
D184*
X0048408Y0063234D03*
X0032062Y0065030D03*
X0032062Y0065738D03*
X0029463Y0063045D03*
X0029463Y0062998D03*
X0029463Y0062951D03*
D185*
X0026440Y0064746D03*
X0035180Y0065785D03*
X0042881Y0062998D03*
X0045290Y0062998D03*
D186*
X0032062Y0064982D03*
X0029463Y0063187D03*
X0029463Y0063140D03*
X0029463Y0063093D03*
D187*
X0035156Y0063234D03*
X0035156Y0063281D03*
X0035156Y0063329D03*
X0039361Y0064226D03*
X0039361Y0064274D03*
X0039361Y0066022D03*
X0039361Y0066069D03*
D188*
X0038676Y0063329D03*
X0032062Y0064888D03*
X0026393Y0064510D03*
D189*
X0032038Y0065880D03*
X0038983Y0066872D03*
X0038794Y0063376D03*
D190*
X0040566Y0064604D03*
X0040613Y0064652D03*
X0040613Y0065644D03*
X0040566Y0065738D03*
X0042456Y0063943D03*
X0042456Y0063896D03*
X0042456Y0063848D03*
X0042503Y0063659D03*
X0042503Y0063612D03*
X0042503Y0063565D03*
X0042550Y0063470D03*
X0045668Y0063518D03*
X0045668Y0063565D03*
X0045668Y0063612D03*
X0045715Y0063659D03*
X0045715Y0063707D03*
X0045715Y0063754D03*
X0045715Y0063801D03*
X0045763Y0067203D03*
X0047747Y0067864D03*
X0047747Y0067911D03*
X0047747Y0067959D03*
X0029463Y0065030D03*
X0026440Y0064888D03*
D191*
X0039243Y0063896D03*
X0039243Y0066400D03*
D192*
X0039290Y0066305D03*
X0039290Y0064037D03*
X0039290Y0063990D03*
D193*
X0032038Y0064935D03*
D194*
X0035204Y0065596D03*
X0038889Y0066967D03*
D195*
X0035180Y0065927D03*
D196*
X0035180Y0066022D03*
D197*
X0051550Y0067250D03*
X0051550Y0068526D03*
D198*
X0051550Y0068478D03*
X0051550Y0067297D03*
D199*
X0051526Y0067344D03*
X0051526Y0068431D03*
D200*
X0051550Y0068384D03*
X0051550Y0067392D03*
D201*
X0051550Y0067439D03*
X0051550Y0067486D03*
X0051550Y0067533D03*
X0051550Y0068242D03*
X0051550Y0068289D03*
X0051550Y0068337D03*
D202*
X0051550Y0068195D03*
X0051550Y0068148D03*
X0051550Y0068100D03*
X0051550Y0068053D03*
X0051550Y0068006D03*
X0051550Y0067959D03*
X0051550Y0067911D03*
X0051550Y0067864D03*
X0051550Y0067817D03*
X0051550Y0067770D03*
X0051550Y0067722D03*
X0051550Y0067675D03*
X0051550Y0067628D03*
X0051550Y0067581D03*
D203*
X0044478Y0074394D03*
X0044398Y0074314D03*
X0044158Y0074154D03*
X0038878Y0072074D03*
X0033198Y0075834D03*
X0033118Y0088634D03*
X0033198Y0088714D03*
X0033438Y0088874D03*
D204*
X0036318Y0090234D03*
X0041438Y0090234D03*
X0044718Y0089114D03*
X0044958Y0088634D03*
X0044958Y0088554D03*
X0044958Y0088474D03*
X0044958Y0088394D03*
X0044958Y0088314D03*
X0044958Y0088234D03*
X0044958Y0088154D03*
X0044958Y0088074D03*
X0044958Y0087994D03*
X0044958Y0087914D03*
X0044958Y0087834D03*
X0033198Y0074794D03*
X0033198Y0074714D03*
X0033198Y0074234D03*
X0033198Y0074154D03*
X0033278Y0073914D03*
X0038878Y0072154D03*
D205*
X0038878Y0072234D03*
X0034078Y0073354D03*
D206*
X0038878Y0072314D03*
D207*
X0038878Y0072394D03*
D208*
X0038878Y0072474D03*
D209*
X0038878Y0072554D03*
D210*
X0038878Y0072634D03*
D211*
X0038878Y0072714D03*
D212*
X0038878Y0072794D03*
D213*
X0036638Y0072874D03*
X0033598Y0073674D03*
X0041118Y0072874D03*
X0044158Y0089514D03*
D214*
X0044878Y0088954D03*
X0044958Y0088874D03*
X0044958Y0088794D03*
X0044958Y0087754D03*
X0044958Y0087674D03*
X0032878Y0075594D03*
X0033038Y0075354D03*
X0033118Y0075274D03*
X0033198Y0075194D03*
X0033198Y0075034D03*
X0036158Y0072954D03*
X0041598Y0072954D03*
D215*
X0046878Y0077194D03*
X0046958Y0077354D03*
X0047038Y0077514D03*
X0047118Y0077674D03*
X0047198Y0077834D03*
X0047278Y0077994D03*
X0047278Y0078074D03*
X0047358Y0078154D03*
X0047358Y0078234D03*
X0047438Y0078314D03*
X0047438Y0078394D03*
X0047438Y0078474D03*
X0047518Y0078554D03*
X0047518Y0078634D03*
X0047518Y0078714D03*
X0047598Y0078794D03*
X0047598Y0078874D03*
X0047598Y0078954D03*
X0047678Y0079114D03*
X0047678Y0079194D03*
X0047758Y0079434D03*
X0047758Y0079514D03*
X0047838Y0079834D03*
X0047918Y0080314D03*
X0047998Y0081194D03*
X0047998Y0081274D03*
X0047998Y0081914D03*
X0047918Y0082794D03*
X0047918Y0082874D03*
X0047838Y0083274D03*
X0047838Y0083354D03*
X0047758Y0083674D03*
X0047758Y0083754D03*
X0047678Y0083994D03*
X0047678Y0084074D03*
X0047598Y0084234D03*
X0047598Y0084314D03*
X0047518Y0084474D03*
X0047518Y0084554D03*
X0047438Y0084714D03*
X0047438Y0084794D03*
X0047358Y0084874D03*
X0047358Y0084954D03*
X0047358Y0085034D03*
X0047278Y0085114D03*
X0047278Y0085194D03*
X0047198Y0085274D03*
X0047198Y0085354D03*
X0047118Y0085514D03*
X0047038Y0085674D03*
X0046958Y0085834D03*
X0033198Y0073034D03*
X0030878Y0077194D03*
X0030798Y0077354D03*
X0030718Y0077514D03*
X0030638Y0077674D03*
X0030558Y0077834D03*
X0030478Y0077994D03*
X0030478Y0078074D03*
X0030398Y0078154D03*
X0030398Y0078234D03*
X0030318Y0078314D03*
X0030318Y0078394D03*
X0030318Y0078474D03*
X0030238Y0078554D03*
X0030238Y0078634D03*
X0030238Y0078714D03*
X0030158Y0078794D03*
X0030158Y0078874D03*
X0030158Y0078954D03*
X0030078Y0079114D03*
X0030078Y0079194D03*
X0029998Y0079434D03*
X0029998Y0079514D03*
X0029918Y0079834D03*
X0029838Y0080314D03*
X0029758Y0081194D03*
X0029758Y0081274D03*
X0029758Y0081914D03*
X0029838Y0082794D03*
X0029838Y0082874D03*
X0029918Y0083274D03*
X0029918Y0083354D03*
X0029998Y0083674D03*
X0029998Y0083754D03*
X0030078Y0083994D03*
X0030078Y0084074D03*
X0030158Y0084234D03*
X0030158Y0084314D03*
X0030238Y0084474D03*
X0030238Y0084554D03*
X0030318Y0084714D03*
X0030318Y0084794D03*
X0030398Y0084874D03*
X0030398Y0084954D03*
X0030398Y0085034D03*
X0030478Y0085114D03*
X0030478Y0085194D03*
X0030558Y0085274D03*
X0030558Y0085354D03*
X0030638Y0085514D03*
X0030718Y0085674D03*
X0030798Y0085834D03*
D216*
X0035878Y0073034D03*
X0041878Y0073034D03*
X0045478Y0086954D03*
D217*
X0044758Y0074634D03*
X0044678Y0074554D03*
X0044598Y0074474D03*
X0033238Y0073114D03*
X0032838Y0088394D03*
X0032918Y0088474D03*
X0032998Y0088554D03*
D218*
X0035598Y0073114D03*
X0042158Y0073114D03*
D219*
X0043558Y0073754D03*
X0043638Y0073834D03*
X0043798Y0073914D03*
X0033238Y0073194D03*
X0034118Y0089354D03*
X0034278Y0089434D03*
D220*
X0035278Y0089914D03*
X0042478Y0089914D03*
X0042318Y0073194D03*
X0035438Y0073194D03*
D221*
X0033198Y0073274D03*
X0034718Y0089674D03*
X0043038Y0089674D03*
D222*
X0042638Y0089834D03*
X0035118Y0089834D03*
X0035198Y0073274D03*
X0042558Y0073274D03*
D223*
X0042758Y0073354D03*
X0042918Y0073434D03*
X0034918Y0089754D03*
D224*
X0033958Y0073434D03*
D225*
X0033798Y0073514D03*
D226*
X0043078Y0073514D03*
X0043238Y0073594D03*
X0043158Y0089594D03*
X0034598Y0089594D03*
D227*
X0038878Y0090954D03*
X0033678Y0073594D03*
D228*
X0043358Y0073674D03*
X0034398Y0089514D03*
D229*
X0033438Y0073754D03*
D230*
X0033398Y0073834D03*
X0033238Y0074314D03*
X0033238Y0074394D03*
X0033238Y0074474D03*
X0033238Y0074554D03*
X0033238Y0074634D03*
X0044598Y0089194D03*
D231*
X0044838Y0089034D03*
X0044918Y0088714D03*
X0032918Y0075514D03*
X0032998Y0075434D03*
X0033238Y0074954D03*
X0033238Y0074874D03*
X0033238Y0074074D03*
X0033238Y0073994D03*
D232*
X0043918Y0073994D03*
X0033918Y0089194D03*
X0033998Y0089274D03*
X0033758Y0089114D03*
D233*
X0033638Y0089034D03*
X0033318Y0088794D03*
X0036118Y0085674D03*
X0036118Y0085594D03*
X0036118Y0085514D03*
X0036118Y0085434D03*
X0036118Y0085354D03*
X0036118Y0085274D03*
X0036118Y0085194D03*
X0036118Y0085114D03*
X0036118Y0085034D03*
X0036118Y0084954D03*
X0036118Y0084874D03*
X0036118Y0084794D03*
X0036118Y0084714D03*
X0036118Y0084634D03*
X0036118Y0084554D03*
X0036118Y0084474D03*
X0036118Y0084394D03*
X0036118Y0084314D03*
X0036118Y0084234D03*
X0036118Y0084154D03*
X0036118Y0084074D03*
X0036118Y0083994D03*
X0036118Y0083914D03*
X0036118Y0083834D03*
X0036118Y0083754D03*
X0036118Y0083674D03*
X0036118Y0083594D03*
X0036118Y0083514D03*
X0036118Y0083434D03*
X0036118Y0083354D03*
X0036118Y0083274D03*
X0036118Y0083194D03*
X0036118Y0083114D03*
X0036118Y0083034D03*
X0036118Y0082954D03*
X0036118Y0082874D03*
X0036118Y0082794D03*
X0036118Y0082714D03*
X0036118Y0082634D03*
X0036118Y0082554D03*
X0036118Y0082474D03*
X0036118Y0082394D03*
X0036118Y0082314D03*
X0036118Y0082234D03*
X0036118Y0082154D03*
X0036118Y0082074D03*
X0036118Y0081994D03*
X0036118Y0081914D03*
X0036118Y0081834D03*
X0036118Y0081754D03*
X0036118Y0081674D03*
X0036118Y0081594D03*
X0036118Y0081514D03*
X0036118Y0081434D03*
X0036118Y0081354D03*
X0036118Y0081274D03*
X0036118Y0081194D03*
X0036118Y0081114D03*
X0036118Y0081034D03*
X0036118Y0080954D03*
X0036118Y0080874D03*
X0036118Y0080794D03*
X0036118Y0080714D03*
X0036118Y0080634D03*
X0036118Y0080554D03*
X0036118Y0080474D03*
X0036118Y0080394D03*
X0036118Y0080314D03*
X0036118Y0080234D03*
X0036118Y0080154D03*
X0036118Y0080074D03*
X0036118Y0079994D03*
X0036118Y0079914D03*
X0036118Y0079834D03*
X0036118Y0079754D03*
X0036118Y0079674D03*
X0036118Y0079594D03*
X0036118Y0079514D03*
X0036118Y0079434D03*
X0036118Y0079354D03*
X0036118Y0079274D03*
X0036118Y0079194D03*
X0036118Y0079114D03*
X0036118Y0079034D03*
X0036118Y0078954D03*
X0036118Y0078874D03*
X0036118Y0078794D03*
X0041638Y0078794D03*
X0041638Y0078874D03*
X0041638Y0078954D03*
X0041638Y0079034D03*
X0041638Y0079114D03*
X0041638Y0079194D03*
X0041638Y0079274D03*
X0041638Y0079354D03*
X0041638Y0079434D03*
X0041638Y0079514D03*
X0041638Y0079594D03*
X0041638Y0079674D03*
X0041638Y0079754D03*
X0041638Y0079834D03*
X0041638Y0079914D03*
X0041638Y0079994D03*
X0041638Y0080074D03*
X0041638Y0080154D03*
X0041638Y0080234D03*
X0041638Y0080314D03*
X0041638Y0080394D03*
X0041638Y0080474D03*
X0041638Y0080554D03*
X0041638Y0080634D03*
X0041638Y0080714D03*
X0041638Y0080794D03*
X0041638Y0080874D03*
X0041638Y0080954D03*
X0041638Y0081034D03*
X0041638Y0081114D03*
X0041638Y0081194D03*
X0041638Y0081274D03*
X0041638Y0081354D03*
X0041638Y0081434D03*
X0041638Y0081514D03*
X0041638Y0081594D03*
X0041638Y0081674D03*
X0041638Y0081754D03*
X0041638Y0081834D03*
X0041638Y0081914D03*
X0041638Y0081994D03*
X0041638Y0082074D03*
X0041638Y0082154D03*
X0041638Y0082234D03*
X0041638Y0082314D03*
X0041638Y0082394D03*
X0041638Y0082474D03*
X0041638Y0082554D03*
X0041638Y0082634D03*
X0041638Y0082714D03*
X0041638Y0082794D03*
X0041638Y0082874D03*
X0041638Y0082954D03*
X0041638Y0083034D03*
X0041638Y0083114D03*
X0041638Y0083194D03*
X0041638Y0083274D03*
X0041638Y0083354D03*
X0041638Y0083434D03*
X0041638Y0083514D03*
X0041638Y0083594D03*
X0041638Y0083674D03*
X0041638Y0083754D03*
X0041638Y0083834D03*
X0041638Y0083914D03*
X0041638Y0083994D03*
X0041638Y0084074D03*
X0041638Y0084154D03*
X0041638Y0084234D03*
X0041638Y0084314D03*
X0041638Y0084394D03*
X0041638Y0084474D03*
X0041638Y0084554D03*
X0041638Y0084634D03*
X0041638Y0084714D03*
X0041638Y0084794D03*
X0041638Y0084874D03*
X0041638Y0084954D03*
X0041638Y0085034D03*
X0041638Y0085114D03*
X0041638Y0085194D03*
X0041638Y0085274D03*
X0041638Y0085354D03*
X0041638Y0085434D03*
X0041638Y0085514D03*
X0041638Y0085594D03*
X0041638Y0085674D03*
X0044918Y0089594D03*
X0044278Y0074234D03*
X0044038Y0074074D03*
D234*
X0044878Y0074714D03*
X0044958Y0074794D03*
X0045038Y0074874D03*
X0045118Y0074954D03*
X0045198Y0075034D03*
X0045278Y0075114D03*
X0044958Y0086874D03*
X0032718Y0088314D03*
X0032638Y0088234D03*
X0032558Y0088154D03*
X0032478Y0088074D03*
X0032398Y0087994D03*
X0032318Y0087914D03*
X0032238Y0087834D03*
D235*
X0032678Y0075754D03*
X0033238Y0075114D03*
X0045238Y0087194D03*
X0045078Y0087354D03*
X0045078Y0087434D03*
D236*
X0045958Y0075834D03*
X0045718Y0075514D03*
X0045558Y0075354D03*
X0045398Y0075194D03*
X0031798Y0075834D03*
X0031718Y0075914D03*
X0031958Y0087514D03*
X0032118Y0087674D03*
X0032198Y0087754D03*
D237*
X0032038Y0087594D03*
X0031878Y0087434D03*
X0045878Y0075754D03*
X0046038Y0075914D03*
X0045638Y0075434D03*
X0045478Y0075274D03*
D238*
X0045758Y0075594D03*
X0046158Y0076074D03*
X0046558Y0076634D03*
X0031358Y0076394D03*
X0031358Y0086714D03*
X0031758Y0087274D03*
X0044958Y0089674D03*
D239*
X0044918Y0087594D03*
X0044998Y0087514D03*
X0045158Y0087274D03*
X0045318Y0087114D03*
X0032758Y0075674D03*
D240*
X0031678Y0075994D03*
X0031598Y0076074D03*
X0031518Y0076154D03*
X0031518Y0076234D03*
X0031438Y0076314D03*
X0031278Y0076554D03*
X0031198Y0076634D03*
X0031278Y0086634D03*
X0031438Y0086874D03*
X0031518Y0086954D03*
X0031598Y0087034D03*
X0031598Y0087114D03*
X0031678Y0087194D03*
X0031838Y0087354D03*
X0046318Y0086874D03*
X0046398Y0086714D03*
X0046478Y0086634D03*
X0046478Y0076554D03*
X0046398Y0076394D03*
X0046318Y0076314D03*
X0046238Y0076234D03*
X0046238Y0076154D03*
X0046078Y0075994D03*
X0045838Y0075674D03*
D241*
X0046438Y0076474D03*
X0046598Y0076714D03*
X0046678Y0076794D03*
X0046678Y0076874D03*
X0046758Y0076954D03*
X0046758Y0077034D03*
X0046838Y0077114D03*
X0046918Y0077274D03*
X0046998Y0077434D03*
X0047078Y0077594D03*
X0047158Y0077754D03*
X0047238Y0077914D03*
X0047158Y0085434D03*
X0047078Y0085594D03*
X0046998Y0085754D03*
X0046918Y0085914D03*
X0046838Y0085994D03*
X0046838Y0086074D03*
X0046758Y0086154D03*
X0046758Y0086234D03*
X0046678Y0086314D03*
X0046598Y0086394D03*
X0046598Y0086474D03*
X0046518Y0086554D03*
X0046358Y0086794D03*
X0033238Y0075914D03*
X0031318Y0076474D03*
X0031158Y0076714D03*
X0031078Y0076794D03*
X0031078Y0076874D03*
X0030998Y0076954D03*
X0030998Y0077034D03*
X0030918Y0077114D03*
X0030838Y0077274D03*
X0030758Y0077434D03*
X0030678Y0077594D03*
X0030598Y0077754D03*
X0030518Y0077914D03*
X0030598Y0085434D03*
X0030678Y0085594D03*
X0030758Y0085754D03*
X0030838Y0085914D03*
X0030918Y0085994D03*
X0030918Y0086074D03*
X0030998Y0086154D03*
X0030998Y0086234D03*
X0031078Y0086314D03*
X0031158Y0086394D03*
X0031158Y0086474D03*
X0031238Y0086554D03*
X0031398Y0086794D03*
D242*
X0038878Y0090474D03*
X0038878Y0078714D03*
X0038878Y0078634D03*
X0038878Y0078554D03*
X0038878Y0078474D03*
X0038878Y0078394D03*
X0038878Y0078314D03*
X0038878Y0078234D03*
X0038878Y0078154D03*
X0038878Y0078074D03*
X0038878Y0077994D03*
X0038878Y0077914D03*
X0038878Y0077834D03*
X0038878Y0077754D03*
X0038878Y0077674D03*
X0038878Y0077594D03*
X0038878Y0077514D03*
X0038878Y0077434D03*
X0038878Y0077354D03*
D243*
X0030118Y0079034D03*
X0030038Y0079274D03*
X0030038Y0079354D03*
X0029958Y0079594D03*
X0029958Y0079674D03*
X0029958Y0079754D03*
X0029878Y0079914D03*
X0029878Y0079994D03*
X0029878Y0080074D03*
X0029878Y0080154D03*
X0029878Y0080234D03*
X0029798Y0080394D03*
X0029798Y0080474D03*
X0029798Y0080554D03*
X0029798Y0080634D03*
X0029798Y0080714D03*
X0029798Y0080794D03*
X0029798Y0080874D03*
X0029798Y0080954D03*
X0029798Y0081034D03*
X0029798Y0081114D03*
X0029718Y0081354D03*
X0029718Y0081434D03*
X0029718Y0081514D03*
X0029718Y0081594D03*
X0029718Y0081674D03*
X0029718Y0081754D03*
X0029718Y0081834D03*
X0029798Y0081994D03*
X0029798Y0082074D03*
X0029798Y0082154D03*
X0029798Y0082234D03*
X0029798Y0082314D03*
X0029798Y0082394D03*
X0029798Y0082474D03*
X0029798Y0082554D03*
X0029798Y0082634D03*
X0029798Y0082714D03*
X0029878Y0082954D03*
X0029878Y0083034D03*
X0029878Y0083114D03*
X0029878Y0083194D03*
X0029958Y0083434D03*
X0029958Y0083514D03*
X0029958Y0083594D03*
X0030038Y0083834D03*
X0030038Y0083914D03*
X0030118Y0084154D03*
X0030198Y0084394D03*
X0030278Y0084634D03*
X0047478Y0084634D03*
X0047558Y0084394D03*
X0047638Y0084154D03*
X0047718Y0083914D03*
X0047718Y0083834D03*
X0047798Y0083594D03*
X0047798Y0083514D03*
X0047798Y0083434D03*
X0047878Y0083194D03*
X0047878Y0083114D03*
X0047878Y0083034D03*
X0047878Y0082954D03*
X0047958Y0082714D03*
X0047958Y0082634D03*
X0047958Y0082554D03*
X0047958Y0082474D03*
X0047958Y0082394D03*
X0047958Y0082314D03*
X0047958Y0082234D03*
X0047958Y0082154D03*
X0047958Y0082074D03*
X0047958Y0081994D03*
X0048038Y0081834D03*
X0048038Y0081754D03*
X0048038Y0081674D03*
X0048038Y0081594D03*
X0048038Y0081514D03*
X0048038Y0081434D03*
X0048038Y0081354D03*
X0047958Y0081114D03*
X0047958Y0081034D03*
X0047958Y0080954D03*
X0047958Y0080874D03*
X0047958Y0080794D03*
X0047958Y0080714D03*
X0047958Y0080634D03*
X0047958Y0080554D03*
X0047958Y0080474D03*
X0047958Y0080394D03*
X0047878Y0080234D03*
X0047878Y0080154D03*
X0047878Y0080074D03*
X0047878Y0079994D03*
X0047878Y0079914D03*
X0047798Y0079754D03*
X0047798Y0079674D03*
X0047798Y0079594D03*
X0047718Y0079354D03*
X0047718Y0079274D03*
X0047638Y0079034D03*
D244*
X0044958Y0086794D03*
D245*
X0045358Y0087034D03*
X0041758Y0090154D03*
D246*
X0033558Y0088954D03*
D247*
X0044558Y0089274D03*
D248*
X0044438Y0089354D03*
X0044278Y0089434D03*
D249*
X0042838Y0089754D03*
D250*
X0044958Y0089754D03*
D251*
X0042278Y0089994D03*
X0035478Y0089994D03*
D252*
X0035718Y0090074D03*
X0042038Y0090074D03*
D253*
X0035998Y0090154D03*
D254*
X0038878Y0090314D03*
D255*
X0038878Y0090394D03*
D256*
X0038878Y0090554D03*
D257*
X0038878Y0090634D03*
D258*
X0038878Y0090714D03*
D259*
X0038878Y0090794D03*
D260*
X0038878Y0090874D03*
D261*
X0038878Y0091034D03*
M02*
