%
M48
M72
T01C0.0157
T02C0.0197
T03C0.0276
T04C0.0315
T05C0.0394
T06C0.0433
T07C0.1181
%
T01
X14100Y14534
X13667Y14849
X13431Y14456
X13194Y14849
X12958Y14456
X12722Y14849
X12486Y14456
X12013Y14456
X11777Y14849
X11423Y14456
X11108Y14810
X10832Y14456
X10360Y14456
X9887Y14456
X9415Y14456
X8942Y14456
X8470Y14456
X7998Y14456
X7525Y14456
X7048Y14531
X5242Y13393
X4297Y12960
X3903Y13235
X3509Y12960
X3312Y11660
X4809Y11306
X5478Y12015
X5872Y11779
X6738Y11109
X5832Y10519
X5360Y10519
X5084Y9495
X5084Y9023
X4454Y8629
X3746Y9456
X2722Y8275
X4572Y6345
X5202Y6739
X5320Y7448
X4887Y7605
X5714Y8078
X6068Y7763
X6738Y8865
X6344Y9495
X6895Y10046
X7840Y9968
X7486Y9259
X8155Y9141
X7919Y8432
X9139Y9023
X10478Y9534
X11265Y9534
X12289Y10164
X13194Y9298
X11974Y8511
X11935Y7960
X11935Y7487
X11344Y7212
X10911Y7369
X10714Y7802
X9730Y7487
X8667Y6818
X8706Y6345
X9375Y6192
X9848Y6267
X10557Y6424
X10202Y5125
X9574Y4906
X9257Y4534
X8785Y4062
X9172Y5156
X7722Y5637
X7919Y6345
X6816Y5519
X6620Y6424
X3982Y5322
X3194Y6267
X2655Y5042
X2958Y3471
X5045Y3983
X7313Y3451
X8155Y2133
X8155Y1385
X9218Y2802
X10950Y3865
X11265Y4416
X11856Y4495
X12998Y5479
X12210Y6660
X12879Y6975
X14061Y7999
X15872Y7015
X17289Y7999
X17210Y8590
X16462Y9810
X16029Y10794
X16777Y11267
X16738Y12172
X15517Y12448
X15753Y13196
X16541Y14456
X13903Y12999
X13875Y12558
X13194Y12723
X12722Y12723
X11856Y12172
X10875Y12133
X9809Y12133
X10124Y10834
X9690Y10519
X9257Y10597
X8155Y10952
X10675Y10853
X14375Y11936
X14848Y11424
X18352Y12054
X13942Y16345
X13431Y16306
X12958Y16306
X12683Y16660
X12289Y16385
X11935Y16660
X11580Y16345
X11108Y16385
X10793Y16700
X10242Y16424
X9218Y16424
X8352Y16424
X7053Y16424
X6226Y13314
X15872Y5479
X14848Y3865
X16068Y2802
X12328Y2802
T02
X4188Y14475
X3696Y14475
T03
X14848Y14063
X14907Y2054
X15498Y2054
X13568Y2054
X12978Y2054
X11639Y2054
X11049Y2054
X9710Y2054
X9120Y2054
T04
X7041Y4810
X6041Y4810
T05
X14848Y13944
X17164Y12755
X17964Y12755
X17564Y10755
X6108Y13944
T06
X6108Y14063
T07
X3391Y2054
X3391Y16227
X17564Y16227
X17564Y2054
M30
