G75*
%MOIN*%
%OFA0B0*%
%FSLAX25Y25*%
%IPPOS*%
%LPD*%
%AMOC8*
5,1,8,0,0,1.08239X$1,22.5*
%
%ADD10C,0.12795*%
%ADD11R,0.02362X0.10630*%
%ADD12C,0.05315*%
%ADD13C,0.03740*%
%ADD14C,0.04921*%
%ADD15C,0.05740*%
%ADD16C,0.06134*%
%ADD17C,0.00500*%
%ADD18C,0.04953*%
D10*
X0033912Y0020541D03*
X0175644Y0020541D03*
X0175644Y0162274D03*
X0033912Y0162274D03*
D11*
X0070526Y0155285D03*
X0072889Y0155285D03*
X0075251Y0155285D03*
X0077613Y0155285D03*
X0079975Y0155285D03*
X0082337Y0155285D03*
X0084700Y0155285D03*
X0087062Y0155285D03*
X0089424Y0155285D03*
X0091786Y0155285D03*
X0094148Y0155285D03*
X0096511Y0155285D03*
X0098873Y0155285D03*
X0101235Y0155285D03*
X0103597Y0155285D03*
X0105959Y0155285D03*
X0108322Y0155285D03*
X0110684Y0155285D03*
X0113046Y0155285D03*
X0115408Y0155285D03*
X0117770Y0155285D03*
X0120133Y0155285D03*
X0122495Y0155285D03*
X0124857Y0155285D03*
X0127219Y0155285D03*
X0129581Y0155285D03*
X0131944Y0155285D03*
X0134306Y0155285D03*
X0136668Y0155285D03*
X0139030Y0155285D03*
X0139030Y0137766D03*
X0136668Y0137766D03*
X0134306Y0137766D03*
X0131944Y0137766D03*
X0129581Y0137766D03*
X0127219Y0137766D03*
X0124857Y0137766D03*
X0122495Y0137766D03*
X0120133Y0137766D03*
X0117770Y0137766D03*
X0115408Y0137766D03*
X0113046Y0137766D03*
X0110684Y0137766D03*
X0108322Y0137766D03*
X0105959Y0137766D03*
X0103597Y0137766D03*
X0101235Y0137766D03*
X0098873Y0137766D03*
X0096511Y0137766D03*
X0094148Y0137766D03*
X0091786Y0137766D03*
X0089424Y0137766D03*
X0087062Y0137766D03*
X0084700Y0137766D03*
X0082337Y0137766D03*
X0079975Y0137766D03*
X0077613Y0137766D03*
X0075251Y0137766D03*
X0072889Y0137766D03*
X0070526Y0137766D03*
D12*
X0061078Y0140626D03*
D13*
X0148478Y0140626D03*
D14*
X0148479Y0139439D03*
X0171637Y0127549D03*
X0179644Y0127549D03*
X0175644Y0107549D03*
X0061078Y0139439D03*
D15*
X0091196Y0020541D03*
X0097101Y0020541D03*
X0110487Y0020541D03*
X0116393Y0020541D03*
X0129778Y0020541D03*
X0135684Y0020541D03*
X0149070Y0020541D03*
X0154975Y0020541D03*
D16*
X0070408Y0048100D03*
X0060408Y0048100D03*
D17*
X0053369Y0023454D02*
X0052706Y0023631D01*
X0052022Y0023691D01*
X0051339Y0023631D01*
X0050676Y0023454D01*
X0050054Y0023163D01*
X0049492Y0022770D01*
X0049007Y0022285D01*
X0048613Y0021722D01*
X0048323Y0021100D01*
X0048145Y0020438D01*
X0048085Y0019754D01*
X0048145Y0019070D01*
X0048323Y0018407D01*
X0048613Y0017785D01*
X0049007Y0017223D01*
X0049492Y0016738D01*
X0050054Y0016344D01*
X0050676Y0016054D01*
X0051339Y0015877D01*
X0052022Y0015817D01*
X0052706Y0015877D01*
X0053369Y0016054D01*
X0053991Y0016344D01*
X0054553Y0016738D01*
X0055038Y0017223D01*
X0055432Y0017785D01*
X0055722Y0018407D01*
X0055900Y0019070D01*
X0055959Y0019754D01*
X0055900Y0020438D01*
X0055722Y0021100D01*
X0055432Y0021722D01*
X0055038Y0022285D01*
X0054553Y0022770D01*
X0053991Y0023163D01*
X0053369Y0023454D01*
X0053940Y0023187D02*
X0050105Y0023187D01*
X0049411Y0022689D02*
X0054634Y0022689D01*
X0055105Y0022190D02*
X0048940Y0022190D01*
X0048599Y0021692D02*
X0055446Y0021692D01*
X0055679Y0021193D02*
X0048366Y0021193D01*
X0048214Y0020695D02*
X0055831Y0020695D01*
X0055921Y0020196D02*
X0048124Y0020196D01*
X0048090Y0019698D02*
X0055955Y0019698D01*
X0055911Y0019199D02*
X0048134Y0019199D01*
X0048244Y0018701D02*
X0055801Y0018701D01*
X0055626Y0018202D02*
X0048419Y0018202D01*
X0048670Y0017704D02*
X0055375Y0017704D01*
X0055020Y0017205D02*
X0049025Y0017205D01*
X0049537Y0016706D02*
X0054508Y0016706D01*
X0053698Y0016208D02*
X0050346Y0016208D01*
X0051962Y0023686D02*
X0052083Y0023686D01*
X0052022Y0162274D02*
X0052706Y0162333D01*
X0053369Y0162511D01*
X0053991Y0162801D01*
X0054553Y0163195D01*
X0055038Y0163680D01*
X0055432Y0164242D01*
X0055722Y0164864D01*
X0055900Y0165527D01*
X0055959Y0166211D01*
X0055900Y0166894D01*
X0055722Y0167557D01*
X0055432Y0168179D01*
X0055038Y0168741D01*
X0054553Y0169227D01*
X0053991Y0169620D01*
X0053369Y0169910D01*
X0052706Y0170088D01*
X0052022Y0170148D01*
X0051339Y0170088D01*
X0050676Y0169910D01*
X0050054Y0169620D01*
X0049492Y0169227D01*
X0049007Y0168741D01*
X0048613Y0168179D01*
X0048323Y0167557D01*
X0048145Y0166894D01*
X0048085Y0166211D01*
X0048145Y0165527D01*
X0048323Y0164864D01*
X0048613Y0164242D01*
X0049007Y0163680D01*
X0049492Y0163195D01*
X0050054Y0162801D01*
X0050676Y0162511D01*
X0051339Y0162333D01*
X0052022Y0162274D01*
X0050120Y0162770D02*
X0053925Y0162770D01*
X0054627Y0163269D02*
X0049418Y0163269D01*
X0048945Y0163767D02*
X0055100Y0163767D01*
X0055443Y0164266D02*
X0048602Y0164266D01*
X0048369Y0164764D02*
X0055676Y0164764D01*
X0055829Y0165263D02*
X0048216Y0165263D01*
X0048125Y0165761D02*
X0055920Y0165761D01*
X0055955Y0166260D02*
X0048090Y0166260D01*
X0048133Y0166758D02*
X0055912Y0166758D01*
X0055802Y0167257D02*
X0048242Y0167257D01*
X0048415Y0167755D02*
X0055630Y0167755D01*
X0055380Y0168254D02*
X0048665Y0168254D01*
X0049018Y0168752D02*
X0055027Y0168752D01*
X0054518Y0169251D02*
X0049527Y0169251D01*
X0050331Y0169749D02*
X0053714Y0169749D01*
D18*
X0041885Y0144754D03*
X0036963Y0144754D03*
M02*
