M48
;DRILL file {KiCad 4.0.2-stable} date 04/04/2016 13:39:02
;FORMAT={3:3/ absolute / metric / suppress leading zeros}
FMAT,2
METRIC,TZ
T1C0.400
T2C0.700
T3C1.000
T4C2.000
T5C4.000
T6C0.700
T7C1.100
T8C3.000
%
G90
G05
M71
T1
X23500Y138650
X23700Y102100
X24650Y101300
X25550Y100500
X27350Y99700
X28350Y119700
X29300Y120500
X29400Y132750
X30200Y121300
X31300Y118900
X32200Y118100
X33200Y117300
X34800Y116500
X36350Y115700
X38000Y114900
X39550Y114100
X40300Y113300
X41100Y112500
X41900Y111700
X42700Y110900
X43500Y110100
X44300Y109300
X45100Y108500
X45900Y107700
X46700Y106900
X47500Y106100
X48650Y105300
X50150Y104500
X51750Y103700
X53250Y102900
X76300Y102100
X77150Y101300
X78300Y100500
X78900Y99700
X80500Y119700
X81300Y120500
X82200Y121300
X83300Y118900
X84150Y118100
X85200Y117300
X86800Y116500
X88450Y115700
X90050Y114900
X90800Y114100
X91600Y113300
X92400Y112500
X93150Y111700
X93950Y110900
X94800Y110100
X95600Y109300
X96450Y108500
X97350Y107700
X98250Y106900
X99300Y106100
X100800Y105300
X102300Y104500
X104150Y103700
X105250Y102900
X107350Y85100
X108250Y84150
X113800Y120500
X114750Y119700
X119300Y114100
X120100Y113300
X120900Y112500
X121700Y111700
X122500Y110900
X123100Y83900
X124600Y87600
X124600Y86400
X124600Y85100
X124600Y83900
X128000Y102100
X128800Y101300
X129600Y100500
X131000Y99700
X132500Y119700
X133300Y120500
X134100Y121300
X134900Y118900
X135700Y118100
X137100Y117300
X138800Y116500
X140400Y115700
X142000Y114900
X142700Y114100
X143400Y113300
X144100Y112500
X144800Y111700
X145500Y110900
X146200Y110100
X146900Y109300
X147600Y108500
X148300Y107700
X149700Y106900
X151200Y106100
X152700Y105300
X154200Y104500
X155700Y103700
X157200Y102900
X158900Y76200
X160400Y76200
X161900Y76200
X163500Y76200
X165200Y76200
X169400Y110100
X170400Y109300
X171000Y87600
X171500Y108500
X172700Y107700
X173000Y87600
X173700Y106900
X174700Y106100
X175200Y87600
X175700Y105300
X176700Y104500
X177200Y87600
X177800Y103700
X179100Y102900
X179300Y85500
X180000Y102100
X180800Y101300
X181600Y100500
X183500Y99700
X184600Y119700
X185400Y120500
X186200Y121300
X187100Y118900
X187900Y118100
X189200Y117300
X190800Y116500
X192400Y115700
X193800Y82400
X194000Y114900
X194800Y114100
X194800Y83800
X195600Y113300
X195900Y85000
X196400Y112500
X197200Y111700
X198000Y110900
X198600Y81800
X198800Y110100
X199500Y79200
X199600Y109300
X200400Y108500
X201100Y75100
X201200Y107700
X202000Y106900
X203400Y106100
X204800Y105300
X206400Y104500
X207900Y103700
X209400Y102900
T2
X81250Y134000
X82750Y134000
X88250Y134000
X89750Y134000
X91870Y81950
X91870Y77950
X93370Y81950
X93370Y77950
X95250Y134000
X96750Y134000
X102250Y134000
X103750Y134000
T3
X28980Y55500
X31520Y55500
X37980Y55500
X40520Y55500
X46980Y55500
X49520Y55500
X55980Y55500
X58520Y55500
X65280Y55500
X67820Y55500
X74480Y55500
X77020Y55500
X83480Y55500
X86020Y55500
X91350Y85950
X93750Y65620
X93750Y63080
X93750Y60540
X93750Y58000
X93890Y85950
X102750Y65620
X102750Y63080
X102750Y60540
X102750Y58000
X121920Y58000
X124460Y58000
X127000Y58000
X129540Y58000
X132080Y58000
X144420Y58000
X146960Y58000
X149500Y58000
X152040Y58000
X154580Y58000
X166920Y58000
X169460Y58000
X172000Y58000
X174540Y58000
X177080Y58000
X191380Y58000
X193920Y58000
X196460Y58000
X199000Y58000
X201540Y58000
X204080Y58000
T4
X28000Y50500
X32500Y50500
X37000Y50500
X41500Y50500
X46000Y50500
X50500Y50500
X55000Y50500
X59500Y50500
X64000Y50500
X69000Y50500
X73500Y50500
X78000Y50500
X82500Y50500
X87000Y50500
X91500Y55500
X91500Y50500
X96000Y55500
X96000Y50500
X100500Y55500
X100500Y50500
X105000Y55500
X105000Y50500
X118000Y50500
X122500Y50500
X127000Y50600
X131500Y50500
X136000Y50500
X140500Y50500
X145000Y50500
X149500Y50500
X154000Y50500
X158500Y50500
X163000Y50500
X167500Y50500
X172000Y50500
X176500Y50500
X181000Y50500
X185500Y50500
X190000Y50500
X194500Y50500
X199000Y50500
X203500Y50500
X208000Y50500
T5
X28000Y143000
X35900Y143000
X39250Y73000
X39250Y63000
X44000Y143000
X48250Y73000
X48250Y63000
X52000Y143000
X57250Y73000
X57250Y63000
X60000Y143000
X66550Y73000
X66550Y63000
X68000Y143000
X75750Y73000
X75750Y63000
X76000Y143000
X84000Y143000
X84750Y73000
X84750Y63000
X86620Y81950
X92000Y143000
X98620Y81950
X100000Y143000
X108000Y143000
X116000Y143000
X128000Y143000
X136000Y143000
X144000Y143000
X152000Y143000
T6
X51100Y122700
X51100Y97300
X103100Y122700
X103100Y97300
X155100Y122700
X155100Y97300
X207100Y122700
X207100Y97300
T7
X28900Y122700
X28900Y97300
X80900Y122700
X80900Y97300
X132900Y122700
X132900Y97300
X184900Y122700
X184900Y97300
T8
X21000Y145000
X21000Y51000
X22000Y128000
X22000Y92000
X58000Y128000
X58000Y92000
X74000Y128000
X74000Y92000
X110000Y128000
X110000Y92000
X111000Y80000
X111000Y64000
X111500Y51000
X122000Y145000
X126000Y128000
X126000Y92000
X141000Y80000
X141000Y64000
X162000Y128000
X162000Y92000
X178000Y128000
X178000Y92000
X214000Y128000
X214000Y92000
X215000Y145000
X215000Y51000
T0
M30
