G75*
%MOIN*%
%OFA0B0*%
%FSLAX25Y25*%
%IPPOS*%
%LPD*%
%AMOC8*
5,1,8,0,0,1.08239X$1,22.5*
%
%ADD10C,0.16548*%
%ADD11C,0.12611*%
%ADD12C,0.00500*%
D10*
X0107799Y0140961D03*
D11*
X0036933Y0028756D03*
X0178665Y0028756D03*
X0178665Y0170488D03*
X0036933Y0170488D03*
D12*
X0027031Y0169203D02*
X0027091Y0168520D01*
X0027031Y0167836D01*
X0026853Y0167173D01*
X0026563Y0166551D01*
X0026169Y0165989D01*
X0025684Y0165504D01*
X0025122Y0165110D01*
X0024500Y0164820D01*
X0023837Y0164642D01*
X0023154Y0164583D01*
X0022470Y0164642D01*
X0021807Y0164820D01*
X0021185Y0165110D01*
X0020623Y0165504D01*
X0020138Y0165989D01*
X0019744Y0166551D01*
X0019454Y0167173D01*
X0019276Y0167836D01*
X0019217Y0168520D01*
X0019276Y0169203D01*
X0019454Y0169866D01*
X0019744Y0170488D01*
X0020138Y0171050D01*
X0020623Y0171536D01*
X0021185Y0171929D01*
X0021807Y0172219D01*
X0022470Y0172397D01*
X0023154Y0172457D01*
X0023837Y0172397D01*
X0024500Y0172219D01*
X0025122Y0171929D01*
X0025684Y0171536D01*
X0026169Y0171050D01*
X0026563Y0170488D01*
X0026853Y0169866D01*
X0027031Y0169203D01*
X0027031Y0169195D02*
X0019276Y0169195D01*
X0019232Y0168697D02*
X0027075Y0168697D01*
X0027062Y0168198D02*
X0019245Y0168198D01*
X0019313Y0167700D02*
X0026994Y0167700D01*
X0026861Y0167201D02*
X0019446Y0167201D01*
X0019673Y0166703D02*
X0026634Y0166703D01*
X0026320Y0166204D02*
X0019987Y0166204D01*
X0020421Y0165706D02*
X0025886Y0165706D01*
X0025260Y0165207D02*
X0021047Y0165207D01*
X0022223Y0164709D02*
X0024084Y0164709D01*
X0026899Y0169694D02*
X0019408Y0169694D01*
X0019606Y0170192D02*
X0026701Y0170192D01*
X0026421Y0170691D02*
X0019886Y0170691D01*
X0020276Y0171189D02*
X0026031Y0171189D01*
X0025467Y0171688D02*
X0020840Y0171688D01*
X0021736Y0172186D02*
X0024571Y0172186D01*
X0188508Y0168520D02*
X0188568Y0169203D01*
X0188745Y0169866D01*
X0189035Y0170488D01*
X0189429Y0171050D01*
X0189914Y0171536D01*
X0190476Y0171929D01*
X0191098Y0172219D01*
X0191761Y0172397D01*
X0192445Y0172457D01*
X0193129Y0172397D01*
X0193791Y0172219D01*
X0194413Y0171929D01*
X0194976Y0171536D01*
X0195461Y0171050D01*
X0195854Y0170488D01*
X0196144Y0169866D01*
X0196322Y0169203D01*
X0196382Y0168520D01*
X0196322Y0167836D01*
X0196144Y0167173D01*
X0195854Y0166551D01*
X0195461Y0165989D01*
X0194976Y0165504D01*
X0194413Y0165110D01*
X0193791Y0164820D01*
X0193129Y0164642D01*
X0192445Y0164583D01*
X0191761Y0164642D01*
X0191098Y0164820D01*
X0190476Y0165110D01*
X0189914Y0165504D01*
X0189429Y0165989D01*
X0189035Y0166551D01*
X0188745Y0167173D01*
X0188568Y0167836D01*
X0188508Y0168520D01*
X0188523Y0168697D02*
X0196366Y0168697D01*
X0196354Y0168198D02*
X0188536Y0168198D01*
X0188604Y0167700D02*
X0196286Y0167700D01*
X0196152Y0167201D02*
X0188738Y0167201D01*
X0188965Y0166703D02*
X0195925Y0166703D01*
X0195611Y0166204D02*
X0189278Y0166204D01*
X0189712Y0165706D02*
X0195177Y0165706D01*
X0194552Y0165207D02*
X0190338Y0165207D01*
X0191515Y0164709D02*
X0193375Y0164709D01*
X0196323Y0169195D02*
X0188567Y0169195D01*
X0188699Y0169694D02*
X0196191Y0169694D01*
X0195992Y0170192D02*
X0188897Y0170192D01*
X0189177Y0170691D02*
X0195713Y0170691D01*
X0195322Y0171189D02*
X0189568Y0171189D01*
X0190131Y0171688D02*
X0194758Y0171688D01*
X0193862Y0172186D02*
X0191028Y0172186D01*
M02*
