G75*
%MOIN*%
%OFA0B0*%
%FSLAX25Y25*%
%IPPOS*%
%LPD*%
%AMOC8*
5,1,8,0,0,1.08239X$1,22.5*
%
%ADD10R,0.08661X0.04134*%
%ADD11R,0.03150X0.03937*%
%ADD12R,0.07874X0.07874*%
%ADD13C,0.13780*%
%ADD14C,0.03937*%
%ADD15C,0.01000*%
%ADD16C,0.01600*%
D10*
X0108193Y0091059D03*
X0108193Y0101886D03*
D11*
X0102189Y0096472D03*
D12*
X0090870Y0096472D03*
D13*
X0088114Y0096472D03*
X0127484Y0096472D03*
X0180634Y0096472D03*
X0034965Y0096472D03*
D14*
X0023154Y0168520D03*
X0192445Y0168520D03*
D15*
X0017248Y0116157D02*
X0017248Y0076787D01*
X0095988Y0076787D01*
X0095988Y0116157D01*
X0017248Y0116157D01*
X0017248Y0116026D02*
X0095988Y0116026D01*
X0095988Y0115027D02*
X0017248Y0115027D01*
X0017248Y0114029D02*
X0095988Y0114029D01*
X0095988Y0113030D02*
X0017248Y0113030D01*
X0017248Y0112032D02*
X0095988Y0112032D01*
X0095988Y0111033D02*
X0017248Y0111033D01*
X0017248Y0110035D02*
X0095988Y0110035D01*
X0095988Y0109036D02*
X0017248Y0109036D01*
X0017248Y0108038D02*
X0095988Y0108038D01*
X0095988Y0107039D02*
X0017248Y0107039D01*
X0017248Y0106041D02*
X0095988Y0106041D01*
X0095988Y0105042D02*
X0017248Y0105042D01*
X0017248Y0104044D02*
X0095988Y0104044D01*
X0095988Y0103045D02*
X0017248Y0103045D01*
X0017248Y0102046D02*
X0095988Y0102046D01*
X0095988Y0101048D02*
X0017248Y0101048D01*
X0017248Y0100049D02*
X0095988Y0100049D01*
X0095988Y0099051D02*
X0017248Y0099051D01*
X0017248Y0098052D02*
X0095988Y0098052D01*
X0095988Y0097054D02*
X0017248Y0097054D01*
X0017248Y0096055D02*
X0095988Y0096055D01*
X0095988Y0095057D02*
X0017248Y0095057D01*
X0017248Y0094058D02*
X0095988Y0094058D01*
X0095988Y0093060D02*
X0017248Y0093060D01*
X0017248Y0092061D02*
X0095988Y0092061D01*
X0095988Y0091063D02*
X0017248Y0091063D01*
X0017248Y0090064D02*
X0095988Y0090064D01*
X0095988Y0089066D02*
X0017248Y0089066D01*
X0017248Y0088067D02*
X0095988Y0088067D01*
X0095988Y0087069D02*
X0017248Y0087069D01*
X0017248Y0086070D02*
X0095988Y0086070D01*
X0095988Y0085072D02*
X0017248Y0085072D01*
X0017248Y0084073D02*
X0095988Y0084073D01*
X0095988Y0083075D02*
X0017248Y0083075D01*
X0017248Y0082076D02*
X0095988Y0082076D01*
X0095988Y0081078D02*
X0017248Y0081078D01*
X0017248Y0080079D02*
X0095988Y0080079D01*
X0095988Y0079081D02*
X0017248Y0079081D01*
X0017248Y0078082D02*
X0095988Y0078082D01*
X0095988Y0077084D02*
X0017248Y0077084D01*
X0119610Y0077084D02*
X0198350Y0077084D01*
X0198350Y0076787D02*
X0119610Y0076787D01*
X0119610Y0116157D01*
X0198350Y0116157D01*
X0198350Y0076787D01*
X0198350Y0078082D02*
X0119610Y0078082D01*
X0119610Y0079081D02*
X0198350Y0079081D01*
X0198350Y0080079D02*
X0119610Y0080079D01*
X0119610Y0081078D02*
X0198350Y0081078D01*
X0198350Y0082076D02*
X0119610Y0082076D01*
X0119610Y0083075D02*
X0198350Y0083075D01*
X0198350Y0084073D02*
X0119610Y0084073D01*
X0119610Y0085072D02*
X0198350Y0085072D01*
X0198350Y0086070D02*
X0119610Y0086070D01*
X0119610Y0087069D02*
X0198350Y0087069D01*
X0198350Y0088067D02*
X0119610Y0088067D01*
X0119610Y0089066D02*
X0198350Y0089066D01*
X0198350Y0090064D02*
X0119610Y0090064D01*
X0119610Y0091063D02*
X0198350Y0091063D01*
X0198350Y0092061D02*
X0119610Y0092061D01*
X0119610Y0093060D02*
X0198350Y0093060D01*
X0198350Y0094058D02*
X0119610Y0094058D01*
X0119610Y0095057D02*
X0198350Y0095057D01*
X0198350Y0096055D02*
X0119610Y0096055D01*
X0119610Y0097054D02*
X0198350Y0097054D01*
X0198350Y0098052D02*
X0119610Y0098052D01*
X0119610Y0099051D02*
X0198350Y0099051D01*
X0198350Y0100049D02*
X0119610Y0100049D01*
X0119610Y0101048D02*
X0198350Y0101048D01*
X0198350Y0102046D02*
X0119610Y0102046D01*
X0119610Y0103045D02*
X0198350Y0103045D01*
X0198350Y0104044D02*
X0119610Y0104044D01*
X0119610Y0105042D02*
X0198350Y0105042D01*
X0198350Y0106041D02*
X0119610Y0106041D01*
X0119610Y0107039D02*
X0198350Y0107039D01*
X0198350Y0108038D02*
X0119610Y0108038D01*
X0119610Y0109036D02*
X0198350Y0109036D01*
X0198350Y0110035D02*
X0119610Y0110035D01*
X0119610Y0111033D02*
X0198350Y0111033D01*
X0198350Y0112032D02*
X0119610Y0112032D01*
X0119610Y0113030D02*
X0198350Y0113030D01*
X0198350Y0114029D02*
X0119610Y0114029D01*
X0119610Y0115027D02*
X0198350Y0115027D01*
X0198350Y0116026D02*
X0119610Y0116026D01*
D16*
X0127484Y0101886D02*
X0108193Y0101886D01*
X0102189Y0096472D02*
X0090870Y0096472D01*
X0108193Y0091059D02*
X0127484Y0091059D01*
X0127484Y0096472D01*
X0127484Y0101886D01*
M02*
