G75*
%MOIN*%
%OFA0B0*%
%FSLAX25Y25*%
%IPPOS*%
%LPD*%
%AMOC8*
5,1,8,0,0,1.08239X$1,22.5*
%
%ADD10C,0.00394*%
%ADD11C,0.00000*%
D10*
X0009374Y0013008D02*
X0021185Y0001197D01*
X0194413Y0001197D01*
X0206224Y0013008D01*
X0206224Y0170488D01*
X0194413Y0182299D01*
X0158980Y0182299D01*
X0145130Y0174841D01*
X0145130Y0174842D02*
X0143449Y0173962D01*
X0141747Y0173124D01*
X0140025Y0172327D01*
X0138285Y0171571D01*
X0136527Y0170858D01*
X0134752Y0170187D01*
X0132962Y0169559D01*
X0131157Y0168974D01*
X0129339Y0168433D01*
X0127508Y0167937D01*
X0125666Y0167484D01*
X0123813Y0167076D01*
X0121951Y0166712D01*
X0120081Y0166394D01*
X0118203Y0166120D01*
X0116320Y0165892D01*
X0114431Y0165710D01*
X0112539Y0165573D01*
X0110644Y0165481D01*
X0108748Y0165436D01*
X0106850Y0165436D01*
X0104954Y0165481D01*
X0103059Y0165573D01*
X0101167Y0165710D01*
X0099278Y0165892D01*
X0097395Y0166120D01*
X0095517Y0166394D01*
X0093647Y0166712D01*
X0091785Y0167076D01*
X0089932Y0167484D01*
X0088090Y0167937D01*
X0086259Y0168433D01*
X0084441Y0168974D01*
X0082636Y0169559D01*
X0080846Y0170187D01*
X0079071Y0170858D01*
X0077313Y0171571D01*
X0075573Y0172327D01*
X0073851Y0173124D01*
X0072149Y0173962D01*
X0070468Y0174842D01*
X0070469Y0174841D02*
X0056618Y0182299D01*
X0021185Y0182299D01*
X0009374Y0170488D01*
X0009374Y0013008D01*
D11*
X0031027Y0028756D02*
X0031029Y0028909D01*
X0031035Y0029063D01*
X0031045Y0029216D01*
X0031059Y0029368D01*
X0031077Y0029521D01*
X0031099Y0029672D01*
X0031124Y0029823D01*
X0031154Y0029974D01*
X0031188Y0030124D01*
X0031225Y0030272D01*
X0031266Y0030420D01*
X0031311Y0030566D01*
X0031360Y0030712D01*
X0031413Y0030856D01*
X0031469Y0030998D01*
X0031529Y0031139D01*
X0031593Y0031279D01*
X0031660Y0031417D01*
X0031731Y0031553D01*
X0031806Y0031687D01*
X0031883Y0031819D01*
X0031965Y0031949D01*
X0032049Y0032077D01*
X0032137Y0032203D01*
X0032228Y0032326D01*
X0032322Y0032447D01*
X0032420Y0032565D01*
X0032520Y0032681D01*
X0032624Y0032794D01*
X0032730Y0032905D01*
X0032839Y0033013D01*
X0032951Y0033118D01*
X0033065Y0033219D01*
X0033183Y0033318D01*
X0033302Y0033414D01*
X0033424Y0033507D01*
X0033549Y0033596D01*
X0033676Y0033683D01*
X0033805Y0033765D01*
X0033936Y0033845D01*
X0034069Y0033921D01*
X0034204Y0033994D01*
X0034341Y0034063D01*
X0034480Y0034128D01*
X0034620Y0034190D01*
X0034762Y0034248D01*
X0034905Y0034303D01*
X0035050Y0034354D01*
X0035196Y0034401D01*
X0035343Y0034444D01*
X0035491Y0034483D01*
X0035640Y0034519D01*
X0035790Y0034550D01*
X0035941Y0034578D01*
X0036092Y0034602D01*
X0036245Y0034622D01*
X0036397Y0034638D01*
X0036550Y0034650D01*
X0036703Y0034658D01*
X0036856Y0034662D01*
X0037010Y0034662D01*
X0037163Y0034658D01*
X0037316Y0034650D01*
X0037469Y0034638D01*
X0037621Y0034622D01*
X0037774Y0034602D01*
X0037925Y0034578D01*
X0038076Y0034550D01*
X0038226Y0034519D01*
X0038375Y0034483D01*
X0038523Y0034444D01*
X0038670Y0034401D01*
X0038816Y0034354D01*
X0038961Y0034303D01*
X0039104Y0034248D01*
X0039246Y0034190D01*
X0039386Y0034128D01*
X0039525Y0034063D01*
X0039662Y0033994D01*
X0039797Y0033921D01*
X0039930Y0033845D01*
X0040061Y0033765D01*
X0040190Y0033683D01*
X0040317Y0033596D01*
X0040442Y0033507D01*
X0040564Y0033414D01*
X0040683Y0033318D01*
X0040801Y0033219D01*
X0040915Y0033118D01*
X0041027Y0033013D01*
X0041136Y0032905D01*
X0041242Y0032794D01*
X0041346Y0032681D01*
X0041446Y0032565D01*
X0041544Y0032447D01*
X0041638Y0032326D01*
X0041729Y0032203D01*
X0041817Y0032077D01*
X0041901Y0031949D01*
X0041983Y0031819D01*
X0042060Y0031687D01*
X0042135Y0031553D01*
X0042206Y0031417D01*
X0042273Y0031279D01*
X0042337Y0031139D01*
X0042397Y0030998D01*
X0042453Y0030856D01*
X0042506Y0030712D01*
X0042555Y0030566D01*
X0042600Y0030420D01*
X0042641Y0030272D01*
X0042678Y0030124D01*
X0042712Y0029974D01*
X0042742Y0029823D01*
X0042767Y0029672D01*
X0042789Y0029521D01*
X0042807Y0029368D01*
X0042821Y0029216D01*
X0042831Y0029063D01*
X0042837Y0028909D01*
X0042839Y0028756D01*
X0042837Y0028603D01*
X0042831Y0028449D01*
X0042821Y0028296D01*
X0042807Y0028144D01*
X0042789Y0027991D01*
X0042767Y0027840D01*
X0042742Y0027689D01*
X0042712Y0027538D01*
X0042678Y0027388D01*
X0042641Y0027240D01*
X0042600Y0027092D01*
X0042555Y0026946D01*
X0042506Y0026800D01*
X0042453Y0026656D01*
X0042397Y0026514D01*
X0042337Y0026373D01*
X0042273Y0026233D01*
X0042206Y0026095D01*
X0042135Y0025959D01*
X0042060Y0025825D01*
X0041983Y0025693D01*
X0041901Y0025563D01*
X0041817Y0025435D01*
X0041729Y0025309D01*
X0041638Y0025186D01*
X0041544Y0025065D01*
X0041446Y0024947D01*
X0041346Y0024831D01*
X0041242Y0024718D01*
X0041136Y0024607D01*
X0041027Y0024499D01*
X0040915Y0024394D01*
X0040801Y0024293D01*
X0040683Y0024194D01*
X0040564Y0024098D01*
X0040442Y0024005D01*
X0040317Y0023916D01*
X0040190Y0023829D01*
X0040061Y0023747D01*
X0039930Y0023667D01*
X0039797Y0023591D01*
X0039662Y0023518D01*
X0039525Y0023449D01*
X0039386Y0023384D01*
X0039246Y0023322D01*
X0039104Y0023264D01*
X0038961Y0023209D01*
X0038816Y0023158D01*
X0038670Y0023111D01*
X0038523Y0023068D01*
X0038375Y0023029D01*
X0038226Y0022993D01*
X0038076Y0022962D01*
X0037925Y0022934D01*
X0037774Y0022910D01*
X0037621Y0022890D01*
X0037469Y0022874D01*
X0037316Y0022862D01*
X0037163Y0022854D01*
X0037010Y0022850D01*
X0036856Y0022850D01*
X0036703Y0022854D01*
X0036550Y0022862D01*
X0036397Y0022874D01*
X0036245Y0022890D01*
X0036092Y0022910D01*
X0035941Y0022934D01*
X0035790Y0022962D01*
X0035640Y0022993D01*
X0035491Y0023029D01*
X0035343Y0023068D01*
X0035196Y0023111D01*
X0035050Y0023158D01*
X0034905Y0023209D01*
X0034762Y0023264D01*
X0034620Y0023322D01*
X0034480Y0023384D01*
X0034341Y0023449D01*
X0034204Y0023518D01*
X0034069Y0023591D01*
X0033936Y0023667D01*
X0033805Y0023747D01*
X0033676Y0023829D01*
X0033549Y0023916D01*
X0033424Y0024005D01*
X0033302Y0024098D01*
X0033183Y0024194D01*
X0033065Y0024293D01*
X0032951Y0024394D01*
X0032839Y0024499D01*
X0032730Y0024607D01*
X0032624Y0024718D01*
X0032520Y0024831D01*
X0032420Y0024947D01*
X0032322Y0025065D01*
X0032228Y0025186D01*
X0032137Y0025309D01*
X0032049Y0025435D01*
X0031965Y0025563D01*
X0031883Y0025693D01*
X0031806Y0025825D01*
X0031731Y0025959D01*
X0031660Y0026095D01*
X0031593Y0026233D01*
X0031529Y0026373D01*
X0031469Y0026514D01*
X0031413Y0026656D01*
X0031360Y0026800D01*
X0031311Y0026946D01*
X0031266Y0027092D01*
X0031225Y0027240D01*
X0031188Y0027388D01*
X0031154Y0027538D01*
X0031124Y0027689D01*
X0031099Y0027840D01*
X0031077Y0027991D01*
X0031059Y0028144D01*
X0031045Y0028296D01*
X0031035Y0028449D01*
X0031029Y0028603D01*
X0031027Y0028756D01*
X0099925Y0140961D02*
X0099927Y0141154D01*
X0099934Y0141347D01*
X0099946Y0141540D01*
X0099963Y0141733D01*
X0099984Y0141925D01*
X0100010Y0142116D01*
X0100041Y0142307D01*
X0100076Y0142497D01*
X0100116Y0142686D01*
X0100161Y0142874D01*
X0100210Y0143061D01*
X0100264Y0143247D01*
X0100322Y0143431D01*
X0100385Y0143614D01*
X0100453Y0143795D01*
X0100524Y0143974D01*
X0100601Y0144152D01*
X0100681Y0144328D01*
X0100766Y0144501D01*
X0100855Y0144673D01*
X0100948Y0144842D01*
X0101045Y0145009D01*
X0101147Y0145174D01*
X0101252Y0145336D01*
X0101361Y0145495D01*
X0101475Y0145652D01*
X0101592Y0145805D01*
X0101712Y0145956D01*
X0101837Y0146104D01*
X0101965Y0146249D01*
X0102096Y0146390D01*
X0102231Y0146529D01*
X0102370Y0146664D01*
X0102511Y0146795D01*
X0102656Y0146923D01*
X0102804Y0147048D01*
X0102955Y0147168D01*
X0103108Y0147285D01*
X0103265Y0147399D01*
X0103424Y0147508D01*
X0103586Y0147613D01*
X0103751Y0147715D01*
X0103918Y0147812D01*
X0104087Y0147905D01*
X0104259Y0147994D01*
X0104432Y0148079D01*
X0104608Y0148159D01*
X0104786Y0148236D01*
X0104965Y0148307D01*
X0105146Y0148375D01*
X0105329Y0148438D01*
X0105513Y0148496D01*
X0105699Y0148550D01*
X0105886Y0148599D01*
X0106074Y0148644D01*
X0106263Y0148684D01*
X0106453Y0148719D01*
X0106644Y0148750D01*
X0106835Y0148776D01*
X0107027Y0148797D01*
X0107220Y0148814D01*
X0107413Y0148826D01*
X0107606Y0148833D01*
X0107799Y0148835D01*
X0107992Y0148833D01*
X0108185Y0148826D01*
X0108378Y0148814D01*
X0108571Y0148797D01*
X0108763Y0148776D01*
X0108954Y0148750D01*
X0109145Y0148719D01*
X0109335Y0148684D01*
X0109524Y0148644D01*
X0109712Y0148599D01*
X0109899Y0148550D01*
X0110085Y0148496D01*
X0110269Y0148438D01*
X0110452Y0148375D01*
X0110633Y0148307D01*
X0110812Y0148236D01*
X0110990Y0148159D01*
X0111166Y0148079D01*
X0111339Y0147994D01*
X0111511Y0147905D01*
X0111680Y0147812D01*
X0111847Y0147715D01*
X0112012Y0147613D01*
X0112174Y0147508D01*
X0112333Y0147399D01*
X0112490Y0147285D01*
X0112643Y0147168D01*
X0112794Y0147048D01*
X0112942Y0146923D01*
X0113087Y0146795D01*
X0113228Y0146664D01*
X0113367Y0146529D01*
X0113502Y0146390D01*
X0113633Y0146249D01*
X0113761Y0146104D01*
X0113886Y0145956D01*
X0114006Y0145805D01*
X0114123Y0145652D01*
X0114237Y0145495D01*
X0114346Y0145336D01*
X0114451Y0145174D01*
X0114553Y0145009D01*
X0114650Y0144842D01*
X0114743Y0144673D01*
X0114832Y0144501D01*
X0114917Y0144328D01*
X0114997Y0144152D01*
X0115074Y0143974D01*
X0115145Y0143795D01*
X0115213Y0143614D01*
X0115276Y0143431D01*
X0115334Y0143247D01*
X0115388Y0143061D01*
X0115437Y0142874D01*
X0115482Y0142686D01*
X0115522Y0142497D01*
X0115557Y0142307D01*
X0115588Y0142116D01*
X0115614Y0141925D01*
X0115635Y0141733D01*
X0115652Y0141540D01*
X0115664Y0141347D01*
X0115671Y0141154D01*
X0115673Y0140961D01*
X0115671Y0140768D01*
X0115664Y0140575D01*
X0115652Y0140382D01*
X0115635Y0140189D01*
X0115614Y0139997D01*
X0115588Y0139806D01*
X0115557Y0139615D01*
X0115522Y0139425D01*
X0115482Y0139236D01*
X0115437Y0139048D01*
X0115388Y0138861D01*
X0115334Y0138675D01*
X0115276Y0138491D01*
X0115213Y0138308D01*
X0115145Y0138127D01*
X0115074Y0137948D01*
X0114997Y0137770D01*
X0114917Y0137594D01*
X0114832Y0137421D01*
X0114743Y0137249D01*
X0114650Y0137080D01*
X0114553Y0136913D01*
X0114451Y0136748D01*
X0114346Y0136586D01*
X0114237Y0136427D01*
X0114123Y0136270D01*
X0114006Y0136117D01*
X0113886Y0135966D01*
X0113761Y0135818D01*
X0113633Y0135673D01*
X0113502Y0135532D01*
X0113367Y0135393D01*
X0113228Y0135258D01*
X0113087Y0135127D01*
X0112942Y0134999D01*
X0112794Y0134874D01*
X0112643Y0134754D01*
X0112490Y0134637D01*
X0112333Y0134523D01*
X0112174Y0134414D01*
X0112012Y0134309D01*
X0111847Y0134207D01*
X0111680Y0134110D01*
X0111511Y0134017D01*
X0111339Y0133928D01*
X0111166Y0133843D01*
X0110990Y0133763D01*
X0110812Y0133686D01*
X0110633Y0133615D01*
X0110452Y0133547D01*
X0110269Y0133484D01*
X0110085Y0133426D01*
X0109899Y0133372D01*
X0109712Y0133323D01*
X0109524Y0133278D01*
X0109335Y0133238D01*
X0109145Y0133203D01*
X0108954Y0133172D01*
X0108763Y0133146D01*
X0108571Y0133125D01*
X0108378Y0133108D01*
X0108185Y0133096D01*
X0107992Y0133089D01*
X0107799Y0133087D01*
X0107606Y0133089D01*
X0107413Y0133096D01*
X0107220Y0133108D01*
X0107027Y0133125D01*
X0106835Y0133146D01*
X0106644Y0133172D01*
X0106453Y0133203D01*
X0106263Y0133238D01*
X0106074Y0133278D01*
X0105886Y0133323D01*
X0105699Y0133372D01*
X0105513Y0133426D01*
X0105329Y0133484D01*
X0105146Y0133547D01*
X0104965Y0133615D01*
X0104786Y0133686D01*
X0104608Y0133763D01*
X0104432Y0133843D01*
X0104259Y0133928D01*
X0104087Y0134017D01*
X0103918Y0134110D01*
X0103751Y0134207D01*
X0103586Y0134309D01*
X0103424Y0134414D01*
X0103265Y0134523D01*
X0103108Y0134637D01*
X0102955Y0134754D01*
X0102804Y0134874D01*
X0102656Y0134999D01*
X0102511Y0135127D01*
X0102370Y0135258D01*
X0102231Y0135393D01*
X0102096Y0135532D01*
X0101965Y0135673D01*
X0101837Y0135818D01*
X0101712Y0135966D01*
X0101592Y0136117D01*
X0101475Y0136270D01*
X0101361Y0136427D01*
X0101252Y0136586D01*
X0101147Y0136748D01*
X0101045Y0136913D01*
X0100948Y0137080D01*
X0100855Y0137249D01*
X0100766Y0137421D01*
X0100681Y0137594D01*
X0100601Y0137770D01*
X0100524Y0137948D01*
X0100453Y0138127D01*
X0100385Y0138308D01*
X0100322Y0138491D01*
X0100264Y0138675D01*
X0100210Y0138861D01*
X0100161Y0139048D01*
X0100116Y0139236D01*
X0100076Y0139425D01*
X0100041Y0139615D01*
X0100010Y0139806D01*
X0099984Y0139997D01*
X0099963Y0140189D01*
X0099946Y0140382D01*
X0099934Y0140575D01*
X0099927Y0140768D01*
X0099925Y0140961D01*
X0031027Y0170488D02*
X0031029Y0170641D01*
X0031035Y0170795D01*
X0031045Y0170948D01*
X0031059Y0171100D01*
X0031077Y0171253D01*
X0031099Y0171404D01*
X0031124Y0171555D01*
X0031154Y0171706D01*
X0031188Y0171856D01*
X0031225Y0172004D01*
X0031266Y0172152D01*
X0031311Y0172298D01*
X0031360Y0172444D01*
X0031413Y0172588D01*
X0031469Y0172730D01*
X0031529Y0172871D01*
X0031593Y0173011D01*
X0031660Y0173149D01*
X0031731Y0173285D01*
X0031806Y0173419D01*
X0031883Y0173551D01*
X0031965Y0173681D01*
X0032049Y0173809D01*
X0032137Y0173935D01*
X0032228Y0174058D01*
X0032322Y0174179D01*
X0032420Y0174297D01*
X0032520Y0174413D01*
X0032624Y0174526D01*
X0032730Y0174637D01*
X0032839Y0174745D01*
X0032951Y0174850D01*
X0033065Y0174951D01*
X0033183Y0175050D01*
X0033302Y0175146D01*
X0033424Y0175239D01*
X0033549Y0175328D01*
X0033676Y0175415D01*
X0033805Y0175497D01*
X0033936Y0175577D01*
X0034069Y0175653D01*
X0034204Y0175726D01*
X0034341Y0175795D01*
X0034480Y0175860D01*
X0034620Y0175922D01*
X0034762Y0175980D01*
X0034905Y0176035D01*
X0035050Y0176086D01*
X0035196Y0176133D01*
X0035343Y0176176D01*
X0035491Y0176215D01*
X0035640Y0176251D01*
X0035790Y0176282D01*
X0035941Y0176310D01*
X0036092Y0176334D01*
X0036245Y0176354D01*
X0036397Y0176370D01*
X0036550Y0176382D01*
X0036703Y0176390D01*
X0036856Y0176394D01*
X0037010Y0176394D01*
X0037163Y0176390D01*
X0037316Y0176382D01*
X0037469Y0176370D01*
X0037621Y0176354D01*
X0037774Y0176334D01*
X0037925Y0176310D01*
X0038076Y0176282D01*
X0038226Y0176251D01*
X0038375Y0176215D01*
X0038523Y0176176D01*
X0038670Y0176133D01*
X0038816Y0176086D01*
X0038961Y0176035D01*
X0039104Y0175980D01*
X0039246Y0175922D01*
X0039386Y0175860D01*
X0039525Y0175795D01*
X0039662Y0175726D01*
X0039797Y0175653D01*
X0039930Y0175577D01*
X0040061Y0175497D01*
X0040190Y0175415D01*
X0040317Y0175328D01*
X0040442Y0175239D01*
X0040564Y0175146D01*
X0040683Y0175050D01*
X0040801Y0174951D01*
X0040915Y0174850D01*
X0041027Y0174745D01*
X0041136Y0174637D01*
X0041242Y0174526D01*
X0041346Y0174413D01*
X0041446Y0174297D01*
X0041544Y0174179D01*
X0041638Y0174058D01*
X0041729Y0173935D01*
X0041817Y0173809D01*
X0041901Y0173681D01*
X0041983Y0173551D01*
X0042060Y0173419D01*
X0042135Y0173285D01*
X0042206Y0173149D01*
X0042273Y0173011D01*
X0042337Y0172871D01*
X0042397Y0172730D01*
X0042453Y0172588D01*
X0042506Y0172444D01*
X0042555Y0172298D01*
X0042600Y0172152D01*
X0042641Y0172004D01*
X0042678Y0171856D01*
X0042712Y0171706D01*
X0042742Y0171555D01*
X0042767Y0171404D01*
X0042789Y0171253D01*
X0042807Y0171100D01*
X0042821Y0170948D01*
X0042831Y0170795D01*
X0042837Y0170641D01*
X0042839Y0170488D01*
X0042837Y0170335D01*
X0042831Y0170181D01*
X0042821Y0170028D01*
X0042807Y0169876D01*
X0042789Y0169723D01*
X0042767Y0169572D01*
X0042742Y0169421D01*
X0042712Y0169270D01*
X0042678Y0169120D01*
X0042641Y0168972D01*
X0042600Y0168824D01*
X0042555Y0168678D01*
X0042506Y0168532D01*
X0042453Y0168388D01*
X0042397Y0168246D01*
X0042337Y0168105D01*
X0042273Y0167965D01*
X0042206Y0167827D01*
X0042135Y0167691D01*
X0042060Y0167557D01*
X0041983Y0167425D01*
X0041901Y0167295D01*
X0041817Y0167167D01*
X0041729Y0167041D01*
X0041638Y0166918D01*
X0041544Y0166797D01*
X0041446Y0166679D01*
X0041346Y0166563D01*
X0041242Y0166450D01*
X0041136Y0166339D01*
X0041027Y0166231D01*
X0040915Y0166126D01*
X0040801Y0166025D01*
X0040683Y0165926D01*
X0040564Y0165830D01*
X0040442Y0165737D01*
X0040317Y0165648D01*
X0040190Y0165561D01*
X0040061Y0165479D01*
X0039930Y0165399D01*
X0039797Y0165323D01*
X0039662Y0165250D01*
X0039525Y0165181D01*
X0039386Y0165116D01*
X0039246Y0165054D01*
X0039104Y0164996D01*
X0038961Y0164941D01*
X0038816Y0164890D01*
X0038670Y0164843D01*
X0038523Y0164800D01*
X0038375Y0164761D01*
X0038226Y0164725D01*
X0038076Y0164694D01*
X0037925Y0164666D01*
X0037774Y0164642D01*
X0037621Y0164622D01*
X0037469Y0164606D01*
X0037316Y0164594D01*
X0037163Y0164586D01*
X0037010Y0164582D01*
X0036856Y0164582D01*
X0036703Y0164586D01*
X0036550Y0164594D01*
X0036397Y0164606D01*
X0036245Y0164622D01*
X0036092Y0164642D01*
X0035941Y0164666D01*
X0035790Y0164694D01*
X0035640Y0164725D01*
X0035491Y0164761D01*
X0035343Y0164800D01*
X0035196Y0164843D01*
X0035050Y0164890D01*
X0034905Y0164941D01*
X0034762Y0164996D01*
X0034620Y0165054D01*
X0034480Y0165116D01*
X0034341Y0165181D01*
X0034204Y0165250D01*
X0034069Y0165323D01*
X0033936Y0165399D01*
X0033805Y0165479D01*
X0033676Y0165561D01*
X0033549Y0165648D01*
X0033424Y0165737D01*
X0033302Y0165830D01*
X0033183Y0165926D01*
X0033065Y0166025D01*
X0032951Y0166126D01*
X0032839Y0166231D01*
X0032730Y0166339D01*
X0032624Y0166450D01*
X0032520Y0166563D01*
X0032420Y0166679D01*
X0032322Y0166797D01*
X0032228Y0166918D01*
X0032137Y0167041D01*
X0032049Y0167167D01*
X0031965Y0167295D01*
X0031883Y0167425D01*
X0031806Y0167557D01*
X0031731Y0167691D01*
X0031660Y0167827D01*
X0031593Y0167965D01*
X0031529Y0168105D01*
X0031469Y0168246D01*
X0031413Y0168388D01*
X0031360Y0168532D01*
X0031311Y0168678D01*
X0031266Y0168824D01*
X0031225Y0168972D01*
X0031188Y0169120D01*
X0031154Y0169270D01*
X0031124Y0169421D01*
X0031099Y0169572D01*
X0031077Y0169723D01*
X0031059Y0169876D01*
X0031045Y0170028D01*
X0031035Y0170181D01*
X0031029Y0170335D01*
X0031027Y0170488D01*
X0172759Y0170488D02*
X0172761Y0170641D01*
X0172767Y0170795D01*
X0172777Y0170948D01*
X0172791Y0171100D01*
X0172809Y0171253D01*
X0172831Y0171404D01*
X0172856Y0171555D01*
X0172886Y0171706D01*
X0172920Y0171856D01*
X0172957Y0172004D01*
X0172998Y0172152D01*
X0173043Y0172298D01*
X0173092Y0172444D01*
X0173145Y0172588D01*
X0173201Y0172730D01*
X0173261Y0172871D01*
X0173325Y0173011D01*
X0173392Y0173149D01*
X0173463Y0173285D01*
X0173538Y0173419D01*
X0173615Y0173551D01*
X0173697Y0173681D01*
X0173781Y0173809D01*
X0173869Y0173935D01*
X0173960Y0174058D01*
X0174054Y0174179D01*
X0174152Y0174297D01*
X0174252Y0174413D01*
X0174356Y0174526D01*
X0174462Y0174637D01*
X0174571Y0174745D01*
X0174683Y0174850D01*
X0174797Y0174951D01*
X0174915Y0175050D01*
X0175034Y0175146D01*
X0175156Y0175239D01*
X0175281Y0175328D01*
X0175408Y0175415D01*
X0175537Y0175497D01*
X0175668Y0175577D01*
X0175801Y0175653D01*
X0175936Y0175726D01*
X0176073Y0175795D01*
X0176212Y0175860D01*
X0176352Y0175922D01*
X0176494Y0175980D01*
X0176637Y0176035D01*
X0176782Y0176086D01*
X0176928Y0176133D01*
X0177075Y0176176D01*
X0177223Y0176215D01*
X0177372Y0176251D01*
X0177522Y0176282D01*
X0177673Y0176310D01*
X0177824Y0176334D01*
X0177977Y0176354D01*
X0178129Y0176370D01*
X0178282Y0176382D01*
X0178435Y0176390D01*
X0178588Y0176394D01*
X0178742Y0176394D01*
X0178895Y0176390D01*
X0179048Y0176382D01*
X0179201Y0176370D01*
X0179353Y0176354D01*
X0179506Y0176334D01*
X0179657Y0176310D01*
X0179808Y0176282D01*
X0179958Y0176251D01*
X0180107Y0176215D01*
X0180255Y0176176D01*
X0180402Y0176133D01*
X0180548Y0176086D01*
X0180693Y0176035D01*
X0180836Y0175980D01*
X0180978Y0175922D01*
X0181118Y0175860D01*
X0181257Y0175795D01*
X0181394Y0175726D01*
X0181529Y0175653D01*
X0181662Y0175577D01*
X0181793Y0175497D01*
X0181922Y0175415D01*
X0182049Y0175328D01*
X0182174Y0175239D01*
X0182296Y0175146D01*
X0182415Y0175050D01*
X0182533Y0174951D01*
X0182647Y0174850D01*
X0182759Y0174745D01*
X0182868Y0174637D01*
X0182974Y0174526D01*
X0183078Y0174413D01*
X0183178Y0174297D01*
X0183276Y0174179D01*
X0183370Y0174058D01*
X0183461Y0173935D01*
X0183549Y0173809D01*
X0183633Y0173681D01*
X0183715Y0173551D01*
X0183792Y0173419D01*
X0183867Y0173285D01*
X0183938Y0173149D01*
X0184005Y0173011D01*
X0184069Y0172871D01*
X0184129Y0172730D01*
X0184185Y0172588D01*
X0184238Y0172444D01*
X0184287Y0172298D01*
X0184332Y0172152D01*
X0184373Y0172004D01*
X0184410Y0171856D01*
X0184444Y0171706D01*
X0184474Y0171555D01*
X0184499Y0171404D01*
X0184521Y0171253D01*
X0184539Y0171100D01*
X0184553Y0170948D01*
X0184563Y0170795D01*
X0184569Y0170641D01*
X0184571Y0170488D01*
X0184569Y0170335D01*
X0184563Y0170181D01*
X0184553Y0170028D01*
X0184539Y0169876D01*
X0184521Y0169723D01*
X0184499Y0169572D01*
X0184474Y0169421D01*
X0184444Y0169270D01*
X0184410Y0169120D01*
X0184373Y0168972D01*
X0184332Y0168824D01*
X0184287Y0168678D01*
X0184238Y0168532D01*
X0184185Y0168388D01*
X0184129Y0168246D01*
X0184069Y0168105D01*
X0184005Y0167965D01*
X0183938Y0167827D01*
X0183867Y0167691D01*
X0183792Y0167557D01*
X0183715Y0167425D01*
X0183633Y0167295D01*
X0183549Y0167167D01*
X0183461Y0167041D01*
X0183370Y0166918D01*
X0183276Y0166797D01*
X0183178Y0166679D01*
X0183078Y0166563D01*
X0182974Y0166450D01*
X0182868Y0166339D01*
X0182759Y0166231D01*
X0182647Y0166126D01*
X0182533Y0166025D01*
X0182415Y0165926D01*
X0182296Y0165830D01*
X0182174Y0165737D01*
X0182049Y0165648D01*
X0181922Y0165561D01*
X0181793Y0165479D01*
X0181662Y0165399D01*
X0181529Y0165323D01*
X0181394Y0165250D01*
X0181257Y0165181D01*
X0181118Y0165116D01*
X0180978Y0165054D01*
X0180836Y0164996D01*
X0180693Y0164941D01*
X0180548Y0164890D01*
X0180402Y0164843D01*
X0180255Y0164800D01*
X0180107Y0164761D01*
X0179958Y0164725D01*
X0179808Y0164694D01*
X0179657Y0164666D01*
X0179506Y0164642D01*
X0179353Y0164622D01*
X0179201Y0164606D01*
X0179048Y0164594D01*
X0178895Y0164586D01*
X0178742Y0164582D01*
X0178588Y0164582D01*
X0178435Y0164586D01*
X0178282Y0164594D01*
X0178129Y0164606D01*
X0177977Y0164622D01*
X0177824Y0164642D01*
X0177673Y0164666D01*
X0177522Y0164694D01*
X0177372Y0164725D01*
X0177223Y0164761D01*
X0177075Y0164800D01*
X0176928Y0164843D01*
X0176782Y0164890D01*
X0176637Y0164941D01*
X0176494Y0164996D01*
X0176352Y0165054D01*
X0176212Y0165116D01*
X0176073Y0165181D01*
X0175936Y0165250D01*
X0175801Y0165323D01*
X0175668Y0165399D01*
X0175537Y0165479D01*
X0175408Y0165561D01*
X0175281Y0165648D01*
X0175156Y0165737D01*
X0175034Y0165830D01*
X0174915Y0165926D01*
X0174797Y0166025D01*
X0174683Y0166126D01*
X0174571Y0166231D01*
X0174462Y0166339D01*
X0174356Y0166450D01*
X0174252Y0166563D01*
X0174152Y0166679D01*
X0174054Y0166797D01*
X0173960Y0166918D01*
X0173869Y0167041D01*
X0173781Y0167167D01*
X0173697Y0167295D01*
X0173615Y0167425D01*
X0173538Y0167557D01*
X0173463Y0167691D01*
X0173392Y0167827D01*
X0173325Y0167965D01*
X0173261Y0168105D01*
X0173201Y0168246D01*
X0173145Y0168388D01*
X0173092Y0168532D01*
X0173043Y0168678D01*
X0172998Y0168824D01*
X0172957Y0168972D01*
X0172920Y0169120D01*
X0172886Y0169270D01*
X0172856Y0169421D01*
X0172831Y0169572D01*
X0172809Y0169723D01*
X0172791Y0169876D01*
X0172777Y0170028D01*
X0172767Y0170181D01*
X0172761Y0170335D01*
X0172759Y0170488D01*
X0172759Y0028756D02*
X0172761Y0028909D01*
X0172767Y0029063D01*
X0172777Y0029216D01*
X0172791Y0029368D01*
X0172809Y0029521D01*
X0172831Y0029672D01*
X0172856Y0029823D01*
X0172886Y0029974D01*
X0172920Y0030124D01*
X0172957Y0030272D01*
X0172998Y0030420D01*
X0173043Y0030566D01*
X0173092Y0030712D01*
X0173145Y0030856D01*
X0173201Y0030998D01*
X0173261Y0031139D01*
X0173325Y0031279D01*
X0173392Y0031417D01*
X0173463Y0031553D01*
X0173538Y0031687D01*
X0173615Y0031819D01*
X0173697Y0031949D01*
X0173781Y0032077D01*
X0173869Y0032203D01*
X0173960Y0032326D01*
X0174054Y0032447D01*
X0174152Y0032565D01*
X0174252Y0032681D01*
X0174356Y0032794D01*
X0174462Y0032905D01*
X0174571Y0033013D01*
X0174683Y0033118D01*
X0174797Y0033219D01*
X0174915Y0033318D01*
X0175034Y0033414D01*
X0175156Y0033507D01*
X0175281Y0033596D01*
X0175408Y0033683D01*
X0175537Y0033765D01*
X0175668Y0033845D01*
X0175801Y0033921D01*
X0175936Y0033994D01*
X0176073Y0034063D01*
X0176212Y0034128D01*
X0176352Y0034190D01*
X0176494Y0034248D01*
X0176637Y0034303D01*
X0176782Y0034354D01*
X0176928Y0034401D01*
X0177075Y0034444D01*
X0177223Y0034483D01*
X0177372Y0034519D01*
X0177522Y0034550D01*
X0177673Y0034578D01*
X0177824Y0034602D01*
X0177977Y0034622D01*
X0178129Y0034638D01*
X0178282Y0034650D01*
X0178435Y0034658D01*
X0178588Y0034662D01*
X0178742Y0034662D01*
X0178895Y0034658D01*
X0179048Y0034650D01*
X0179201Y0034638D01*
X0179353Y0034622D01*
X0179506Y0034602D01*
X0179657Y0034578D01*
X0179808Y0034550D01*
X0179958Y0034519D01*
X0180107Y0034483D01*
X0180255Y0034444D01*
X0180402Y0034401D01*
X0180548Y0034354D01*
X0180693Y0034303D01*
X0180836Y0034248D01*
X0180978Y0034190D01*
X0181118Y0034128D01*
X0181257Y0034063D01*
X0181394Y0033994D01*
X0181529Y0033921D01*
X0181662Y0033845D01*
X0181793Y0033765D01*
X0181922Y0033683D01*
X0182049Y0033596D01*
X0182174Y0033507D01*
X0182296Y0033414D01*
X0182415Y0033318D01*
X0182533Y0033219D01*
X0182647Y0033118D01*
X0182759Y0033013D01*
X0182868Y0032905D01*
X0182974Y0032794D01*
X0183078Y0032681D01*
X0183178Y0032565D01*
X0183276Y0032447D01*
X0183370Y0032326D01*
X0183461Y0032203D01*
X0183549Y0032077D01*
X0183633Y0031949D01*
X0183715Y0031819D01*
X0183792Y0031687D01*
X0183867Y0031553D01*
X0183938Y0031417D01*
X0184005Y0031279D01*
X0184069Y0031139D01*
X0184129Y0030998D01*
X0184185Y0030856D01*
X0184238Y0030712D01*
X0184287Y0030566D01*
X0184332Y0030420D01*
X0184373Y0030272D01*
X0184410Y0030124D01*
X0184444Y0029974D01*
X0184474Y0029823D01*
X0184499Y0029672D01*
X0184521Y0029521D01*
X0184539Y0029368D01*
X0184553Y0029216D01*
X0184563Y0029063D01*
X0184569Y0028909D01*
X0184571Y0028756D01*
X0184569Y0028603D01*
X0184563Y0028449D01*
X0184553Y0028296D01*
X0184539Y0028144D01*
X0184521Y0027991D01*
X0184499Y0027840D01*
X0184474Y0027689D01*
X0184444Y0027538D01*
X0184410Y0027388D01*
X0184373Y0027240D01*
X0184332Y0027092D01*
X0184287Y0026946D01*
X0184238Y0026800D01*
X0184185Y0026656D01*
X0184129Y0026514D01*
X0184069Y0026373D01*
X0184005Y0026233D01*
X0183938Y0026095D01*
X0183867Y0025959D01*
X0183792Y0025825D01*
X0183715Y0025693D01*
X0183633Y0025563D01*
X0183549Y0025435D01*
X0183461Y0025309D01*
X0183370Y0025186D01*
X0183276Y0025065D01*
X0183178Y0024947D01*
X0183078Y0024831D01*
X0182974Y0024718D01*
X0182868Y0024607D01*
X0182759Y0024499D01*
X0182647Y0024394D01*
X0182533Y0024293D01*
X0182415Y0024194D01*
X0182296Y0024098D01*
X0182174Y0024005D01*
X0182049Y0023916D01*
X0181922Y0023829D01*
X0181793Y0023747D01*
X0181662Y0023667D01*
X0181529Y0023591D01*
X0181394Y0023518D01*
X0181257Y0023449D01*
X0181118Y0023384D01*
X0180978Y0023322D01*
X0180836Y0023264D01*
X0180693Y0023209D01*
X0180548Y0023158D01*
X0180402Y0023111D01*
X0180255Y0023068D01*
X0180107Y0023029D01*
X0179958Y0022993D01*
X0179808Y0022962D01*
X0179657Y0022934D01*
X0179506Y0022910D01*
X0179353Y0022890D01*
X0179201Y0022874D01*
X0179048Y0022862D01*
X0178895Y0022854D01*
X0178742Y0022850D01*
X0178588Y0022850D01*
X0178435Y0022854D01*
X0178282Y0022862D01*
X0178129Y0022874D01*
X0177977Y0022890D01*
X0177824Y0022910D01*
X0177673Y0022934D01*
X0177522Y0022962D01*
X0177372Y0022993D01*
X0177223Y0023029D01*
X0177075Y0023068D01*
X0176928Y0023111D01*
X0176782Y0023158D01*
X0176637Y0023209D01*
X0176494Y0023264D01*
X0176352Y0023322D01*
X0176212Y0023384D01*
X0176073Y0023449D01*
X0175936Y0023518D01*
X0175801Y0023591D01*
X0175668Y0023667D01*
X0175537Y0023747D01*
X0175408Y0023829D01*
X0175281Y0023916D01*
X0175156Y0024005D01*
X0175034Y0024098D01*
X0174915Y0024194D01*
X0174797Y0024293D01*
X0174683Y0024394D01*
X0174571Y0024499D01*
X0174462Y0024607D01*
X0174356Y0024718D01*
X0174252Y0024831D01*
X0174152Y0024947D01*
X0174054Y0025065D01*
X0173960Y0025186D01*
X0173869Y0025309D01*
X0173781Y0025435D01*
X0173697Y0025563D01*
X0173615Y0025693D01*
X0173538Y0025825D01*
X0173463Y0025959D01*
X0173392Y0026095D01*
X0173325Y0026233D01*
X0173261Y0026373D01*
X0173201Y0026514D01*
X0173145Y0026656D01*
X0173092Y0026800D01*
X0173043Y0026946D01*
X0172998Y0027092D01*
X0172957Y0027240D01*
X0172920Y0027388D01*
X0172886Y0027538D01*
X0172856Y0027689D01*
X0172831Y0027840D01*
X0172809Y0027991D01*
X0172791Y0028144D01*
X0172777Y0028296D01*
X0172767Y0028449D01*
X0172761Y0028603D01*
X0172759Y0028756D01*
M02*
