G75*
%MOIN*%
%OFA0B0*%
%FSLAX25Y25*%
%IPPOS*%
%LPD*%
%AMOC8*
5,1,8,0,0,1.08239X$1,22.5*
%
%ADD10C,0.08858*%
%ADD11C,0.12795*%
%ADD12C,0.04921*%
%ADD13R,0.02362X0.07677*%
%ADD14C,0.06134*%
%ADD15OC8,0.07584*%
%ADD16C,0.00500*%
%ADD17OC8,0.07984*%
%ADD18C,0.06921*%
D10*
X0052233Y0015973D03*
X0119162Y0015973D03*
X0119162Y0114398D03*
X0052233Y0114398D03*
D11*
X0014438Y0013611D03*
X0156170Y0013611D03*
X0156170Y0155343D03*
X0014438Y0155343D03*
D12*
X0041603Y0133099D03*
X0129004Y0133099D03*
D13*
X0119556Y0128375D03*
X0117193Y0128375D03*
X0114831Y0128375D03*
X0112469Y0128375D03*
X0110107Y0128375D03*
X0107745Y0128375D03*
X0105382Y0128375D03*
X0103020Y0128375D03*
X0100658Y0128375D03*
X0098296Y0128375D03*
X0095934Y0128375D03*
X0093571Y0128375D03*
X0091209Y0128375D03*
X0088847Y0128375D03*
X0086485Y0128375D03*
X0084123Y0128375D03*
X0081760Y0128375D03*
X0079398Y0128375D03*
X0077036Y0128375D03*
X0074674Y0128375D03*
X0072312Y0128375D03*
X0069949Y0128375D03*
X0067587Y0128375D03*
X0065225Y0128375D03*
X0062863Y0128375D03*
X0060501Y0128375D03*
X0058138Y0128375D03*
X0055776Y0128375D03*
X0053414Y0128375D03*
X0051052Y0128375D03*
X0051052Y0150816D03*
X0053414Y0150816D03*
X0055776Y0150816D03*
X0058138Y0150816D03*
X0060501Y0150816D03*
X0062863Y0150816D03*
X0065225Y0150816D03*
X0067587Y0150816D03*
X0069949Y0150816D03*
X0072312Y0150816D03*
X0074674Y0150816D03*
X0077036Y0150816D03*
X0079398Y0150816D03*
X0081760Y0150816D03*
X0084123Y0150816D03*
X0086485Y0150816D03*
X0088847Y0150816D03*
X0091209Y0150816D03*
X0093571Y0150816D03*
X0095934Y0150816D03*
X0098296Y0150816D03*
X0100658Y0150816D03*
X0103020Y0150816D03*
X0105382Y0150816D03*
X0107745Y0150816D03*
X0110107Y0150816D03*
X0112469Y0150816D03*
X0114831Y0150816D03*
X0117193Y0150816D03*
X0119556Y0150816D03*
D14*
X0097193Y0035684D02*
X0097193Y0030534D01*
X0089319Y0030534D02*
X0089319Y0035684D01*
X0081445Y0035684D02*
X0081445Y0030534D01*
X0073571Y0030534D02*
X0073571Y0035684D01*
X0073571Y0018755D02*
X0073571Y0013605D01*
X0081445Y0013605D02*
X0081445Y0018755D01*
X0089319Y0018755D02*
X0089319Y0013605D01*
X0097193Y0013605D02*
X0097193Y0018755D01*
D15*
X0023375Y0084477D03*
X0023375Y0094477D03*
X0023375Y0104477D03*
X0023375Y0114477D03*
X0023375Y0124477D03*
X0023375Y0134477D03*
X0013375Y0134477D03*
X0013375Y0124477D03*
X0013375Y0114477D03*
X0013375Y0104477D03*
X0013375Y0094477D03*
X0013375Y0084477D03*
D16*
X0031864Y0014732D02*
X0032548Y0014792D01*
X0033231Y0014732D01*
X0033894Y0014555D01*
X0034516Y0014265D01*
X0035078Y0013871D01*
X0035564Y0013386D01*
X0035957Y0012824D01*
X0036247Y0012202D01*
X0036425Y0011539D01*
X0036485Y0010855D01*
X0036425Y0010171D01*
X0036247Y0009509D01*
X0035957Y0008887D01*
X0035564Y0008324D01*
X0035078Y0007839D01*
X0034516Y0007446D01*
X0033894Y0007156D01*
X0033231Y0006978D01*
X0032548Y0006918D01*
X0031864Y0006978D01*
X0031201Y0007156D01*
X0030579Y0007446D01*
X0030017Y0007839D01*
X0029532Y0008324D01*
X0029138Y0008887D01*
X0028848Y0009509D01*
X0028671Y0010171D01*
X0028611Y0010855D01*
X0028671Y0011539D01*
X0028848Y0012202D01*
X0029138Y0012824D01*
X0029532Y0013386D01*
X0030017Y0013871D01*
X0030579Y0014265D01*
X0031201Y0014555D01*
X0031864Y0014732D01*
X0032195Y0014761D02*
X0032900Y0014761D01*
X0034519Y0014263D02*
X0030577Y0014263D01*
X0029910Y0013764D02*
X0035185Y0013764D01*
X0035648Y0013266D02*
X0029448Y0013266D01*
X0029112Y0012767D02*
X0035984Y0012767D01*
X0036216Y0012269D02*
X0028879Y0012269D01*
X0028733Y0011770D02*
X0036363Y0011770D01*
X0036448Y0011272D02*
X0028647Y0011272D01*
X0028618Y0010773D02*
X0036478Y0010773D01*
X0036434Y0010275D02*
X0028662Y0010275D01*
X0028776Y0009776D02*
X0036319Y0009776D01*
X0036140Y0009278D02*
X0028956Y0009278D01*
X0029213Y0008779D02*
X0035882Y0008779D01*
X0035520Y0008281D02*
X0029576Y0008281D01*
X0030099Y0007782D02*
X0034997Y0007782D01*
X0034169Y0007284D02*
X0030927Y0007284D01*
X0032548Y0154162D02*
X0031864Y0154222D01*
X0031201Y0154400D01*
X0030579Y0154690D01*
X0030017Y0155083D01*
X0029532Y0155569D01*
X0029138Y0156131D01*
X0028848Y0156753D01*
X0028671Y0157416D01*
X0028611Y0158099D01*
X0028671Y0158783D01*
X0028848Y0159446D01*
X0029138Y0160068D01*
X0029532Y0160630D01*
X0030017Y0161115D01*
X0030579Y0161509D01*
X0031201Y0161799D01*
X0031864Y0161976D01*
X0032548Y0162036D01*
X0033231Y0161976D01*
X0033894Y0161799D01*
X0034516Y0161509D01*
X0035078Y0161115D01*
X0035564Y0160630D01*
X0035957Y0160068D01*
X0036247Y0159446D01*
X0036425Y0158783D01*
X0036485Y0158099D01*
X0036425Y0157416D01*
X0036247Y0156753D01*
X0035957Y0156131D01*
X0035564Y0155569D01*
X0035078Y0155083D01*
X0034516Y0154690D01*
X0033894Y0154400D01*
X0033231Y0154222D01*
X0032548Y0154162D01*
X0033688Y0154344D02*
X0031407Y0154344D01*
X0030360Y0154843D02*
X0034735Y0154843D01*
X0035337Y0155341D02*
X0029759Y0155341D01*
X0029342Y0155840D02*
X0035754Y0155840D01*
X0036054Y0156339D02*
X0029041Y0156339D01*
X0028826Y0156837D02*
X0036270Y0156837D01*
X0036404Y0157336D02*
X0028692Y0157336D01*
X0028634Y0157834D02*
X0036462Y0157834D01*
X0036464Y0158333D02*
X0028631Y0158333D01*
X0028683Y0158831D02*
X0036412Y0158831D01*
X0036278Y0159330D02*
X0028817Y0159330D01*
X0029026Y0159828D02*
X0036069Y0159828D01*
X0035776Y0160327D02*
X0029319Y0160327D01*
X0029727Y0160825D02*
X0035368Y0160825D01*
X0034781Y0161324D02*
X0030315Y0161324D01*
X0031288Y0161822D02*
X0033807Y0161822D01*
D17*
X0147745Y0134713D03*
X0157745Y0134713D03*
X0157745Y0124713D03*
X0147745Y0124713D03*
X0147745Y0114713D03*
X0157745Y0114713D03*
X0157745Y0104713D03*
X0157745Y0094713D03*
X0147745Y0094713D03*
X0147745Y0104713D03*
X0147745Y0084713D03*
X0157745Y0084713D03*
X0157745Y0074713D03*
X0147745Y0074713D03*
X0147745Y0064713D03*
X0157745Y0064713D03*
X0157745Y0054713D03*
X0147745Y0054713D03*
D18*
X0115382Y0058650D03*
X0105382Y0058650D03*
X0095382Y0058650D03*
X0085382Y0058650D03*
X0075382Y0058650D03*
X0065382Y0058650D03*
X0055382Y0058650D03*
X0055382Y0048650D03*
X0055382Y0038650D03*
X0055382Y0028650D03*
X0065382Y0048650D03*
X0075382Y0048650D03*
X0085382Y0048650D03*
X0095382Y0048650D03*
X0105382Y0048650D03*
X0115382Y0048650D03*
X0115382Y0038650D03*
X0115382Y0028650D03*
X0115382Y0068650D03*
X0105382Y0068650D03*
X0095382Y0068650D03*
X0085382Y0068650D03*
X0075382Y0068650D03*
X0065382Y0068650D03*
X0055382Y0068650D03*
X0055382Y0078650D03*
X0055382Y0088650D03*
X0055382Y0098650D03*
X0065382Y0098650D03*
X0065382Y0088650D03*
X0065382Y0078650D03*
X0075382Y0078650D03*
X0075382Y0088650D03*
X0075382Y0098650D03*
X0085382Y0098650D03*
X0085382Y0088650D03*
X0085382Y0078650D03*
X0095382Y0078650D03*
X0095382Y0088650D03*
X0095382Y0098650D03*
X0105382Y0098650D03*
X0115382Y0098650D03*
X0115382Y0088650D03*
X0105382Y0088650D03*
X0105382Y0078650D03*
X0115382Y0078650D03*
M02*
