G75*
%MOIN*%
%OFA0B0*%
%FSLAX25Y25*%
%IPPOS*%
%LPD*%
%AMOC8*
5,1,8,0,0,1.08239X$1,22.5*
%
%ADD10C,0.01000*%
%ADD11C,0.00394*%
%ADD12C,0.00400*%
%ADD13C,0.00600*%
%ADD14C,0.00500*%
%ADD15C,0.00300*%
%ADD16C,0.01181*%
%ADD17C,0.00800*%
%ADD18R,0.00640X0.00492*%
%ADD19R,0.00640X0.02559*%
%ADD20R,0.00768X0.00768*%
%ADD21R,0.15748X0.01142*%
%ADD22C,0.00000*%
%ADD23R,0.02000X0.02000*%
%ADD24R,0.00142X0.00047*%
%ADD25R,0.00094X0.00047*%
%ADD26R,0.00236X0.00047*%
%ADD27R,0.00189X0.00047*%
%ADD28R,0.00283X0.00047*%
%ADD29R,0.00614X0.00047*%
%ADD30R,0.00378X0.00047*%
%ADD31R,0.00520X0.00047*%
%ADD32R,0.00709X0.00047*%
%ADD33R,0.00425X0.00047*%
%ADD34R,0.00472X0.00047*%
%ADD35R,0.00756X0.00047*%
%ADD36R,0.00803X0.00047*%
%ADD37R,0.00850X0.00047*%
%ADD38R,0.00661X0.00047*%
%ADD39R,0.00331X0.00047*%
%ADD40R,0.01039X0.00047*%
%ADD41R,0.00047X0.00047*%
%ADD42R,0.00992X0.00047*%
%ADD43R,0.00898X0.00047*%
%ADD44R,0.00945X0.00047*%
%ADD45R,0.00567X0.00047*%
%ADD46R,0.01323X0.00047*%
%ADD47R,0.01134X0.00047*%
%ADD48R,0.01701X0.00047*%
%ADD49R,0.02409X0.00047*%
%ADD50R,0.01370X0.00047*%
%ADD51R,0.02031X0.00047*%
%ADD52R,0.02740X0.00047*%
%ADD53R,0.01559X0.00047*%
%ADD54R,0.02268X0.00047*%
%ADD55R,0.02882X0.00047*%
%ADD56R,0.01087X0.00047*%
%ADD57R,0.02457X0.00047*%
%ADD58R,0.02976X0.00047*%
%ADD59R,0.01276X0.00047*%
%ADD60R,0.01843X0.00047*%
%ADD61R,0.01181X0.00047*%
%ADD62R,0.02646X0.00047*%
%ADD63R,0.03071X0.00047*%
%ADD64R,0.01937X0.00047*%
%ADD65R,0.01228X0.00047*%
%ADD66R,0.02787X0.00047*%
%ADD67R,0.03165X0.00047*%
%ADD68R,0.01417X0.00047*%
%ADD69R,0.02079X0.00047*%
%ADD70R,0.03260X0.00047*%
%ADD71R,0.01465X0.00047*%
%ADD72R,0.02173X0.00047*%
%ADD73R,0.02220X0.00047*%
%ADD74R,0.03213X0.00047*%
%ADD75R,0.03307X0.00047*%
%ADD76R,0.02315X0.00047*%
%ADD77R,0.03354X0.00047*%
%ADD78R,0.01606X0.00047*%
%ADD79R,0.03449X0.00047*%
%ADD80R,0.01654X0.00047*%
%ADD81R,0.03543X0.00047*%
%ADD82R,0.03638X0.00047*%
%ADD83R,0.03402X0.00047*%
%ADD84R,0.03685X0.00047*%
%ADD85R,0.02504X0.00047*%
%ADD86R,0.03780X0.00047*%
%ADD87R,0.02551X0.00047*%
%ADD88R,0.03827X0.00047*%
%ADD89R,0.03921X0.00047*%
%ADD90R,0.01748X0.00047*%
%ADD91R,0.03969X0.00047*%
%ADD92R,0.04016X0.00047*%
%ADD93R,0.03118X0.00047*%
%ADD94R,0.04110X0.00047*%
%ADD95R,0.04063X0.00047*%
%ADD96R,0.04205X0.00047*%
%ADD97R,0.03024X0.00047*%
%ADD98R,0.04299X0.00047*%
%ADD99R,0.02929X0.00047*%
%ADD100R,0.01984X0.00047*%
%ADD101R,0.02835X0.00047*%
%ADD102R,0.03732X0.00047*%
%ADD103R,0.02362X0.00047*%
%ADD104R,0.02598X0.00047*%
%ADD105R,0.01512X0.00047*%
%ADD106R,0.03496X0.00047*%
%ADD107R,0.03591X0.00047*%
%ADD108R,0.02693X0.00047*%
%ADD109R,0.02126X0.00047*%
%ADD110R,0.01890X0.00047*%
%ADD111R,0.01795X0.00047*%
%ADD112R,0.04394X0.00047*%
%ADD113R,0.04583X0.00047*%
%ADD114R,0.04630X0.00047*%
%ADD115R,0.04677X0.00047*%
%ADD116R,0.04772X0.00047*%
%ADD117R,0.04866X0.00047*%
%ADD118C,0.00787*%
%ADD119R,0.01181X0.02362*%
%ADD120R,0.02362X0.01181*%
D10*
X0045934Y0009674D02*
X0045934Y0119910D01*
X0124674Y0119910D01*
X0124674Y0099438D01*
X0124674Y0087627D01*
X0124674Y0056524D01*
X0124674Y0052194D02*
X0124674Y0049438D01*
X0124674Y0045501D02*
X0124674Y0042745D01*
X0124674Y0038808D02*
X0124674Y0036839D01*
X0124674Y0031328D02*
X0124674Y0029359D01*
X0124674Y0025422D02*
X0124674Y0022666D01*
X0124674Y0018729D02*
X0124674Y0009674D01*
X0118768Y0009674D01*
X0045934Y0009674D01*
D11*
X0047705Y0015973D02*
X0047707Y0016107D01*
X0047713Y0016241D01*
X0047723Y0016375D01*
X0047737Y0016509D01*
X0047755Y0016642D01*
X0047776Y0016774D01*
X0047802Y0016906D01*
X0047832Y0017037D01*
X0047865Y0017167D01*
X0047902Y0017295D01*
X0047944Y0017423D01*
X0047988Y0017550D01*
X0048037Y0017675D01*
X0048089Y0017798D01*
X0048145Y0017920D01*
X0048205Y0018041D01*
X0048268Y0018159D01*
X0048334Y0018276D01*
X0048404Y0018390D01*
X0048477Y0018503D01*
X0048554Y0018613D01*
X0048634Y0018721D01*
X0048717Y0018826D01*
X0048803Y0018929D01*
X0048892Y0019029D01*
X0048984Y0019127D01*
X0049079Y0019222D01*
X0049177Y0019314D01*
X0049277Y0019403D01*
X0049380Y0019489D01*
X0049485Y0019572D01*
X0049593Y0019652D01*
X0049703Y0019729D01*
X0049816Y0019802D01*
X0049930Y0019872D01*
X0050047Y0019938D01*
X0050165Y0020001D01*
X0050286Y0020061D01*
X0050408Y0020117D01*
X0050531Y0020169D01*
X0050656Y0020218D01*
X0050783Y0020262D01*
X0050911Y0020304D01*
X0051039Y0020341D01*
X0051169Y0020374D01*
X0051300Y0020404D01*
X0051432Y0020430D01*
X0051564Y0020451D01*
X0051697Y0020469D01*
X0051831Y0020483D01*
X0051965Y0020493D01*
X0052099Y0020499D01*
X0052233Y0020501D01*
X0052367Y0020499D01*
X0052501Y0020493D01*
X0052635Y0020483D01*
X0052769Y0020469D01*
X0052902Y0020451D01*
X0053034Y0020430D01*
X0053166Y0020404D01*
X0053297Y0020374D01*
X0053427Y0020341D01*
X0053555Y0020304D01*
X0053683Y0020262D01*
X0053810Y0020218D01*
X0053935Y0020169D01*
X0054058Y0020117D01*
X0054180Y0020061D01*
X0054301Y0020001D01*
X0054419Y0019938D01*
X0054536Y0019872D01*
X0054650Y0019802D01*
X0054763Y0019729D01*
X0054873Y0019652D01*
X0054981Y0019572D01*
X0055086Y0019489D01*
X0055189Y0019403D01*
X0055289Y0019314D01*
X0055387Y0019222D01*
X0055482Y0019127D01*
X0055574Y0019029D01*
X0055663Y0018929D01*
X0055749Y0018826D01*
X0055832Y0018721D01*
X0055912Y0018613D01*
X0055989Y0018503D01*
X0056062Y0018390D01*
X0056132Y0018276D01*
X0056198Y0018159D01*
X0056261Y0018041D01*
X0056321Y0017920D01*
X0056377Y0017798D01*
X0056429Y0017675D01*
X0056478Y0017550D01*
X0056522Y0017423D01*
X0056564Y0017295D01*
X0056601Y0017167D01*
X0056634Y0017037D01*
X0056664Y0016906D01*
X0056690Y0016774D01*
X0056711Y0016642D01*
X0056729Y0016509D01*
X0056743Y0016375D01*
X0056753Y0016241D01*
X0056759Y0016107D01*
X0056761Y0015973D01*
X0056759Y0015839D01*
X0056753Y0015705D01*
X0056743Y0015571D01*
X0056729Y0015437D01*
X0056711Y0015304D01*
X0056690Y0015172D01*
X0056664Y0015040D01*
X0056634Y0014909D01*
X0056601Y0014779D01*
X0056564Y0014651D01*
X0056522Y0014523D01*
X0056478Y0014396D01*
X0056429Y0014271D01*
X0056377Y0014148D01*
X0056321Y0014026D01*
X0056261Y0013905D01*
X0056198Y0013787D01*
X0056132Y0013670D01*
X0056062Y0013556D01*
X0055989Y0013443D01*
X0055912Y0013333D01*
X0055832Y0013225D01*
X0055749Y0013120D01*
X0055663Y0013017D01*
X0055574Y0012917D01*
X0055482Y0012819D01*
X0055387Y0012724D01*
X0055289Y0012632D01*
X0055189Y0012543D01*
X0055086Y0012457D01*
X0054981Y0012374D01*
X0054873Y0012294D01*
X0054763Y0012217D01*
X0054650Y0012144D01*
X0054536Y0012074D01*
X0054419Y0012008D01*
X0054301Y0011945D01*
X0054180Y0011885D01*
X0054058Y0011829D01*
X0053935Y0011777D01*
X0053810Y0011728D01*
X0053683Y0011684D01*
X0053555Y0011642D01*
X0053427Y0011605D01*
X0053297Y0011572D01*
X0053166Y0011542D01*
X0053034Y0011516D01*
X0052902Y0011495D01*
X0052769Y0011477D01*
X0052635Y0011463D01*
X0052501Y0011453D01*
X0052367Y0011447D01*
X0052233Y0011445D01*
X0052099Y0011447D01*
X0051965Y0011453D01*
X0051831Y0011463D01*
X0051697Y0011477D01*
X0051564Y0011495D01*
X0051432Y0011516D01*
X0051300Y0011542D01*
X0051169Y0011572D01*
X0051039Y0011605D01*
X0050911Y0011642D01*
X0050783Y0011684D01*
X0050656Y0011728D01*
X0050531Y0011777D01*
X0050408Y0011829D01*
X0050286Y0011885D01*
X0050165Y0011945D01*
X0050047Y0012008D01*
X0049930Y0012074D01*
X0049816Y0012144D01*
X0049703Y0012217D01*
X0049593Y0012294D01*
X0049485Y0012374D01*
X0049380Y0012457D01*
X0049277Y0012543D01*
X0049177Y0012632D01*
X0049079Y0012724D01*
X0048984Y0012819D01*
X0048892Y0012917D01*
X0048803Y0013017D01*
X0048717Y0013120D01*
X0048634Y0013225D01*
X0048554Y0013333D01*
X0048477Y0013443D01*
X0048404Y0013556D01*
X0048334Y0013670D01*
X0048268Y0013787D01*
X0048205Y0013905D01*
X0048145Y0014026D01*
X0048089Y0014148D01*
X0048037Y0014271D01*
X0047988Y0014396D01*
X0047944Y0014523D01*
X0047902Y0014651D01*
X0047865Y0014779D01*
X0047832Y0014909D01*
X0047802Y0015040D01*
X0047776Y0015172D01*
X0047755Y0015304D01*
X0047737Y0015437D01*
X0047723Y0015571D01*
X0047713Y0015705D01*
X0047707Y0015839D01*
X0047705Y0015973D01*
X0069556Y0078178D02*
X0069556Y0109674D01*
X0101052Y0109674D01*
X0101052Y0078178D01*
X0069556Y0078178D01*
X0069950Y0093926D02*
X0069955Y0094303D01*
X0069968Y0094679D01*
X0069992Y0095056D01*
X0070024Y0095431D01*
X0070065Y0095805D01*
X0070116Y0096179D01*
X0070176Y0096551D01*
X0070245Y0096921D01*
X0070323Y0097290D01*
X0070410Y0097657D01*
X0070506Y0098021D01*
X0070611Y0098383D01*
X0070725Y0098742D01*
X0070848Y0099099D01*
X0070979Y0099452D01*
X0071119Y0099802D01*
X0071267Y0100148D01*
X0071424Y0100491D01*
X0071589Y0100829D01*
X0071763Y0101164D01*
X0071945Y0101494D01*
X0072134Y0101820D01*
X0072332Y0102140D01*
X0072538Y0102456D01*
X0072751Y0102767D01*
X0072972Y0103072D01*
X0073200Y0103372D01*
X0073435Y0103666D01*
X0073678Y0103955D01*
X0073927Y0104237D01*
X0074184Y0104513D01*
X0074447Y0104783D01*
X0074717Y0105046D01*
X0074993Y0105303D01*
X0075275Y0105552D01*
X0075564Y0105795D01*
X0075858Y0106030D01*
X0076158Y0106258D01*
X0076463Y0106479D01*
X0076774Y0106692D01*
X0077090Y0106898D01*
X0077410Y0107096D01*
X0077736Y0107285D01*
X0078066Y0107467D01*
X0078401Y0107641D01*
X0078739Y0107806D01*
X0079082Y0107963D01*
X0079428Y0108111D01*
X0079778Y0108251D01*
X0080131Y0108382D01*
X0080488Y0108505D01*
X0080847Y0108619D01*
X0081209Y0108724D01*
X0081573Y0108820D01*
X0081940Y0108907D01*
X0082309Y0108985D01*
X0082679Y0109054D01*
X0083051Y0109114D01*
X0083425Y0109165D01*
X0083799Y0109206D01*
X0084174Y0109238D01*
X0084551Y0109262D01*
X0084927Y0109275D01*
X0085304Y0109280D01*
X0085681Y0109275D01*
X0086057Y0109262D01*
X0086434Y0109238D01*
X0086809Y0109206D01*
X0087183Y0109165D01*
X0087557Y0109114D01*
X0087929Y0109054D01*
X0088299Y0108985D01*
X0088668Y0108907D01*
X0089035Y0108820D01*
X0089399Y0108724D01*
X0089761Y0108619D01*
X0090120Y0108505D01*
X0090477Y0108382D01*
X0090830Y0108251D01*
X0091180Y0108111D01*
X0091526Y0107963D01*
X0091869Y0107806D01*
X0092207Y0107641D01*
X0092542Y0107467D01*
X0092872Y0107285D01*
X0093198Y0107096D01*
X0093518Y0106898D01*
X0093834Y0106692D01*
X0094145Y0106479D01*
X0094450Y0106258D01*
X0094750Y0106030D01*
X0095044Y0105795D01*
X0095333Y0105552D01*
X0095615Y0105303D01*
X0095891Y0105046D01*
X0096161Y0104783D01*
X0096424Y0104513D01*
X0096681Y0104237D01*
X0096930Y0103955D01*
X0097173Y0103666D01*
X0097408Y0103372D01*
X0097636Y0103072D01*
X0097857Y0102767D01*
X0098070Y0102456D01*
X0098276Y0102140D01*
X0098474Y0101820D01*
X0098663Y0101494D01*
X0098845Y0101164D01*
X0099019Y0100829D01*
X0099184Y0100491D01*
X0099341Y0100148D01*
X0099489Y0099802D01*
X0099629Y0099452D01*
X0099760Y0099099D01*
X0099883Y0098742D01*
X0099997Y0098383D01*
X0100102Y0098021D01*
X0100198Y0097657D01*
X0100285Y0097290D01*
X0100363Y0096921D01*
X0100432Y0096551D01*
X0100492Y0096179D01*
X0100543Y0095805D01*
X0100584Y0095431D01*
X0100616Y0095056D01*
X0100640Y0094679D01*
X0100653Y0094303D01*
X0100658Y0093926D01*
X0100653Y0093549D01*
X0100640Y0093173D01*
X0100616Y0092796D01*
X0100584Y0092421D01*
X0100543Y0092047D01*
X0100492Y0091673D01*
X0100432Y0091301D01*
X0100363Y0090931D01*
X0100285Y0090562D01*
X0100198Y0090195D01*
X0100102Y0089831D01*
X0099997Y0089469D01*
X0099883Y0089110D01*
X0099760Y0088753D01*
X0099629Y0088400D01*
X0099489Y0088050D01*
X0099341Y0087704D01*
X0099184Y0087361D01*
X0099019Y0087023D01*
X0098845Y0086688D01*
X0098663Y0086358D01*
X0098474Y0086032D01*
X0098276Y0085712D01*
X0098070Y0085396D01*
X0097857Y0085085D01*
X0097636Y0084780D01*
X0097408Y0084480D01*
X0097173Y0084186D01*
X0096930Y0083897D01*
X0096681Y0083615D01*
X0096424Y0083339D01*
X0096161Y0083069D01*
X0095891Y0082806D01*
X0095615Y0082549D01*
X0095333Y0082300D01*
X0095044Y0082057D01*
X0094750Y0081822D01*
X0094450Y0081594D01*
X0094145Y0081373D01*
X0093834Y0081160D01*
X0093518Y0080954D01*
X0093198Y0080756D01*
X0092872Y0080567D01*
X0092542Y0080385D01*
X0092207Y0080211D01*
X0091869Y0080046D01*
X0091526Y0079889D01*
X0091180Y0079741D01*
X0090830Y0079601D01*
X0090477Y0079470D01*
X0090120Y0079347D01*
X0089761Y0079233D01*
X0089399Y0079128D01*
X0089035Y0079032D01*
X0088668Y0078945D01*
X0088299Y0078867D01*
X0087929Y0078798D01*
X0087557Y0078738D01*
X0087183Y0078687D01*
X0086809Y0078646D01*
X0086434Y0078614D01*
X0086057Y0078590D01*
X0085681Y0078577D01*
X0085304Y0078572D01*
X0084927Y0078577D01*
X0084551Y0078590D01*
X0084174Y0078614D01*
X0083799Y0078646D01*
X0083425Y0078687D01*
X0083051Y0078738D01*
X0082679Y0078798D01*
X0082309Y0078867D01*
X0081940Y0078945D01*
X0081573Y0079032D01*
X0081209Y0079128D01*
X0080847Y0079233D01*
X0080488Y0079347D01*
X0080131Y0079470D01*
X0079778Y0079601D01*
X0079428Y0079741D01*
X0079082Y0079889D01*
X0078739Y0080046D01*
X0078401Y0080211D01*
X0078066Y0080385D01*
X0077736Y0080567D01*
X0077410Y0080756D01*
X0077090Y0080954D01*
X0076774Y0081160D01*
X0076463Y0081373D01*
X0076158Y0081594D01*
X0075858Y0081822D01*
X0075564Y0082057D01*
X0075275Y0082300D01*
X0074993Y0082549D01*
X0074717Y0082806D01*
X0074447Y0083069D01*
X0074184Y0083339D01*
X0073927Y0083615D01*
X0073678Y0083897D01*
X0073435Y0084186D01*
X0073200Y0084480D01*
X0072972Y0084780D01*
X0072751Y0085085D01*
X0072538Y0085396D01*
X0072332Y0085712D01*
X0072134Y0086032D01*
X0071945Y0086358D01*
X0071763Y0086688D01*
X0071589Y0087023D01*
X0071424Y0087361D01*
X0071267Y0087704D01*
X0071119Y0088050D01*
X0070979Y0088400D01*
X0070848Y0088753D01*
X0070725Y0089110D01*
X0070611Y0089469D01*
X0070506Y0089831D01*
X0070410Y0090195D01*
X0070323Y0090562D01*
X0070245Y0090931D01*
X0070176Y0091301D01*
X0070116Y0091673D01*
X0070065Y0092047D01*
X0070024Y0092421D01*
X0069992Y0092796D01*
X0069968Y0093173D01*
X0069955Y0093549D01*
X0069950Y0093926D01*
X0083335Y0093926D02*
X0083337Y0094014D01*
X0083343Y0094102D01*
X0083353Y0094190D01*
X0083367Y0094278D01*
X0083384Y0094364D01*
X0083406Y0094450D01*
X0083431Y0094534D01*
X0083461Y0094618D01*
X0083493Y0094700D01*
X0083530Y0094780D01*
X0083570Y0094859D01*
X0083614Y0094936D01*
X0083661Y0095011D01*
X0083711Y0095083D01*
X0083765Y0095154D01*
X0083821Y0095221D01*
X0083881Y0095287D01*
X0083943Y0095349D01*
X0084009Y0095409D01*
X0084076Y0095465D01*
X0084147Y0095519D01*
X0084219Y0095569D01*
X0084294Y0095616D01*
X0084371Y0095660D01*
X0084450Y0095700D01*
X0084530Y0095737D01*
X0084612Y0095769D01*
X0084696Y0095799D01*
X0084780Y0095824D01*
X0084866Y0095846D01*
X0084952Y0095863D01*
X0085040Y0095877D01*
X0085128Y0095887D01*
X0085216Y0095893D01*
X0085304Y0095895D01*
X0085392Y0095893D01*
X0085480Y0095887D01*
X0085568Y0095877D01*
X0085656Y0095863D01*
X0085742Y0095846D01*
X0085828Y0095824D01*
X0085912Y0095799D01*
X0085996Y0095769D01*
X0086078Y0095737D01*
X0086158Y0095700D01*
X0086237Y0095660D01*
X0086314Y0095616D01*
X0086389Y0095569D01*
X0086461Y0095519D01*
X0086532Y0095465D01*
X0086599Y0095409D01*
X0086665Y0095349D01*
X0086727Y0095287D01*
X0086787Y0095221D01*
X0086843Y0095154D01*
X0086897Y0095083D01*
X0086947Y0095011D01*
X0086994Y0094936D01*
X0087038Y0094859D01*
X0087078Y0094780D01*
X0087115Y0094700D01*
X0087147Y0094618D01*
X0087177Y0094534D01*
X0087202Y0094450D01*
X0087224Y0094364D01*
X0087241Y0094278D01*
X0087255Y0094190D01*
X0087265Y0094102D01*
X0087271Y0094014D01*
X0087273Y0093926D01*
X0087271Y0093838D01*
X0087265Y0093750D01*
X0087255Y0093662D01*
X0087241Y0093574D01*
X0087224Y0093488D01*
X0087202Y0093402D01*
X0087177Y0093318D01*
X0087147Y0093234D01*
X0087115Y0093152D01*
X0087078Y0093072D01*
X0087038Y0092993D01*
X0086994Y0092916D01*
X0086947Y0092841D01*
X0086897Y0092769D01*
X0086843Y0092698D01*
X0086787Y0092631D01*
X0086727Y0092565D01*
X0086665Y0092503D01*
X0086599Y0092443D01*
X0086532Y0092387D01*
X0086461Y0092333D01*
X0086389Y0092283D01*
X0086314Y0092236D01*
X0086237Y0092192D01*
X0086158Y0092152D01*
X0086078Y0092115D01*
X0085996Y0092083D01*
X0085912Y0092053D01*
X0085828Y0092028D01*
X0085742Y0092006D01*
X0085656Y0091989D01*
X0085568Y0091975D01*
X0085480Y0091965D01*
X0085392Y0091959D01*
X0085304Y0091957D01*
X0085216Y0091959D01*
X0085128Y0091965D01*
X0085040Y0091975D01*
X0084952Y0091989D01*
X0084866Y0092006D01*
X0084780Y0092028D01*
X0084696Y0092053D01*
X0084612Y0092083D01*
X0084530Y0092115D01*
X0084450Y0092152D01*
X0084371Y0092192D01*
X0084294Y0092236D01*
X0084219Y0092283D01*
X0084147Y0092333D01*
X0084076Y0092387D01*
X0084009Y0092443D01*
X0083943Y0092503D01*
X0083881Y0092565D01*
X0083821Y0092631D01*
X0083765Y0092698D01*
X0083711Y0092769D01*
X0083661Y0092841D01*
X0083614Y0092916D01*
X0083570Y0092993D01*
X0083530Y0093072D01*
X0083493Y0093152D01*
X0083461Y0093234D01*
X0083431Y0093318D01*
X0083406Y0093402D01*
X0083384Y0093488D01*
X0083367Y0093574D01*
X0083353Y0093662D01*
X0083343Y0093750D01*
X0083337Y0093838D01*
X0083335Y0093926D01*
X0047705Y0114398D02*
X0047707Y0114532D01*
X0047713Y0114666D01*
X0047723Y0114800D01*
X0047737Y0114934D01*
X0047755Y0115067D01*
X0047776Y0115199D01*
X0047802Y0115331D01*
X0047832Y0115462D01*
X0047865Y0115592D01*
X0047902Y0115720D01*
X0047944Y0115848D01*
X0047988Y0115975D01*
X0048037Y0116100D01*
X0048089Y0116223D01*
X0048145Y0116345D01*
X0048205Y0116466D01*
X0048268Y0116584D01*
X0048334Y0116701D01*
X0048404Y0116815D01*
X0048477Y0116928D01*
X0048554Y0117038D01*
X0048634Y0117146D01*
X0048717Y0117251D01*
X0048803Y0117354D01*
X0048892Y0117454D01*
X0048984Y0117552D01*
X0049079Y0117647D01*
X0049177Y0117739D01*
X0049277Y0117828D01*
X0049380Y0117914D01*
X0049485Y0117997D01*
X0049593Y0118077D01*
X0049703Y0118154D01*
X0049816Y0118227D01*
X0049930Y0118297D01*
X0050047Y0118363D01*
X0050165Y0118426D01*
X0050286Y0118486D01*
X0050408Y0118542D01*
X0050531Y0118594D01*
X0050656Y0118643D01*
X0050783Y0118687D01*
X0050911Y0118729D01*
X0051039Y0118766D01*
X0051169Y0118799D01*
X0051300Y0118829D01*
X0051432Y0118855D01*
X0051564Y0118876D01*
X0051697Y0118894D01*
X0051831Y0118908D01*
X0051965Y0118918D01*
X0052099Y0118924D01*
X0052233Y0118926D01*
X0052367Y0118924D01*
X0052501Y0118918D01*
X0052635Y0118908D01*
X0052769Y0118894D01*
X0052902Y0118876D01*
X0053034Y0118855D01*
X0053166Y0118829D01*
X0053297Y0118799D01*
X0053427Y0118766D01*
X0053555Y0118729D01*
X0053683Y0118687D01*
X0053810Y0118643D01*
X0053935Y0118594D01*
X0054058Y0118542D01*
X0054180Y0118486D01*
X0054301Y0118426D01*
X0054419Y0118363D01*
X0054536Y0118297D01*
X0054650Y0118227D01*
X0054763Y0118154D01*
X0054873Y0118077D01*
X0054981Y0117997D01*
X0055086Y0117914D01*
X0055189Y0117828D01*
X0055289Y0117739D01*
X0055387Y0117647D01*
X0055482Y0117552D01*
X0055574Y0117454D01*
X0055663Y0117354D01*
X0055749Y0117251D01*
X0055832Y0117146D01*
X0055912Y0117038D01*
X0055989Y0116928D01*
X0056062Y0116815D01*
X0056132Y0116701D01*
X0056198Y0116584D01*
X0056261Y0116466D01*
X0056321Y0116345D01*
X0056377Y0116223D01*
X0056429Y0116100D01*
X0056478Y0115975D01*
X0056522Y0115848D01*
X0056564Y0115720D01*
X0056601Y0115592D01*
X0056634Y0115462D01*
X0056664Y0115331D01*
X0056690Y0115199D01*
X0056711Y0115067D01*
X0056729Y0114934D01*
X0056743Y0114800D01*
X0056753Y0114666D01*
X0056759Y0114532D01*
X0056761Y0114398D01*
X0056759Y0114264D01*
X0056753Y0114130D01*
X0056743Y0113996D01*
X0056729Y0113862D01*
X0056711Y0113729D01*
X0056690Y0113597D01*
X0056664Y0113465D01*
X0056634Y0113334D01*
X0056601Y0113204D01*
X0056564Y0113076D01*
X0056522Y0112948D01*
X0056478Y0112821D01*
X0056429Y0112696D01*
X0056377Y0112573D01*
X0056321Y0112451D01*
X0056261Y0112330D01*
X0056198Y0112212D01*
X0056132Y0112095D01*
X0056062Y0111981D01*
X0055989Y0111868D01*
X0055912Y0111758D01*
X0055832Y0111650D01*
X0055749Y0111545D01*
X0055663Y0111442D01*
X0055574Y0111342D01*
X0055482Y0111244D01*
X0055387Y0111149D01*
X0055289Y0111057D01*
X0055189Y0110968D01*
X0055086Y0110882D01*
X0054981Y0110799D01*
X0054873Y0110719D01*
X0054763Y0110642D01*
X0054650Y0110569D01*
X0054536Y0110499D01*
X0054419Y0110433D01*
X0054301Y0110370D01*
X0054180Y0110310D01*
X0054058Y0110254D01*
X0053935Y0110202D01*
X0053810Y0110153D01*
X0053683Y0110109D01*
X0053555Y0110067D01*
X0053427Y0110030D01*
X0053297Y0109997D01*
X0053166Y0109967D01*
X0053034Y0109941D01*
X0052902Y0109920D01*
X0052769Y0109902D01*
X0052635Y0109888D01*
X0052501Y0109878D01*
X0052367Y0109872D01*
X0052233Y0109870D01*
X0052099Y0109872D01*
X0051965Y0109878D01*
X0051831Y0109888D01*
X0051697Y0109902D01*
X0051564Y0109920D01*
X0051432Y0109941D01*
X0051300Y0109967D01*
X0051169Y0109997D01*
X0051039Y0110030D01*
X0050911Y0110067D01*
X0050783Y0110109D01*
X0050656Y0110153D01*
X0050531Y0110202D01*
X0050408Y0110254D01*
X0050286Y0110310D01*
X0050165Y0110370D01*
X0050047Y0110433D01*
X0049930Y0110499D01*
X0049816Y0110569D01*
X0049703Y0110642D01*
X0049593Y0110719D01*
X0049485Y0110799D01*
X0049380Y0110882D01*
X0049277Y0110968D01*
X0049177Y0111057D01*
X0049079Y0111149D01*
X0048984Y0111244D01*
X0048892Y0111342D01*
X0048803Y0111442D01*
X0048717Y0111545D01*
X0048634Y0111650D01*
X0048554Y0111758D01*
X0048477Y0111868D01*
X0048404Y0111981D01*
X0048334Y0112095D01*
X0048268Y0112212D01*
X0048205Y0112330D01*
X0048145Y0112451D01*
X0048089Y0112573D01*
X0048037Y0112696D01*
X0047988Y0112821D01*
X0047944Y0112948D01*
X0047902Y0113076D01*
X0047865Y0113204D01*
X0047832Y0113334D01*
X0047802Y0113465D01*
X0047776Y0113597D01*
X0047755Y0113729D01*
X0047737Y0113862D01*
X0047723Y0113996D01*
X0047713Y0114130D01*
X0047707Y0114264D01*
X0047705Y0114398D01*
X0114634Y0114398D02*
X0114636Y0114532D01*
X0114642Y0114666D01*
X0114652Y0114800D01*
X0114666Y0114934D01*
X0114684Y0115067D01*
X0114705Y0115199D01*
X0114731Y0115331D01*
X0114761Y0115462D01*
X0114794Y0115592D01*
X0114831Y0115720D01*
X0114873Y0115848D01*
X0114917Y0115975D01*
X0114966Y0116100D01*
X0115018Y0116223D01*
X0115074Y0116345D01*
X0115134Y0116466D01*
X0115197Y0116584D01*
X0115263Y0116701D01*
X0115333Y0116815D01*
X0115406Y0116928D01*
X0115483Y0117038D01*
X0115563Y0117146D01*
X0115646Y0117251D01*
X0115732Y0117354D01*
X0115821Y0117454D01*
X0115913Y0117552D01*
X0116008Y0117647D01*
X0116106Y0117739D01*
X0116206Y0117828D01*
X0116309Y0117914D01*
X0116414Y0117997D01*
X0116522Y0118077D01*
X0116632Y0118154D01*
X0116745Y0118227D01*
X0116859Y0118297D01*
X0116976Y0118363D01*
X0117094Y0118426D01*
X0117215Y0118486D01*
X0117337Y0118542D01*
X0117460Y0118594D01*
X0117585Y0118643D01*
X0117712Y0118687D01*
X0117840Y0118729D01*
X0117968Y0118766D01*
X0118098Y0118799D01*
X0118229Y0118829D01*
X0118361Y0118855D01*
X0118493Y0118876D01*
X0118626Y0118894D01*
X0118760Y0118908D01*
X0118894Y0118918D01*
X0119028Y0118924D01*
X0119162Y0118926D01*
X0119296Y0118924D01*
X0119430Y0118918D01*
X0119564Y0118908D01*
X0119698Y0118894D01*
X0119831Y0118876D01*
X0119963Y0118855D01*
X0120095Y0118829D01*
X0120226Y0118799D01*
X0120356Y0118766D01*
X0120484Y0118729D01*
X0120612Y0118687D01*
X0120739Y0118643D01*
X0120864Y0118594D01*
X0120987Y0118542D01*
X0121109Y0118486D01*
X0121230Y0118426D01*
X0121348Y0118363D01*
X0121465Y0118297D01*
X0121579Y0118227D01*
X0121692Y0118154D01*
X0121802Y0118077D01*
X0121910Y0117997D01*
X0122015Y0117914D01*
X0122118Y0117828D01*
X0122218Y0117739D01*
X0122316Y0117647D01*
X0122411Y0117552D01*
X0122503Y0117454D01*
X0122592Y0117354D01*
X0122678Y0117251D01*
X0122761Y0117146D01*
X0122841Y0117038D01*
X0122918Y0116928D01*
X0122991Y0116815D01*
X0123061Y0116701D01*
X0123127Y0116584D01*
X0123190Y0116466D01*
X0123250Y0116345D01*
X0123306Y0116223D01*
X0123358Y0116100D01*
X0123407Y0115975D01*
X0123451Y0115848D01*
X0123493Y0115720D01*
X0123530Y0115592D01*
X0123563Y0115462D01*
X0123593Y0115331D01*
X0123619Y0115199D01*
X0123640Y0115067D01*
X0123658Y0114934D01*
X0123672Y0114800D01*
X0123682Y0114666D01*
X0123688Y0114532D01*
X0123690Y0114398D01*
X0123688Y0114264D01*
X0123682Y0114130D01*
X0123672Y0113996D01*
X0123658Y0113862D01*
X0123640Y0113729D01*
X0123619Y0113597D01*
X0123593Y0113465D01*
X0123563Y0113334D01*
X0123530Y0113204D01*
X0123493Y0113076D01*
X0123451Y0112948D01*
X0123407Y0112821D01*
X0123358Y0112696D01*
X0123306Y0112573D01*
X0123250Y0112451D01*
X0123190Y0112330D01*
X0123127Y0112212D01*
X0123061Y0112095D01*
X0122991Y0111981D01*
X0122918Y0111868D01*
X0122841Y0111758D01*
X0122761Y0111650D01*
X0122678Y0111545D01*
X0122592Y0111442D01*
X0122503Y0111342D01*
X0122411Y0111244D01*
X0122316Y0111149D01*
X0122218Y0111057D01*
X0122118Y0110968D01*
X0122015Y0110882D01*
X0121910Y0110799D01*
X0121802Y0110719D01*
X0121692Y0110642D01*
X0121579Y0110569D01*
X0121465Y0110499D01*
X0121348Y0110433D01*
X0121230Y0110370D01*
X0121109Y0110310D01*
X0120987Y0110254D01*
X0120864Y0110202D01*
X0120739Y0110153D01*
X0120612Y0110109D01*
X0120484Y0110067D01*
X0120356Y0110030D01*
X0120226Y0109997D01*
X0120095Y0109967D01*
X0119963Y0109941D01*
X0119831Y0109920D01*
X0119698Y0109902D01*
X0119564Y0109888D01*
X0119430Y0109878D01*
X0119296Y0109872D01*
X0119162Y0109870D01*
X0119028Y0109872D01*
X0118894Y0109878D01*
X0118760Y0109888D01*
X0118626Y0109902D01*
X0118493Y0109920D01*
X0118361Y0109941D01*
X0118229Y0109967D01*
X0118098Y0109997D01*
X0117968Y0110030D01*
X0117840Y0110067D01*
X0117712Y0110109D01*
X0117585Y0110153D01*
X0117460Y0110202D01*
X0117337Y0110254D01*
X0117215Y0110310D01*
X0117094Y0110370D01*
X0116976Y0110433D01*
X0116859Y0110499D01*
X0116745Y0110569D01*
X0116632Y0110642D01*
X0116522Y0110719D01*
X0116414Y0110799D01*
X0116309Y0110882D01*
X0116206Y0110968D01*
X0116106Y0111057D01*
X0116008Y0111149D01*
X0115913Y0111244D01*
X0115821Y0111342D01*
X0115732Y0111442D01*
X0115646Y0111545D01*
X0115563Y0111650D01*
X0115483Y0111758D01*
X0115406Y0111868D01*
X0115333Y0111981D01*
X0115263Y0112095D01*
X0115197Y0112212D01*
X0115134Y0112330D01*
X0115074Y0112451D01*
X0115018Y0112573D01*
X0114966Y0112696D01*
X0114917Y0112821D01*
X0114873Y0112948D01*
X0114831Y0113076D01*
X0114794Y0113204D01*
X0114761Y0113334D01*
X0114731Y0113465D01*
X0114705Y0113597D01*
X0114684Y0113729D01*
X0114666Y0113862D01*
X0114652Y0113996D01*
X0114642Y0114130D01*
X0114636Y0114264D01*
X0114634Y0114398D01*
X0114634Y0015973D02*
X0114636Y0016107D01*
X0114642Y0016241D01*
X0114652Y0016375D01*
X0114666Y0016509D01*
X0114684Y0016642D01*
X0114705Y0016774D01*
X0114731Y0016906D01*
X0114761Y0017037D01*
X0114794Y0017167D01*
X0114831Y0017295D01*
X0114873Y0017423D01*
X0114917Y0017550D01*
X0114966Y0017675D01*
X0115018Y0017798D01*
X0115074Y0017920D01*
X0115134Y0018041D01*
X0115197Y0018159D01*
X0115263Y0018276D01*
X0115333Y0018390D01*
X0115406Y0018503D01*
X0115483Y0018613D01*
X0115563Y0018721D01*
X0115646Y0018826D01*
X0115732Y0018929D01*
X0115821Y0019029D01*
X0115913Y0019127D01*
X0116008Y0019222D01*
X0116106Y0019314D01*
X0116206Y0019403D01*
X0116309Y0019489D01*
X0116414Y0019572D01*
X0116522Y0019652D01*
X0116632Y0019729D01*
X0116745Y0019802D01*
X0116859Y0019872D01*
X0116976Y0019938D01*
X0117094Y0020001D01*
X0117215Y0020061D01*
X0117337Y0020117D01*
X0117460Y0020169D01*
X0117585Y0020218D01*
X0117712Y0020262D01*
X0117840Y0020304D01*
X0117968Y0020341D01*
X0118098Y0020374D01*
X0118229Y0020404D01*
X0118361Y0020430D01*
X0118493Y0020451D01*
X0118626Y0020469D01*
X0118760Y0020483D01*
X0118894Y0020493D01*
X0119028Y0020499D01*
X0119162Y0020501D01*
X0119296Y0020499D01*
X0119430Y0020493D01*
X0119564Y0020483D01*
X0119698Y0020469D01*
X0119831Y0020451D01*
X0119963Y0020430D01*
X0120095Y0020404D01*
X0120226Y0020374D01*
X0120356Y0020341D01*
X0120484Y0020304D01*
X0120612Y0020262D01*
X0120739Y0020218D01*
X0120864Y0020169D01*
X0120987Y0020117D01*
X0121109Y0020061D01*
X0121230Y0020001D01*
X0121348Y0019938D01*
X0121465Y0019872D01*
X0121579Y0019802D01*
X0121692Y0019729D01*
X0121802Y0019652D01*
X0121910Y0019572D01*
X0122015Y0019489D01*
X0122118Y0019403D01*
X0122218Y0019314D01*
X0122316Y0019222D01*
X0122411Y0019127D01*
X0122503Y0019029D01*
X0122592Y0018929D01*
X0122678Y0018826D01*
X0122761Y0018721D01*
X0122841Y0018613D01*
X0122918Y0018503D01*
X0122991Y0018390D01*
X0123061Y0018276D01*
X0123127Y0018159D01*
X0123190Y0018041D01*
X0123250Y0017920D01*
X0123306Y0017798D01*
X0123358Y0017675D01*
X0123407Y0017550D01*
X0123451Y0017423D01*
X0123493Y0017295D01*
X0123530Y0017167D01*
X0123563Y0017037D01*
X0123593Y0016906D01*
X0123619Y0016774D01*
X0123640Y0016642D01*
X0123658Y0016509D01*
X0123672Y0016375D01*
X0123682Y0016241D01*
X0123688Y0016107D01*
X0123690Y0015973D01*
X0123688Y0015839D01*
X0123682Y0015705D01*
X0123672Y0015571D01*
X0123658Y0015437D01*
X0123640Y0015304D01*
X0123619Y0015172D01*
X0123593Y0015040D01*
X0123563Y0014909D01*
X0123530Y0014779D01*
X0123493Y0014651D01*
X0123451Y0014523D01*
X0123407Y0014396D01*
X0123358Y0014271D01*
X0123306Y0014148D01*
X0123250Y0014026D01*
X0123190Y0013905D01*
X0123127Y0013787D01*
X0123061Y0013670D01*
X0122991Y0013556D01*
X0122918Y0013443D01*
X0122841Y0013333D01*
X0122761Y0013225D01*
X0122678Y0013120D01*
X0122592Y0013017D01*
X0122503Y0012917D01*
X0122411Y0012819D01*
X0122316Y0012724D01*
X0122218Y0012632D01*
X0122118Y0012543D01*
X0122015Y0012457D01*
X0121910Y0012374D01*
X0121802Y0012294D01*
X0121692Y0012217D01*
X0121579Y0012144D01*
X0121465Y0012074D01*
X0121348Y0012008D01*
X0121230Y0011945D01*
X0121109Y0011885D01*
X0120987Y0011829D01*
X0120864Y0011777D01*
X0120739Y0011728D01*
X0120612Y0011684D01*
X0120484Y0011642D01*
X0120356Y0011605D01*
X0120226Y0011572D01*
X0120095Y0011542D01*
X0119963Y0011516D01*
X0119831Y0011495D01*
X0119698Y0011477D01*
X0119564Y0011463D01*
X0119430Y0011453D01*
X0119296Y0011447D01*
X0119162Y0011445D01*
X0119028Y0011447D01*
X0118894Y0011453D01*
X0118760Y0011463D01*
X0118626Y0011477D01*
X0118493Y0011495D01*
X0118361Y0011516D01*
X0118229Y0011542D01*
X0118098Y0011572D01*
X0117968Y0011605D01*
X0117840Y0011642D01*
X0117712Y0011684D01*
X0117585Y0011728D01*
X0117460Y0011777D01*
X0117337Y0011829D01*
X0117215Y0011885D01*
X0117094Y0011945D01*
X0116976Y0012008D01*
X0116859Y0012074D01*
X0116745Y0012144D01*
X0116632Y0012217D01*
X0116522Y0012294D01*
X0116414Y0012374D01*
X0116309Y0012457D01*
X0116206Y0012543D01*
X0116106Y0012632D01*
X0116008Y0012724D01*
X0115913Y0012819D01*
X0115821Y0012917D01*
X0115732Y0013017D01*
X0115646Y0013120D01*
X0115563Y0013225D01*
X0115483Y0013333D01*
X0115406Y0013443D01*
X0115333Y0013556D01*
X0115263Y0013670D01*
X0115197Y0013787D01*
X0115134Y0013905D01*
X0115074Y0014026D01*
X0115018Y0014148D01*
X0114966Y0014271D01*
X0114917Y0014396D01*
X0114873Y0014523D01*
X0114831Y0014651D01*
X0114794Y0014779D01*
X0114761Y0014909D01*
X0114731Y0015040D01*
X0114705Y0015172D01*
X0114684Y0015304D01*
X0114666Y0015437D01*
X0114652Y0015571D01*
X0114642Y0015705D01*
X0114636Y0015839D01*
X0114634Y0015973D01*
D12*
X0123279Y0019717D02*
X0123279Y0021680D01*
X0124261Y0021680D01*
X0124589Y0021353D01*
X0124589Y0020698D01*
X0124261Y0020371D01*
X0123279Y0020371D01*
X0123934Y0020371D02*
X0124589Y0019717D01*
X0125455Y0020044D02*
X0125782Y0019717D01*
X0126437Y0019717D01*
X0126764Y0020044D01*
X0126764Y0020371D01*
X0126437Y0020698D01*
X0125455Y0020698D01*
X0125455Y0020044D01*
X0125455Y0020698D02*
X0126109Y0021353D01*
X0126764Y0021680D01*
X0126437Y0026409D02*
X0125782Y0026409D01*
X0125455Y0026737D01*
X0125455Y0027391D02*
X0126109Y0027719D01*
X0126437Y0027719D01*
X0126764Y0027391D01*
X0126764Y0026737D01*
X0126437Y0026409D01*
X0125455Y0027391D02*
X0125455Y0028373D01*
X0126764Y0028373D01*
X0124589Y0028046D02*
X0124589Y0027391D01*
X0124261Y0027064D01*
X0123279Y0027064D01*
X0123279Y0026409D02*
X0123279Y0028373D01*
X0124261Y0028373D01*
X0124589Y0028046D01*
X0123934Y0027064D02*
X0124589Y0026409D01*
X0124589Y0033102D02*
X0123934Y0033757D01*
X0124261Y0033757D02*
X0123279Y0033757D01*
X0123279Y0033102D02*
X0123279Y0035066D01*
X0124261Y0035066D01*
X0124589Y0034739D01*
X0124589Y0034084D01*
X0124261Y0033757D01*
X0125455Y0033430D02*
X0125455Y0033102D01*
X0125455Y0033430D02*
X0126764Y0034739D01*
X0126764Y0035066D01*
X0125455Y0035066D01*
X0125782Y0039795D02*
X0125455Y0040123D01*
X0125782Y0039795D02*
X0126437Y0039795D01*
X0126764Y0040123D01*
X0126764Y0041432D01*
X0126437Y0041759D01*
X0125782Y0041759D01*
X0125455Y0041432D01*
X0125455Y0041105D01*
X0125782Y0040777D01*
X0126764Y0040777D01*
X0124589Y0040777D02*
X0124261Y0040450D01*
X0123279Y0040450D01*
X0123279Y0039795D02*
X0123279Y0041759D01*
X0124261Y0041759D01*
X0124589Y0041432D01*
X0124589Y0040777D01*
X0123934Y0040450D02*
X0124589Y0039795D01*
X0124589Y0046488D02*
X0123279Y0046488D01*
X0123934Y0046488D02*
X0123934Y0048452D01*
X0123279Y0047797D01*
X0122414Y0047470D02*
X0122086Y0047143D01*
X0121104Y0047143D01*
X0121104Y0046488D02*
X0121104Y0048452D01*
X0122086Y0048452D01*
X0122414Y0048125D01*
X0122414Y0047470D01*
X0121759Y0047143D02*
X0122414Y0046488D01*
X0125455Y0046816D02*
X0125455Y0048125D01*
X0125782Y0048452D01*
X0126437Y0048452D01*
X0126764Y0048125D01*
X0125455Y0046816D01*
X0125782Y0046488D01*
X0126437Y0046488D01*
X0126764Y0046816D01*
X0126764Y0048125D01*
X0126437Y0053181D02*
X0125782Y0053181D01*
X0125455Y0053508D01*
X0125455Y0053836D01*
X0125782Y0054163D01*
X0126437Y0054163D01*
X0126764Y0053836D01*
X0126764Y0053508D01*
X0126437Y0053181D01*
X0126437Y0054163D02*
X0126764Y0054490D01*
X0126764Y0054818D01*
X0126437Y0055145D01*
X0125782Y0055145D01*
X0125455Y0054818D01*
X0125455Y0054490D01*
X0125782Y0054163D01*
X0124589Y0054163D02*
X0124261Y0053836D01*
X0123279Y0053836D01*
X0123279Y0053181D02*
X0123279Y0055145D01*
X0124261Y0055145D01*
X0124589Y0054818D01*
X0124589Y0054163D01*
X0123934Y0053836D02*
X0124589Y0053181D01*
X0131960Y0058036D02*
X0132485Y0057512D01*
X0133533Y0057512D01*
X0134058Y0058036D01*
X0134058Y0058560D01*
X0133533Y0059085D01*
X0133009Y0059085D01*
X0133533Y0059085D02*
X0134058Y0059609D01*
X0134058Y0060133D01*
X0133533Y0060658D01*
X0132485Y0060658D01*
X0131960Y0060133D01*
X0135223Y0060658D02*
X0135223Y0058560D01*
X0136272Y0057512D01*
X0137320Y0058560D01*
X0137320Y0060658D01*
X0138486Y0060133D02*
X0139010Y0060658D01*
X0140059Y0060658D01*
X0140583Y0060133D01*
X0140583Y0059609D01*
X0140059Y0059085D01*
X0140583Y0058560D01*
X0140583Y0058036D01*
X0140059Y0057512D01*
X0139010Y0057512D01*
X0138486Y0058036D01*
X0139534Y0059085D02*
X0140059Y0059085D01*
X0140435Y0063811D02*
X0141483Y0064860D01*
X0141483Y0066957D01*
X0139386Y0066957D02*
X0139386Y0064860D01*
X0140435Y0063811D01*
X0138221Y0064335D02*
X0137696Y0063811D01*
X0136123Y0063811D01*
X0136123Y0066957D01*
X0137696Y0066957D01*
X0138221Y0066433D01*
X0138221Y0065908D01*
X0137696Y0065384D01*
X0136123Y0065384D01*
X0134958Y0064860D02*
X0134958Y0064335D01*
X0134434Y0063811D01*
X0133385Y0063811D01*
X0132861Y0064335D01*
X0131695Y0064335D02*
X0131171Y0063811D01*
X0130122Y0063811D01*
X0129598Y0064335D01*
X0129598Y0066957D01*
X0131695Y0066957D02*
X0131695Y0064335D01*
X0132861Y0065908D02*
X0133385Y0065384D01*
X0134434Y0065384D01*
X0134958Y0064860D01*
X0134958Y0066433D02*
X0134434Y0066957D01*
X0133385Y0066957D01*
X0132861Y0066433D01*
X0132861Y0065908D01*
X0137696Y0065384D02*
X0138221Y0064860D01*
X0138221Y0064335D01*
X0137977Y0073654D02*
X0136928Y0073654D01*
X0136404Y0074178D01*
X0136928Y0075227D02*
X0137977Y0075227D01*
X0138501Y0074702D01*
X0138501Y0074178D01*
X0137977Y0073654D01*
X0136928Y0075227D02*
X0136404Y0075751D01*
X0136404Y0076275D01*
X0136928Y0076800D01*
X0137977Y0076800D01*
X0138501Y0076275D01*
X0139667Y0076800D02*
X0141764Y0076800D01*
X0140715Y0076800D02*
X0140715Y0073654D01*
X0135239Y0073654D02*
X0134190Y0074702D01*
X0134714Y0074702D02*
X0133141Y0074702D01*
X0133141Y0073654D02*
X0133141Y0076800D01*
X0134714Y0076800D01*
X0135239Y0076275D01*
X0135239Y0075227D01*
X0134714Y0074702D01*
X0136291Y0083102D02*
X0137864Y0083102D01*
X0138388Y0083627D01*
X0138388Y0085724D01*
X0137864Y0086248D01*
X0136291Y0086248D01*
X0136291Y0083102D01*
X0139554Y0083102D02*
X0140602Y0083102D01*
X0140078Y0083102D02*
X0140078Y0086248D01*
X0139554Y0086248D02*
X0140602Y0086248D01*
X0139667Y0092945D02*
X0141764Y0092945D01*
X0139667Y0092945D02*
X0139667Y0096091D01*
X0138501Y0095567D02*
X0137977Y0096091D01*
X0136928Y0096091D01*
X0136404Y0095567D01*
X0136404Y0093469D01*
X0136928Y0092945D01*
X0137977Y0092945D01*
X0138501Y0093469D01*
X0135239Y0093469D02*
X0134714Y0092945D01*
X0133666Y0092945D01*
X0133141Y0093469D01*
X0133666Y0094518D02*
X0134714Y0094518D01*
X0135239Y0093994D01*
X0135239Y0093469D01*
X0133666Y0094518D02*
X0133141Y0095042D01*
X0133141Y0095567D01*
X0133666Y0096091D01*
X0134714Y0096091D01*
X0135239Y0095567D01*
X0136815Y0103181D02*
X0137864Y0103181D01*
X0138388Y0103705D01*
X0138388Y0104754D01*
X0137340Y0104754D01*
X0138388Y0105803D02*
X0137864Y0106327D01*
X0136815Y0106327D01*
X0136291Y0105803D01*
X0136291Y0103705D01*
X0136815Y0103181D01*
X0139554Y0103181D02*
X0141651Y0103181D01*
X0140602Y0103181D02*
X0140602Y0106327D01*
X0139554Y0105278D01*
X0140078Y0113417D02*
X0139554Y0113942D01*
X0140078Y0113417D02*
X0141127Y0113417D01*
X0141651Y0113942D01*
X0141651Y0114466D01*
X0141127Y0114990D01*
X0140602Y0114990D01*
X0141127Y0114990D02*
X0141651Y0115515D01*
X0141651Y0116039D01*
X0141127Y0116563D01*
X0140078Y0116563D01*
X0139554Y0116039D01*
X0138388Y0116039D02*
X0137864Y0116563D01*
X0136815Y0116563D01*
X0136291Y0116039D01*
X0136291Y0113942D01*
X0136815Y0113417D01*
X0137864Y0113417D01*
X0138388Y0113942D01*
X0138388Y0114990D01*
X0137340Y0114990D01*
X0137597Y0123000D02*
X0136416Y0123000D01*
X0135827Y0123590D01*
X0135827Y0125950D01*
X0136416Y0126540D01*
X0137597Y0126540D01*
X0138187Y0125950D01*
X0138187Y0124770D02*
X0137007Y0124770D01*
X0138187Y0124770D02*
X0138187Y0123590D01*
X0137597Y0123000D01*
X0139452Y0123590D02*
X0140042Y0123000D01*
X0141222Y0123000D01*
X0141812Y0123590D01*
X0141812Y0124770D01*
X0141222Y0125360D01*
X0140632Y0125360D01*
X0139452Y0124770D01*
X0139452Y0126540D01*
X0141812Y0126540D01*
X0139452Y0133000D02*
X0139452Y0133590D01*
X0141812Y0135950D01*
X0141812Y0136540D01*
X0139452Y0136540D01*
X0138187Y0135950D02*
X0137597Y0136540D01*
X0136416Y0136540D01*
X0135827Y0135950D01*
X0135827Y0133590D01*
X0136416Y0133000D01*
X0137597Y0133000D01*
X0138187Y0133590D01*
X0138187Y0134770D01*
X0137007Y0134770D01*
X0120951Y0123649D02*
X0119642Y0122340D01*
X0119969Y0122667D02*
X0120951Y0121685D01*
X0119642Y0121685D02*
X0119642Y0123649D01*
X0118776Y0123649D02*
X0118776Y0122012D01*
X0118449Y0121685D01*
X0117794Y0121685D01*
X0117467Y0122012D01*
X0117467Y0123649D01*
X0114426Y0122667D02*
X0114426Y0122340D01*
X0113117Y0122340D01*
X0113117Y0122667D02*
X0113444Y0122994D01*
X0114099Y0122994D01*
X0114426Y0122667D01*
X0114099Y0121685D02*
X0113444Y0121685D01*
X0113117Y0122012D01*
X0113117Y0122667D01*
X0112251Y0122667D02*
X0112251Y0121685D01*
X0112251Y0122667D02*
X0111924Y0122994D01*
X0111269Y0122994D01*
X0110942Y0122667D01*
X0110146Y0122994D02*
X0109492Y0122994D01*
X0109819Y0123322D02*
X0109819Y0122012D01*
X0110146Y0121685D01*
X0110942Y0121685D02*
X0110942Y0123649D01*
X0106451Y0122667D02*
X0106451Y0121685D01*
X0106451Y0122667D02*
X0106123Y0122994D01*
X0105142Y0122994D01*
X0105142Y0121685D01*
X0104346Y0121685D02*
X0103691Y0121685D01*
X0104019Y0121685D02*
X0104019Y0122994D01*
X0103691Y0122994D01*
X0104019Y0123649D02*
X0104019Y0123976D01*
X0100651Y0123649D02*
X0100651Y0121685D01*
X0099669Y0121685D01*
X0099341Y0122012D01*
X0099341Y0122667D01*
X0099669Y0122994D01*
X0100651Y0122994D01*
X0098475Y0122667D02*
X0098475Y0122340D01*
X0097166Y0122340D01*
X0097166Y0122667D02*
X0097494Y0122994D01*
X0098148Y0122994D01*
X0098475Y0122667D01*
X0098148Y0121685D02*
X0097494Y0121685D01*
X0097166Y0122012D01*
X0097166Y0122667D01*
X0096336Y0122994D02*
X0096008Y0122994D01*
X0095354Y0122340D01*
X0095354Y0122994D02*
X0095354Y0121685D01*
X0094488Y0121685D02*
X0094488Y0122994D01*
X0094488Y0121685D02*
X0093506Y0121685D01*
X0093179Y0122012D01*
X0093179Y0122994D01*
X0092383Y0122994D02*
X0091729Y0122994D01*
X0092056Y0123322D02*
X0092056Y0122012D01*
X0092383Y0121685D01*
X0090863Y0121685D02*
X0089881Y0121685D01*
X0089553Y0122012D01*
X0089553Y0122667D01*
X0089881Y0122994D01*
X0090863Y0122994D01*
X0088688Y0122667D02*
X0088688Y0121685D01*
X0087706Y0121685D01*
X0087378Y0122012D01*
X0087706Y0122340D01*
X0088688Y0122340D01*
X0088688Y0122667D02*
X0088360Y0122994D01*
X0087706Y0122994D01*
X0086583Y0122667D02*
X0085928Y0122667D01*
X0086256Y0123322D02*
X0086583Y0123649D01*
X0086256Y0123322D02*
X0086256Y0121685D01*
X0085062Y0121685D02*
X0085062Y0122994D01*
X0083753Y0122994D02*
X0083753Y0122012D01*
X0084081Y0121685D01*
X0085062Y0121685D01*
X0082887Y0121685D02*
X0082887Y0122667D01*
X0082560Y0122994D01*
X0081578Y0122994D01*
X0081578Y0121685D01*
X0080712Y0121685D02*
X0079730Y0121685D01*
X0079403Y0122012D01*
X0079730Y0122340D01*
X0080712Y0122340D01*
X0080712Y0122667D02*
X0080712Y0121685D01*
X0080712Y0122667D02*
X0080385Y0122994D01*
X0079730Y0122994D01*
X0078537Y0122667D02*
X0078537Y0121685D01*
X0077883Y0121685D02*
X0077883Y0122667D01*
X0078210Y0122994D01*
X0078537Y0122667D01*
X0077883Y0122667D02*
X0077555Y0122994D01*
X0077228Y0122994D01*
X0077228Y0121685D01*
X0074187Y0121685D02*
X0073205Y0121685D01*
X0072878Y0122012D01*
X0072878Y0122667D01*
X0073205Y0122994D01*
X0074187Y0122994D01*
X0074187Y0123649D02*
X0074187Y0121685D01*
X0072012Y0121685D02*
X0072012Y0122667D01*
X0071685Y0122994D01*
X0070703Y0122994D01*
X0070703Y0121685D01*
X0069837Y0121685D02*
X0068855Y0121685D01*
X0068528Y0122012D01*
X0068855Y0122340D01*
X0069837Y0122340D01*
X0069837Y0122667D02*
X0069837Y0121685D01*
X0069837Y0122667D02*
X0069510Y0122994D01*
X0068855Y0122994D01*
X0065487Y0122994D02*
X0064505Y0122994D01*
X0064177Y0122667D01*
X0064177Y0122012D01*
X0064505Y0121685D01*
X0065487Y0121685D01*
X0065487Y0123649D01*
X0063312Y0122667D02*
X0063312Y0122340D01*
X0062002Y0122340D01*
X0062002Y0122667D02*
X0062330Y0122994D01*
X0062984Y0122994D01*
X0063312Y0122667D01*
X0062984Y0121685D02*
X0062330Y0121685D01*
X0062002Y0122012D01*
X0062002Y0122667D01*
X0061137Y0122667D02*
X0061137Y0121685D01*
X0061137Y0122667D02*
X0060809Y0122994D01*
X0059827Y0122994D01*
X0059827Y0121685D01*
X0058961Y0121685D02*
X0057980Y0121685D01*
X0057652Y0122012D01*
X0057652Y0122667D01*
X0057980Y0122994D01*
X0058961Y0122994D01*
X0058961Y0121358D01*
X0058634Y0121030D01*
X0058307Y0121030D01*
X0056857Y0121685D02*
X0056202Y0121685D01*
X0056529Y0121685D02*
X0056529Y0122994D01*
X0056202Y0122994D01*
X0056529Y0123649D02*
X0056529Y0123976D01*
X0055336Y0122994D02*
X0054354Y0122994D01*
X0054027Y0122667D01*
X0054354Y0122340D01*
X0055009Y0122340D01*
X0055336Y0122012D01*
X0055009Y0121685D01*
X0054027Y0121685D01*
X0053161Y0122340D02*
X0051852Y0122340D01*
X0051852Y0122667D02*
X0052179Y0122994D01*
X0052834Y0122994D01*
X0053161Y0122667D01*
X0053161Y0122340D01*
X0052834Y0121685D02*
X0052179Y0121685D01*
X0051852Y0122012D01*
X0051852Y0122667D01*
X0050986Y0123322D02*
X0050659Y0123649D01*
X0049677Y0123649D01*
X0049677Y0121685D01*
X0050659Y0121685D01*
X0050986Y0122012D01*
X0050986Y0123322D01*
X0037827Y0123260D02*
X0035730Y0123260D01*
X0037827Y0125357D01*
X0037827Y0125881D01*
X0037303Y0126406D01*
X0036254Y0126406D01*
X0035730Y0125881D01*
X0033516Y0126406D02*
X0033516Y0123260D01*
X0034564Y0123260D02*
X0032467Y0123260D01*
X0031302Y0123784D02*
X0031302Y0124833D01*
X0030253Y0124833D01*
X0029204Y0125881D02*
X0029204Y0123784D01*
X0029729Y0123260D01*
X0030777Y0123260D01*
X0031302Y0123784D01*
X0032467Y0125357D02*
X0033516Y0126406D01*
X0031302Y0125881D02*
X0030777Y0126406D01*
X0029729Y0126406D01*
X0029204Y0125881D01*
X0030120Y0131134D02*
X0032217Y0131134D01*
X0032741Y0131658D01*
X0032741Y0132707D01*
X0032217Y0133231D01*
X0031168Y0133231D01*
X0031168Y0132183D01*
X0030120Y0133231D02*
X0029595Y0132707D01*
X0029595Y0131658D01*
X0030120Y0131134D01*
X0030644Y0134396D02*
X0029595Y0135445D01*
X0032741Y0135445D01*
X0032741Y0134396D02*
X0032741Y0136494D01*
X0032741Y0137659D02*
X0032741Y0139756D01*
X0032741Y0138708D02*
X0029595Y0138708D01*
X0030644Y0137659D01*
X0039441Y0145307D02*
X0039441Y0147271D01*
X0039441Y0146289D02*
X0040750Y0146289D01*
X0040750Y0147271D02*
X0040750Y0145307D01*
X0041616Y0145307D02*
X0042925Y0146616D01*
X0042925Y0146944D01*
X0042598Y0147271D01*
X0041943Y0147271D01*
X0041616Y0146944D01*
X0041616Y0145307D02*
X0042925Y0145307D01*
X0032276Y0150031D02*
X0030966Y0150031D01*
X0031621Y0150031D02*
X0031621Y0151995D01*
X0030966Y0151341D01*
X0030101Y0151668D02*
X0030101Y0150359D01*
X0029773Y0150031D01*
X0028791Y0150031D01*
X0028791Y0151995D01*
X0029773Y0151995D01*
X0030101Y0151668D01*
X0027925Y0151995D02*
X0026616Y0151995D01*
X0026616Y0150031D01*
X0026616Y0151013D02*
X0027271Y0151013D01*
X0040228Y0162957D02*
X0040555Y0162630D01*
X0041210Y0162630D01*
X0041537Y0162957D01*
X0042403Y0162957D02*
X0042730Y0162630D01*
X0043385Y0162630D01*
X0043712Y0162957D01*
X0043712Y0163612D01*
X0043385Y0163939D01*
X0042730Y0163939D01*
X0042403Y0163612D01*
X0042403Y0162957D01*
X0041537Y0164266D02*
X0041210Y0164594D01*
X0040555Y0164594D01*
X0040228Y0164266D01*
X0040228Y0162957D01*
X0044578Y0162630D02*
X0045560Y0162630D01*
X0045887Y0162957D01*
X0045887Y0163612D01*
X0045560Y0163939D01*
X0044578Y0163939D01*
X0044578Y0161975D01*
X0046753Y0162957D02*
X0047081Y0162630D01*
X0048063Y0162630D01*
X0048063Y0162303D02*
X0047735Y0161975D01*
X0047408Y0161975D01*
X0048063Y0162303D02*
X0048063Y0163939D01*
X0048928Y0163939D02*
X0048928Y0162630D01*
X0048928Y0163285D02*
X0049583Y0163939D01*
X0049910Y0163939D01*
X0050741Y0163939D02*
X0051068Y0163939D01*
X0051068Y0162630D01*
X0050741Y0162630D02*
X0051396Y0162630D01*
X0052191Y0162957D02*
X0052518Y0162630D01*
X0053500Y0162630D01*
X0053500Y0162303D02*
X0053500Y0163939D01*
X0052518Y0163939D01*
X0052191Y0163612D01*
X0052191Y0162957D01*
X0052846Y0161975D02*
X0053173Y0161975D01*
X0053500Y0162303D01*
X0054366Y0162630D02*
X0054366Y0164594D01*
X0054693Y0163939D02*
X0055348Y0163939D01*
X0055675Y0163612D01*
X0055675Y0162630D01*
X0056869Y0162957D02*
X0056869Y0164266D01*
X0057196Y0163939D02*
X0056541Y0163939D01*
X0056869Y0162957D02*
X0057196Y0162630D01*
X0054693Y0163939D02*
X0054366Y0163612D01*
X0051068Y0164594D02*
X0051068Y0164921D01*
X0046753Y0163939D02*
X0046753Y0162957D01*
X0060166Y0162630D02*
X0061476Y0163939D01*
X0061476Y0164266D01*
X0061148Y0164594D01*
X0060494Y0164594D01*
X0060166Y0164266D01*
X0060166Y0162630D02*
X0061476Y0162630D01*
X0062341Y0162957D02*
X0063651Y0164266D01*
X0063651Y0162957D01*
X0063323Y0162630D01*
X0062669Y0162630D01*
X0062341Y0162957D01*
X0062341Y0164266D01*
X0062669Y0164594D01*
X0063323Y0164594D01*
X0063651Y0164266D01*
X0064517Y0163939D02*
X0065171Y0164594D01*
X0065171Y0162630D01*
X0064517Y0162630D02*
X0065826Y0162630D01*
X0066692Y0162957D02*
X0067019Y0162630D01*
X0067674Y0162630D01*
X0068001Y0162957D01*
X0068001Y0164266D01*
X0067674Y0164594D01*
X0067019Y0164594D01*
X0066692Y0164266D01*
X0066692Y0163939D01*
X0067019Y0163612D01*
X0068001Y0163612D01*
X0071042Y0163939D02*
X0071369Y0163612D01*
X0072024Y0163612D01*
X0072351Y0163285D01*
X0072351Y0162957D01*
X0072024Y0162630D01*
X0071369Y0162630D01*
X0071042Y0162957D01*
X0071042Y0163939D02*
X0071042Y0164266D01*
X0071369Y0164594D01*
X0072024Y0164594D01*
X0072351Y0164266D01*
X0073544Y0163939D02*
X0074199Y0163939D01*
X0074526Y0163612D01*
X0074526Y0162630D01*
X0073544Y0162630D01*
X0073217Y0162957D01*
X0073544Y0163285D01*
X0074526Y0163285D01*
X0075392Y0163939D02*
X0076047Y0163939D01*
X0075719Y0164266D02*
X0075719Y0162957D01*
X0076047Y0162630D01*
X0076842Y0162957D02*
X0076842Y0163612D01*
X0077169Y0163939D01*
X0077824Y0163939D01*
X0078151Y0163612D01*
X0078151Y0163285D01*
X0076842Y0163285D01*
X0076842Y0162957D02*
X0077169Y0162630D01*
X0077824Y0162630D01*
X0079017Y0162630D02*
X0079672Y0162630D01*
X0079344Y0162630D02*
X0079344Y0164594D01*
X0079017Y0164594D01*
X0080467Y0164594D02*
X0080794Y0164594D01*
X0080794Y0162630D01*
X0080467Y0162630D02*
X0081122Y0162630D01*
X0081917Y0162630D02*
X0082572Y0162630D01*
X0082244Y0162630D02*
X0082244Y0163939D01*
X0081917Y0163939D01*
X0082244Y0164594D02*
X0082244Y0164921D01*
X0083367Y0163939D02*
X0084022Y0163939D01*
X0083695Y0164266D02*
X0083695Y0162957D01*
X0084022Y0162630D01*
X0084817Y0162957D02*
X0084817Y0163612D01*
X0085145Y0163939D01*
X0085799Y0163939D01*
X0086127Y0163612D01*
X0086127Y0163285D01*
X0084817Y0163285D01*
X0084817Y0162957D02*
X0085145Y0162630D01*
X0085799Y0162630D01*
X0089167Y0162630D02*
X0089167Y0163939D01*
X0089822Y0164594D01*
X0090477Y0163939D01*
X0090477Y0162630D01*
X0091343Y0162630D02*
X0092324Y0162630D01*
X0092652Y0162957D01*
X0092652Y0163612D01*
X0092324Y0163939D01*
X0091343Y0163939D01*
X0091343Y0161975D01*
X0090477Y0163612D02*
X0089167Y0163612D01*
X0093518Y0163939D02*
X0093518Y0161975D01*
X0093518Y0162630D02*
X0094500Y0162630D01*
X0094827Y0162957D01*
X0094827Y0163612D01*
X0094500Y0163939D01*
X0093518Y0163939D01*
X0095693Y0164594D02*
X0096020Y0164594D01*
X0096020Y0162630D01*
X0095693Y0162630D02*
X0096347Y0162630D01*
X0097143Y0162630D02*
X0097797Y0162630D01*
X0097470Y0162630D02*
X0097470Y0163939D01*
X0097143Y0163939D01*
X0097470Y0164594D02*
X0097470Y0164921D01*
X0098593Y0163612D02*
X0098593Y0162957D01*
X0098920Y0162630D01*
X0099902Y0162630D01*
X0100768Y0162957D02*
X0101095Y0163285D01*
X0102077Y0163285D01*
X0102077Y0163612D02*
X0102077Y0162630D01*
X0101095Y0162630D01*
X0100768Y0162957D01*
X0101095Y0163939D02*
X0101750Y0163939D01*
X0102077Y0163612D01*
X0102943Y0163939D02*
X0103598Y0163939D01*
X0103270Y0164266D02*
X0103270Y0162957D01*
X0103598Y0162630D01*
X0104393Y0162630D02*
X0105048Y0162630D01*
X0104720Y0162630D02*
X0104720Y0163939D01*
X0104393Y0163939D01*
X0104720Y0164594D02*
X0104720Y0164921D01*
X0105843Y0163612D02*
X0105843Y0162957D01*
X0106170Y0162630D01*
X0106825Y0162630D01*
X0107152Y0162957D01*
X0107152Y0163612D01*
X0106825Y0163939D01*
X0106170Y0163939D01*
X0105843Y0163612D01*
X0108018Y0163939D02*
X0109000Y0163939D01*
X0109327Y0163612D01*
X0109327Y0162630D01*
X0110193Y0162630D02*
X0111175Y0162630D01*
X0111502Y0162957D01*
X0111175Y0163285D01*
X0110521Y0163285D01*
X0110193Y0163612D01*
X0110521Y0163939D01*
X0111502Y0163939D01*
X0114543Y0164266D02*
X0114543Y0162957D01*
X0114871Y0162630D01*
X0115525Y0162630D01*
X0115853Y0162957D01*
X0116719Y0162957D02*
X0117046Y0163285D01*
X0118028Y0163285D01*
X0118028Y0163612D02*
X0118028Y0162630D01*
X0117046Y0162630D01*
X0116719Y0162957D01*
X0117046Y0163939D02*
X0117700Y0163939D01*
X0118028Y0163612D01*
X0118894Y0163939D02*
X0119548Y0163939D01*
X0119221Y0164266D02*
X0119221Y0162957D01*
X0119548Y0162630D01*
X0120344Y0162957D02*
X0120671Y0163285D01*
X0121653Y0163285D01*
X0121653Y0163612D02*
X0121653Y0162630D01*
X0120671Y0162630D01*
X0120344Y0162957D01*
X0120671Y0163939D02*
X0121326Y0163939D01*
X0121653Y0163612D01*
X0122519Y0163939D02*
X0122519Y0161975D01*
X0122519Y0162630D02*
X0123501Y0162630D01*
X0123828Y0162957D01*
X0123828Y0163612D01*
X0123501Y0163939D01*
X0122519Y0163939D01*
X0124694Y0163939D02*
X0124694Y0162957D01*
X0125021Y0162630D01*
X0126003Y0162630D01*
X0126003Y0163939D01*
X0126869Y0164594D02*
X0127196Y0164594D01*
X0127196Y0162630D01*
X0126869Y0162630D02*
X0127524Y0162630D01*
X0128646Y0162957D02*
X0128974Y0162630D01*
X0128646Y0162957D02*
X0128646Y0164266D01*
X0128319Y0163939D02*
X0128974Y0163939D01*
X0115853Y0164266D02*
X0115525Y0164594D01*
X0114871Y0164594D01*
X0114543Y0164266D01*
X0108018Y0163939D02*
X0108018Y0162630D01*
X0099902Y0163939D02*
X0098920Y0163939D01*
X0098593Y0163612D01*
X0163454Y0138499D02*
X0163978Y0139024D01*
X0164502Y0139024D01*
X0165027Y0138499D01*
X0165027Y0137451D01*
X0164502Y0136926D01*
X0163978Y0136926D01*
X0163454Y0137451D01*
X0163454Y0138499D01*
X0165027Y0138499D02*
X0165551Y0139024D01*
X0166075Y0139024D01*
X0166600Y0138499D01*
X0166600Y0137451D01*
X0166075Y0136926D01*
X0165551Y0136926D01*
X0165027Y0137451D01*
X0165027Y0135761D02*
X0165027Y0134712D01*
X0165027Y0135761D02*
X0166075Y0135761D01*
X0166600Y0135237D01*
X0166600Y0134188D01*
X0166075Y0133664D01*
X0163978Y0133664D01*
X0163454Y0134188D01*
X0163454Y0135237D01*
X0163978Y0135761D01*
X0163454Y0128787D02*
X0163978Y0127739D01*
X0165027Y0126690D01*
X0165027Y0128263D01*
X0165551Y0128787D01*
X0166075Y0128787D01*
X0166600Y0128263D01*
X0166600Y0127214D01*
X0166075Y0126690D01*
X0165027Y0126690D01*
X0165027Y0125525D02*
X0165027Y0124476D01*
X0165027Y0125525D02*
X0166075Y0125525D01*
X0166600Y0125000D01*
X0166600Y0123952D01*
X0166075Y0123427D01*
X0163978Y0123427D01*
X0163454Y0123952D01*
X0163454Y0125000D01*
X0163978Y0125525D01*
X0165027Y0118158D02*
X0165027Y0116060D01*
X0163454Y0117633D01*
X0166600Y0117633D01*
X0166075Y0114895D02*
X0165027Y0114895D01*
X0165027Y0113846D01*
X0163978Y0112798D02*
X0166075Y0112798D01*
X0166600Y0113322D01*
X0166600Y0114371D01*
X0166075Y0114895D01*
X0163978Y0114895D02*
X0163454Y0114371D01*
X0163454Y0113322D01*
X0163978Y0112798D01*
X0163978Y0106740D02*
X0163454Y0106216D01*
X0163454Y0105167D01*
X0163978Y0104643D01*
X0163978Y0103478D02*
X0163454Y0102953D01*
X0163454Y0101905D01*
X0163978Y0101380D01*
X0166075Y0101380D01*
X0166600Y0101905D01*
X0166600Y0102953D01*
X0166075Y0103478D01*
X0165027Y0103478D01*
X0165027Y0102429D01*
X0166600Y0104643D02*
X0164502Y0106740D01*
X0163978Y0106740D01*
X0166600Y0106740D02*
X0166600Y0104643D01*
X0166600Y0099260D02*
X0164502Y0099260D01*
X0163454Y0098211D01*
X0164502Y0097163D01*
X0166600Y0097163D01*
X0166075Y0095997D02*
X0163978Y0095997D01*
X0163454Y0095473D01*
X0163454Y0093900D01*
X0166600Y0093900D01*
X0166600Y0095473D01*
X0166075Y0095997D01*
X0165027Y0097163D02*
X0165027Y0099260D01*
X0165551Y0092735D02*
X0166075Y0092735D01*
X0166600Y0092210D01*
X0166600Y0091162D01*
X0166075Y0090637D01*
X0165027Y0091162D02*
X0165027Y0092210D01*
X0165551Y0092735D01*
X0163978Y0092735D02*
X0163454Y0092210D01*
X0163454Y0091162D01*
X0163978Y0090637D01*
X0164502Y0090637D01*
X0165027Y0091162D01*
X0166075Y0088236D02*
X0163978Y0088236D01*
X0163454Y0087712D01*
X0163454Y0086663D01*
X0163978Y0086139D01*
X0166075Y0086139D01*
X0166600Y0086663D01*
X0166600Y0087712D01*
X0166075Y0088236D01*
X0166075Y0084974D02*
X0163978Y0084974D01*
X0163454Y0084449D01*
X0163454Y0082876D01*
X0166600Y0082876D01*
X0166600Y0084449D01*
X0166075Y0084974D01*
X0166600Y0079575D02*
X0165027Y0078002D01*
X0165551Y0077478D02*
X0163454Y0079575D01*
X0163454Y0077478D02*
X0166600Y0077478D01*
X0166075Y0076312D02*
X0166600Y0075788D01*
X0166600Y0074739D01*
X0166075Y0074215D01*
X0163978Y0074215D01*
X0163454Y0074739D01*
X0163454Y0075788D01*
X0163978Y0076312D01*
X0163978Y0073050D02*
X0163454Y0072525D01*
X0163454Y0071477D01*
X0163978Y0070952D01*
X0164502Y0070952D01*
X0165027Y0071477D01*
X0165027Y0072525D01*
X0165551Y0073050D01*
X0166075Y0073050D01*
X0166600Y0072525D01*
X0166600Y0071477D01*
X0166075Y0070952D01*
X0166075Y0068551D02*
X0163978Y0068551D01*
X0163454Y0068027D01*
X0163454Y0066454D01*
X0166600Y0066454D01*
X0166600Y0068027D01*
X0166075Y0068551D01*
X0166600Y0065289D02*
X0163454Y0065289D01*
X0163454Y0063191D02*
X0166600Y0065289D01*
X0166600Y0063191D02*
X0163454Y0063191D01*
X0163978Y0062026D02*
X0163454Y0061502D01*
X0163454Y0060453D01*
X0163978Y0059929D01*
X0166075Y0059929D01*
X0166600Y0060453D01*
X0166600Y0061502D01*
X0166075Y0062026D01*
X0165027Y0062026D01*
X0165027Y0060977D01*
X0163978Y0056966D02*
X0166075Y0056966D01*
X0166600Y0056442D01*
X0166600Y0055393D01*
X0166075Y0054869D01*
X0163978Y0056966D01*
X0163454Y0056442D01*
X0163454Y0055393D01*
X0163978Y0054869D01*
X0166075Y0054869D01*
X0166075Y0053704D02*
X0165027Y0053704D01*
X0165027Y0052655D01*
X0166075Y0053704D02*
X0166600Y0053179D01*
X0166600Y0052131D01*
X0166075Y0051606D01*
X0163978Y0051606D01*
X0163454Y0052131D01*
X0163454Y0053179D01*
X0163978Y0053704D01*
X0139889Y0007901D02*
X0139234Y0007246D01*
X0139889Y0007901D02*
X0139889Y0005937D01*
X0140543Y0005937D02*
X0139234Y0005937D01*
X0138041Y0006264D02*
X0138041Y0007901D01*
X0137714Y0007901D02*
X0138368Y0007901D01*
X0138041Y0006264D02*
X0137714Y0005937D01*
X0137386Y0005937D01*
X0137059Y0006264D01*
X0136193Y0006264D02*
X0135866Y0005937D01*
X0135211Y0005937D01*
X0134884Y0006264D01*
X0135211Y0006919D02*
X0135866Y0006919D01*
X0136193Y0006592D01*
X0136193Y0006264D01*
X0135211Y0006919D02*
X0134884Y0007246D01*
X0134884Y0007574D01*
X0135211Y0007901D01*
X0135866Y0007901D01*
X0136193Y0007574D01*
X0100218Y0042153D02*
X0098909Y0042153D01*
X0099564Y0042153D02*
X0099564Y0040189D01*
X0098043Y0040189D02*
X0098043Y0041498D01*
X0097388Y0042153D01*
X0096734Y0041498D01*
X0096734Y0040189D01*
X0095868Y0040516D02*
X0095541Y0040189D01*
X0094559Y0040189D01*
X0094559Y0042153D01*
X0095541Y0042153D01*
X0095868Y0041826D01*
X0095868Y0041498D01*
X0095541Y0041171D01*
X0094559Y0041171D01*
X0095541Y0041171D02*
X0095868Y0040844D01*
X0095868Y0040516D01*
X0096734Y0041171D02*
X0098043Y0041171D01*
X0090957Y0042153D02*
X0089647Y0040189D01*
X0088781Y0040189D02*
X0088127Y0040844D01*
X0088454Y0040844D02*
X0087472Y0040844D01*
X0087472Y0040189D02*
X0087472Y0042153D01*
X0088454Y0042153D01*
X0088781Y0041826D01*
X0088781Y0041171D01*
X0088454Y0040844D01*
X0089647Y0042153D02*
X0090957Y0040189D01*
X0083082Y0040189D02*
X0081773Y0042153D01*
X0080907Y0042153D02*
X0079598Y0042153D01*
X0080253Y0042153D02*
X0080253Y0040189D01*
X0081773Y0040189D02*
X0083082Y0042153D01*
X0076202Y0041826D02*
X0076202Y0040516D01*
X0075875Y0040189D01*
X0074893Y0040189D01*
X0074893Y0042153D01*
X0075875Y0042153D01*
X0076202Y0041826D01*
X0074027Y0042153D02*
X0074027Y0040189D01*
X0072718Y0042153D01*
X0072718Y0040189D01*
X0071852Y0040516D02*
X0071852Y0041171D01*
X0071198Y0041171D01*
X0071852Y0041826D02*
X0071525Y0042153D01*
X0070870Y0042153D01*
X0070543Y0041826D01*
X0070543Y0040516D01*
X0070870Y0040189D01*
X0071525Y0040189D01*
X0071852Y0040516D01*
X0034864Y0016629D02*
X0034537Y0016956D01*
X0033882Y0016956D01*
X0033555Y0016629D01*
X0032689Y0016629D02*
X0032361Y0016956D01*
X0031380Y0016956D01*
X0031380Y0014992D01*
X0032361Y0014992D01*
X0032689Y0015319D01*
X0032689Y0016629D01*
X0033555Y0014992D02*
X0034864Y0016301D01*
X0034864Y0016629D01*
X0034864Y0014992D02*
X0033555Y0014992D01*
X0030514Y0016956D02*
X0029204Y0016956D01*
X0029204Y0014992D01*
X0029204Y0015974D02*
X0029859Y0015974D01*
X0025261Y0043339D02*
X0025261Y0043993D01*
X0025261Y0043666D02*
X0023297Y0043666D01*
X0023297Y0043339D02*
X0023297Y0043993D01*
X0023625Y0044789D02*
X0024934Y0044789D01*
X0025261Y0045116D01*
X0025261Y0045771D01*
X0024934Y0046098D01*
X0025261Y0046964D02*
X0025261Y0048273D01*
X0025261Y0047618D02*
X0023297Y0047618D01*
X0023952Y0046964D01*
X0023625Y0046098D02*
X0023297Y0045771D01*
X0023297Y0045116D01*
X0023625Y0044789D01*
X0008332Y0044714D02*
X0008005Y0045042D01*
X0006368Y0045042D01*
X0007023Y0045907D02*
X0006368Y0046562D01*
X0008332Y0046562D01*
X0008332Y0045907D02*
X0008332Y0047217D01*
X0008332Y0044714D02*
X0008332Y0044060D01*
X0008005Y0043732D01*
X0006368Y0043732D01*
X0029596Y0068890D02*
X0029596Y0069872D01*
X0029924Y0070199D01*
X0030251Y0070199D01*
X0030578Y0069872D01*
X0030578Y0068890D01*
X0031560Y0068890D02*
X0029596Y0068890D01*
X0030578Y0069872D02*
X0030906Y0070199D01*
X0031233Y0070199D01*
X0031560Y0069872D01*
X0031560Y0068890D01*
X0031560Y0071065D02*
X0029596Y0071065D01*
X0031560Y0071065D02*
X0031560Y0072375D01*
X0031233Y0073240D02*
X0029596Y0073240D01*
X0029596Y0074550D02*
X0031233Y0074550D01*
X0031560Y0074222D01*
X0031560Y0073568D01*
X0031233Y0073240D01*
X0031560Y0075415D02*
X0029596Y0075415D01*
X0029596Y0076725D01*
X0030578Y0076070D02*
X0030578Y0075415D01*
X0031560Y0075415D02*
X0031560Y0076725D01*
X0030777Y0082709D02*
X0029729Y0082709D01*
X0029204Y0083233D01*
X0029204Y0085330D01*
X0029729Y0085855D01*
X0030777Y0085855D01*
X0031302Y0085330D01*
X0031302Y0084282D02*
X0030253Y0084282D01*
X0031302Y0084282D02*
X0031302Y0083233D01*
X0030777Y0082709D01*
X0032467Y0082709D02*
X0032467Y0085855D01*
X0034564Y0082709D01*
X0034564Y0085855D01*
X0035730Y0085855D02*
X0037303Y0085855D01*
X0037827Y0085330D01*
X0037827Y0083233D01*
X0037303Y0082709D01*
X0035730Y0082709D01*
X0035730Y0085855D01*
X0034564Y0093339D02*
X0032467Y0093339D01*
X0034564Y0095436D01*
X0034564Y0095960D01*
X0034040Y0096485D01*
X0032991Y0096485D01*
X0032467Y0095960D01*
X0031302Y0095960D02*
X0030777Y0096485D01*
X0029204Y0096485D01*
X0029204Y0093339D01*
X0030777Y0093339D01*
X0031302Y0093863D01*
X0031302Y0094387D01*
X0030777Y0094912D01*
X0029204Y0094912D01*
X0030777Y0094912D02*
X0031302Y0095436D01*
X0031302Y0095960D01*
X0030777Y0103181D02*
X0029204Y0103181D01*
X0029204Y0106327D01*
X0030777Y0106327D01*
X0031302Y0105803D01*
X0031302Y0105278D01*
X0030777Y0104754D01*
X0029204Y0104754D01*
X0030777Y0104754D02*
X0031302Y0104230D01*
X0031302Y0103705D01*
X0030777Y0103181D01*
X0032467Y0103181D02*
X0034564Y0103181D01*
X0033516Y0103181D02*
X0033516Y0106327D01*
X0032467Y0105278D01*
X0032467Y0113024D02*
X0034564Y0115121D01*
X0034564Y0115645D01*
X0034040Y0116170D01*
X0032991Y0116170D01*
X0032467Y0115645D01*
X0031302Y0116170D02*
X0031302Y0114072D01*
X0030253Y0113024D01*
X0029204Y0114072D01*
X0029204Y0116170D01*
X0032467Y0113024D02*
X0034564Y0113024D01*
X0007151Y0113285D02*
X0006102Y0114334D01*
X0004005Y0114334D01*
X0005054Y0115499D02*
X0004005Y0116548D01*
X0007151Y0116548D01*
X0007151Y0117596D02*
X0007151Y0115499D01*
X0007151Y0113285D02*
X0006102Y0112236D01*
X0004005Y0112236D01*
X0004529Y0107754D02*
X0005054Y0107754D01*
X0005578Y0107229D01*
X0006102Y0107754D01*
X0006627Y0107754D01*
X0007151Y0107229D01*
X0007151Y0106181D01*
X0006627Y0105656D01*
X0006102Y0104491D02*
X0004005Y0104491D01*
X0004529Y0105656D02*
X0004005Y0106181D01*
X0004005Y0107229D01*
X0004529Y0107754D01*
X0005578Y0107229D02*
X0005578Y0106705D01*
X0006102Y0104491D02*
X0007151Y0103442D01*
X0006102Y0102394D01*
X0004005Y0102394D01*
X0004005Y0099599D02*
X0004005Y0097502D01*
X0004005Y0098550D02*
X0007151Y0098550D01*
X0006627Y0096336D02*
X0007151Y0095812D01*
X0007151Y0094763D01*
X0006627Y0094239D01*
X0005578Y0094763D02*
X0005578Y0095812D01*
X0006102Y0096336D01*
X0006627Y0096336D01*
X0005578Y0094763D02*
X0005054Y0094239D01*
X0004529Y0094239D01*
X0004005Y0094763D01*
X0004005Y0095812D01*
X0004529Y0096336D01*
X0004529Y0093074D02*
X0005578Y0093074D01*
X0006102Y0092549D01*
X0006102Y0090976D01*
X0007151Y0090976D02*
X0004005Y0090976D01*
X0004005Y0092549D01*
X0004529Y0093074D01*
X0006102Y0092025D02*
X0007151Y0093074D01*
X0006627Y0087001D02*
X0007151Y0086476D01*
X0007151Y0085428D01*
X0006627Y0084903D01*
X0006102Y0083738D02*
X0004005Y0083738D01*
X0004529Y0084903D02*
X0004005Y0085428D01*
X0004005Y0086476D01*
X0004529Y0087001D01*
X0005054Y0087001D01*
X0005578Y0086476D01*
X0006102Y0087001D01*
X0006627Y0087001D01*
X0005578Y0086476D02*
X0005578Y0085952D01*
X0006102Y0083738D02*
X0007151Y0082689D01*
X0006102Y0081641D01*
X0004005Y0081641D01*
X0004529Y0080475D02*
X0005054Y0080475D01*
X0005578Y0079951D01*
X0006102Y0080475D01*
X0006627Y0080475D01*
X0007151Y0079951D01*
X0007151Y0078902D01*
X0006627Y0078378D01*
X0005578Y0079427D02*
X0005578Y0079951D01*
X0004529Y0080475D02*
X0004005Y0079951D01*
X0004005Y0078902D01*
X0004529Y0078378D01*
X0014636Y0073727D02*
X0016600Y0073727D01*
X0016600Y0073073D02*
X0016600Y0074382D01*
X0015290Y0073073D02*
X0014636Y0073727D01*
X0014963Y0072207D02*
X0015618Y0072207D01*
X0015945Y0071880D01*
X0015945Y0070898D01*
X0015945Y0071552D02*
X0016600Y0072207D01*
X0016600Y0070898D02*
X0014636Y0070898D01*
X0014636Y0071880D01*
X0014963Y0072207D01*
X0006627Y0120504D02*
X0004529Y0120504D01*
X0004005Y0121028D01*
X0004005Y0122077D01*
X0004529Y0122601D01*
X0005578Y0122601D02*
X0005578Y0121553D01*
X0005578Y0122601D02*
X0006627Y0122601D01*
X0007151Y0122077D01*
X0007151Y0121028D01*
X0006627Y0120504D01*
X0007151Y0123767D02*
X0007151Y0125864D01*
X0007151Y0124815D02*
X0004005Y0124815D01*
X0005054Y0123767D01*
X0004529Y0127029D02*
X0004005Y0127554D01*
X0004005Y0128602D01*
X0004529Y0129127D01*
X0006627Y0127029D01*
X0007151Y0127554D01*
X0007151Y0128602D01*
X0006627Y0129127D01*
X0004529Y0129127D01*
X0004529Y0127029D02*
X0006627Y0127029D01*
X0006627Y0132315D02*
X0004529Y0132315D01*
X0004005Y0132839D01*
X0004005Y0133888D01*
X0004529Y0134412D01*
X0005578Y0134412D02*
X0005578Y0133364D01*
X0005578Y0134412D02*
X0006627Y0134412D01*
X0007151Y0133888D01*
X0007151Y0132839D01*
X0006627Y0132315D01*
X0006627Y0135578D02*
X0007151Y0136102D01*
X0007151Y0137151D01*
X0006627Y0137675D01*
X0004529Y0137675D01*
X0004005Y0137151D01*
X0004005Y0136102D01*
X0004529Y0135578D01*
X0005054Y0135578D01*
X0005578Y0136102D01*
X0005578Y0137675D01*
D13*
X0028517Y0005250D02*
X0029793Y0005250D01*
X0030218Y0005675D01*
X0030218Y0006525D01*
X0029793Y0006951D01*
X0028517Y0006951D01*
X0028517Y0007801D02*
X0028517Y0005250D01*
X0031417Y0005675D02*
X0031842Y0005250D01*
X0033118Y0005250D01*
X0033118Y0006951D01*
X0034317Y0006951D02*
X0034743Y0006951D01*
X0034743Y0005250D01*
X0035168Y0005250D02*
X0034317Y0005250D01*
X0036251Y0005250D02*
X0037101Y0005250D01*
X0036676Y0005250D02*
X0036676Y0007801D01*
X0036251Y0007801D01*
X0034743Y0007801D02*
X0034743Y0008227D01*
X0031417Y0006951D02*
X0031417Y0005675D01*
X0038184Y0005675D02*
X0038184Y0006525D01*
X0038609Y0006951D01*
X0039885Y0006951D01*
X0039885Y0007801D02*
X0039885Y0005250D01*
X0038609Y0005250D01*
X0038184Y0005675D01*
X0041084Y0005675D02*
X0041509Y0005250D01*
X0042785Y0005250D01*
X0042785Y0006951D01*
X0043984Y0006951D02*
X0045260Y0006951D01*
X0045685Y0006525D01*
X0045685Y0005675D01*
X0045260Y0005250D01*
X0043984Y0005250D01*
X0043984Y0007801D01*
X0041084Y0006951D02*
X0041084Y0005675D01*
X0046884Y0005675D02*
X0047310Y0005250D01*
X0048160Y0005250D01*
X0048586Y0005675D01*
X0048586Y0006525D01*
X0048160Y0006951D01*
X0047310Y0006951D01*
X0046884Y0006525D01*
X0046884Y0005675D01*
X0049785Y0005675D02*
X0050210Y0005675D01*
X0050210Y0005250D01*
X0049785Y0005250D01*
X0049785Y0005675D01*
X0051235Y0005675D02*
X0051660Y0005250D01*
X0052936Y0005250D01*
X0054135Y0005675D02*
X0054560Y0005250D01*
X0055411Y0005250D01*
X0055836Y0005675D01*
X0055836Y0006525D01*
X0055411Y0006951D01*
X0054560Y0006951D01*
X0054135Y0006525D01*
X0054135Y0005675D01*
X0052936Y0006951D02*
X0051660Y0006951D01*
X0051235Y0006525D01*
X0051235Y0005675D01*
X0057035Y0005675D02*
X0057460Y0005675D01*
X0057460Y0005250D01*
X0057035Y0005250D01*
X0057035Y0005675D01*
X0058485Y0005675D02*
X0058485Y0006951D01*
X0058485Y0005675D02*
X0058910Y0005250D01*
X0060186Y0005250D01*
X0060186Y0006951D01*
X0061385Y0007801D02*
X0061385Y0005250D01*
X0061385Y0006100D02*
X0062661Y0006951D01*
X0061385Y0006100D02*
X0062661Y0005250D01*
X0106575Y0011974D02*
X0107000Y0011549D01*
X0107426Y0011549D01*
X0107851Y0011974D01*
X0107851Y0014101D01*
X0107426Y0014101D02*
X0108276Y0014101D01*
X0109475Y0014101D02*
X0109475Y0012825D01*
X0110326Y0013250D01*
X0110751Y0013250D01*
X0111176Y0012825D01*
X0111176Y0011974D01*
X0110751Y0011549D01*
X0109901Y0011549D01*
X0109475Y0011974D01*
X0109475Y0014101D02*
X0111176Y0014101D01*
X0131166Y0016217D02*
X0131166Y0010217D01*
X0131168Y0010157D01*
X0131173Y0010096D01*
X0131182Y0010037D01*
X0131195Y0009978D01*
X0131211Y0009919D01*
X0131231Y0009862D01*
X0131254Y0009807D01*
X0131281Y0009752D01*
X0131310Y0009700D01*
X0131343Y0009649D01*
X0131379Y0009600D01*
X0131417Y0009554D01*
X0131459Y0009510D01*
X0131503Y0009468D01*
X0131549Y0009430D01*
X0131598Y0009394D01*
X0131649Y0009361D01*
X0131701Y0009332D01*
X0131756Y0009305D01*
X0131811Y0009282D01*
X0131868Y0009262D01*
X0131927Y0009246D01*
X0131986Y0009233D01*
X0132045Y0009224D01*
X0132106Y0009219D01*
X0132166Y0009217D01*
X0143166Y0009217D01*
X0143226Y0009219D01*
X0143287Y0009224D01*
X0143346Y0009233D01*
X0143405Y0009246D01*
X0143464Y0009262D01*
X0143521Y0009282D01*
X0143576Y0009305D01*
X0143631Y0009332D01*
X0143683Y0009361D01*
X0143734Y0009394D01*
X0143783Y0009430D01*
X0143829Y0009468D01*
X0143873Y0009510D01*
X0143915Y0009554D01*
X0143953Y0009600D01*
X0143989Y0009649D01*
X0144022Y0009700D01*
X0144051Y0009752D01*
X0144078Y0009807D01*
X0144101Y0009862D01*
X0144121Y0009919D01*
X0144137Y0009978D01*
X0144150Y0010037D01*
X0144159Y0010096D01*
X0144164Y0010157D01*
X0144166Y0010217D01*
X0144166Y0016217D01*
X0144164Y0016277D01*
X0144159Y0016338D01*
X0144150Y0016397D01*
X0144137Y0016456D01*
X0144121Y0016515D01*
X0144101Y0016572D01*
X0144078Y0016627D01*
X0144051Y0016682D01*
X0144022Y0016734D01*
X0143989Y0016785D01*
X0143953Y0016834D01*
X0143915Y0016880D01*
X0143873Y0016924D01*
X0143829Y0016966D01*
X0143783Y0017004D01*
X0143734Y0017040D01*
X0143683Y0017073D01*
X0143631Y0017102D01*
X0143576Y0017129D01*
X0143521Y0017152D01*
X0143464Y0017172D01*
X0143405Y0017188D01*
X0143346Y0017201D01*
X0143287Y0017210D01*
X0143226Y0017215D01*
X0143166Y0017217D01*
X0132166Y0017217D01*
X0132106Y0017215D01*
X0132045Y0017210D01*
X0131986Y0017201D01*
X0131927Y0017188D01*
X0131868Y0017172D01*
X0131811Y0017152D01*
X0131756Y0017129D01*
X0131701Y0017102D01*
X0131649Y0017073D01*
X0131598Y0017040D01*
X0131549Y0017004D01*
X0131503Y0016966D01*
X0131459Y0016924D01*
X0131417Y0016880D01*
X0131379Y0016834D01*
X0131343Y0016785D01*
X0131310Y0016734D01*
X0131281Y0016682D01*
X0131254Y0016627D01*
X0131231Y0016572D01*
X0131211Y0016515D01*
X0131195Y0016456D01*
X0131182Y0016397D01*
X0131173Y0016338D01*
X0131168Y0016277D01*
X0131166Y0016217D01*
X0131666Y0013217D02*
X0133666Y0013217D01*
X0132725Y0019816D02*
X0130796Y0019816D01*
X0130796Y0021580D02*
X0132725Y0021580D01*
X0132725Y0026509D02*
X0130796Y0026509D01*
X0130796Y0028272D02*
X0132725Y0028272D01*
X0132725Y0033202D02*
X0130796Y0033202D01*
X0130796Y0034965D02*
X0132725Y0034965D01*
X0132725Y0039894D02*
X0130796Y0039894D01*
X0130796Y0041658D02*
X0132725Y0041658D01*
X0132725Y0046587D02*
X0130796Y0046587D01*
X0130796Y0048351D02*
X0132725Y0048351D01*
X0132725Y0053280D02*
X0130796Y0053280D01*
X0130796Y0055044D02*
X0132725Y0055044D01*
X0141666Y0013217D02*
X0143666Y0013217D01*
X0037245Y0053281D02*
X0036820Y0053706D01*
X0036820Y0055408D01*
X0036395Y0054982D02*
X0037245Y0054982D01*
X0035196Y0054557D02*
X0035196Y0053281D01*
X0035196Y0054557D02*
X0034771Y0054982D01*
X0033920Y0054982D01*
X0033495Y0054557D01*
X0032296Y0054982D02*
X0031020Y0054982D01*
X0030595Y0054557D01*
X0030595Y0053706D01*
X0031020Y0053281D01*
X0032296Y0053281D01*
X0032296Y0052856D02*
X0032296Y0054982D01*
X0033495Y0055833D02*
X0033495Y0053281D01*
X0032296Y0052856D02*
X0031871Y0052431D01*
X0031445Y0052431D01*
X0029512Y0053281D02*
X0028661Y0053281D01*
X0029087Y0053281D02*
X0029087Y0054982D01*
X0028661Y0054982D01*
X0029087Y0055833D02*
X0029087Y0056258D01*
X0025761Y0055833D02*
X0025761Y0053281D01*
X0027462Y0053281D01*
X0020415Y0053706D02*
X0019989Y0053281D01*
X0018713Y0053281D01*
X0018713Y0052431D02*
X0018713Y0054982D01*
X0019989Y0054982D01*
X0020415Y0054557D01*
X0020415Y0053706D01*
X0017515Y0053281D02*
X0017515Y0054557D01*
X0017089Y0054982D01*
X0016664Y0054557D01*
X0016664Y0053281D01*
X0015813Y0053281D02*
X0015813Y0054982D01*
X0016239Y0054982D01*
X0016664Y0054557D01*
X0014614Y0054557D02*
X0014614Y0054132D01*
X0012913Y0054132D01*
X0012913Y0054557D02*
X0013339Y0054982D01*
X0014189Y0054982D01*
X0014614Y0054557D01*
X0014189Y0053281D02*
X0013339Y0053281D01*
X0012913Y0053706D01*
X0012913Y0054557D01*
X0011714Y0055833D02*
X0010013Y0055833D01*
X0010864Y0055833D02*
X0010864Y0053281D01*
X0019068Y0063911D02*
X0020769Y0063911D01*
X0021968Y0063911D02*
X0023670Y0063911D01*
X0024868Y0063911D02*
X0026144Y0063911D01*
X0026570Y0064336D01*
X0026570Y0066038D01*
X0026144Y0066463D01*
X0024868Y0066463D01*
X0024868Y0063911D01*
X0022819Y0065187D02*
X0021968Y0065187D01*
X0021968Y0066463D02*
X0021968Y0063911D01*
X0019068Y0063911D02*
X0019068Y0066463D01*
X0021968Y0066463D02*
X0023670Y0066463D01*
X0021225Y0071702D02*
X0021225Y0073631D01*
X0019461Y0073631D02*
X0019461Y0071702D01*
D14*
X0018081Y0079102D02*
X0018081Y0139330D01*
X0018100Y0139319D02*
X0008094Y0139319D01*
X0008094Y0135358D01*
X0008098Y0135358D01*
X0008092Y0135521D02*
X0008092Y0079102D01*
X0018081Y0079102D01*
X0012492Y0079098D02*
X0028217Y0079098D01*
X0028217Y0139320D01*
X0015836Y0139320D01*
X0036878Y0133690D02*
X0036878Y0149635D01*
X0133729Y0149635D01*
X0133729Y0129556D01*
X0040815Y0129556D01*
X0036878Y0133690D01*
X0063113Y0116513D02*
X0063113Y0113861D01*
X0063113Y0114745D02*
X0064439Y0114745D01*
X0064881Y0115187D01*
X0064881Y0116071D01*
X0064439Y0116513D01*
X0063113Y0116513D01*
X0066013Y0114303D02*
X0066455Y0114745D01*
X0067781Y0114745D01*
X0067781Y0115187D02*
X0067781Y0113861D01*
X0066455Y0113861D01*
X0066013Y0114303D01*
X0066455Y0115629D02*
X0067339Y0115629D01*
X0067781Y0115187D01*
X0068913Y0115629D02*
X0068913Y0114303D01*
X0069355Y0113861D01*
X0070681Y0113861D01*
X0070681Y0113419D02*
X0070239Y0112977D01*
X0069797Y0112977D01*
X0070681Y0113419D02*
X0070681Y0115629D01*
X0071813Y0116513D02*
X0072255Y0116513D01*
X0072255Y0113861D01*
X0071813Y0113861D02*
X0072697Y0113861D01*
X0073746Y0114303D02*
X0073746Y0115187D01*
X0074188Y0115629D01*
X0075072Y0115629D01*
X0075514Y0115187D01*
X0075514Y0114303D01*
X0075072Y0113861D01*
X0074188Y0113861D01*
X0073746Y0114303D01*
X0076647Y0114303D02*
X0077089Y0114745D01*
X0078414Y0114745D01*
X0078414Y0115187D02*
X0078414Y0113861D01*
X0077089Y0113861D01*
X0076647Y0114303D01*
X0077089Y0115629D02*
X0077973Y0115629D01*
X0078414Y0115187D01*
X0079547Y0115187D02*
X0079989Y0115629D01*
X0081315Y0115629D01*
X0081315Y0116513D02*
X0081315Y0113861D01*
X0079989Y0113861D01*
X0079547Y0114303D01*
X0079547Y0115187D01*
X0085347Y0115629D02*
X0085789Y0115629D01*
X0085789Y0113861D01*
X0085347Y0113861D02*
X0086231Y0113861D01*
X0087280Y0113861D02*
X0087280Y0115629D01*
X0088606Y0115629D01*
X0089048Y0115187D01*
X0089048Y0113861D01*
X0090622Y0114303D02*
X0090622Y0116071D01*
X0090180Y0115629D02*
X0091064Y0115629D01*
X0092114Y0115187D02*
X0092114Y0114303D01*
X0092556Y0113861D01*
X0093440Y0113861D01*
X0093882Y0114745D02*
X0092114Y0114745D01*
X0092114Y0115187D02*
X0092556Y0115629D01*
X0093440Y0115629D01*
X0093882Y0115187D01*
X0093882Y0114745D01*
X0095014Y0114745D02*
X0095898Y0115629D01*
X0096340Y0115629D01*
X0097431Y0115187D02*
X0098315Y0115187D01*
X0097873Y0116071D02*
X0098315Y0116513D01*
X0097873Y0116071D02*
X0097873Y0113861D01*
X0099364Y0114303D02*
X0099806Y0114745D01*
X0101132Y0114745D01*
X0101132Y0115187D02*
X0101132Y0113861D01*
X0099806Y0113861D01*
X0099364Y0114303D01*
X0099806Y0115629D02*
X0100690Y0115629D01*
X0101132Y0115187D01*
X0102264Y0115187D02*
X0102264Y0114303D01*
X0102706Y0113861D01*
X0104032Y0113861D01*
X0105164Y0114303D02*
X0105164Y0115187D01*
X0105606Y0115629D01*
X0106490Y0115629D01*
X0106932Y0115187D01*
X0106932Y0114745D01*
X0105164Y0114745D01*
X0105164Y0114303D02*
X0105606Y0113861D01*
X0106490Y0113861D01*
X0104032Y0115629D02*
X0102706Y0115629D01*
X0102264Y0115187D01*
X0095014Y0115629D02*
X0095014Y0113861D01*
X0091064Y0113861D02*
X0090622Y0114303D01*
X0085789Y0116513D02*
X0085789Y0116955D01*
X0142740Y0135752D02*
X0142744Y0135752D01*
X0142744Y0050988D01*
X0142745Y0051756D02*
X0142745Y0049711D01*
X0152745Y0049711D01*
X0152745Y0139713D01*
X0142740Y0139713D01*
X0142740Y0135752D01*
X0142745Y0139713D02*
X0152745Y0139713D01*
X0152745Y0049713D01*
X0142745Y0049713D01*
X0142745Y0139713D01*
X0152745Y0139713D02*
X0162745Y0139713D01*
X0162745Y0049713D01*
X0152745Y0049713D01*
X0152745Y0139713D01*
X0104871Y0025432D02*
X0066091Y0025432D01*
X0066091Y0007715D01*
X0104871Y0007715D01*
X0104871Y0025432D01*
X0136417Y0015955D02*
X0136665Y0013217D01*
X0136665Y0013217D01*
X0136417Y0010479D01*
X0136416Y0010478D01*
X0136313Y0010490D01*
X0136209Y0010505D01*
X0136107Y0010524D01*
X0136005Y0010548D01*
X0135904Y0010575D01*
X0135805Y0010605D01*
X0135706Y0010640D01*
X0135609Y0010678D01*
X0135514Y0010720D01*
X0135420Y0010766D01*
X0135328Y0010815D01*
X0135237Y0010867D01*
X0135149Y0010923D01*
X0135063Y0010982D01*
X0134980Y0011045D01*
X0134899Y0011110D01*
X0134820Y0011179D01*
X0134744Y0011250D01*
X0134671Y0011325D01*
X0134600Y0011402D01*
X0134533Y0011481D01*
X0134469Y0011564D01*
X0134407Y0011648D01*
X0134350Y0011735D01*
X0134295Y0011824D01*
X0134244Y0011915D01*
X0134196Y0012008D01*
X0134152Y0012102D01*
X0134112Y0012198D01*
X0134075Y0012296D01*
X0134042Y0012395D01*
X0134012Y0012495D01*
X0133987Y0012596D01*
X0133965Y0012698D01*
X0133948Y0012801D01*
X0133934Y0012905D01*
X0133924Y0013008D01*
X0133918Y0013113D01*
X0133916Y0013217D01*
X0133918Y0013321D01*
X0133924Y0013426D01*
X0133934Y0013529D01*
X0133948Y0013633D01*
X0133965Y0013736D01*
X0133987Y0013838D01*
X0134012Y0013939D01*
X0134042Y0014039D01*
X0134075Y0014138D01*
X0134112Y0014236D01*
X0134152Y0014332D01*
X0134196Y0014426D01*
X0134244Y0014519D01*
X0134295Y0014610D01*
X0134350Y0014699D01*
X0134407Y0014786D01*
X0134469Y0014870D01*
X0134533Y0014953D01*
X0134600Y0015032D01*
X0134671Y0015109D01*
X0134744Y0015184D01*
X0134820Y0015255D01*
X0134899Y0015324D01*
X0134980Y0015389D01*
X0135063Y0015452D01*
X0135149Y0015511D01*
X0135237Y0015567D01*
X0135328Y0015619D01*
X0135420Y0015668D01*
X0135514Y0015714D01*
X0135609Y0015756D01*
X0135706Y0015794D01*
X0135805Y0015829D01*
X0135904Y0015859D01*
X0136005Y0015886D01*
X0136107Y0015910D01*
X0136209Y0015929D01*
X0136313Y0015944D01*
X0136416Y0015956D01*
X0136417Y0015479D01*
X0136322Y0015467D01*
X0136229Y0015451D01*
X0136136Y0015430D01*
X0136044Y0015406D01*
X0135953Y0015378D01*
X0135864Y0015347D01*
X0135775Y0015312D01*
X0135689Y0015273D01*
X0135604Y0015230D01*
X0135521Y0015184D01*
X0135440Y0015134D01*
X0135361Y0015082D01*
X0135284Y0015025D01*
X0135210Y0014966D01*
X0135138Y0014904D01*
X0135069Y0014839D01*
X0135003Y0014771D01*
X0134939Y0014700D01*
X0134879Y0014627D01*
X0134822Y0014551D01*
X0134768Y0014473D01*
X0134717Y0014392D01*
X0134670Y0014310D01*
X0134626Y0014226D01*
X0134585Y0014140D01*
X0134549Y0014052D01*
X0134516Y0013963D01*
X0134486Y0013873D01*
X0134461Y0013781D01*
X0134439Y0013689D01*
X0134422Y0013595D01*
X0134408Y0013501D01*
X0134398Y0013407D01*
X0134392Y0013312D01*
X0134390Y0013217D01*
X0134392Y0013122D01*
X0134398Y0013027D01*
X0134408Y0012933D01*
X0134422Y0012839D01*
X0134439Y0012745D01*
X0134461Y0012653D01*
X0134486Y0012561D01*
X0134516Y0012471D01*
X0134549Y0012382D01*
X0134585Y0012294D01*
X0134626Y0012208D01*
X0134670Y0012124D01*
X0134717Y0012042D01*
X0134768Y0011961D01*
X0134822Y0011883D01*
X0134879Y0011807D01*
X0134939Y0011734D01*
X0135003Y0011663D01*
X0135069Y0011595D01*
X0135138Y0011530D01*
X0135210Y0011468D01*
X0135284Y0011409D01*
X0135361Y0011352D01*
X0135440Y0011300D01*
X0135521Y0011250D01*
X0135604Y0011204D01*
X0135689Y0011161D01*
X0135775Y0011122D01*
X0135864Y0011087D01*
X0135953Y0011056D01*
X0136044Y0011028D01*
X0136136Y0011004D01*
X0136229Y0010983D01*
X0136322Y0010967D01*
X0136417Y0010955D01*
X0136417Y0011432D01*
X0136335Y0011446D01*
X0136253Y0011463D01*
X0136173Y0011484D01*
X0136093Y0011508D01*
X0136015Y0011537D01*
X0135938Y0011569D01*
X0135863Y0011604D01*
X0135789Y0011643D01*
X0135717Y0011685D01*
X0135647Y0011730D01*
X0135580Y0011779D01*
X0135515Y0011831D01*
X0135452Y0011885D01*
X0135392Y0011943D01*
X0135334Y0012003D01*
X0135280Y0012066D01*
X0135228Y0012131D01*
X0135179Y0012199D01*
X0135134Y0012268D01*
X0135092Y0012340D01*
X0135053Y0012414D01*
X0135018Y0012489D01*
X0134986Y0012566D01*
X0134957Y0012644D01*
X0134933Y0012724D01*
X0134912Y0012804D01*
X0134895Y0012886D01*
X0134881Y0012968D01*
X0134872Y0013051D01*
X0134866Y0013134D01*
X0134864Y0013217D01*
X0134866Y0013300D01*
X0134872Y0013383D01*
X0134881Y0013466D01*
X0134895Y0013548D01*
X0134912Y0013630D01*
X0134933Y0013710D01*
X0134957Y0013790D01*
X0134986Y0013868D01*
X0135018Y0013945D01*
X0135053Y0014020D01*
X0135092Y0014094D01*
X0135134Y0014166D01*
X0135179Y0014235D01*
X0135228Y0014303D01*
X0135280Y0014368D01*
X0135334Y0014431D01*
X0135392Y0014491D01*
X0135452Y0014549D01*
X0135515Y0014603D01*
X0135580Y0014655D01*
X0135647Y0014704D01*
X0135717Y0014749D01*
X0135789Y0014791D01*
X0135863Y0014830D01*
X0135938Y0014865D01*
X0136015Y0014897D01*
X0136093Y0014926D01*
X0136173Y0014950D01*
X0136253Y0014971D01*
X0136335Y0014988D01*
X0136417Y0015002D01*
X0136417Y0014522D01*
X0136347Y0014506D01*
X0136278Y0014487D01*
X0136210Y0014464D01*
X0136143Y0014438D01*
X0136077Y0014407D01*
X0136014Y0014374D01*
X0135952Y0014337D01*
X0135892Y0014296D01*
X0135835Y0014253D01*
X0135780Y0014206D01*
X0135728Y0014157D01*
X0135678Y0014105D01*
X0135631Y0014050D01*
X0135588Y0013992D01*
X0135547Y0013933D01*
X0135510Y0013871D01*
X0135477Y0013808D01*
X0135446Y0013742D01*
X0135420Y0013675D01*
X0135397Y0013607D01*
X0135377Y0013538D01*
X0135362Y0013467D01*
X0135350Y0013396D01*
X0135342Y0013325D01*
X0135338Y0013253D01*
X0135338Y0013181D01*
X0135342Y0013109D01*
X0135350Y0013038D01*
X0135362Y0012967D01*
X0135377Y0012896D01*
X0135397Y0012827D01*
X0135420Y0012759D01*
X0135446Y0012692D01*
X0135477Y0012626D01*
X0135510Y0012563D01*
X0135547Y0012501D01*
X0135588Y0012442D01*
X0135631Y0012384D01*
X0135678Y0012329D01*
X0135728Y0012277D01*
X0135780Y0012228D01*
X0135835Y0012181D01*
X0135892Y0012138D01*
X0135952Y0012097D01*
X0136014Y0012060D01*
X0136077Y0012027D01*
X0136143Y0011996D01*
X0136210Y0011970D01*
X0136278Y0011947D01*
X0136347Y0011928D01*
X0136417Y0011912D01*
X0136420Y0012399D01*
X0136365Y0012418D01*
X0136312Y0012440D01*
X0136261Y0012465D01*
X0136211Y0012494D01*
X0136164Y0012526D01*
X0136118Y0012562D01*
X0136075Y0012600D01*
X0136035Y0012641D01*
X0135998Y0012685D01*
X0135964Y0012731D01*
X0135933Y0012779D01*
X0135905Y0012830D01*
X0135881Y0012882D01*
X0135860Y0012935D01*
X0135843Y0012990D01*
X0135829Y0013046D01*
X0135820Y0013102D01*
X0135814Y0013160D01*
X0135812Y0013217D01*
X0135814Y0013274D01*
X0135820Y0013332D01*
X0135829Y0013388D01*
X0135843Y0013444D01*
X0135860Y0013499D01*
X0135881Y0013552D01*
X0135905Y0013604D01*
X0135933Y0013655D01*
X0135964Y0013703D01*
X0135998Y0013749D01*
X0136035Y0013793D01*
X0136075Y0013834D01*
X0136118Y0013872D01*
X0136164Y0013908D01*
X0136211Y0013940D01*
X0136261Y0013969D01*
X0136312Y0013994D01*
X0136365Y0014016D01*
X0136420Y0014035D01*
X0136434Y0013518D01*
X0136406Y0013494D01*
X0136380Y0013468D01*
X0136358Y0013439D01*
X0136338Y0013409D01*
X0136321Y0013376D01*
X0136307Y0013342D01*
X0136297Y0013307D01*
X0136290Y0013272D01*
X0136286Y0013235D01*
X0136286Y0013199D01*
X0136290Y0013162D01*
X0136297Y0013127D01*
X0136307Y0013092D01*
X0136321Y0013058D01*
X0136338Y0013025D01*
X0136358Y0012995D01*
X0136380Y0012966D01*
X0136406Y0012940D01*
X0136434Y0012916D01*
X0138915Y0010479D02*
X0138667Y0013217D01*
X0138667Y0013217D01*
X0138915Y0015955D01*
X0138916Y0015956D01*
X0139019Y0015944D01*
X0139123Y0015929D01*
X0139225Y0015910D01*
X0139327Y0015886D01*
X0139428Y0015859D01*
X0139527Y0015829D01*
X0139626Y0015794D01*
X0139723Y0015756D01*
X0139818Y0015714D01*
X0139912Y0015668D01*
X0140004Y0015619D01*
X0140095Y0015567D01*
X0140183Y0015511D01*
X0140269Y0015452D01*
X0140352Y0015389D01*
X0140433Y0015324D01*
X0140512Y0015255D01*
X0140588Y0015184D01*
X0140661Y0015109D01*
X0140732Y0015032D01*
X0140799Y0014953D01*
X0140863Y0014870D01*
X0140925Y0014786D01*
X0140982Y0014699D01*
X0141037Y0014610D01*
X0141088Y0014519D01*
X0141136Y0014426D01*
X0141180Y0014332D01*
X0141220Y0014236D01*
X0141257Y0014138D01*
X0141290Y0014039D01*
X0141320Y0013939D01*
X0141345Y0013838D01*
X0141367Y0013736D01*
X0141384Y0013633D01*
X0141398Y0013529D01*
X0141408Y0013426D01*
X0141414Y0013321D01*
X0141416Y0013217D01*
X0141414Y0013113D01*
X0141408Y0013008D01*
X0141398Y0012905D01*
X0141384Y0012801D01*
X0141367Y0012698D01*
X0141345Y0012596D01*
X0141320Y0012495D01*
X0141290Y0012395D01*
X0141257Y0012296D01*
X0141220Y0012198D01*
X0141180Y0012102D01*
X0141136Y0012008D01*
X0141088Y0011915D01*
X0141037Y0011824D01*
X0140982Y0011735D01*
X0140925Y0011648D01*
X0140863Y0011564D01*
X0140799Y0011481D01*
X0140732Y0011402D01*
X0140661Y0011325D01*
X0140588Y0011250D01*
X0140512Y0011179D01*
X0140433Y0011110D01*
X0140352Y0011045D01*
X0140269Y0010982D01*
X0140183Y0010923D01*
X0140095Y0010867D01*
X0140004Y0010815D01*
X0139912Y0010766D01*
X0139818Y0010720D01*
X0139723Y0010678D01*
X0139626Y0010640D01*
X0139527Y0010605D01*
X0139428Y0010575D01*
X0139327Y0010548D01*
X0139225Y0010524D01*
X0139123Y0010505D01*
X0139019Y0010490D01*
X0138916Y0010478D01*
X0138915Y0010955D01*
X0139010Y0010967D01*
X0139103Y0010983D01*
X0139196Y0011004D01*
X0139288Y0011028D01*
X0139379Y0011056D01*
X0139468Y0011087D01*
X0139557Y0011122D01*
X0139643Y0011161D01*
X0139728Y0011204D01*
X0139811Y0011250D01*
X0139892Y0011300D01*
X0139971Y0011352D01*
X0140048Y0011409D01*
X0140122Y0011468D01*
X0140194Y0011530D01*
X0140263Y0011595D01*
X0140329Y0011663D01*
X0140393Y0011734D01*
X0140453Y0011807D01*
X0140510Y0011883D01*
X0140564Y0011961D01*
X0140615Y0012042D01*
X0140662Y0012124D01*
X0140706Y0012208D01*
X0140747Y0012294D01*
X0140783Y0012382D01*
X0140816Y0012471D01*
X0140846Y0012561D01*
X0140871Y0012653D01*
X0140893Y0012745D01*
X0140910Y0012839D01*
X0140924Y0012933D01*
X0140934Y0013027D01*
X0140940Y0013122D01*
X0140942Y0013217D01*
X0140940Y0013312D01*
X0140934Y0013407D01*
X0140924Y0013501D01*
X0140910Y0013595D01*
X0140893Y0013689D01*
X0140871Y0013781D01*
X0140846Y0013873D01*
X0140816Y0013963D01*
X0140783Y0014052D01*
X0140747Y0014140D01*
X0140706Y0014226D01*
X0140662Y0014310D01*
X0140615Y0014392D01*
X0140564Y0014473D01*
X0140510Y0014551D01*
X0140453Y0014627D01*
X0140393Y0014700D01*
X0140329Y0014771D01*
X0140263Y0014839D01*
X0140194Y0014904D01*
X0140122Y0014966D01*
X0140048Y0015025D01*
X0139971Y0015082D01*
X0139892Y0015134D01*
X0139811Y0015184D01*
X0139728Y0015230D01*
X0139643Y0015273D01*
X0139557Y0015312D01*
X0139468Y0015347D01*
X0139379Y0015378D01*
X0139288Y0015406D01*
X0139196Y0015430D01*
X0139103Y0015451D01*
X0139010Y0015467D01*
X0138915Y0015479D01*
X0138915Y0015002D01*
X0138997Y0014988D01*
X0139079Y0014971D01*
X0139159Y0014950D01*
X0139239Y0014926D01*
X0139317Y0014897D01*
X0139394Y0014865D01*
X0139469Y0014830D01*
X0139543Y0014791D01*
X0139615Y0014749D01*
X0139685Y0014704D01*
X0139752Y0014655D01*
X0139817Y0014603D01*
X0139880Y0014549D01*
X0139940Y0014491D01*
X0139998Y0014431D01*
X0140052Y0014368D01*
X0140104Y0014303D01*
X0140153Y0014235D01*
X0140198Y0014166D01*
X0140240Y0014094D01*
X0140279Y0014020D01*
X0140314Y0013945D01*
X0140346Y0013868D01*
X0140375Y0013790D01*
X0140399Y0013710D01*
X0140420Y0013630D01*
X0140437Y0013548D01*
X0140451Y0013466D01*
X0140460Y0013383D01*
X0140466Y0013300D01*
X0140468Y0013217D01*
X0140466Y0013134D01*
X0140460Y0013051D01*
X0140451Y0012968D01*
X0140437Y0012886D01*
X0140420Y0012804D01*
X0140399Y0012724D01*
X0140375Y0012644D01*
X0140346Y0012566D01*
X0140314Y0012489D01*
X0140279Y0012414D01*
X0140240Y0012340D01*
X0140198Y0012268D01*
X0140153Y0012199D01*
X0140104Y0012131D01*
X0140052Y0012066D01*
X0139998Y0012003D01*
X0139940Y0011943D01*
X0139880Y0011885D01*
X0139817Y0011831D01*
X0139752Y0011779D01*
X0139685Y0011730D01*
X0139615Y0011685D01*
X0139543Y0011643D01*
X0139469Y0011604D01*
X0139394Y0011569D01*
X0139317Y0011537D01*
X0139239Y0011508D01*
X0139159Y0011484D01*
X0139079Y0011463D01*
X0138997Y0011446D01*
X0138915Y0011432D01*
X0138915Y0011912D01*
X0138985Y0011928D01*
X0139054Y0011947D01*
X0139122Y0011970D01*
X0139189Y0011996D01*
X0139255Y0012027D01*
X0139318Y0012060D01*
X0139380Y0012097D01*
X0139440Y0012138D01*
X0139497Y0012181D01*
X0139552Y0012228D01*
X0139604Y0012277D01*
X0139654Y0012329D01*
X0139701Y0012384D01*
X0139744Y0012442D01*
X0139785Y0012501D01*
X0139822Y0012563D01*
X0139855Y0012626D01*
X0139886Y0012692D01*
X0139912Y0012759D01*
X0139935Y0012827D01*
X0139955Y0012896D01*
X0139970Y0012967D01*
X0139982Y0013038D01*
X0139990Y0013109D01*
X0139994Y0013181D01*
X0139994Y0013253D01*
X0139990Y0013325D01*
X0139982Y0013396D01*
X0139970Y0013467D01*
X0139955Y0013538D01*
X0139935Y0013607D01*
X0139912Y0013675D01*
X0139886Y0013742D01*
X0139855Y0013808D01*
X0139822Y0013871D01*
X0139785Y0013933D01*
X0139744Y0013992D01*
X0139701Y0014050D01*
X0139654Y0014105D01*
X0139604Y0014157D01*
X0139552Y0014206D01*
X0139497Y0014253D01*
X0139440Y0014296D01*
X0139380Y0014337D01*
X0139318Y0014374D01*
X0139255Y0014407D01*
X0139189Y0014438D01*
X0139122Y0014464D01*
X0139054Y0014487D01*
X0138985Y0014506D01*
X0138915Y0014522D01*
X0138912Y0014035D01*
X0138967Y0014016D01*
X0139020Y0013994D01*
X0139071Y0013969D01*
X0139121Y0013940D01*
X0139168Y0013908D01*
X0139214Y0013872D01*
X0139257Y0013834D01*
X0139297Y0013793D01*
X0139334Y0013749D01*
X0139368Y0013703D01*
X0139399Y0013655D01*
X0139427Y0013604D01*
X0139451Y0013552D01*
X0139472Y0013499D01*
X0139489Y0013444D01*
X0139503Y0013388D01*
X0139512Y0013332D01*
X0139518Y0013274D01*
X0139520Y0013217D01*
X0139518Y0013160D01*
X0139512Y0013102D01*
X0139503Y0013046D01*
X0139489Y0012990D01*
X0139472Y0012935D01*
X0139451Y0012882D01*
X0139427Y0012830D01*
X0139399Y0012779D01*
X0139368Y0012731D01*
X0139334Y0012685D01*
X0139297Y0012641D01*
X0139257Y0012600D01*
X0139214Y0012562D01*
X0139168Y0012526D01*
X0139121Y0012494D01*
X0139071Y0012465D01*
X0139020Y0012440D01*
X0138967Y0012418D01*
X0138912Y0012399D01*
X0138898Y0012916D01*
X0138926Y0012940D01*
X0138952Y0012966D01*
X0138974Y0012995D01*
X0138994Y0013025D01*
X0139011Y0013058D01*
X0139025Y0013092D01*
X0139035Y0013127D01*
X0139042Y0013162D01*
X0139046Y0013199D01*
X0139046Y0013235D01*
X0139042Y0013272D01*
X0139035Y0013307D01*
X0139025Y0013342D01*
X0139011Y0013376D01*
X0138994Y0013409D01*
X0138974Y0013439D01*
X0138952Y0013468D01*
X0138926Y0013494D01*
X0138898Y0013518D01*
D15*
X0147657Y0029677D02*
X0147657Y0030709D01*
X0148001Y0031053D01*
X0148689Y0031053D01*
X0149033Y0030709D01*
X0149033Y0029677D01*
X0149033Y0030709D01*
X0148689Y0031053D01*
X0148001Y0031053D01*
X0147657Y0030709D01*
X0147657Y0029677D01*
X0149721Y0029677D01*
X0147657Y0029677D01*
X0147657Y0031852D02*
X0149721Y0031852D01*
X0149033Y0032540D01*
X0149721Y0033228D01*
X0147657Y0033228D01*
X0149721Y0033228D01*
X0149033Y0032540D01*
X0149721Y0031852D01*
X0147657Y0031852D01*
X0147657Y0034027D02*
X0147657Y0035059D01*
X0148001Y0035403D01*
X0148689Y0035403D01*
X0149033Y0035059D01*
X0149033Y0034027D01*
X0149033Y0035059D01*
X0148689Y0035403D01*
X0148001Y0035403D01*
X0147657Y0035059D01*
X0147657Y0034027D01*
X0149721Y0034027D01*
X0147657Y0034027D01*
X0149033Y0034715D02*
X0149721Y0035403D01*
X0149033Y0034715D01*
X0155924Y0034271D02*
X0155924Y0033583D01*
X0156268Y0033239D01*
X0156268Y0032440D02*
X0156612Y0032440D01*
X0156956Y0032096D01*
X0156956Y0031064D01*
X0155924Y0031064D02*
X0155924Y0032096D01*
X0156268Y0032440D01*
X0156956Y0032096D02*
X0157300Y0032440D01*
X0157644Y0032440D01*
X0157988Y0032096D01*
X0157988Y0031064D01*
X0155924Y0031064D01*
X0157988Y0033239D02*
X0156612Y0034615D01*
X0156268Y0034615D01*
X0155924Y0034271D01*
X0157988Y0034615D02*
X0157988Y0033239D01*
X0157300Y0041694D02*
X0155924Y0041694D01*
X0155924Y0043070D02*
X0157300Y0043070D01*
X0157988Y0042382D01*
X0157300Y0041694D01*
X0157988Y0043869D02*
X0156612Y0045245D01*
X0156268Y0045245D01*
X0155924Y0044901D01*
X0155924Y0044213D01*
X0156268Y0043869D01*
X0157988Y0043869D02*
X0157988Y0045245D01*
X0150114Y0044901D02*
X0150114Y0044213D01*
X0149770Y0043869D01*
X0149426Y0043070D02*
X0148050Y0043070D01*
X0148394Y0043869D02*
X0148050Y0044213D01*
X0148050Y0044901D01*
X0148394Y0045245D01*
X0148738Y0045245D01*
X0149082Y0044901D01*
X0149426Y0045245D01*
X0149770Y0045245D01*
X0150114Y0044901D01*
X0149082Y0044901D02*
X0149082Y0044557D01*
X0149426Y0043070D02*
X0150114Y0042382D01*
X0149426Y0041694D01*
X0148050Y0041694D01*
X0141453Y0042382D02*
X0140765Y0043070D01*
X0139389Y0043070D01*
X0140077Y0043869D02*
X0139389Y0044557D01*
X0141453Y0044557D01*
X0141453Y0043869D02*
X0141453Y0045245D01*
X0141453Y0042382D02*
X0140765Y0041694D01*
X0139389Y0041694D01*
X0141453Y0034615D02*
X0141453Y0033239D01*
X0141453Y0033927D02*
X0139389Y0033927D01*
X0140077Y0033239D01*
X0140077Y0032440D02*
X0140421Y0032096D01*
X0140421Y0031064D01*
X0141453Y0031064D02*
X0139389Y0031064D01*
X0139389Y0032096D01*
X0139733Y0032440D01*
X0140077Y0032440D01*
X0140421Y0032096D02*
X0140765Y0032440D01*
X0141109Y0032440D01*
X0141453Y0032096D01*
X0141453Y0031064D01*
D16*
X0010501Y0043139D02*
X0010501Y0047863D01*
D17*
X0027674Y0049406D02*
X0027674Y0042320D01*
X0034760Y0042320D01*
X0034760Y0049406D01*
X0027674Y0049406D01*
D18*
X0028633Y0047487D03*
D19*
X0028633Y0045322D03*
D20*
X0035833Y0050479D03*
D21*
X0085225Y0024438D03*
D22*
X0017950Y0042932D02*
X0017150Y0042932D01*
X0017150Y0042232D01*
X0016150Y0042232D01*
X0016150Y0042932D01*
X0017150Y0042932D01*
X0017950Y0042932D02*
X0017950Y0048132D01*
X0017150Y0048132D01*
X0017150Y0048832D01*
X0016150Y0048832D01*
X0016150Y0048132D01*
X0015150Y0048132D01*
X0015150Y0048832D01*
X0014150Y0048832D01*
X0014150Y0048132D01*
X0013150Y0048132D01*
X0013150Y0048832D01*
X0012150Y0048832D01*
X0012150Y0048132D01*
X0013150Y0048132D01*
X0012150Y0048132D02*
X0011350Y0048132D01*
X0011350Y0046732D01*
X0011350Y0044332D01*
X0011350Y0042932D01*
X0012150Y0042932D01*
X0012150Y0042232D01*
X0013150Y0042232D01*
X0013150Y0042932D01*
X0014150Y0042932D01*
X0014150Y0042232D01*
X0015150Y0042232D01*
X0015150Y0042932D01*
X0016150Y0042932D01*
X0015150Y0042932D02*
X0014150Y0042932D01*
X0013150Y0042932D02*
X0012150Y0042932D01*
X0011350Y0044332D02*
X0011419Y0044334D01*
X0011487Y0044340D01*
X0011555Y0044350D01*
X0011622Y0044363D01*
X0011688Y0044381D01*
X0011753Y0044402D01*
X0011817Y0044427D01*
X0011879Y0044455D01*
X0011940Y0044487D01*
X0011999Y0044522D01*
X0012055Y0044561D01*
X0012110Y0044603D01*
X0012161Y0044648D01*
X0012211Y0044696D01*
X0012257Y0044746D01*
X0012300Y0044799D01*
X0012341Y0044855D01*
X0012378Y0044912D01*
X0012411Y0044972D01*
X0012442Y0045034D01*
X0012468Y0045097D01*
X0012491Y0045161D01*
X0012511Y0045227D01*
X0012526Y0045294D01*
X0012538Y0045361D01*
X0012546Y0045429D01*
X0012550Y0045498D01*
X0012550Y0045566D01*
X0012546Y0045635D01*
X0012538Y0045703D01*
X0012526Y0045770D01*
X0012511Y0045837D01*
X0012491Y0045903D01*
X0012468Y0045967D01*
X0012442Y0046030D01*
X0012411Y0046092D01*
X0012378Y0046152D01*
X0012341Y0046209D01*
X0012300Y0046265D01*
X0012257Y0046318D01*
X0012211Y0046368D01*
X0012161Y0046416D01*
X0012110Y0046461D01*
X0012055Y0046503D01*
X0011999Y0046542D01*
X0011940Y0046577D01*
X0011879Y0046609D01*
X0011817Y0046637D01*
X0011753Y0046662D01*
X0011688Y0046683D01*
X0011622Y0046701D01*
X0011555Y0046714D01*
X0011487Y0046724D01*
X0011419Y0046730D01*
X0011350Y0046732D01*
X0014150Y0048132D02*
X0015150Y0048132D01*
X0016150Y0048132D02*
X0017150Y0048132D01*
D23*
X0013375Y0084477D03*
X0023375Y0084477D03*
X0023375Y0094477D03*
X0023375Y0104477D03*
X0023375Y0114477D03*
X0023375Y0124477D03*
X0023375Y0134477D03*
X0013375Y0134477D03*
X0013375Y0124477D03*
X0013375Y0114477D03*
X0013375Y0104477D03*
X0013375Y0094477D03*
X0147745Y0094713D03*
X0157745Y0094713D03*
X0157745Y0104713D03*
X0147745Y0104713D03*
X0147745Y0114713D03*
X0157745Y0114713D03*
X0157745Y0124713D03*
X0147745Y0124713D03*
X0147745Y0134713D03*
X0157745Y0134713D03*
X0157745Y0084713D03*
X0147745Y0084713D03*
X0147745Y0074713D03*
X0157745Y0074713D03*
X0157745Y0064713D03*
X0147745Y0064713D03*
X0147745Y0054713D03*
X0157745Y0054713D03*
D24*
X0033886Y0030288D03*
X0033319Y0030619D03*
X0032752Y0030288D03*
X0030863Y0030288D03*
X0030438Y0030713D03*
X0029351Y0030288D03*
X0028312Y0030288D03*
X0028312Y0028965D03*
X0025052Y0030619D03*
X0024532Y0030713D03*
X0024532Y0030288D03*
X0024532Y0029391D03*
X0022123Y0030619D03*
X0021603Y0030288D03*
D25*
X0020256Y0030666D03*
X0023327Y0029627D03*
X0026256Y0029627D03*
X0029375Y0028965D03*
X0031784Y0030052D03*
X0036745Y0030052D03*
D26*
X0036721Y0030099D03*
X0036343Y0030099D03*
X0035918Y0030005D03*
X0035918Y0029957D03*
X0035918Y0029910D03*
X0035918Y0029863D03*
X0035918Y0029816D03*
X0035918Y0029769D03*
X0035918Y0029721D03*
X0035918Y0029674D03*
X0035918Y0029627D03*
X0035918Y0029580D03*
X0035918Y0029532D03*
X0035918Y0029485D03*
X0035918Y0029438D03*
X0035918Y0029391D03*
X0036296Y0029580D03*
X0036768Y0029580D03*
X0036768Y0029627D03*
X0035304Y0029438D03*
X0034926Y0029721D03*
X0034926Y0029769D03*
X0034926Y0029910D03*
X0034595Y0029343D03*
X0034264Y0029721D03*
X0034264Y0029769D03*
X0034264Y0029816D03*
X0034264Y0029863D03*
X0034264Y0029910D03*
X0033886Y0029910D03*
X0033886Y0029863D03*
X0033886Y0029816D03*
X0033886Y0029769D03*
X0033886Y0029721D03*
X0033886Y0029674D03*
X0033886Y0029627D03*
X0033886Y0029580D03*
X0033886Y0029532D03*
X0033886Y0029485D03*
X0033886Y0029438D03*
X0033886Y0029957D03*
X0033886Y0030005D03*
X0033886Y0030052D03*
X0033886Y0030099D03*
X0033886Y0030146D03*
X0033886Y0030194D03*
X0033886Y0030241D03*
X0033886Y0030477D03*
X0033886Y0030666D03*
X0033319Y0030572D03*
X0033319Y0030524D03*
X0033319Y0030477D03*
X0033319Y0030430D03*
X0033319Y0030383D03*
X0033319Y0030335D03*
X0033319Y0030052D03*
X0033319Y0030005D03*
X0033319Y0029957D03*
X0033319Y0029910D03*
X0033319Y0029863D03*
X0033319Y0029816D03*
X0033319Y0029769D03*
X0033319Y0029721D03*
X0033319Y0029674D03*
X0033319Y0029627D03*
X0033319Y0029580D03*
X0033319Y0029532D03*
X0033319Y0029485D03*
X0033319Y0029438D03*
X0032752Y0029721D03*
X0032752Y0029769D03*
X0032752Y0029816D03*
X0032752Y0029863D03*
X0032752Y0029910D03*
X0032752Y0029957D03*
X0032091Y0029910D03*
X0032091Y0029863D03*
X0032091Y0029816D03*
X0032091Y0029769D03*
X0032091Y0029721D03*
X0031760Y0029580D03*
X0031571Y0029343D03*
X0031241Y0029721D03*
X0031241Y0029769D03*
X0031241Y0029910D03*
X0030863Y0030241D03*
X0030863Y0030477D03*
X0030438Y0030477D03*
X0030438Y0030430D03*
X0030438Y0030383D03*
X0030438Y0030335D03*
X0030438Y0030288D03*
X0030438Y0030241D03*
X0030438Y0030194D03*
X0030438Y0030146D03*
X0030438Y0030099D03*
X0030438Y0030052D03*
X0030438Y0030005D03*
X0030438Y0029957D03*
X0030438Y0029910D03*
X0030438Y0029863D03*
X0030438Y0029816D03*
X0030438Y0029769D03*
X0030438Y0029721D03*
X0030438Y0029674D03*
X0030438Y0029627D03*
X0030438Y0029580D03*
X0030438Y0029532D03*
X0030438Y0029485D03*
X0030438Y0029438D03*
X0030863Y0029438D03*
X0030438Y0030524D03*
X0030438Y0030572D03*
X0030438Y0030619D03*
X0030438Y0030666D03*
X0028973Y0029957D03*
X0028973Y0029721D03*
X0028689Y0029343D03*
X0028312Y0029343D03*
X0028312Y0029296D03*
X0028312Y0029249D03*
X0028312Y0029202D03*
X0028312Y0029154D03*
X0028312Y0029107D03*
X0028312Y0029060D03*
X0028312Y0029013D03*
X0028312Y0029769D03*
X0028312Y0029816D03*
X0028312Y0029863D03*
X0028312Y0029910D03*
X0028312Y0030241D03*
X0027745Y0030146D03*
X0027745Y0030099D03*
X0027792Y0029957D03*
X0027697Y0030241D03*
X0027697Y0030288D03*
X0027367Y0030288D03*
X0027367Y0030241D03*
X0027319Y0030146D03*
X0027272Y0030005D03*
X0027083Y0029438D03*
X0027083Y0029391D03*
X0026233Y0029957D03*
X0026233Y0030005D03*
X0025052Y0030005D03*
X0025052Y0029957D03*
X0025052Y0029910D03*
X0025052Y0029863D03*
X0025052Y0029816D03*
X0025052Y0029769D03*
X0025052Y0029721D03*
X0025052Y0029674D03*
X0025052Y0029627D03*
X0025052Y0029580D03*
X0025052Y0029532D03*
X0025052Y0029485D03*
X0025052Y0029438D03*
X0024532Y0029438D03*
X0024532Y0029485D03*
X0024532Y0029532D03*
X0024532Y0029580D03*
X0024532Y0029627D03*
X0024532Y0029674D03*
X0024532Y0029721D03*
X0024532Y0029769D03*
X0024532Y0029816D03*
X0024532Y0029863D03*
X0024532Y0029910D03*
X0024532Y0029957D03*
X0024532Y0030005D03*
X0024532Y0030052D03*
X0024532Y0030099D03*
X0024532Y0030146D03*
X0024532Y0030194D03*
X0024532Y0030241D03*
X0024532Y0030477D03*
X0024532Y0030666D03*
X0024107Y0030666D03*
X0024107Y0030619D03*
X0024107Y0030572D03*
X0024107Y0030524D03*
X0024107Y0030477D03*
X0024107Y0030430D03*
X0024107Y0030383D03*
X0024107Y0030335D03*
X0024107Y0030288D03*
X0024107Y0030241D03*
X0024107Y0030194D03*
X0024107Y0030146D03*
X0024107Y0030099D03*
X0024107Y0030052D03*
X0024107Y0030005D03*
X0024107Y0029957D03*
X0024107Y0029910D03*
X0024107Y0029863D03*
X0024107Y0029816D03*
X0024107Y0029769D03*
X0024107Y0029721D03*
X0024107Y0029674D03*
X0024107Y0029627D03*
X0024107Y0029580D03*
X0024107Y0029532D03*
X0024107Y0029485D03*
X0024107Y0029438D03*
X0023304Y0029957D03*
X0023304Y0030005D03*
X0022123Y0030005D03*
X0022123Y0029957D03*
X0022123Y0029910D03*
X0022123Y0029863D03*
X0022123Y0029816D03*
X0022123Y0029769D03*
X0022123Y0029721D03*
X0022123Y0029674D03*
X0022123Y0029627D03*
X0022123Y0029580D03*
X0022123Y0029532D03*
X0022123Y0029485D03*
X0022123Y0029438D03*
X0021603Y0029769D03*
X0021603Y0029816D03*
X0021603Y0029863D03*
X0021603Y0030241D03*
X0022123Y0030335D03*
X0022123Y0030383D03*
X0022123Y0030430D03*
X0022123Y0030477D03*
X0022123Y0030524D03*
X0022123Y0030572D03*
X0020941Y0029957D03*
X0020941Y0029674D03*
X0021225Y0029343D03*
X0020469Y0030383D03*
X0019949Y0029627D03*
X0025052Y0030335D03*
X0025052Y0030383D03*
X0025052Y0030430D03*
X0025052Y0030477D03*
X0025052Y0030524D03*
X0025052Y0030572D03*
X0027508Y0030619D03*
X0015130Y0031611D03*
X0011634Y0032698D03*
D27*
X0021579Y0029391D03*
X0022146Y0029391D03*
X0023705Y0029391D03*
X0024130Y0029391D03*
X0025075Y0029391D03*
X0024130Y0030713D03*
X0023705Y0030713D03*
X0027957Y0029391D03*
X0029375Y0029013D03*
X0029752Y0029343D03*
X0030414Y0029391D03*
X0030839Y0029391D03*
X0030839Y0030713D03*
X0032398Y0029343D03*
X0032776Y0029391D03*
X0033296Y0029391D03*
X0033910Y0029391D03*
X0033910Y0030713D03*
X0035327Y0030288D03*
X0035327Y0029391D03*
D28*
X0035327Y0029485D03*
X0035327Y0029532D03*
X0035327Y0029580D03*
X0035327Y0029627D03*
X0035327Y0029674D03*
X0035327Y0029721D03*
X0035327Y0029769D03*
X0035327Y0029816D03*
X0035327Y0029863D03*
X0035327Y0029910D03*
X0035327Y0029957D03*
X0035327Y0030005D03*
X0035327Y0030052D03*
X0034949Y0029863D03*
X0034949Y0029816D03*
X0034902Y0029957D03*
X0034902Y0030005D03*
X0034902Y0029674D03*
X0034288Y0029674D03*
X0034288Y0029957D03*
X0034288Y0030005D03*
X0033910Y0030524D03*
X0032729Y0030005D03*
X0032729Y0029674D03*
X0032729Y0029627D03*
X0032115Y0029674D03*
X0032115Y0029957D03*
X0032115Y0030005D03*
X0032162Y0030052D03*
X0031264Y0030005D03*
X0031264Y0029957D03*
X0031217Y0029863D03*
X0031217Y0029816D03*
X0031264Y0029674D03*
X0030839Y0029674D03*
X0030839Y0029627D03*
X0030839Y0029580D03*
X0030839Y0029532D03*
X0030839Y0029485D03*
X0030839Y0029721D03*
X0030839Y0029769D03*
X0030839Y0029816D03*
X0030839Y0029863D03*
X0030839Y0029910D03*
X0030839Y0029957D03*
X0030839Y0030005D03*
X0030839Y0030052D03*
X0030839Y0030099D03*
X0030839Y0030146D03*
X0030839Y0030194D03*
X0030839Y0030524D03*
X0030839Y0030666D03*
X0030036Y0030005D03*
X0030036Y0029957D03*
X0030036Y0029910D03*
X0030036Y0029863D03*
X0030036Y0029816D03*
X0030036Y0029769D03*
X0030036Y0029721D03*
X0030036Y0029674D03*
X0029989Y0029627D03*
X0029989Y0030052D03*
X0029375Y0029957D03*
X0029375Y0029910D03*
X0029375Y0029863D03*
X0029375Y0029816D03*
X0029375Y0029769D03*
X0029375Y0029721D03*
X0029375Y0029391D03*
X0029375Y0029343D03*
X0029375Y0029296D03*
X0029375Y0029249D03*
X0029375Y0029202D03*
X0029375Y0029154D03*
X0029375Y0029107D03*
X0029375Y0029060D03*
X0028949Y0029674D03*
X0028997Y0029769D03*
X0028997Y0029816D03*
X0028997Y0029863D03*
X0028997Y0029910D03*
X0028949Y0030005D03*
X0028335Y0030005D03*
X0028335Y0029957D03*
X0028335Y0029721D03*
X0028335Y0029674D03*
X0027957Y0029532D03*
X0027957Y0029485D03*
X0027957Y0029438D03*
X0027910Y0029580D03*
X0027815Y0029863D03*
X0027815Y0029910D03*
X0027768Y0030005D03*
X0027768Y0030052D03*
X0027721Y0030194D03*
X0027343Y0030194D03*
X0027296Y0030099D03*
X0027296Y0030052D03*
X0027249Y0029957D03*
X0027249Y0029910D03*
X0027249Y0029863D03*
X0027107Y0029580D03*
X0027107Y0029532D03*
X0027107Y0029485D03*
X0026209Y0029580D03*
X0025926Y0029343D03*
X0025595Y0029674D03*
X0025595Y0029721D03*
X0025595Y0029957D03*
X0025595Y0030005D03*
X0025642Y0030052D03*
X0026162Y0030099D03*
X0026209Y0030052D03*
X0025075Y0030052D03*
X0024556Y0030524D03*
X0023705Y0030524D03*
X0023705Y0030477D03*
X0023705Y0030430D03*
X0023705Y0030383D03*
X0023705Y0030335D03*
X0023705Y0030288D03*
X0023705Y0030241D03*
X0023705Y0030194D03*
X0023705Y0030146D03*
X0023705Y0030099D03*
X0023705Y0030052D03*
X0023705Y0030005D03*
X0023705Y0029957D03*
X0023705Y0029910D03*
X0023705Y0029863D03*
X0023705Y0029816D03*
X0023705Y0029769D03*
X0023705Y0029721D03*
X0023705Y0029674D03*
X0023705Y0029627D03*
X0023705Y0029580D03*
X0023705Y0029532D03*
X0023705Y0029485D03*
X0023705Y0029438D03*
X0023280Y0029580D03*
X0022997Y0029343D03*
X0022666Y0029674D03*
X0022666Y0029721D03*
X0022666Y0029957D03*
X0022666Y0030005D03*
X0022713Y0030052D03*
X0023233Y0030099D03*
X0023280Y0030052D03*
X0023705Y0030572D03*
X0023705Y0030619D03*
X0023705Y0030666D03*
X0022146Y0030052D03*
X0021579Y0030005D03*
X0021579Y0029957D03*
X0021579Y0029910D03*
X0021579Y0029721D03*
X0021579Y0029674D03*
X0020965Y0029627D03*
X0020918Y0029721D03*
X0020918Y0029769D03*
X0020918Y0029816D03*
X0020918Y0029863D03*
X0020918Y0029910D03*
X0020965Y0030005D03*
X0020540Y0029769D03*
X0020540Y0029721D03*
X0020540Y0029674D03*
X0020209Y0029343D03*
X0019973Y0030335D03*
X0016524Y0031611D03*
X0012697Y0031611D03*
X0019642Y0036430D03*
X0035894Y0030052D03*
X0036319Y0030052D03*
X0036319Y0030005D03*
X0036367Y0029957D03*
X0036745Y0029674D03*
X0036508Y0029343D03*
D29*
X0036532Y0029438D03*
X0036579Y0030194D03*
X0034595Y0029438D03*
X0031571Y0029438D03*
X0025099Y0030099D03*
X0022170Y0030099D03*
X0020327Y0029957D03*
X0020138Y0030099D03*
X0020186Y0029391D03*
X0015130Y0031658D03*
X0013902Y0035391D03*
X0011634Y0033926D03*
D30*
X0010855Y0031564D03*
X0021012Y0029580D03*
X0021201Y0029391D03*
X0021532Y0029580D03*
X0022997Y0030288D03*
X0025926Y0030288D03*
X0027532Y0030524D03*
X0028382Y0029580D03*
X0028902Y0029580D03*
X0029422Y0030052D03*
X0029752Y0030288D03*
X0029752Y0029391D03*
X0032682Y0029580D03*
X0035705Y0030288D03*
X0036556Y0030288D03*
X0036697Y0029721D03*
D31*
X0036579Y0029816D03*
X0036579Y0030241D03*
X0034595Y0030241D03*
X0031571Y0029391D03*
X0028548Y0031564D03*
X0027508Y0030335D03*
X0025949Y0029391D03*
X0023020Y0029391D03*
X0020375Y0029910D03*
X0011634Y0033879D03*
X0026894Y0037469D03*
D32*
X0022689Y0031658D03*
X0023020Y0029438D03*
X0020186Y0029438D03*
X0020233Y0030477D03*
X0020233Y0030524D03*
X0025949Y0029438D03*
X0028548Y0029391D03*
X0029634Y0030241D03*
X0031524Y0030146D03*
X0031524Y0030099D03*
X0031524Y0029532D03*
X0032516Y0030241D03*
X0034595Y0030194D03*
X0034595Y0029485D03*
X0036532Y0029532D03*
D33*
X0036627Y0029769D03*
X0036438Y0029910D03*
X0036012Y0031611D03*
X0034595Y0030288D03*
X0032375Y0029391D03*
X0031571Y0030288D03*
X0029445Y0029580D03*
X0027508Y0030477D03*
X0020469Y0029863D03*
X0030201Y0037847D03*
D34*
X0027532Y0030430D03*
X0027532Y0030383D03*
X0028713Y0030241D03*
X0034619Y0029391D03*
X0036508Y0029391D03*
X0036508Y0029863D03*
X0021201Y0030241D03*
X0020256Y0030619D03*
X0020067Y0030146D03*
X0011611Y0032650D03*
D35*
X0012697Y0031706D03*
X0015107Y0031706D03*
X0020209Y0030430D03*
X0021343Y0029438D03*
X0022997Y0030146D03*
X0025926Y0030146D03*
X0028571Y0029438D03*
X0032493Y0029438D03*
X0030225Y0037800D03*
D36*
X0026894Y0037422D03*
X0019666Y0036383D03*
X0018060Y0031706D03*
X0020186Y0029485D03*
X0021319Y0029485D03*
X0021319Y0030194D03*
X0023020Y0029532D03*
X0023020Y0029485D03*
X0025949Y0029485D03*
X0025949Y0029532D03*
X0028595Y0029485D03*
X0028595Y0030194D03*
X0029634Y0030194D03*
X0029634Y0029438D03*
X0032469Y0029485D03*
X0032469Y0029532D03*
X0032469Y0030146D03*
X0032469Y0030194D03*
X0034595Y0030146D03*
X0034595Y0030099D03*
X0034595Y0029532D03*
X0035587Y0030194D03*
X0035587Y0030241D03*
X0036012Y0031658D03*
X0013430Y0034493D03*
X0011587Y0034020D03*
X0011587Y0032509D03*
D37*
X0010855Y0031611D03*
X0012697Y0031753D03*
X0012697Y0031800D03*
X0015107Y0031753D03*
X0016524Y0031706D03*
X0014398Y0034446D03*
X0014351Y0034540D03*
X0013453Y0034540D03*
X0013406Y0034446D03*
X0013406Y0034398D03*
X0013406Y0034351D03*
X0013359Y0034304D03*
X0013359Y0034257D03*
X0013359Y0034209D03*
X0013312Y0034115D03*
X0013312Y0034068D03*
X0013264Y0033926D03*
X0013926Y0035343D03*
X0010902Y0034871D03*
X0020209Y0029580D03*
X0020209Y0029532D03*
X0021296Y0029532D03*
X0021296Y0030099D03*
X0021296Y0030146D03*
X0028619Y0030146D03*
X0028619Y0030099D03*
X0028619Y0029532D03*
X0029658Y0029532D03*
X0029658Y0029485D03*
X0029658Y0030146D03*
X0032445Y0030099D03*
X0035611Y0030146D03*
X0032209Y0038131D03*
D38*
X0031548Y0030194D03*
X0031548Y0029485D03*
X0033343Y0030146D03*
X0033343Y0030194D03*
X0033343Y0030241D03*
X0036556Y0030146D03*
X0036508Y0029485D03*
X0025926Y0030194D03*
X0025075Y0030194D03*
X0025075Y0030241D03*
X0025075Y0030146D03*
X0022997Y0030194D03*
X0022146Y0030194D03*
X0022146Y0030241D03*
X0022146Y0030146D03*
X0021107Y0031658D03*
X0020256Y0030572D03*
X0020209Y0030052D03*
X0020256Y0030005D03*
X0018083Y0031658D03*
X0016524Y0031658D03*
X0011611Y0032556D03*
X0011611Y0033973D03*
D39*
X0011634Y0033831D03*
X0010878Y0034918D03*
X0018060Y0031611D03*
X0019997Y0030383D03*
X0019949Y0030288D03*
X0019949Y0030241D03*
X0019997Y0030194D03*
X0020516Y0029816D03*
X0020516Y0029627D03*
X0020989Y0030052D03*
X0021225Y0030288D03*
X0021556Y0030052D03*
X0021556Y0029627D03*
X0022689Y0029627D03*
X0022737Y0029580D03*
X0022737Y0030099D03*
X0022689Y0031611D03*
X0021130Y0031611D03*
X0024532Y0030619D03*
X0024532Y0030572D03*
X0025666Y0030099D03*
X0025619Y0029627D03*
X0025666Y0029580D03*
X0027508Y0030572D03*
X0028359Y0030052D03*
X0028689Y0030288D03*
X0028926Y0030052D03*
X0028926Y0029627D03*
X0029398Y0029627D03*
X0029398Y0029674D03*
X0029398Y0030005D03*
X0029965Y0029580D03*
X0031288Y0029627D03*
X0031335Y0029580D03*
X0031288Y0030052D03*
X0030863Y0030572D03*
X0030863Y0030619D03*
X0032375Y0030288D03*
X0032705Y0030052D03*
X0032186Y0029580D03*
X0032138Y0029627D03*
X0033886Y0030572D03*
X0033886Y0030619D03*
X0034312Y0030052D03*
X0034312Y0029627D03*
X0034359Y0029580D03*
X0034831Y0029580D03*
X0034878Y0029627D03*
X0034878Y0030052D03*
X0035351Y0030099D03*
X0035871Y0030099D03*
X0028359Y0029627D03*
D40*
X0027532Y0029627D03*
X0027532Y0029674D03*
X0022666Y0031753D03*
X0018934Y0034918D03*
X0018981Y0035060D03*
X0019028Y0035202D03*
X0019028Y0035249D03*
X0019075Y0035296D03*
X0019075Y0035343D03*
X0019642Y0036335D03*
X0018083Y0031800D03*
X0016524Y0031847D03*
X0015107Y0031894D03*
X0015107Y0031942D03*
X0015107Y0031989D03*
X0012792Y0032225D03*
X0012792Y0032272D03*
X0012745Y0032083D03*
X0012745Y0032036D03*
X0009910Y0032650D03*
X0009910Y0033831D03*
X0009957Y0033926D03*
X0032209Y0038083D03*
D41*
X0030863Y0030430D03*
X0033886Y0030430D03*
X0036296Y0029627D03*
X0027508Y0030666D03*
X0024532Y0030430D03*
X0019099Y0032556D03*
D42*
X0018060Y0031753D03*
X0016501Y0031800D03*
X0015130Y0031847D03*
X0014752Y0033217D03*
X0014752Y0033265D03*
X0014752Y0033312D03*
X0014658Y0033595D03*
X0013902Y0035296D03*
X0011540Y0034068D03*
X0009934Y0033879D03*
X0009886Y0033784D03*
X0009839Y0033690D03*
X0009839Y0032792D03*
X0009839Y0032745D03*
X0009886Y0032698D03*
X0012721Y0031989D03*
X0012721Y0031942D03*
X0012721Y0031894D03*
X0021130Y0031753D03*
X0027508Y0029721D03*
X0026894Y0037375D03*
X0036012Y0031706D03*
D43*
X0029682Y0030099D03*
X0025902Y0029910D03*
X0025902Y0029816D03*
X0025902Y0029769D03*
X0022973Y0029769D03*
X0022973Y0029816D03*
X0022973Y0029910D03*
X0022689Y0031706D03*
X0021130Y0031706D03*
X0014564Y0033926D03*
X0014516Y0034020D03*
X0014516Y0034068D03*
X0014469Y0034162D03*
X0014469Y0034209D03*
X0014469Y0034257D03*
X0014422Y0034304D03*
X0014422Y0034351D03*
X0014422Y0034398D03*
X0014375Y0034493D03*
X0013335Y0034162D03*
X0013288Y0034020D03*
X0013288Y0033973D03*
X0013241Y0033879D03*
X0013241Y0033831D03*
X0013241Y0033784D03*
X0013193Y0033737D03*
X0013193Y0033690D03*
X0013193Y0033643D03*
X0013146Y0033548D03*
X0013146Y0033501D03*
X0013099Y0033359D03*
X0011540Y0032461D03*
X0009792Y0032981D03*
X0009792Y0033028D03*
X0009792Y0033454D03*
X0009792Y0033501D03*
D44*
X0009815Y0033548D03*
X0009815Y0033595D03*
X0009815Y0033643D03*
X0009863Y0033737D03*
X0009768Y0033406D03*
X0009768Y0033359D03*
X0009768Y0033312D03*
X0009768Y0033265D03*
X0009768Y0033217D03*
X0009768Y0033170D03*
X0009768Y0033123D03*
X0009768Y0033076D03*
X0009815Y0032934D03*
X0009815Y0032887D03*
X0009815Y0032839D03*
X0012697Y0031847D03*
X0013075Y0033217D03*
X0013075Y0033265D03*
X0013075Y0033312D03*
X0013123Y0033406D03*
X0013123Y0033454D03*
X0013170Y0033595D03*
X0014540Y0033973D03*
X0014587Y0033879D03*
X0014587Y0033831D03*
X0014587Y0033784D03*
X0014634Y0033737D03*
X0014634Y0033690D03*
X0014634Y0033643D03*
X0014682Y0033548D03*
X0014682Y0033501D03*
X0014682Y0033454D03*
X0014729Y0033406D03*
X0014729Y0033359D03*
X0014493Y0034115D03*
X0015107Y0031800D03*
X0016524Y0031753D03*
X0022997Y0029863D03*
X0025926Y0029863D03*
X0027532Y0029816D03*
X0027532Y0029769D03*
X0030225Y0037753D03*
D45*
X0032209Y0038178D03*
X0031595Y0030241D03*
X0033343Y0030288D03*
X0033343Y0030099D03*
X0025926Y0030241D03*
X0025075Y0030288D03*
X0022997Y0030241D03*
X0022146Y0030288D03*
X0012697Y0031658D03*
X0011611Y0032603D03*
D46*
X0013926Y0035060D03*
X0013926Y0035107D03*
X0018225Y0032509D03*
X0018178Y0032414D03*
X0018178Y0032367D03*
X0018130Y0032272D03*
X0018130Y0032225D03*
X0018130Y0032178D03*
X0021107Y0032083D03*
X0021107Y0032036D03*
X0021107Y0031989D03*
X0022666Y0031989D03*
X0019642Y0036241D03*
X0028571Y0031611D03*
X0030225Y0037564D03*
X0032209Y0037942D03*
D47*
X0035989Y0031753D03*
X0022666Y0031800D03*
X0021107Y0031847D03*
X0020398Y0034682D03*
X0020351Y0034824D03*
X0020351Y0034871D03*
X0020304Y0034965D03*
X0020304Y0035013D03*
X0020304Y0035060D03*
X0020256Y0035107D03*
X0020256Y0035154D03*
X0020256Y0035202D03*
X0020209Y0035296D03*
X0020209Y0035343D03*
X0018886Y0034776D03*
X0018839Y0034635D03*
X0018792Y0034493D03*
X0018792Y0034446D03*
X0018745Y0034398D03*
X0018745Y0034351D03*
X0018745Y0034304D03*
X0018697Y0034257D03*
X0018697Y0034209D03*
X0018697Y0034162D03*
X0018697Y0034115D03*
X0018650Y0034020D03*
X0018603Y0033879D03*
X0016524Y0033879D03*
X0016524Y0033926D03*
X0016524Y0033973D03*
X0016524Y0034020D03*
X0016524Y0034068D03*
X0016524Y0034115D03*
X0016524Y0034162D03*
X0016524Y0034209D03*
X0016524Y0034257D03*
X0016524Y0034304D03*
X0016524Y0034351D03*
X0016524Y0034398D03*
X0016524Y0034446D03*
X0016524Y0034493D03*
X0016524Y0034540D03*
X0016524Y0034587D03*
X0016524Y0034635D03*
X0016524Y0034682D03*
X0016524Y0033831D03*
X0016524Y0033784D03*
X0016524Y0033737D03*
X0016524Y0033690D03*
X0016524Y0033643D03*
X0016524Y0033595D03*
X0016524Y0033548D03*
X0016524Y0033501D03*
X0016524Y0033454D03*
X0016524Y0033406D03*
X0016524Y0033359D03*
X0016524Y0033312D03*
X0016524Y0033265D03*
X0016524Y0033217D03*
X0016524Y0033170D03*
X0016524Y0033123D03*
X0016524Y0033076D03*
X0016524Y0033028D03*
X0016524Y0032981D03*
X0016524Y0032934D03*
X0016524Y0032887D03*
X0016524Y0032839D03*
X0016524Y0032792D03*
X0016524Y0032745D03*
X0016524Y0032698D03*
X0016524Y0032650D03*
X0016524Y0032603D03*
X0016524Y0032556D03*
X0016524Y0032509D03*
X0016524Y0032461D03*
X0016524Y0032414D03*
X0016524Y0032367D03*
X0016524Y0032320D03*
X0016524Y0032272D03*
X0016524Y0032225D03*
X0016524Y0032178D03*
X0016524Y0032131D03*
X0016524Y0032083D03*
X0016524Y0032036D03*
X0016524Y0031989D03*
X0016524Y0031942D03*
X0018083Y0031894D03*
X0010855Y0031658D03*
X0010004Y0032509D03*
X0010052Y0034020D03*
X0010902Y0034824D03*
D48*
X0010902Y0034682D03*
X0010855Y0031800D03*
X0013926Y0034635D03*
X0019642Y0035957D03*
X0023233Y0036855D03*
X0024886Y0035721D03*
X0024886Y0034304D03*
X0027201Y0032981D03*
X0028571Y0031658D03*
X0029941Y0032981D03*
X0036036Y0032367D03*
D49*
X0033130Y0031658D03*
X0023398Y0036761D03*
X0010831Y0034304D03*
X0010831Y0032178D03*
X0010831Y0032131D03*
D50*
X0010831Y0031706D03*
X0010926Y0034776D03*
X0018154Y0032320D03*
X0018201Y0032461D03*
X0018249Y0032556D03*
X0020989Y0032509D03*
X0020989Y0032461D03*
X0021036Y0032414D03*
X0021036Y0032367D03*
X0021036Y0032320D03*
X0021036Y0032272D03*
X0021083Y0032225D03*
X0021083Y0032178D03*
X0021083Y0032131D03*
X0022689Y0032131D03*
X0022689Y0032178D03*
X0022689Y0032083D03*
X0022689Y0032036D03*
X0022642Y0034257D03*
X0022642Y0034304D03*
X0022642Y0034351D03*
X0022642Y0034398D03*
X0022642Y0034446D03*
X0022642Y0034493D03*
X0022642Y0034540D03*
X0022642Y0034587D03*
X0022642Y0034635D03*
X0022642Y0034682D03*
X0022642Y0034729D03*
X0022642Y0034776D03*
X0022642Y0034824D03*
X0022642Y0034871D03*
X0022642Y0034918D03*
X0022642Y0034965D03*
X0022642Y0035013D03*
X0022642Y0035060D03*
X0022642Y0035107D03*
X0022642Y0035154D03*
X0022642Y0035202D03*
X0022642Y0035249D03*
X0022642Y0035296D03*
X0022642Y0035343D03*
X0022642Y0035391D03*
X0022642Y0035438D03*
X0022642Y0035485D03*
X0022642Y0035532D03*
X0022642Y0035580D03*
X0022642Y0035627D03*
X0022642Y0035674D03*
X0022642Y0035721D03*
X0022642Y0035769D03*
X0025146Y0035202D03*
X0025146Y0035154D03*
X0025146Y0034871D03*
X0025146Y0034824D03*
X0025146Y0034776D03*
X0026894Y0037091D03*
X0026894Y0037139D03*
X0030201Y0037517D03*
X0036012Y0031847D03*
X0019666Y0036194D03*
D51*
X0019666Y0035580D03*
X0028548Y0031706D03*
D52*
X0033154Y0031706D03*
X0023469Y0036666D03*
X0013926Y0033170D03*
X0013926Y0033123D03*
X0013926Y0033076D03*
D53*
X0013902Y0034824D03*
X0010831Y0031753D03*
X0019666Y0036099D03*
X0025004Y0035627D03*
X0025004Y0034398D03*
X0026989Y0033359D03*
X0027036Y0033265D03*
X0027036Y0033217D03*
X0030060Y0033217D03*
X0030060Y0033170D03*
X0030107Y0033265D03*
X0030107Y0033312D03*
X0032233Y0037658D03*
X0036012Y0032036D03*
X0036012Y0031989D03*
D54*
X0028571Y0031753D03*
D55*
X0033130Y0031753D03*
X0023398Y0033312D03*
X0023540Y0036619D03*
X0016501Y0035627D03*
D56*
X0013902Y0035249D03*
X0012815Y0032320D03*
X0012768Y0032178D03*
X0012768Y0032131D03*
X0015036Y0032225D03*
X0015036Y0032272D03*
X0015036Y0032320D03*
X0015083Y0032178D03*
X0015083Y0032131D03*
X0015083Y0032083D03*
X0015083Y0032036D03*
X0016501Y0031894D03*
X0018060Y0031847D03*
X0018815Y0034540D03*
X0018815Y0034587D03*
X0018863Y0034682D03*
X0018863Y0034729D03*
X0018910Y0034824D03*
X0018910Y0034871D03*
X0018957Y0034965D03*
X0018957Y0035013D03*
X0019004Y0035107D03*
X0019004Y0035154D03*
X0020233Y0035249D03*
X0021130Y0031800D03*
X0026894Y0037328D03*
X0030201Y0037706D03*
X0009981Y0033973D03*
X0009934Y0032603D03*
X0009981Y0032556D03*
D57*
X0010808Y0032272D03*
X0010808Y0032225D03*
X0010855Y0034257D03*
X0028571Y0031800D03*
D58*
X0028548Y0031942D03*
X0033130Y0031800D03*
X0016501Y0034918D03*
D59*
X0018107Y0032131D03*
X0018107Y0032083D03*
X0020658Y0033737D03*
X0022689Y0031942D03*
X0022689Y0031894D03*
X0026894Y0037186D03*
X0026894Y0037233D03*
X0030201Y0037611D03*
X0036012Y0031800D03*
X0010123Y0034068D03*
D60*
X0010878Y0034635D03*
X0010831Y0031847D03*
X0019666Y0035816D03*
X0024815Y0035769D03*
X0024815Y0034257D03*
X0027272Y0032887D03*
X0029823Y0032887D03*
D61*
X0030201Y0037658D03*
X0032233Y0038036D03*
X0026894Y0037280D03*
X0020422Y0034635D03*
X0020422Y0034587D03*
X0020422Y0034540D03*
X0020469Y0034493D03*
X0020469Y0034446D03*
X0020469Y0034398D03*
X0020469Y0034351D03*
X0020516Y0034257D03*
X0020516Y0034209D03*
X0020564Y0034068D03*
X0020375Y0034729D03*
X0020375Y0034776D03*
X0020327Y0034918D03*
X0019666Y0036288D03*
X0018674Y0034068D03*
X0018627Y0033973D03*
X0018627Y0033926D03*
X0018579Y0033831D03*
X0018579Y0033784D03*
X0018579Y0033737D03*
X0018532Y0033690D03*
X0018532Y0033643D03*
X0013902Y0035202D03*
X0010075Y0032461D03*
X0022689Y0031847D03*
D62*
X0028571Y0031847D03*
D63*
X0028548Y0031989D03*
X0033130Y0031847D03*
X0023587Y0036524D03*
X0016501Y0035438D03*
X0016501Y0035391D03*
X0016501Y0035060D03*
X0016501Y0035013D03*
X0013902Y0032650D03*
D64*
X0010831Y0031894D03*
X0019666Y0035674D03*
X0019666Y0035721D03*
D65*
X0020493Y0034304D03*
X0020540Y0034162D03*
X0020540Y0034115D03*
X0020587Y0034020D03*
X0020587Y0033973D03*
X0020587Y0033926D03*
X0020634Y0033879D03*
X0020634Y0033831D03*
X0020634Y0033784D03*
X0020682Y0033690D03*
X0020682Y0033643D03*
X0021107Y0031942D03*
X0021107Y0031894D03*
X0018083Y0031942D03*
X0018083Y0031989D03*
X0018083Y0032036D03*
X0013926Y0035154D03*
X0032209Y0037989D03*
D66*
X0028548Y0031894D03*
X0023351Y0033265D03*
X0016501Y0035674D03*
D67*
X0013902Y0032509D03*
X0023587Y0036477D03*
X0032989Y0032981D03*
X0033130Y0031894D03*
D68*
X0035989Y0031894D03*
X0032209Y0037847D03*
X0032209Y0037894D03*
X0030225Y0037469D03*
X0030225Y0037422D03*
X0030225Y0037375D03*
X0026918Y0037044D03*
X0025123Y0035391D03*
X0025123Y0035343D03*
X0025123Y0035296D03*
X0025123Y0035249D03*
X0025170Y0035107D03*
X0025170Y0035060D03*
X0025170Y0035013D03*
X0025170Y0034965D03*
X0025170Y0034918D03*
X0025123Y0034729D03*
X0025123Y0034682D03*
X0025123Y0034635D03*
X0022666Y0033123D03*
X0022666Y0033076D03*
X0022666Y0033028D03*
X0022666Y0032981D03*
X0022666Y0032934D03*
X0022666Y0032887D03*
X0022666Y0032839D03*
X0022666Y0032792D03*
X0022666Y0032745D03*
X0022666Y0032698D03*
X0022666Y0032650D03*
X0022666Y0032603D03*
X0022666Y0032556D03*
X0022666Y0032509D03*
X0022666Y0032461D03*
X0022666Y0032414D03*
X0022666Y0032367D03*
X0022666Y0032320D03*
X0022666Y0032272D03*
X0022666Y0032225D03*
X0020965Y0032556D03*
X0013926Y0034965D03*
X0013926Y0035013D03*
D69*
X0010902Y0034540D03*
X0010855Y0031942D03*
X0019642Y0035485D03*
X0019642Y0035532D03*
D70*
X0023634Y0036430D03*
X0023587Y0033501D03*
X0033036Y0032887D03*
X0033130Y0031989D03*
X0033130Y0031942D03*
D71*
X0036012Y0031942D03*
X0030201Y0033690D03*
X0030201Y0033737D03*
X0030201Y0033784D03*
X0030201Y0033831D03*
X0030201Y0033879D03*
X0030201Y0033926D03*
X0030201Y0033973D03*
X0030201Y0034020D03*
X0030201Y0034068D03*
X0030201Y0034115D03*
X0030201Y0034162D03*
X0030201Y0034209D03*
X0030201Y0034257D03*
X0030201Y0034304D03*
X0030201Y0034351D03*
X0030201Y0034398D03*
X0030201Y0034446D03*
X0030201Y0034493D03*
X0030201Y0034540D03*
X0030201Y0034587D03*
X0030201Y0034635D03*
X0030201Y0034682D03*
X0030201Y0034729D03*
X0030201Y0034776D03*
X0030201Y0034824D03*
X0030201Y0034871D03*
X0030201Y0034918D03*
X0030201Y0034965D03*
X0030201Y0035013D03*
X0030201Y0035060D03*
X0030201Y0035107D03*
X0030201Y0035154D03*
X0030201Y0035202D03*
X0030201Y0035249D03*
X0030201Y0035296D03*
X0030201Y0035343D03*
X0030201Y0035391D03*
X0030201Y0035438D03*
X0030201Y0035485D03*
X0030201Y0035532D03*
X0030201Y0035580D03*
X0030201Y0035627D03*
X0030201Y0035674D03*
X0030201Y0035721D03*
X0030201Y0035769D03*
X0030201Y0035816D03*
X0030201Y0035863D03*
X0030201Y0035910D03*
X0030201Y0035957D03*
X0030201Y0036005D03*
X0030201Y0036052D03*
X0030201Y0036099D03*
X0030201Y0036146D03*
X0030201Y0036194D03*
X0030201Y0036241D03*
X0030201Y0036288D03*
X0030201Y0036335D03*
X0030201Y0036383D03*
X0030201Y0036430D03*
X0030201Y0036477D03*
X0030201Y0036524D03*
X0030201Y0036572D03*
X0030201Y0036619D03*
X0030201Y0036666D03*
X0030201Y0036713D03*
X0030201Y0036761D03*
X0030201Y0036808D03*
X0030201Y0036855D03*
X0030201Y0036902D03*
X0030201Y0036950D03*
X0030201Y0036997D03*
X0030201Y0037091D03*
X0030201Y0037139D03*
X0030201Y0037186D03*
X0030201Y0037233D03*
X0030201Y0037280D03*
X0030201Y0037328D03*
X0026894Y0036997D03*
X0026894Y0036950D03*
X0026894Y0036902D03*
X0026894Y0036855D03*
X0026894Y0036808D03*
X0026894Y0036761D03*
X0026894Y0036713D03*
X0026894Y0036666D03*
X0026894Y0036619D03*
X0026894Y0036572D03*
X0026894Y0036524D03*
X0026894Y0036477D03*
X0026894Y0036430D03*
X0026894Y0036383D03*
X0026894Y0036335D03*
X0026894Y0036288D03*
X0026894Y0036241D03*
X0026894Y0036194D03*
X0026894Y0036146D03*
X0026894Y0036099D03*
X0026894Y0036052D03*
X0026894Y0036005D03*
X0026894Y0035957D03*
X0026894Y0035910D03*
X0026894Y0035863D03*
X0026894Y0035816D03*
X0026894Y0035769D03*
X0026894Y0035721D03*
X0026894Y0035674D03*
X0026894Y0035627D03*
X0026894Y0035580D03*
X0026894Y0035532D03*
X0026894Y0035485D03*
X0026894Y0035438D03*
X0026894Y0035391D03*
X0026894Y0035343D03*
X0026894Y0035296D03*
X0026894Y0035249D03*
X0026894Y0035202D03*
X0026894Y0035154D03*
X0026894Y0035107D03*
X0026894Y0035060D03*
X0026894Y0035013D03*
X0026894Y0034965D03*
X0026894Y0034918D03*
X0026894Y0034871D03*
X0026894Y0034824D03*
X0026894Y0034776D03*
X0026894Y0034729D03*
X0026894Y0034682D03*
X0026894Y0034635D03*
X0026894Y0034587D03*
X0026894Y0034540D03*
X0026894Y0034493D03*
X0026894Y0034446D03*
X0026894Y0034398D03*
X0026894Y0034351D03*
X0026894Y0034304D03*
X0026894Y0034257D03*
X0026894Y0034209D03*
X0026894Y0034162D03*
X0026894Y0034115D03*
X0026894Y0034068D03*
X0026894Y0034020D03*
X0026894Y0033973D03*
X0026894Y0033926D03*
X0026894Y0033879D03*
X0026894Y0033831D03*
X0026941Y0033643D03*
X0026941Y0033595D03*
X0026941Y0033548D03*
X0025099Y0034540D03*
X0025099Y0034587D03*
X0025099Y0035438D03*
X0025052Y0035532D03*
X0019666Y0036146D03*
X0013902Y0034918D03*
D72*
X0010902Y0034493D03*
X0010855Y0031989D03*
X0019642Y0035391D03*
D73*
X0010878Y0034446D03*
X0010831Y0032036D03*
D74*
X0013926Y0032367D03*
X0013926Y0032414D03*
X0013926Y0032461D03*
X0023564Y0033454D03*
X0028571Y0032036D03*
X0033012Y0032934D03*
D75*
X0033060Y0032839D03*
X0033107Y0032036D03*
X0028571Y0032083D03*
X0023611Y0033548D03*
X0023658Y0036383D03*
D76*
X0010878Y0034398D03*
X0010831Y0032083D03*
D77*
X0023634Y0033595D03*
X0023682Y0036335D03*
X0033083Y0032792D03*
X0033083Y0032745D03*
X0033083Y0032698D03*
X0033130Y0032178D03*
X0033130Y0032131D03*
X0033130Y0032083D03*
D78*
X0032209Y0033123D03*
X0032209Y0033170D03*
X0032209Y0033217D03*
X0032209Y0033265D03*
X0032209Y0033312D03*
X0032209Y0033359D03*
X0032209Y0033406D03*
X0032209Y0033454D03*
X0032209Y0033501D03*
X0032209Y0033548D03*
X0032209Y0033595D03*
X0032209Y0033643D03*
X0032209Y0033690D03*
X0032209Y0033737D03*
X0032209Y0033784D03*
X0032209Y0033831D03*
X0032209Y0033879D03*
X0032209Y0033926D03*
X0032209Y0033973D03*
X0032209Y0034020D03*
X0032209Y0034068D03*
X0032209Y0034115D03*
X0032209Y0034162D03*
X0032209Y0034209D03*
X0032209Y0034257D03*
X0032209Y0034304D03*
X0032209Y0034351D03*
X0032209Y0034398D03*
X0032209Y0034446D03*
X0032209Y0034493D03*
X0032209Y0034540D03*
X0032209Y0034587D03*
X0032209Y0034635D03*
X0032209Y0034682D03*
X0032209Y0034729D03*
X0032209Y0034776D03*
X0032209Y0034824D03*
X0032209Y0034871D03*
X0032209Y0034918D03*
X0032209Y0034965D03*
X0032209Y0035013D03*
X0032209Y0035060D03*
X0032209Y0035107D03*
X0032209Y0035154D03*
X0032209Y0035202D03*
X0032209Y0035249D03*
X0032209Y0035296D03*
X0032209Y0035343D03*
X0032209Y0035391D03*
X0032209Y0035438D03*
X0032209Y0035485D03*
X0032209Y0035532D03*
X0032209Y0035580D03*
X0032209Y0035627D03*
X0032209Y0035674D03*
X0032209Y0035721D03*
X0032209Y0035769D03*
X0032209Y0035816D03*
X0032209Y0035863D03*
X0032209Y0035910D03*
X0032209Y0035957D03*
X0032209Y0036005D03*
X0032209Y0036052D03*
X0032209Y0036099D03*
X0032209Y0036146D03*
X0032209Y0036194D03*
X0032209Y0036241D03*
X0032209Y0036288D03*
X0032209Y0036335D03*
X0032209Y0036383D03*
X0032209Y0036430D03*
X0032209Y0036477D03*
X0032209Y0036524D03*
X0032209Y0036572D03*
X0032209Y0036619D03*
X0032209Y0036666D03*
X0032209Y0036713D03*
X0032209Y0036761D03*
X0032209Y0036808D03*
X0032209Y0036855D03*
X0032209Y0036902D03*
X0032209Y0036950D03*
X0032209Y0036997D03*
X0032209Y0037044D03*
X0032209Y0037091D03*
X0032209Y0037139D03*
X0032209Y0037186D03*
X0032209Y0037233D03*
X0032209Y0037280D03*
X0032209Y0037328D03*
X0032209Y0037375D03*
X0032209Y0037422D03*
X0032209Y0037469D03*
X0032209Y0037517D03*
X0032209Y0037564D03*
X0032209Y0037611D03*
X0030036Y0033123D03*
X0027107Y0033123D03*
X0027107Y0033076D03*
X0027060Y0033170D03*
X0024981Y0034351D03*
X0019642Y0036052D03*
X0013926Y0034776D03*
X0035989Y0032083D03*
D79*
X0028548Y0032131D03*
X0023682Y0033690D03*
X0019619Y0033548D03*
X0019619Y0033501D03*
D80*
X0019666Y0036005D03*
X0024957Y0035674D03*
X0027130Y0033028D03*
X0029965Y0033028D03*
X0030012Y0033076D03*
X0036012Y0032320D03*
X0036012Y0032272D03*
X0036012Y0032225D03*
X0036012Y0032178D03*
X0036012Y0032131D03*
X0013902Y0034682D03*
X0013902Y0034729D03*
D81*
X0019619Y0033454D03*
X0019619Y0033406D03*
X0019619Y0033359D03*
X0023729Y0033784D03*
X0023729Y0036194D03*
X0028548Y0032178D03*
D82*
X0028548Y0032225D03*
X0023776Y0033926D03*
X0023776Y0036052D03*
X0023776Y0036099D03*
X0019619Y0033312D03*
X0019619Y0033265D03*
X0019619Y0033217D03*
D83*
X0019642Y0033595D03*
X0023658Y0033643D03*
X0023705Y0036288D03*
X0033107Y0032650D03*
X0033107Y0032603D03*
X0033107Y0032556D03*
X0033107Y0032509D03*
X0033107Y0032461D03*
X0033107Y0032414D03*
X0033107Y0032367D03*
X0033107Y0032320D03*
X0033107Y0032272D03*
X0033107Y0032225D03*
D84*
X0028571Y0032272D03*
X0023800Y0033973D03*
X0023800Y0034020D03*
X0023800Y0035957D03*
X0023800Y0036005D03*
D85*
X0010831Y0034209D03*
X0010784Y0034162D03*
X0010784Y0034115D03*
X0010784Y0032320D03*
D86*
X0023847Y0034162D03*
X0023847Y0034209D03*
X0023847Y0035816D03*
X0028571Y0032320D03*
D87*
X0010760Y0032367D03*
X0010760Y0032414D03*
D88*
X0019619Y0032934D03*
X0019619Y0032981D03*
X0019619Y0033028D03*
X0028548Y0032367D03*
D89*
X0028548Y0032414D03*
X0019619Y0032792D03*
X0019619Y0032839D03*
X0019619Y0032887D03*
D90*
X0019666Y0035910D03*
X0013902Y0034587D03*
X0027225Y0032934D03*
X0029918Y0032934D03*
X0036012Y0032934D03*
X0036012Y0032981D03*
X0036012Y0033028D03*
X0036012Y0033076D03*
X0036012Y0033123D03*
X0036012Y0033170D03*
X0036012Y0033217D03*
X0036012Y0033265D03*
X0036012Y0033312D03*
X0036012Y0033359D03*
X0036012Y0033406D03*
X0036012Y0033454D03*
X0036012Y0033501D03*
X0036012Y0033548D03*
X0036012Y0033595D03*
X0036012Y0033643D03*
X0036012Y0033690D03*
X0036012Y0033737D03*
X0036012Y0033784D03*
X0036012Y0033831D03*
X0036012Y0033879D03*
X0036012Y0033926D03*
X0036012Y0033973D03*
X0036012Y0034020D03*
X0036012Y0034068D03*
X0036012Y0034115D03*
X0036012Y0034162D03*
X0036012Y0034209D03*
X0036012Y0034257D03*
X0036012Y0034304D03*
X0036012Y0034351D03*
X0036012Y0034398D03*
X0036012Y0034446D03*
X0036012Y0034493D03*
X0036012Y0034540D03*
X0036012Y0034587D03*
X0036012Y0034635D03*
X0036012Y0034682D03*
X0036012Y0034729D03*
X0036012Y0034776D03*
X0036012Y0034824D03*
X0036012Y0034871D03*
X0036012Y0034918D03*
X0036012Y0034965D03*
X0036012Y0035013D03*
X0036012Y0035060D03*
X0036012Y0035107D03*
X0036012Y0035154D03*
X0036012Y0035202D03*
X0036012Y0035249D03*
X0036012Y0035296D03*
X0036012Y0035343D03*
X0036012Y0035391D03*
X0036012Y0035438D03*
X0036012Y0035485D03*
X0036012Y0035532D03*
X0036012Y0035580D03*
X0036012Y0035627D03*
X0036012Y0035674D03*
X0036012Y0035721D03*
X0036012Y0035769D03*
X0036012Y0035816D03*
X0036012Y0035863D03*
X0036012Y0035910D03*
X0036012Y0035957D03*
X0036012Y0036005D03*
X0036012Y0036052D03*
X0036012Y0036099D03*
X0036012Y0036146D03*
X0036012Y0036194D03*
X0036012Y0036241D03*
X0036012Y0036288D03*
X0036012Y0036335D03*
X0036012Y0036383D03*
X0036012Y0036430D03*
X0036012Y0036477D03*
X0036012Y0036524D03*
X0036012Y0036572D03*
X0036012Y0036619D03*
X0036012Y0036666D03*
X0036012Y0036713D03*
X0036012Y0036761D03*
X0036012Y0036808D03*
X0036012Y0036855D03*
X0036012Y0036902D03*
X0036012Y0036950D03*
X0036012Y0032887D03*
X0036012Y0032839D03*
X0036012Y0032792D03*
X0036012Y0032745D03*
X0036012Y0032698D03*
X0036012Y0032650D03*
X0036012Y0032603D03*
X0036012Y0032556D03*
X0036012Y0032509D03*
X0036012Y0032461D03*
X0036012Y0032414D03*
D91*
X0028571Y0032461D03*
D92*
X0028548Y0032509D03*
X0019619Y0032698D03*
X0019619Y0032745D03*
D93*
X0016524Y0035107D03*
X0016524Y0035154D03*
X0016524Y0035202D03*
X0016524Y0035249D03*
X0016524Y0035296D03*
X0016524Y0035343D03*
X0013926Y0032603D03*
X0013926Y0032556D03*
X0023516Y0033406D03*
X0032965Y0033028D03*
D94*
X0036012Y0036997D03*
X0036012Y0038461D03*
X0028548Y0032603D03*
X0028548Y0032556D03*
D95*
X0019595Y0032603D03*
X0019595Y0032650D03*
D96*
X0028548Y0032650D03*
X0028548Y0032698D03*
D97*
X0023469Y0033359D03*
X0023564Y0036572D03*
X0016524Y0035532D03*
X0016524Y0035485D03*
X0016524Y0034965D03*
X0013926Y0032745D03*
X0013926Y0032698D03*
D98*
X0028548Y0032745D03*
X0028548Y0032792D03*
X0036012Y0037044D03*
X0036012Y0038414D03*
D99*
X0032871Y0033076D03*
X0016524Y0034871D03*
X0016524Y0035580D03*
X0013926Y0032887D03*
X0013926Y0032839D03*
X0013926Y0032792D03*
D100*
X0010902Y0034587D03*
X0019642Y0035627D03*
X0027343Y0032839D03*
X0029752Y0032839D03*
D101*
X0016524Y0034824D03*
X0013926Y0033028D03*
X0013926Y0032981D03*
X0013926Y0032934D03*
D102*
X0019619Y0033076D03*
X0019619Y0033123D03*
X0019619Y0033170D03*
X0023823Y0034068D03*
X0023823Y0034115D03*
X0023823Y0035863D03*
X0023823Y0035910D03*
D103*
X0023138Y0033170D03*
X0016524Y0034729D03*
X0010855Y0034351D03*
D104*
X0016501Y0035721D03*
X0023445Y0036713D03*
X0023256Y0033217D03*
D105*
X0025028Y0034446D03*
X0025075Y0034493D03*
X0025075Y0035485D03*
X0025028Y0035580D03*
X0026918Y0033784D03*
X0026918Y0033737D03*
X0026918Y0033690D03*
X0026965Y0033501D03*
X0026965Y0033454D03*
X0026965Y0033406D03*
X0027012Y0033312D03*
X0030130Y0033359D03*
X0030130Y0033406D03*
X0030130Y0033454D03*
X0030178Y0033501D03*
X0030178Y0033548D03*
X0030178Y0033595D03*
X0030178Y0033643D03*
X0030225Y0037044D03*
X0032209Y0037706D03*
X0032209Y0037753D03*
X0032209Y0037800D03*
X0013926Y0034871D03*
X0010902Y0034729D03*
D106*
X0023705Y0033737D03*
X0023705Y0036241D03*
D107*
X0023752Y0036146D03*
X0023752Y0033879D03*
X0023752Y0033831D03*
D108*
X0016501Y0034776D03*
D109*
X0019666Y0035438D03*
X0023351Y0036808D03*
D110*
X0019642Y0035769D03*
D111*
X0019642Y0035863D03*
D112*
X0036012Y0037091D03*
X0036012Y0038367D03*
D113*
X0036012Y0038320D03*
X0036012Y0037139D03*
D114*
X0035989Y0037186D03*
X0035989Y0038272D03*
D115*
X0036012Y0038225D03*
X0036012Y0037233D03*
D116*
X0036012Y0037280D03*
X0036012Y0037328D03*
X0036012Y0037375D03*
X0036012Y0038083D03*
X0036012Y0038131D03*
X0036012Y0038178D03*
D117*
X0036012Y0038036D03*
X0036012Y0037989D03*
X0036012Y0037942D03*
X0036012Y0037894D03*
X0036012Y0037847D03*
X0036012Y0037800D03*
X0036012Y0037753D03*
X0036012Y0037706D03*
X0036012Y0037658D03*
X0036012Y0037611D03*
X0036012Y0037564D03*
X0036012Y0037517D03*
X0036012Y0037469D03*
X0036012Y0037422D03*
D118*
X0027430Y0073060D02*
X0024280Y0073060D01*
X0142390Y0043139D02*
X0145540Y0043139D01*
X0150658Y0043139D02*
X0153808Y0043139D01*
X0158926Y0043139D02*
X0162075Y0043139D01*
X0162075Y0032902D02*
X0158926Y0032902D01*
X0153808Y0032902D02*
X0150658Y0032902D01*
X0145540Y0032902D02*
X0142390Y0032902D01*
D119*
X0133351Y0034103D03*
X0130151Y0034103D03*
X0130151Y0040795D03*
X0133351Y0040795D03*
X0133351Y0047488D03*
X0130151Y0047488D03*
X0130151Y0054181D03*
X0133351Y0054181D03*
X0133351Y0027410D03*
X0130151Y0027410D03*
X0130151Y0020717D03*
X0133351Y0020717D03*
D120*
X0020362Y0071076D03*
X0020362Y0074276D03*
M02*
