G75*
%MOIN*%
%OFA0B0*%
%FSLAX25Y25*%
%IPPOS*%
%LPD*%
%AMOC8*
5,1,8,0,0,1.08239X$1,22.5*
%
%ADD10C,0.01600*%
%ADD11C,0.00000*%
D10*
X0002627Y0013611D02*
X0002627Y0155343D01*
X0002627Y0013611D01*
X0002630Y0013326D01*
X0002641Y0013040D01*
X0002658Y0012755D01*
X0002682Y0012471D01*
X0002713Y0012187D01*
X0002751Y0011904D01*
X0002796Y0011623D01*
X0002847Y0011342D01*
X0002905Y0011062D01*
X0002970Y0010784D01*
X0003042Y0010508D01*
X0003120Y0010234D01*
X0003205Y0009961D01*
X0003297Y0009691D01*
X0003395Y0009423D01*
X0003499Y0009157D01*
X0003610Y0008894D01*
X0003727Y0008634D01*
X0003850Y0008376D01*
X0003980Y0008122D01*
X0004116Y0007871D01*
X0004257Y0007623D01*
X0004405Y0007379D01*
X0004558Y0007138D01*
X0004718Y0006902D01*
X0004883Y0006669D01*
X0005053Y0006440D01*
X0005229Y0006215D01*
X0005411Y0005995D01*
X0005597Y0005779D01*
X0005789Y0005568D01*
X0005986Y0005361D01*
X0006188Y0005159D01*
X0006395Y0004962D01*
X0006606Y0004770D01*
X0006822Y0004584D01*
X0007042Y0004402D01*
X0007267Y0004226D01*
X0007496Y0004056D01*
X0007729Y0003891D01*
X0007965Y0003731D01*
X0008206Y0003578D01*
X0008450Y0003430D01*
X0008698Y0003289D01*
X0008949Y0003153D01*
X0009203Y0003023D01*
X0009461Y0002900D01*
X0009721Y0002783D01*
X0009984Y0002672D01*
X0010250Y0002568D01*
X0010518Y0002470D01*
X0010788Y0002378D01*
X0011061Y0002293D01*
X0011335Y0002215D01*
X0011611Y0002143D01*
X0011889Y0002078D01*
X0012169Y0002020D01*
X0012450Y0001969D01*
X0012731Y0001924D01*
X0013014Y0001886D01*
X0013298Y0001855D01*
X0013582Y0001831D01*
X0013867Y0001814D01*
X0014153Y0001803D01*
X0014438Y0001800D01*
X0156170Y0001800D01*
X0014438Y0001800D01*
X0014153Y0001803D01*
X0013867Y0001814D01*
X0013582Y0001831D01*
X0013298Y0001855D01*
X0013014Y0001886D01*
X0012731Y0001924D01*
X0012450Y0001969D01*
X0012169Y0002020D01*
X0011889Y0002078D01*
X0011611Y0002143D01*
X0011335Y0002215D01*
X0011061Y0002293D01*
X0010788Y0002378D01*
X0010518Y0002470D01*
X0010250Y0002568D01*
X0009984Y0002672D01*
X0009721Y0002783D01*
X0009461Y0002900D01*
X0009203Y0003023D01*
X0008949Y0003153D01*
X0008698Y0003289D01*
X0008450Y0003430D01*
X0008206Y0003578D01*
X0007965Y0003731D01*
X0007729Y0003891D01*
X0007496Y0004056D01*
X0007267Y0004226D01*
X0007042Y0004402D01*
X0006822Y0004584D01*
X0006606Y0004770D01*
X0006395Y0004962D01*
X0006188Y0005159D01*
X0005986Y0005361D01*
X0005789Y0005568D01*
X0005597Y0005779D01*
X0005411Y0005995D01*
X0005229Y0006215D01*
X0005053Y0006440D01*
X0004883Y0006669D01*
X0004718Y0006902D01*
X0004558Y0007138D01*
X0004405Y0007379D01*
X0004257Y0007623D01*
X0004116Y0007871D01*
X0003980Y0008122D01*
X0003850Y0008376D01*
X0003727Y0008634D01*
X0003610Y0008894D01*
X0003499Y0009157D01*
X0003395Y0009423D01*
X0003297Y0009691D01*
X0003205Y0009961D01*
X0003120Y0010234D01*
X0003042Y0010508D01*
X0002970Y0010784D01*
X0002905Y0011062D01*
X0002847Y0011342D01*
X0002796Y0011623D01*
X0002751Y0011904D01*
X0002713Y0012187D01*
X0002682Y0012471D01*
X0002658Y0012755D01*
X0002641Y0013040D01*
X0002630Y0013326D01*
X0002627Y0013611D01*
X0002627Y0155343D02*
X0002630Y0155628D01*
X0002641Y0155914D01*
X0002658Y0156199D01*
X0002682Y0156483D01*
X0002713Y0156767D01*
X0002751Y0157050D01*
X0002796Y0157331D01*
X0002847Y0157612D01*
X0002905Y0157892D01*
X0002970Y0158170D01*
X0003042Y0158446D01*
X0003120Y0158720D01*
X0003205Y0158993D01*
X0003297Y0159263D01*
X0003395Y0159531D01*
X0003499Y0159797D01*
X0003610Y0160060D01*
X0003727Y0160320D01*
X0003850Y0160578D01*
X0003980Y0160832D01*
X0004116Y0161083D01*
X0004257Y0161331D01*
X0004405Y0161575D01*
X0004558Y0161816D01*
X0004718Y0162052D01*
X0004883Y0162285D01*
X0005053Y0162514D01*
X0005229Y0162739D01*
X0005411Y0162959D01*
X0005597Y0163175D01*
X0005789Y0163386D01*
X0005986Y0163593D01*
X0006188Y0163795D01*
X0006395Y0163992D01*
X0006606Y0164184D01*
X0006822Y0164370D01*
X0007042Y0164552D01*
X0007267Y0164728D01*
X0007496Y0164898D01*
X0007729Y0165063D01*
X0007965Y0165223D01*
X0008206Y0165376D01*
X0008450Y0165524D01*
X0008698Y0165665D01*
X0008949Y0165801D01*
X0009203Y0165931D01*
X0009461Y0166054D01*
X0009721Y0166171D01*
X0009984Y0166282D01*
X0010250Y0166386D01*
X0010518Y0166484D01*
X0010788Y0166576D01*
X0011061Y0166661D01*
X0011335Y0166739D01*
X0011611Y0166811D01*
X0011889Y0166876D01*
X0012169Y0166934D01*
X0012450Y0166985D01*
X0012731Y0167030D01*
X0013014Y0167068D01*
X0013298Y0167099D01*
X0013582Y0167123D01*
X0013867Y0167140D01*
X0014153Y0167151D01*
X0014438Y0167154D01*
X0156170Y0167154D01*
X0014438Y0167154D01*
X0014153Y0167151D01*
X0013867Y0167140D01*
X0013582Y0167123D01*
X0013298Y0167099D01*
X0013014Y0167068D01*
X0012731Y0167030D01*
X0012450Y0166985D01*
X0012169Y0166934D01*
X0011889Y0166876D01*
X0011611Y0166811D01*
X0011335Y0166739D01*
X0011061Y0166661D01*
X0010788Y0166576D01*
X0010518Y0166484D01*
X0010250Y0166386D01*
X0009984Y0166282D01*
X0009721Y0166171D01*
X0009461Y0166054D01*
X0009203Y0165931D01*
X0008949Y0165801D01*
X0008698Y0165665D01*
X0008450Y0165524D01*
X0008206Y0165376D01*
X0007965Y0165223D01*
X0007729Y0165063D01*
X0007496Y0164898D01*
X0007267Y0164728D01*
X0007042Y0164552D01*
X0006822Y0164370D01*
X0006606Y0164184D01*
X0006395Y0163992D01*
X0006188Y0163795D01*
X0005986Y0163593D01*
X0005789Y0163386D01*
X0005597Y0163175D01*
X0005411Y0162959D01*
X0005229Y0162739D01*
X0005053Y0162514D01*
X0004883Y0162285D01*
X0004718Y0162052D01*
X0004558Y0161816D01*
X0004405Y0161575D01*
X0004257Y0161331D01*
X0004116Y0161083D01*
X0003980Y0160832D01*
X0003850Y0160578D01*
X0003727Y0160320D01*
X0003610Y0160060D01*
X0003499Y0159797D01*
X0003395Y0159531D01*
X0003297Y0159263D01*
X0003205Y0158993D01*
X0003120Y0158720D01*
X0003042Y0158446D01*
X0002970Y0158170D01*
X0002905Y0157892D01*
X0002847Y0157612D01*
X0002796Y0157331D01*
X0002751Y0157050D01*
X0002713Y0156767D01*
X0002682Y0156483D01*
X0002658Y0156199D01*
X0002641Y0155914D01*
X0002630Y0155628D01*
X0002627Y0155343D01*
X0156170Y0167154D02*
X0156455Y0167151D01*
X0156741Y0167140D01*
X0157026Y0167123D01*
X0157310Y0167099D01*
X0157594Y0167068D01*
X0157877Y0167030D01*
X0158158Y0166985D01*
X0158439Y0166934D01*
X0158719Y0166876D01*
X0158997Y0166811D01*
X0159273Y0166739D01*
X0159547Y0166661D01*
X0159820Y0166576D01*
X0160090Y0166484D01*
X0160358Y0166386D01*
X0160624Y0166282D01*
X0160887Y0166171D01*
X0161147Y0166054D01*
X0161405Y0165931D01*
X0161659Y0165801D01*
X0161910Y0165665D01*
X0162158Y0165524D01*
X0162402Y0165376D01*
X0162643Y0165223D01*
X0162879Y0165063D01*
X0163112Y0164898D01*
X0163341Y0164728D01*
X0163566Y0164552D01*
X0163786Y0164370D01*
X0164002Y0164184D01*
X0164213Y0163992D01*
X0164420Y0163795D01*
X0164622Y0163593D01*
X0164819Y0163386D01*
X0165011Y0163175D01*
X0165197Y0162959D01*
X0165379Y0162739D01*
X0165555Y0162514D01*
X0165725Y0162285D01*
X0165890Y0162052D01*
X0166050Y0161816D01*
X0166203Y0161575D01*
X0166351Y0161331D01*
X0166492Y0161083D01*
X0166628Y0160832D01*
X0166758Y0160578D01*
X0166881Y0160320D01*
X0166998Y0160060D01*
X0167109Y0159797D01*
X0167213Y0159531D01*
X0167311Y0159263D01*
X0167403Y0158993D01*
X0167488Y0158720D01*
X0167566Y0158446D01*
X0167638Y0158170D01*
X0167703Y0157892D01*
X0167761Y0157612D01*
X0167812Y0157331D01*
X0167857Y0157050D01*
X0167895Y0156767D01*
X0167926Y0156483D01*
X0167950Y0156199D01*
X0167967Y0155914D01*
X0167978Y0155628D01*
X0167981Y0155343D01*
X0167981Y0013611D01*
X0167981Y0155343D01*
X0167978Y0155628D01*
X0167967Y0155914D01*
X0167950Y0156199D01*
X0167926Y0156483D01*
X0167895Y0156767D01*
X0167857Y0157050D01*
X0167812Y0157331D01*
X0167761Y0157612D01*
X0167703Y0157892D01*
X0167638Y0158170D01*
X0167566Y0158446D01*
X0167488Y0158720D01*
X0167403Y0158993D01*
X0167311Y0159263D01*
X0167213Y0159531D01*
X0167109Y0159797D01*
X0166998Y0160060D01*
X0166881Y0160320D01*
X0166758Y0160578D01*
X0166628Y0160832D01*
X0166492Y0161083D01*
X0166351Y0161331D01*
X0166203Y0161575D01*
X0166050Y0161816D01*
X0165890Y0162052D01*
X0165725Y0162285D01*
X0165555Y0162514D01*
X0165379Y0162739D01*
X0165197Y0162959D01*
X0165011Y0163175D01*
X0164819Y0163386D01*
X0164622Y0163593D01*
X0164420Y0163795D01*
X0164213Y0163992D01*
X0164002Y0164184D01*
X0163786Y0164370D01*
X0163566Y0164552D01*
X0163341Y0164728D01*
X0163112Y0164898D01*
X0162879Y0165063D01*
X0162643Y0165223D01*
X0162402Y0165376D01*
X0162158Y0165524D01*
X0161910Y0165665D01*
X0161659Y0165801D01*
X0161405Y0165931D01*
X0161147Y0166054D01*
X0160887Y0166171D01*
X0160624Y0166282D01*
X0160358Y0166386D01*
X0160090Y0166484D01*
X0159820Y0166576D01*
X0159547Y0166661D01*
X0159273Y0166739D01*
X0158997Y0166811D01*
X0158719Y0166876D01*
X0158439Y0166934D01*
X0158158Y0166985D01*
X0157877Y0167030D01*
X0157594Y0167068D01*
X0157310Y0167099D01*
X0157026Y0167123D01*
X0156741Y0167140D01*
X0156455Y0167151D01*
X0156170Y0167154D01*
X0167981Y0013611D02*
X0167978Y0013326D01*
X0167967Y0013040D01*
X0167950Y0012755D01*
X0167926Y0012471D01*
X0167895Y0012187D01*
X0167857Y0011904D01*
X0167812Y0011623D01*
X0167761Y0011342D01*
X0167703Y0011062D01*
X0167638Y0010784D01*
X0167566Y0010508D01*
X0167488Y0010234D01*
X0167403Y0009961D01*
X0167311Y0009691D01*
X0167213Y0009423D01*
X0167109Y0009157D01*
X0166998Y0008894D01*
X0166881Y0008634D01*
X0166758Y0008376D01*
X0166628Y0008122D01*
X0166492Y0007871D01*
X0166351Y0007623D01*
X0166203Y0007379D01*
X0166050Y0007138D01*
X0165890Y0006902D01*
X0165725Y0006669D01*
X0165555Y0006440D01*
X0165379Y0006215D01*
X0165197Y0005995D01*
X0165011Y0005779D01*
X0164819Y0005568D01*
X0164622Y0005361D01*
X0164420Y0005159D01*
X0164213Y0004962D01*
X0164002Y0004770D01*
X0163786Y0004584D01*
X0163566Y0004402D01*
X0163341Y0004226D01*
X0163112Y0004056D01*
X0162879Y0003891D01*
X0162643Y0003731D01*
X0162402Y0003578D01*
X0162158Y0003430D01*
X0161910Y0003289D01*
X0161659Y0003153D01*
X0161405Y0003023D01*
X0161147Y0002900D01*
X0160887Y0002783D01*
X0160624Y0002672D01*
X0160358Y0002568D01*
X0160090Y0002470D01*
X0159820Y0002378D01*
X0159547Y0002293D01*
X0159273Y0002215D01*
X0158997Y0002143D01*
X0158719Y0002078D01*
X0158439Y0002020D01*
X0158158Y0001969D01*
X0157877Y0001924D01*
X0157594Y0001886D01*
X0157310Y0001855D01*
X0157026Y0001831D01*
X0156741Y0001814D01*
X0156455Y0001803D01*
X0156170Y0001800D01*
X0156455Y0001803D01*
X0156741Y0001814D01*
X0157026Y0001831D01*
X0157310Y0001855D01*
X0157594Y0001886D01*
X0157877Y0001924D01*
X0158158Y0001969D01*
X0158439Y0002020D01*
X0158719Y0002078D01*
X0158997Y0002143D01*
X0159273Y0002215D01*
X0159547Y0002293D01*
X0159820Y0002378D01*
X0160090Y0002470D01*
X0160358Y0002568D01*
X0160624Y0002672D01*
X0160887Y0002783D01*
X0161147Y0002900D01*
X0161405Y0003023D01*
X0161659Y0003153D01*
X0161910Y0003289D01*
X0162158Y0003430D01*
X0162402Y0003578D01*
X0162643Y0003731D01*
X0162879Y0003891D01*
X0163112Y0004056D01*
X0163341Y0004226D01*
X0163566Y0004402D01*
X0163786Y0004584D01*
X0164002Y0004770D01*
X0164213Y0004962D01*
X0164420Y0005159D01*
X0164622Y0005361D01*
X0164819Y0005568D01*
X0165011Y0005779D01*
X0165197Y0005995D01*
X0165379Y0006215D01*
X0165555Y0006440D01*
X0165725Y0006669D01*
X0165890Y0006902D01*
X0166050Y0007138D01*
X0166203Y0007379D01*
X0166351Y0007623D01*
X0166492Y0007871D01*
X0166628Y0008122D01*
X0166758Y0008376D01*
X0166881Y0008634D01*
X0166998Y0008894D01*
X0167109Y0009157D01*
X0167213Y0009423D01*
X0167311Y0009691D01*
X0167403Y0009961D01*
X0167488Y0010234D01*
X0167566Y0010508D01*
X0167638Y0010784D01*
X0167703Y0011062D01*
X0167761Y0011342D01*
X0167812Y0011623D01*
X0167857Y0011904D01*
X0167895Y0012187D01*
X0167926Y0012471D01*
X0167950Y0012755D01*
X0167967Y0013040D01*
X0167978Y0013326D01*
X0167981Y0013611D01*
D11*
X0150264Y0013611D02*
X0150266Y0013764D01*
X0150272Y0013918D01*
X0150282Y0014071D01*
X0150296Y0014223D01*
X0150314Y0014376D01*
X0150336Y0014527D01*
X0150361Y0014678D01*
X0150391Y0014829D01*
X0150425Y0014979D01*
X0150462Y0015127D01*
X0150503Y0015275D01*
X0150548Y0015421D01*
X0150597Y0015567D01*
X0150650Y0015711D01*
X0150706Y0015853D01*
X0150766Y0015994D01*
X0150830Y0016134D01*
X0150897Y0016272D01*
X0150968Y0016408D01*
X0151043Y0016542D01*
X0151120Y0016674D01*
X0151202Y0016804D01*
X0151286Y0016932D01*
X0151374Y0017058D01*
X0151465Y0017181D01*
X0151559Y0017302D01*
X0151657Y0017420D01*
X0151757Y0017536D01*
X0151861Y0017649D01*
X0151967Y0017760D01*
X0152076Y0017868D01*
X0152188Y0017973D01*
X0152302Y0018074D01*
X0152420Y0018173D01*
X0152539Y0018269D01*
X0152661Y0018362D01*
X0152786Y0018451D01*
X0152913Y0018538D01*
X0153042Y0018620D01*
X0153173Y0018700D01*
X0153306Y0018776D01*
X0153441Y0018849D01*
X0153578Y0018918D01*
X0153717Y0018983D01*
X0153857Y0019045D01*
X0153999Y0019103D01*
X0154142Y0019158D01*
X0154287Y0019209D01*
X0154433Y0019256D01*
X0154580Y0019299D01*
X0154728Y0019338D01*
X0154877Y0019374D01*
X0155027Y0019405D01*
X0155178Y0019433D01*
X0155329Y0019457D01*
X0155482Y0019477D01*
X0155634Y0019493D01*
X0155787Y0019505D01*
X0155940Y0019513D01*
X0156093Y0019517D01*
X0156247Y0019517D01*
X0156400Y0019513D01*
X0156553Y0019505D01*
X0156706Y0019493D01*
X0156858Y0019477D01*
X0157011Y0019457D01*
X0157162Y0019433D01*
X0157313Y0019405D01*
X0157463Y0019374D01*
X0157612Y0019338D01*
X0157760Y0019299D01*
X0157907Y0019256D01*
X0158053Y0019209D01*
X0158198Y0019158D01*
X0158341Y0019103D01*
X0158483Y0019045D01*
X0158623Y0018983D01*
X0158762Y0018918D01*
X0158899Y0018849D01*
X0159034Y0018776D01*
X0159167Y0018700D01*
X0159298Y0018620D01*
X0159427Y0018538D01*
X0159554Y0018451D01*
X0159679Y0018362D01*
X0159801Y0018269D01*
X0159920Y0018173D01*
X0160038Y0018074D01*
X0160152Y0017973D01*
X0160264Y0017868D01*
X0160373Y0017760D01*
X0160479Y0017649D01*
X0160583Y0017536D01*
X0160683Y0017420D01*
X0160781Y0017302D01*
X0160875Y0017181D01*
X0160966Y0017058D01*
X0161054Y0016932D01*
X0161138Y0016804D01*
X0161220Y0016674D01*
X0161297Y0016542D01*
X0161372Y0016408D01*
X0161443Y0016272D01*
X0161510Y0016134D01*
X0161574Y0015994D01*
X0161634Y0015853D01*
X0161690Y0015711D01*
X0161743Y0015567D01*
X0161792Y0015421D01*
X0161837Y0015275D01*
X0161878Y0015127D01*
X0161915Y0014979D01*
X0161949Y0014829D01*
X0161979Y0014678D01*
X0162004Y0014527D01*
X0162026Y0014376D01*
X0162044Y0014223D01*
X0162058Y0014071D01*
X0162068Y0013918D01*
X0162074Y0013764D01*
X0162076Y0013611D01*
X0162074Y0013458D01*
X0162068Y0013304D01*
X0162058Y0013151D01*
X0162044Y0012999D01*
X0162026Y0012846D01*
X0162004Y0012695D01*
X0161979Y0012544D01*
X0161949Y0012393D01*
X0161915Y0012243D01*
X0161878Y0012095D01*
X0161837Y0011947D01*
X0161792Y0011801D01*
X0161743Y0011655D01*
X0161690Y0011511D01*
X0161634Y0011369D01*
X0161574Y0011228D01*
X0161510Y0011088D01*
X0161443Y0010950D01*
X0161372Y0010814D01*
X0161297Y0010680D01*
X0161220Y0010548D01*
X0161138Y0010418D01*
X0161054Y0010290D01*
X0160966Y0010164D01*
X0160875Y0010041D01*
X0160781Y0009920D01*
X0160683Y0009802D01*
X0160583Y0009686D01*
X0160479Y0009573D01*
X0160373Y0009462D01*
X0160264Y0009354D01*
X0160152Y0009249D01*
X0160038Y0009148D01*
X0159920Y0009049D01*
X0159801Y0008953D01*
X0159679Y0008860D01*
X0159554Y0008771D01*
X0159427Y0008684D01*
X0159298Y0008602D01*
X0159167Y0008522D01*
X0159034Y0008446D01*
X0158899Y0008373D01*
X0158762Y0008304D01*
X0158623Y0008239D01*
X0158483Y0008177D01*
X0158341Y0008119D01*
X0158198Y0008064D01*
X0158053Y0008013D01*
X0157907Y0007966D01*
X0157760Y0007923D01*
X0157612Y0007884D01*
X0157463Y0007848D01*
X0157313Y0007817D01*
X0157162Y0007789D01*
X0157011Y0007765D01*
X0156858Y0007745D01*
X0156706Y0007729D01*
X0156553Y0007717D01*
X0156400Y0007709D01*
X0156247Y0007705D01*
X0156093Y0007705D01*
X0155940Y0007709D01*
X0155787Y0007717D01*
X0155634Y0007729D01*
X0155482Y0007745D01*
X0155329Y0007765D01*
X0155178Y0007789D01*
X0155027Y0007817D01*
X0154877Y0007848D01*
X0154728Y0007884D01*
X0154580Y0007923D01*
X0154433Y0007966D01*
X0154287Y0008013D01*
X0154142Y0008064D01*
X0153999Y0008119D01*
X0153857Y0008177D01*
X0153717Y0008239D01*
X0153578Y0008304D01*
X0153441Y0008373D01*
X0153306Y0008446D01*
X0153173Y0008522D01*
X0153042Y0008602D01*
X0152913Y0008684D01*
X0152786Y0008771D01*
X0152661Y0008860D01*
X0152539Y0008953D01*
X0152420Y0009049D01*
X0152302Y0009148D01*
X0152188Y0009249D01*
X0152076Y0009354D01*
X0151967Y0009462D01*
X0151861Y0009573D01*
X0151757Y0009686D01*
X0151657Y0009802D01*
X0151559Y0009920D01*
X0151465Y0010041D01*
X0151374Y0010164D01*
X0151286Y0010290D01*
X0151202Y0010418D01*
X0151120Y0010548D01*
X0151043Y0010680D01*
X0150968Y0010814D01*
X0150897Y0010950D01*
X0150830Y0011088D01*
X0150766Y0011228D01*
X0150706Y0011369D01*
X0150650Y0011511D01*
X0150597Y0011655D01*
X0150548Y0011801D01*
X0150503Y0011947D01*
X0150462Y0012095D01*
X0150425Y0012243D01*
X0150391Y0012393D01*
X0150361Y0012544D01*
X0150336Y0012695D01*
X0150314Y0012846D01*
X0150296Y0012999D01*
X0150282Y0013151D01*
X0150272Y0013304D01*
X0150266Y0013458D01*
X0150264Y0013611D01*
X0115225Y0015973D02*
X0115227Y0016098D01*
X0115233Y0016223D01*
X0115243Y0016347D01*
X0115257Y0016471D01*
X0115274Y0016595D01*
X0115296Y0016718D01*
X0115322Y0016840D01*
X0115351Y0016962D01*
X0115384Y0017082D01*
X0115422Y0017201D01*
X0115462Y0017320D01*
X0115507Y0017436D01*
X0115555Y0017551D01*
X0115607Y0017665D01*
X0115663Y0017777D01*
X0115722Y0017887D01*
X0115784Y0017995D01*
X0115850Y0018102D01*
X0115919Y0018206D01*
X0115992Y0018307D01*
X0116067Y0018407D01*
X0116146Y0018504D01*
X0116228Y0018598D01*
X0116313Y0018690D01*
X0116400Y0018779D01*
X0116491Y0018865D01*
X0116584Y0018948D01*
X0116680Y0019029D01*
X0116778Y0019106D01*
X0116878Y0019180D01*
X0116981Y0019251D01*
X0117086Y0019318D01*
X0117194Y0019383D01*
X0117303Y0019443D01*
X0117414Y0019501D01*
X0117527Y0019554D01*
X0117641Y0019604D01*
X0117757Y0019651D01*
X0117874Y0019693D01*
X0117993Y0019732D01*
X0118113Y0019768D01*
X0118234Y0019799D01*
X0118356Y0019827D01*
X0118478Y0019850D01*
X0118602Y0019870D01*
X0118726Y0019886D01*
X0118850Y0019898D01*
X0118975Y0019906D01*
X0119100Y0019910D01*
X0119224Y0019910D01*
X0119349Y0019906D01*
X0119474Y0019898D01*
X0119598Y0019886D01*
X0119722Y0019870D01*
X0119846Y0019850D01*
X0119968Y0019827D01*
X0120090Y0019799D01*
X0120211Y0019768D01*
X0120331Y0019732D01*
X0120450Y0019693D01*
X0120567Y0019651D01*
X0120683Y0019604D01*
X0120797Y0019554D01*
X0120910Y0019501D01*
X0121021Y0019443D01*
X0121131Y0019383D01*
X0121238Y0019318D01*
X0121343Y0019251D01*
X0121446Y0019180D01*
X0121546Y0019106D01*
X0121644Y0019029D01*
X0121740Y0018948D01*
X0121833Y0018865D01*
X0121924Y0018779D01*
X0122011Y0018690D01*
X0122096Y0018598D01*
X0122178Y0018504D01*
X0122257Y0018407D01*
X0122332Y0018307D01*
X0122405Y0018206D01*
X0122474Y0018102D01*
X0122540Y0017995D01*
X0122602Y0017887D01*
X0122661Y0017777D01*
X0122717Y0017665D01*
X0122769Y0017551D01*
X0122817Y0017436D01*
X0122862Y0017320D01*
X0122902Y0017201D01*
X0122940Y0017082D01*
X0122973Y0016962D01*
X0123002Y0016840D01*
X0123028Y0016718D01*
X0123050Y0016595D01*
X0123067Y0016471D01*
X0123081Y0016347D01*
X0123091Y0016223D01*
X0123097Y0016098D01*
X0123099Y0015973D01*
X0123097Y0015848D01*
X0123091Y0015723D01*
X0123081Y0015599D01*
X0123067Y0015475D01*
X0123050Y0015351D01*
X0123028Y0015228D01*
X0123002Y0015106D01*
X0122973Y0014984D01*
X0122940Y0014864D01*
X0122902Y0014745D01*
X0122862Y0014626D01*
X0122817Y0014510D01*
X0122769Y0014395D01*
X0122717Y0014281D01*
X0122661Y0014169D01*
X0122602Y0014059D01*
X0122540Y0013951D01*
X0122474Y0013844D01*
X0122405Y0013740D01*
X0122332Y0013639D01*
X0122257Y0013539D01*
X0122178Y0013442D01*
X0122096Y0013348D01*
X0122011Y0013256D01*
X0121924Y0013167D01*
X0121833Y0013081D01*
X0121740Y0012998D01*
X0121644Y0012917D01*
X0121546Y0012840D01*
X0121446Y0012766D01*
X0121343Y0012695D01*
X0121238Y0012628D01*
X0121130Y0012563D01*
X0121021Y0012503D01*
X0120910Y0012445D01*
X0120797Y0012392D01*
X0120683Y0012342D01*
X0120567Y0012295D01*
X0120450Y0012253D01*
X0120331Y0012214D01*
X0120211Y0012178D01*
X0120090Y0012147D01*
X0119968Y0012119D01*
X0119846Y0012096D01*
X0119722Y0012076D01*
X0119598Y0012060D01*
X0119474Y0012048D01*
X0119349Y0012040D01*
X0119224Y0012036D01*
X0119100Y0012036D01*
X0118975Y0012040D01*
X0118850Y0012048D01*
X0118726Y0012060D01*
X0118602Y0012076D01*
X0118478Y0012096D01*
X0118356Y0012119D01*
X0118234Y0012147D01*
X0118113Y0012178D01*
X0117993Y0012214D01*
X0117874Y0012253D01*
X0117757Y0012295D01*
X0117641Y0012342D01*
X0117527Y0012392D01*
X0117414Y0012445D01*
X0117303Y0012503D01*
X0117193Y0012563D01*
X0117086Y0012628D01*
X0116981Y0012695D01*
X0116878Y0012766D01*
X0116778Y0012840D01*
X0116680Y0012917D01*
X0116584Y0012998D01*
X0116491Y0013081D01*
X0116400Y0013167D01*
X0116313Y0013256D01*
X0116228Y0013348D01*
X0116146Y0013442D01*
X0116067Y0013539D01*
X0115992Y0013639D01*
X0115919Y0013740D01*
X0115850Y0013844D01*
X0115784Y0013951D01*
X0115722Y0014059D01*
X0115663Y0014169D01*
X0115607Y0014281D01*
X0115555Y0014395D01*
X0115507Y0014510D01*
X0115462Y0014626D01*
X0115422Y0014745D01*
X0115384Y0014864D01*
X0115351Y0014984D01*
X0115322Y0015106D01*
X0115296Y0015228D01*
X0115274Y0015351D01*
X0115257Y0015475D01*
X0115243Y0015599D01*
X0115233Y0015723D01*
X0115227Y0015848D01*
X0115225Y0015973D01*
X0048296Y0015973D02*
X0048298Y0016098D01*
X0048304Y0016223D01*
X0048314Y0016347D01*
X0048328Y0016471D01*
X0048345Y0016595D01*
X0048367Y0016718D01*
X0048393Y0016840D01*
X0048422Y0016962D01*
X0048455Y0017082D01*
X0048493Y0017201D01*
X0048533Y0017320D01*
X0048578Y0017436D01*
X0048626Y0017551D01*
X0048678Y0017665D01*
X0048734Y0017777D01*
X0048793Y0017887D01*
X0048855Y0017995D01*
X0048921Y0018102D01*
X0048990Y0018206D01*
X0049063Y0018307D01*
X0049138Y0018407D01*
X0049217Y0018504D01*
X0049299Y0018598D01*
X0049384Y0018690D01*
X0049471Y0018779D01*
X0049562Y0018865D01*
X0049655Y0018948D01*
X0049751Y0019029D01*
X0049849Y0019106D01*
X0049949Y0019180D01*
X0050052Y0019251D01*
X0050157Y0019318D01*
X0050265Y0019383D01*
X0050374Y0019443D01*
X0050485Y0019501D01*
X0050598Y0019554D01*
X0050712Y0019604D01*
X0050828Y0019651D01*
X0050945Y0019693D01*
X0051064Y0019732D01*
X0051184Y0019768D01*
X0051305Y0019799D01*
X0051427Y0019827D01*
X0051549Y0019850D01*
X0051673Y0019870D01*
X0051797Y0019886D01*
X0051921Y0019898D01*
X0052046Y0019906D01*
X0052171Y0019910D01*
X0052295Y0019910D01*
X0052420Y0019906D01*
X0052545Y0019898D01*
X0052669Y0019886D01*
X0052793Y0019870D01*
X0052917Y0019850D01*
X0053039Y0019827D01*
X0053161Y0019799D01*
X0053282Y0019768D01*
X0053402Y0019732D01*
X0053521Y0019693D01*
X0053638Y0019651D01*
X0053754Y0019604D01*
X0053868Y0019554D01*
X0053981Y0019501D01*
X0054092Y0019443D01*
X0054202Y0019383D01*
X0054309Y0019318D01*
X0054414Y0019251D01*
X0054517Y0019180D01*
X0054617Y0019106D01*
X0054715Y0019029D01*
X0054811Y0018948D01*
X0054904Y0018865D01*
X0054995Y0018779D01*
X0055082Y0018690D01*
X0055167Y0018598D01*
X0055249Y0018504D01*
X0055328Y0018407D01*
X0055403Y0018307D01*
X0055476Y0018206D01*
X0055545Y0018102D01*
X0055611Y0017995D01*
X0055673Y0017887D01*
X0055732Y0017777D01*
X0055788Y0017665D01*
X0055840Y0017551D01*
X0055888Y0017436D01*
X0055933Y0017320D01*
X0055973Y0017201D01*
X0056011Y0017082D01*
X0056044Y0016962D01*
X0056073Y0016840D01*
X0056099Y0016718D01*
X0056121Y0016595D01*
X0056138Y0016471D01*
X0056152Y0016347D01*
X0056162Y0016223D01*
X0056168Y0016098D01*
X0056170Y0015973D01*
X0056168Y0015848D01*
X0056162Y0015723D01*
X0056152Y0015599D01*
X0056138Y0015475D01*
X0056121Y0015351D01*
X0056099Y0015228D01*
X0056073Y0015106D01*
X0056044Y0014984D01*
X0056011Y0014864D01*
X0055973Y0014745D01*
X0055933Y0014626D01*
X0055888Y0014510D01*
X0055840Y0014395D01*
X0055788Y0014281D01*
X0055732Y0014169D01*
X0055673Y0014059D01*
X0055611Y0013951D01*
X0055545Y0013844D01*
X0055476Y0013740D01*
X0055403Y0013639D01*
X0055328Y0013539D01*
X0055249Y0013442D01*
X0055167Y0013348D01*
X0055082Y0013256D01*
X0054995Y0013167D01*
X0054904Y0013081D01*
X0054811Y0012998D01*
X0054715Y0012917D01*
X0054617Y0012840D01*
X0054517Y0012766D01*
X0054414Y0012695D01*
X0054309Y0012628D01*
X0054201Y0012563D01*
X0054092Y0012503D01*
X0053981Y0012445D01*
X0053868Y0012392D01*
X0053754Y0012342D01*
X0053638Y0012295D01*
X0053521Y0012253D01*
X0053402Y0012214D01*
X0053282Y0012178D01*
X0053161Y0012147D01*
X0053039Y0012119D01*
X0052917Y0012096D01*
X0052793Y0012076D01*
X0052669Y0012060D01*
X0052545Y0012048D01*
X0052420Y0012040D01*
X0052295Y0012036D01*
X0052171Y0012036D01*
X0052046Y0012040D01*
X0051921Y0012048D01*
X0051797Y0012060D01*
X0051673Y0012076D01*
X0051549Y0012096D01*
X0051427Y0012119D01*
X0051305Y0012147D01*
X0051184Y0012178D01*
X0051064Y0012214D01*
X0050945Y0012253D01*
X0050828Y0012295D01*
X0050712Y0012342D01*
X0050598Y0012392D01*
X0050485Y0012445D01*
X0050374Y0012503D01*
X0050264Y0012563D01*
X0050157Y0012628D01*
X0050052Y0012695D01*
X0049949Y0012766D01*
X0049849Y0012840D01*
X0049751Y0012917D01*
X0049655Y0012998D01*
X0049562Y0013081D01*
X0049471Y0013167D01*
X0049384Y0013256D01*
X0049299Y0013348D01*
X0049217Y0013442D01*
X0049138Y0013539D01*
X0049063Y0013639D01*
X0048990Y0013740D01*
X0048921Y0013844D01*
X0048855Y0013951D01*
X0048793Y0014059D01*
X0048734Y0014169D01*
X0048678Y0014281D01*
X0048626Y0014395D01*
X0048578Y0014510D01*
X0048533Y0014626D01*
X0048493Y0014745D01*
X0048455Y0014864D01*
X0048422Y0014984D01*
X0048393Y0015106D01*
X0048367Y0015228D01*
X0048345Y0015351D01*
X0048328Y0015475D01*
X0048314Y0015599D01*
X0048304Y0015723D01*
X0048298Y0015848D01*
X0048296Y0015973D01*
X0008532Y0013611D02*
X0008534Y0013764D01*
X0008540Y0013918D01*
X0008550Y0014071D01*
X0008564Y0014223D01*
X0008582Y0014376D01*
X0008604Y0014527D01*
X0008629Y0014678D01*
X0008659Y0014829D01*
X0008693Y0014979D01*
X0008730Y0015127D01*
X0008771Y0015275D01*
X0008816Y0015421D01*
X0008865Y0015567D01*
X0008918Y0015711D01*
X0008974Y0015853D01*
X0009034Y0015994D01*
X0009098Y0016134D01*
X0009165Y0016272D01*
X0009236Y0016408D01*
X0009311Y0016542D01*
X0009388Y0016674D01*
X0009470Y0016804D01*
X0009554Y0016932D01*
X0009642Y0017058D01*
X0009733Y0017181D01*
X0009827Y0017302D01*
X0009925Y0017420D01*
X0010025Y0017536D01*
X0010129Y0017649D01*
X0010235Y0017760D01*
X0010344Y0017868D01*
X0010456Y0017973D01*
X0010570Y0018074D01*
X0010688Y0018173D01*
X0010807Y0018269D01*
X0010929Y0018362D01*
X0011054Y0018451D01*
X0011181Y0018538D01*
X0011310Y0018620D01*
X0011441Y0018700D01*
X0011574Y0018776D01*
X0011709Y0018849D01*
X0011846Y0018918D01*
X0011985Y0018983D01*
X0012125Y0019045D01*
X0012267Y0019103D01*
X0012410Y0019158D01*
X0012555Y0019209D01*
X0012701Y0019256D01*
X0012848Y0019299D01*
X0012996Y0019338D01*
X0013145Y0019374D01*
X0013295Y0019405D01*
X0013446Y0019433D01*
X0013597Y0019457D01*
X0013750Y0019477D01*
X0013902Y0019493D01*
X0014055Y0019505D01*
X0014208Y0019513D01*
X0014361Y0019517D01*
X0014515Y0019517D01*
X0014668Y0019513D01*
X0014821Y0019505D01*
X0014974Y0019493D01*
X0015126Y0019477D01*
X0015279Y0019457D01*
X0015430Y0019433D01*
X0015581Y0019405D01*
X0015731Y0019374D01*
X0015880Y0019338D01*
X0016028Y0019299D01*
X0016175Y0019256D01*
X0016321Y0019209D01*
X0016466Y0019158D01*
X0016609Y0019103D01*
X0016751Y0019045D01*
X0016891Y0018983D01*
X0017030Y0018918D01*
X0017167Y0018849D01*
X0017302Y0018776D01*
X0017435Y0018700D01*
X0017566Y0018620D01*
X0017695Y0018538D01*
X0017822Y0018451D01*
X0017947Y0018362D01*
X0018069Y0018269D01*
X0018188Y0018173D01*
X0018306Y0018074D01*
X0018420Y0017973D01*
X0018532Y0017868D01*
X0018641Y0017760D01*
X0018747Y0017649D01*
X0018851Y0017536D01*
X0018951Y0017420D01*
X0019049Y0017302D01*
X0019143Y0017181D01*
X0019234Y0017058D01*
X0019322Y0016932D01*
X0019406Y0016804D01*
X0019488Y0016674D01*
X0019565Y0016542D01*
X0019640Y0016408D01*
X0019711Y0016272D01*
X0019778Y0016134D01*
X0019842Y0015994D01*
X0019902Y0015853D01*
X0019958Y0015711D01*
X0020011Y0015567D01*
X0020060Y0015421D01*
X0020105Y0015275D01*
X0020146Y0015127D01*
X0020183Y0014979D01*
X0020217Y0014829D01*
X0020247Y0014678D01*
X0020272Y0014527D01*
X0020294Y0014376D01*
X0020312Y0014223D01*
X0020326Y0014071D01*
X0020336Y0013918D01*
X0020342Y0013764D01*
X0020344Y0013611D01*
X0020342Y0013458D01*
X0020336Y0013304D01*
X0020326Y0013151D01*
X0020312Y0012999D01*
X0020294Y0012846D01*
X0020272Y0012695D01*
X0020247Y0012544D01*
X0020217Y0012393D01*
X0020183Y0012243D01*
X0020146Y0012095D01*
X0020105Y0011947D01*
X0020060Y0011801D01*
X0020011Y0011655D01*
X0019958Y0011511D01*
X0019902Y0011369D01*
X0019842Y0011228D01*
X0019778Y0011088D01*
X0019711Y0010950D01*
X0019640Y0010814D01*
X0019565Y0010680D01*
X0019488Y0010548D01*
X0019406Y0010418D01*
X0019322Y0010290D01*
X0019234Y0010164D01*
X0019143Y0010041D01*
X0019049Y0009920D01*
X0018951Y0009802D01*
X0018851Y0009686D01*
X0018747Y0009573D01*
X0018641Y0009462D01*
X0018532Y0009354D01*
X0018420Y0009249D01*
X0018306Y0009148D01*
X0018188Y0009049D01*
X0018069Y0008953D01*
X0017947Y0008860D01*
X0017822Y0008771D01*
X0017695Y0008684D01*
X0017566Y0008602D01*
X0017435Y0008522D01*
X0017302Y0008446D01*
X0017167Y0008373D01*
X0017030Y0008304D01*
X0016891Y0008239D01*
X0016751Y0008177D01*
X0016609Y0008119D01*
X0016466Y0008064D01*
X0016321Y0008013D01*
X0016175Y0007966D01*
X0016028Y0007923D01*
X0015880Y0007884D01*
X0015731Y0007848D01*
X0015581Y0007817D01*
X0015430Y0007789D01*
X0015279Y0007765D01*
X0015126Y0007745D01*
X0014974Y0007729D01*
X0014821Y0007717D01*
X0014668Y0007709D01*
X0014515Y0007705D01*
X0014361Y0007705D01*
X0014208Y0007709D01*
X0014055Y0007717D01*
X0013902Y0007729D01*
X0013750Y0007745D01*
X0013597Y0007765D01*
X0013446Y0007789D01*
X0013295Y0007817D01*
X0013145Y0007848D01*
X0012996Y0007884D01*
X0012848Y0007923D01*
X0012701Y0007966D01*
X0012555Y0008013D01*
X0012410Y0008064D01*
X0012267Y0008119D01*
X0012125Y0008177D01*
X0011985Y0008239D01*
X0011846Y0008304D01*
X0011709Y0008373D01*
X0011574Y0008446D01*
X0011441Y0008522D01*
X0011310Y0008602D01*
X0011181Y0008684D01*
X0011054Y0008771D01*
X0010929Y0008860D01*
X0010807Y0008953D01*
X0010688Y0009049D01*
X0010570Y0009148D01*
X0010456Y0009249D01*
X0010344Y0009354D01*
X0010235Y0009462D01*
X0010129Y0009573D01*
X0010025Y0009686D01*
X0009925Y0009802D01*
X0009827Y0009920D01*
X0009733Y0010041D01*
X0009642Y0010164D01*
X0009554Y0010290D01*
X0009470Y0010418D01*
X0009388Y0010548D01*
X0009311Y0010680D01*
X0009236Y0010814D01*
X0009165Y0010950D01*
X0009098Y0011088D01*
X0009034Y0011228D01*
X0008974Y0011369D01*
X0008918Y0011511D01*
X0008865Y0011655D01*
X0008816Y0011801D01*
X0008771Y0011947D01*
X0008730Y0012095D01*
X0008693Y0012243D01*
X0008659Y0012393D01*
X0008629Y0012544D01*
X0008604Y0012695D01*
X0008582Y0012846D01*
X0008564Y0012999D01*
X0008550Y0013151D01*
X0008540Y0013304D01*
X0008534Y0013458D01*
X0008532Y0013611D01*
X0048296Y0114398D02*
X0048298Y0114523D01*
X0048304Y0114648D01*
X0048314Y0114772D01*
X0048328Y0114896D01*
X0048345Y0115020D01*
X0048367Y0115143D01*
X0048393Y0115265D01*
X0048422Y0115387D01*
X0048455Y0115507D01*
X0048493Y0115626D01*
X0048533Y0115745D01*
X0048578Y0115861D01*
X0048626Y0115976D01*
X0048678Y0116090D01*
X0048734Y0116202D01*
X0048793Y0116312D01*
X0048855Y0116420D01*
X0048921Y0116527D01*
X0048990Y0116631D01*
X0049063Y0116732D01*
X0049138Y0116832D01*
X0049217Y0116929D01*
X0049299Y0117023D01*
X0049384Y0117115D01*
X0049471Y0117204D01*
X0049562Y0117290D01*
X0049655Y0117373D01*
X0049751Y0117454D01*
X0049849Y0117531D01*
X0049949Y0117605D01*
X0050052Y0117676D01*
X0050157Y0117743D01*
X0050265Y0117808D01*
X0050374Y0117868D01*
X0050485Y0117926D01*
X0050598Y0117979D01*
X0050712Y0118029D01*
X0050828Y0118076D01*
X0050945Y0118118D01*
X0051064Y0118157D01*
X0051184Y0118193D01*
X0051305Y0118224D01*
X0051427Y0118252D01*
X0051549Y0118275D01*
X0051673Y0118295D01*
X0051797Y0118311D01*
X0051921Y0118323D01*
X0052046Y0118331D01*
X0052171Y0118335D01*
X0052295Y0118335D01*
X0052420Y0118331D01*
X0052545Y0118323D01*
X0052669Y0118311D01*
X0052793Y0118295D01*
X0052917Y0118275D01*
X0053039Y0118252D01*
X0053161Y0118224D01*
X0053282Y0118193D01*
X0053402Y0118157D01*
X0053521Y0118118D01*
X0053638Y0118076D01*
X0053754Y0118029D01*
X0053868Y0117979D01*
X0053981Y0117926D01*
X0054092Y0117868D01*
X0054202Y0117808D01*
X0054309Y0117743D01*
X0054414Y0117676D01*
X0054517Y0117605D01*
X0054617Y0117531D01*
X0054715Y0117454D01*
X0054811Y0117373D01*
X0054904Y0117290D01*
X0054995Y0117204D01*
X0055082Y0117115D01*
X0055167Y0117023D01*
X0055249Y0116929D01*
X0055328Y0116832D01*
X0055403Y0116732D01*
X0055476Y0116631D01*
X0055545Y0116527D01*
X0055611Y0116420D01*
X0055673Y0116312D01*
X0055732Y0116202D01*
X0055788Y0116090D01*
X0055840Y0115976D01*
X0055888Y0115861D01*
X0055933Y0115745D01*
X0055973Y0115626D01*
X0056011Y0115507D01*
X0056044Y0115387D01*
X0056073Y0115265D01*
X0056099Y0115143D01*
X0056121Y0115020D01*
X0056138Y0114896D01*
X0056152Y0114772D01*
X0056162Y0114648D01*
X0056168Y0114523D01*
X0056170Y0114398D01*
X0056168Y0114273D01*
X0056162Y0114148D01*
X0056152Y0114024D01*
X0056138Y0113900D01*
X0056121Y0113776D01*
X0056099Y0113653D01*
X0056073Y0113531D01*
X0056044Y0113409D01*
X0056011Y0113289D01*
X0055973Y0113170D01*
X0055933Y0113051D01*
X0055888Y0112935D01*
X0055840Y0112820D01*
X0055788Y0112706D01*
X0055732Y0112594D01*
X0055673Y0112484D01*
X0055611Y0112376D01*
X0055545Y0112269D01*
X0055476Y0112165D01*
X0055403Y0112064D01*
X0055328Y0111964D01*
X0055249Y0111867D01*
X0055167Y0111773D01*
X0055082Y0111681D01*
X0054995Y0111592D01*
X0054904Y0111506D01*
X0054811Y0111423D01*
X0054715Y0111342D01*
X0054617Y0111265D01*
X0054517Y0111191D01*
X0054414Y0111120D01*
X0054309Y0111053D01*
X0054201Y0110988D01*
X0054092Y0110928D01*
X0053981Y0110870D01*
X0053868Y0110817D01*
X0053754Y0110767D01*
X0053638Y0110720D01*
X0053521Y0110678D01*
X0053402Y0110639D01*
X0053282Y0110603D01*
X0053161Y0110572D01*
X0053039Y0110544D01*
X0052917Y0110521D01*
X0052793Y0110501D01*
X0052669Y0110485D01*
X0052545Y0110473D01*
X0052420Y0110465D01*
X0052295Y0110461D01*
X0052171Y0110461D01*
X0052046Y0110465D01*
X0051921Y0110473D01*
X0051797Y0110485D01*
X0051673Y0110501D01*
X0051549Y0110521D01*
X0051427Y0110544D01*
X0051305Y0110572D01*
X0051184Y0110603D01*
X0051064Y0110639D01*
X0050945Y0110678D01*
X0050828Y0110720D01*
X0050712Y0110767D01*
X0050598Y0110817D01*
X0050485Y0110870D01*
X0050374Y0110928D01*
X0050264Y0110988D01*
X0050157Y0111053D01*
X0050052Y0111120D01*
X0049949Y0111191D01*
X0049849Y0111265D01*
X0049751Y0111342D01*
X0049655Y0111423D01*
X0049562Y0111506D01*
X0049471Y0111592D01*
X0049384Y0111681D01*
X0049299Y0111773D01*
X0049217Y0111867D01*
X0049138Y0111964D01*
X0049063Y0112064D01*
X0048990Y0112165D01*
X0048921Y0112269D01*
X0048855Y0112376D01*
X0048793Y0112484D01*
X0048734Y0112594D01*
X0048678Y0112706D01*
X0048626Y0112820D01*
X0048578Y0112935D01*
X0048533Y0113051D01*
X0048493Y0113170D01*
X0048455Y0113289D01*
X0048422Y0113409D01*
X0048393Y0113531D01*
X0048367Y0113653D01*
X0048345Y0113776D01*
X0048328Y0113900D01*
X0048314Y0114024D01*
X0048304Y0114148D01*
X0048298Y0114273D01*
X0048296Y0114398D01*
X0039634Y0133099D02*
X0039636Y0133187D01*
X0039642Y0133275D01*
X0039652Y0133363D01*
X0039666Y0133451D01*
X0039683Y0133537D01*
X0039705Y0133623D01*
X0039730Y0133707D01*
X0039760Y0133791D01*
X0039792Y0133873D01*
X0039829Y0133953D01*
X0039869Y0134032D01*
X0039913Y0134109D01*
X0039960Y0134184D01*
X0040010Y0134256D01*
X0040064Y0134327D01*
X0040120Y0134394D01*
X0040180Y0134460D01*
X0040242Y0134522D01*
X0040308Y0134582D01*
X0040375Y0134638D01*
X0040446Y0134692D01*
X0040518Y0134742D01*
X0040593Y0134789D01*
X0040670Y0134833D01*
X0040749Y0134873D01*
X0040829Y0134910D01*
X0040911Y0134942D01*
X0040995Y0134972D01*
X0041079Y0134997D01*
X0041165Y0135019D01*
X0041251Y0135036D01*
X0041339Y0135050D01*
X0041427Y0135060D01*
X0041515Y0135066D01*
X0041603Y0135068D01*
X0041691Y0135066D01*
X0041779Y0135060D01*
X0041867Y0135050D01*
X0041955Y0135036D01*
X0042041Y0135019D01*
X0042127Y0134997D01*
X0042211Y0134972D01*
X0042295Y0134942D01*
X0042377Y0134910D01*
X0042457Y0134873D01*
X0042536Y0134833D01*
X0042613Y0134789D01*
X0042688Y0134742D01*
X0042760Y0134692D01*
X0042831Y0134638D01*
X0042898Y0134582D01*
X0042964Y0134522D01*
X0043026Y0134460D01*
X0043086Y0134394D01*
X0043142Y0134327D01*
X0043196Y0134256D01*
X0043246Y0134184D01*
X0043293Y0134109D01*
X0043337Y0134032D01*
X0043377Y0133953D01*
X0043414Y0133873D01*
X0043446Y0133791D01*
X0043476Y0133707D01*
X0043501Y0133623D01*
X0043523Y0133537D01*
X0043540Y0133451D01*
X0043554Y0133363D01*
X0043564Y0133275D01*
X0043570Y0133187D01*
X0043572Y0133099D01*
X0043570Y0133011D01*
X0043564Y0132923D01*
X0043554Y0132835D01*
X0043540Y0132747D01*
X0043523Y0132661D01*
X0043501Y0132575D01*
X0043476Y0132491D01*
X0043446Y0132407D01*
X0043414Y0132325D01*
X0043377Y0132245D01*
X0043337Y0132166D01*
X0043293Y0132089D01*
X0043246Y0132014D01*
X0043196Y0131942D01*
X0043142Y0131871D01*
X0043086Y0131804D01*
X0043026Y0131738D01*
X0042964Y0131676D01*
X0042898Y0131616D01*
X0042831Y0131560D01*
X0042760Y0131506D01*
X0042688Y0131456D01*
X0042613Y0131409D01*
X0042536Y0131365D01*
X0042457Y0131325D01*
X0042377Y0131288D01*
X0042295Y0131256D01*
X0042211Y0131226D01*
X0042127Y0131201D01*
X0042041Y0131179D01*
X0041955Y0131162D01*
X0041867Y0131148D01*
X0041779Y0131138D01*
X0041691Y0131132D01*
X0041603Y0131130D01*
X0041515Y0131132D01*
X0041427Y0131138D01*
X0041339Y0131148D01*
X0041251Y0131162D01*
X0041165Y0131179D01*
X0041079Y0131201D01*
X0040995Y0131226D01*
X0040911Y0131256D01*
X0040829Y0131288D01*
X0040749Y0131325D01*
X0040670Y0131365D01*
X0040593Y0131409D01*
X0040518Y0131456D01*
X0040446Y0131506D01*
X0040375Y0131560D01*
X0040308Y0131616D01*
X0040242Y0131676D01*
X0040180Y0131738D01*
X0040120Y0131804D01*
X0040064Y0131871D01*
X0040010Y0131942D01*
X0039960Y0132014D01*
X0039913Y0132089D01*
X0039869Y0132166D01*
X0039829Y0132245D01*
X0039792Y0132325D01*
X0039760Y0132407D01*
X0039730Y0132491D01*
X0039705Y0132575D01*
X0039683Y0132661D01*
X0039666Y0132747D01*
X0039652Y0132835D01*
X0039642Y0132923D01*
X0039636Y0133011D01*
X0039634Y0133099D01*
X0008532Y0155343D02*
X0008534Y0155496D01*
X0008540Y0155650D01*
X0008550Y0155803D01*
X0008564Y0155955D01*
X0008582Y0156108D01*
X0008604Y0156259D01*
X0008629Y0156410D01*
X0008659Y0156561D01*
X0008693Y0156711D01*
X0008730Y0156859D01*
X0008771Y0157007D01*
X0008816Y0157153D01*
X0008865Y0157299D01*
X0008918Y0157443D01*
X0008974Y0157585D01*
X0009034Y0157726D01*
X0009098Y0157866D01*
X0009165Y0158004D01*
X0009236Y0158140D01*
X0009311Y0158274D01*
X0009388Y0158406D01*
X0009470Y0158536D01*
X0009554Y0158664D01*
X0009642Y0158790D01*
X0009733Y0158913D01*
X0009827Y0159034D01*
X0009925Y0159152D01*
X0010025Y0159268D01*
X0010129Y0159381D01*
X0010235Y0159492D01*
X0010344Y0159600D01*
X0010456Y0159705D01*
X0010570Y0159806D01*
X0010688Y0159905D01*
X0010807Y0160001D01*
X0010929Y0160094D01*
X0011054Y0160183D01*
X0011181Y0160270D01*
X0011310Y0160352D01*
X0011441Y0160432D01*
X0011574Y0160508D01*
X0011709Y0160581D01*
X0011846Y0160650D01*
X0011985Y0160715D01*
X0012125Y0160777D01*
X0012267Y0160835D01*
X0012410Y0160890D01*
X0012555Y0160941D01*
X0012701Y0160988D01*
X0012848Y0161031D01*
X0012996Y0161070D01*
X0013145Y0161106D01*
X0013295Y0161137D01*
X0013446Y0161165D01*
X0013597Y0161189D01*
X0013750Y0161209D01*
X0013902Y0161225D01*
X0014055Y0161237D01*
X0014208Y0161245D01*
X0014361Y0161249D01*
X0014515Y0161249D01*
X0014668Y0161245D01*
X0014821Y0161237D01*
X0014974Y0161225D01*
X0015126Y0161209D01*
X0015279Y0161189D01*
X0015430Y0161165D01*
X0015581Y0161137D01*
X0015731Y0161106D01*
X0015880Y0161070D01*
X0016028Y0161031D01*
X0016175Y0160988D01*
X0016321Y0160941D01*
X0016466Y0160890D01*
X0016609Y0160835D01*
X0016751Y0160777D01*
X0016891Y0160715D01*
X0017030Y0160650D01*
X0017167Y0160581D01*
X0017302Y0160508D01*
X0017435Y0160432D01*
X0017566Y0160352D01*
X0017695Y0160270D01*
X0017822Y0160183D01*
X0017947Y0160094D01*
X0018069Y0160001D01*
X0018188Y0159905D01*
X0018306Y0159806D01*
X0018420Y0159705D01*
X0018532Y0159600D01*
X0018641Y0159492D01*
X0018747Y0159381D01*
X0018851Y0159268D01*
X0018951Y0159152D01*
X0019049Y0159034D01*
X0019143Y0158913D01*
X0019234Y0158790D01*
X0019322Y0158664D01*
X0019406Y0158536D01*
X0019488Y0158406D01*
X0019565Y0158274D01*
X0019640Y0158140D01*
X0019711Y0158004D01*
X0019778Y0157866D01*
X0019842Y0157726D01*
X0019902Y0157585D01*
X0019958Y0157443D01*
X0020011Y0157299D01*
X0020060Y0157153D01*
X0020105Y0157007D01*
X0020146Y0156859D01*
X0020183Y0156711D01*
X0020217Y0156561D01*
X0020247Y0156410D01*
X0020272Y0156259D01*
X0020294Y0156108D01*
X0020312Y0155955D01*
X0020326Y0155803D01*
X0020336Y0155650D01*
X0020342Y0155496D01*
X0020344Y0155343D01*
X0020342Y0155190D01*
X0020336Y0155036D01*
X0020326Y0154883D01*
X0020312Y0154731D01*
X0020294Y0154578D01*
X0020272Y0154427D01*
X0020247Y0154276D01*
X0020217Y0154125D01*
X0020183Y0153975D01*
X0020146Y0153827D01*
X0020105Y0153679D01*
X0020060Y0153533D01*
X0020011Y0153387D01*
X0019958Y0153243D01*
X0019902Y0153101D01*
X0019842Y0152960D01*
X0019778Y0152820D01*
X0019711Y0152682D01*
X0019640Y0152546D01*
X0019565Y0152412D01*
X0019488Y0152280D01*
X0019406Y0152150D01*
X0019322Y0152022D01*
X0019234Y0151896D01*
X0019143Y0151773D01*
X0019049Y0151652D01*
X0018951Y0151534D01*
X0018851Y0151418D01*
X0018747Y0151305D01*
X0018641Y0151194D01*
X0018532Y0151086D01*
X0018420Y0150981D01*
X0018306Y0150880D01*
X0018188Y0150781D01*
X0018069Y0150685D01*
X0017947Y0150592D01*
X0017822Y0150503D01*
X0017695Y0150416D01*
X0017566Y0150334D01*
X0017435Y0150254D01*
X0017302Y0150178D01*
X0017167Y0150105D01*
X0017030Y0150036D01*
X0016891Y0149971D01*
X0016751Y0149909D01*
X0016609Y0149851D01*
X0016466Y0149796D01*
X0016321Y0149745D01*
X0016175Y0149698D01*
X0016028Y0149655D01*
X0015880Y0149616D01*
X0015731Y0149580D01*
X0015581Y0149549D01*
X0015430Y0149521D01*
X0015279Y0149497D01*
X0015126Y0149477D01*
X0014974Y0149461D01*
X0014821Y0149449D01*
X0014668Y0149441D01*
X0014515Y0149437D01*
X0014361Y0149437D01*
X0014208Y0149441D01*
X0014055Y0149449D01*
X0013902Y0149461D01*
X0013750Y0149477D01*
X0013597Y0149497D01*
X0013446Y0149521D01*
X0013295Y0149549D01*
X0013145Y0149580D01*
X0012996Y0149616D01*
X0012848Y0149655D01*
X0012701Y0149698D01*
X0012555Y0149745D01*
X0012410Y0149796D01*
X0012267Y0149851D01*
X0012125Y0149909D01*
X0011985Y0149971D01*
X0011846Y0150036D01*
X0011709Y0150105D01*
X0011574Y0150178D01*
X0011441Y0150254D01*
X0011310Y0150334D01*
X0011181Y0150416D01*
X0011054Y0150503D01*
X0010929Y0150592D01*
X0010807Y0150685D01*
X0010688Y0150781D01*
X0010570Y0150880D01*
X0010456Y0150981D01*
X0010344Y0151086D01*
X0010235Y0151194D01*
X0010129Y0151305D01*
X0010025Y0151418D01*
X0009925Y0151534D01*
X0009827Y0151652D01*
X0009733Y0151773D01*
X0009642Y0151896D01*
X0009554Y0152022D01*
X0009470Y0152150D01*
X0009388Y0152280D01*
X0009311Y0152412D01*
X0009236Y0152546D01*
X0009165Y0152682D01*
X0009098Y0152820D01*
X0009034Y0152960D01*
X0008974Y0153101D01*
X0008918Y0153243D01*
X0008865Y0153387D01*
X0008816Y0153533D01*
X0008771Y0153679D01*
X0008730Y0153827D01*
X0008693Y0153975D01*
X0008659Y0154125D01*
X0008629Y0154276D01*
X0008604Y0154427D01*
X0008582Y0154578D01*
X0008564Y0154731D01*
X0008550Y0154883D01*
X0008540Y0155036D01*
X0008534Y0155190D01*
X0008532Y0155343D01*
X0115225Y0114398D02*
X0115227Y0114523D01*
X0115233Y0114648D01*
X0115243Y0114772D01*
X0115257Y0114896D01*
X0115274Y0115020D01*
X0115296Y0115143D01*
X0115322Y0115265D01*
X0115351Y0115387D01*
X0115384Y0115507D01*
X0115422Y0115626D01*
X0115462Y0115745D01*
X0115507Y0115861D01*
X0115555Y0115976D01*
X0115607Y0116090D01*
X0115663Y0116202D01*
X0115722Y0116312D01*
X0115784Y0116420D01*
X0115850Y0116527D01*
X0115919Y0116631D01*
X0115992Y0116732D01*
X0116067Y0116832D01*
X0116146Y0116929D01*
X0116228Y0117023D01*
X0116313Y0117115D01*
X0116400Y0117204D01*
X0116491Y0117290D01*
X0116584Y0117373D01*
X0116680Y0117454D01*
X0116778Y0117531D01*
X0116878Y0117605D01*
X0116981Y0117676D01*
X0117086Y0117743D01*
X0117194Y0117808D01*
X0117303Y0117868D01*
X0117414Y0117926D01*
X0117527Y0117979D01*
X0117641Y0118029D01*
X0117757Y0118076D01*
X0117874Y0118118D01*
X0117993Y0118157D01*
X0118113Y0118193D01*
X0118234Y0118224D01*
X0118356Y0118252D01*
X0118478Y0118275D01*
X0118602Y0118295D01*
X0118726Y0118311D01*
X0118850Y0118323D01*
X0118975Y0118331D01*
X0119100Y0118335D01*
X0119224Y0118335D01*
X0119349Y0118331D01*
X0119474Y0118323D01*
X0119598Y0118311D01*
X0119722Y0118295D01*
X0119846Y0118275D01*
X0119968Y0118252D01*
X0120090Y0118224D01*
X0120211Y0118193D01*
X0120331Y0118157D01*
X0120450Y0118118D01*
X0120567Y0118076D01*
X0120683Y0118029D01*
X0120797Y0117979D01*
X0120910Y0117926D01*
X0121021Y0117868D01*
X0121131Y0117808D01*
X0121238Y0117743D01*
X0121343Y0117676D01*
X0121446Y0117605D01*
X0121546Y0117531D01*
X0121644Y0117454D01*
X0121740Y0117373D01*
X0121833Y0117290D01*
X0121924Y0117204D01*
X0122011Y0117115D01*
X0122096Y0117023D01*
X0122178Y0116929D01*
X0122257Y0116832D01*
X0122332Y0116732D01*
X0122405Y0116631D01*
X0122474Y0116527D01*
X0122540Y0116420D01*
X0122602Y0116312D01*
X0122661Y0116202D01*
X0122717Y0116090D01*
X0122769Y0115976D01*
X0122817Y0115861D01*
X0122862Y0115745D01*
X0122902Y0115626D01*
X0122940Y0115507D01*
X0122973Y0115387D01*
X0123002Y0115265D01*
X0123028Y0115143D01*
X0123050Y0115020D01*
X0123067Y0114896D01*
X0123081Y0114772D01*
X0123091Y0114648D01*
X0123097Y0114523D01*
X0123099Y0114398D01*
X0123097Y0114273D01*
X0123091Y0114148D01*
X0123081Y0114024D01*
X0123067Y0113900D01*
X0123050Y0113776D01*
X0123028Y0113653D01*
X0123002Y0113531D01*
X0122973Y0113409D01*
X0122940Y0113289D01*
X0122902Y0113170D01*
X0122862Y0113051D01*
X0122817Y0112935D01*
X0122769Y0112820D01*
X0122717Y0112706D01*
X0122661Y0112594D01*
X0122602Y0112484D01*
X0122540Y0112376D01*
X0122474Y0112269D01*
X0122405Y0112165D01*
X0122332Y0112064D01*
X0122257Y0111964D01*
X0122178Y0111867D01*
X0122096Y0111773D01*
X0122011Y0111681D01*
X0121924Y0111592D01*
X0121833Y0111506D01*
X0121740Y0111423D01*
X0121644Y0111342D01*
X0121546Y0111265D01*
X0121446Y0111191D01*
X0121343Y0111120D01*
X0121238Y0111053D01*
X0121130Y0110988D01*
X0121021Y0110928D01*
X0120910Y0110870D01*
X0120797Y0110817D01*
X0120683Y0110767D01*
X0120567Y0110720D01*
X0120450Y0110678D01*
X0120331Y0110639D01*
X0120211Y0110603D01*
X0120090Y0110572D01*
X0119968Y0110544D01*
X0119846Y0110521D01*
X0119722Y0110501D01*
X0119598Y0110485D01*
X0119474Y0110473D01*
X0119349Y0110465D01*
X0119224Y0110461D01*
X0119100Y0110461D01*
X0118975Y0110465D01*
X0118850Y0110473D01*
X0118726Y0110485D01*
X0118602Y0110501D01*
X0118478Y0110521D01*
X0118356Y0110544D01*
X0118234Y0110572D01*
X0118113Y0110603D01*
X0117993Y0110639D01*
X0117874Y0110678D01*
X0117757Y0110720D01*
X0117641Y0110767D01*
X0117527Y0110817D01*
X0117414Y0110870D01*
X0117303Y0110928D01*
X0117193Y0110988D01*
X0117086Y0111053D01*
X0116981Y0111120D01*
X0116878Y0111191D01*
X0116778Y0111265D01*
X0116680Y0111342D01*
X0116584Y0111423D01*
X0116491Y0111506D01*
X0116400Y0111592D01*
X0116313Y0111681D01*
X0116228Y0111773D01*
X0116146Y0111867D01*
X0116067Y0111964D01*
X0115992Y0112064D01*
X0115919Y0112165D01*
X0115850Y0112269D01*
X0115784Y0112376D01*
X0115722Y0112484D01*
X0115663Y0112594D01*
X0115607Y0112706D01*
X0115555Y0112820D01*
X0115507Y0112935D01*
X0115462Y0113051D01*
X0115422Y0113170D01*
X0115384Y0113289D01*
X0115351Y0113409D01*
X0115322Y0113531D01*
X0115296Y0113653D01*
X0115274Y0113776D01*
X0115257Y0113900D01*
X0115243Y0114024D01*
X0115233Y0114148D01*
X0115227Y0114273D01*
X0115225Y0114398D01*
X0127035Y0133099D02*
X0127037Y0133187D01*
X0127043Y0133275D01*
X0127053Y0133363D01*
X0127067Y0133451D01*
X0127084Y0133537D01*
X0127106Y0133623D01*
X0127131Y0133707D01*
X0127161Y0133791D01*
X0127193Y0133873D01*
X0127230Y0133953D01*
X0127270Y0134032D01*
X0127314Y0134109D01*
X0127361Y0134184D01*
X0127411Y0134256D01*
X0127465Y0134327D01*
X0127521Y0134394D01*
X0127581Y0134460D01*
X0127643Y0134522D01*
X0127709Y0134582D01*
X0127776Y0134638D01*
X0127847Y0134692D01*
X0127919Y0134742D01*
X0127994Y0134789D01*
X0128071Y0134833D01*
X0128150Y0134873D01*
X0128230Y0134910D01*
X0128312Y0134942D01*
X0128396Y0134972D01*
X0128480Y0134997D01*
X0128566Y0135019D01*
X0128652Y0135036D01*
X0128740Y0135050D01*
X0128828Y0135060D01*
X0128916Y0135066D01*
X0129004Y0135068D01*
X0129092Y0135066D01*
X0129180Y0135060D01*
X0129268Y0135050D01*
X0129356Y0135036D01*
X0129442Y0135019D01*
X0129528Y0134997D01*
X0129612Y0134972D01*
X0129696Y0134942D01*
X0129778Y0134910D01*
X0129858Y0134873D01*
X0129937Y0134833D01*
X0130014Y0134789D01*
X0130089Y0134742D01*
X0130161Y0134692D01*
X0130232Y0134638D01*
X0130299Y0134582D01*
X0130365Y0134522D01*
X0130427Y0134460D01*
X0130487Y0134394D01*
X0130543Y0134327D01*
X0130597Y0134256D01*
X0130647Y0134184D01*
X0130694Y0134109D01*
X0130738Y0134032D01*
X0130778Y0133953D01*
X0130815Y0133873D01*
X0130847Y0133791D01*
X0130877Y0133707D01*
X0130902Y0133623D01*
X0130924Y0133537D01*
X0130941Y0133451D01*
X0130955Y0133363D01*
X0130965Y0133275D01*
X0130971Y0133187D01*
X0130973Y0133099D01*
X0130971Y0133011D01*
X0130965Y0132923D01*
X0130955Y0132835D01*
X0130941Y0132747D01*
X0130924Y0132661D01*
X0130902Y0132575D01*
X0130877Y0132491D01*
X0130847Y0132407D01*
X0130815Y0132325D01*
X0130778Y0132245D01*
X0130738Y0132166D01*
X0130694Y0132089D01*
X0130647Y0132014D01*
X0130597Y0131942D01*
X0130543Y0131871D01*
X0130487Y0131804D01*
X0130427Y0131738D01*
X0130365Y0131676D01*
X0130299Y0131616D01*
X0130232Y0131560D01*
X0130161Y0131506D01*
X0130089Y0131456D01*
X0130014Y0131409D01*
X0129937Y0131365D01*
X0129858Y0131325D01*
X0129778Y0131288D01*
X0129696Y0131256D01*
X0129612Y0131226D01*
X0129528Y0131201D01*
X0129442Y0131179D01*
X0129356Y0131162D01*
X0129268Y0131148D01*
X0129180Y0131138D01*
X0129092Y0131132D01*
X0129004Y0131130D01*
X0128916Y0131132D01*
X0128828Y0131138D01*
X0128740Y0131148D01*
X0128652Y0131162D01*
X0128566Y0131179D01*
X0128480Y0131201D01*
X0128396Y0131226D01*
X0128312Y0131256D01*
X0128230Y0131288D01*
X0128150Y0131325D01*
X0128071Y0131365D01*
X0127994Y0131409D01*
X0127919Y0131456D01*
X0127847Y0131506D01*
X0127776Y0131560D01*
X0127709Y0131616D01*
X0127643Y0131676D01*
X0127581Y0131738D01*
X0127521Y0131804D01*
X0127465Y0131871D01*
X0127411Y0131942D01*
X0127361Y0132014D01*
X0127314Y0132089D01*
X0127270Y0132166D01*
X0127230Y0132245D01*
X0127193Y0132325D01*
X0127161Y0132407D01*
X0127131Y0132491D01*
X0127106Y0132575D01*
X0127084Y0132661D01*
X0127067Y0132747D01*
X0127053Y0132835D01*
X0127043Y0132923D01*
X0127037Y0133011D01*
X0127035Y0133099D01*
X0150264Y0155343D02*
X0150266Y0155496D01*
X0150272Y0155650D01*
X0150282Y0155803D01*
X0150296Y0155955D01*
X0150314Y0156108D01*
X0150336Y0156259D01*
X0150361Y0156410D01*
X0150391Y0156561D01*
X0150425Y0156711D01*
X0150462Y0156859D01*
X0150503Y0157007D01*
X0150548Y0157153D01*
X0150597Y0157299D01*
X0150650Y0157443D01*
X0150706Y0157585D01*
X0150766Y0157726D01*
X0150830Y0157866D01*
X0150897Y0158004D01*
X0150968Y0158140D01*
X0151043Y0158274D01*
X0151120Y0158406D01*
X0151202Y0158536D01*
X0151286Y0158664D01*
X0151374Y0158790D01*
X0151465Y0158913D01*
X0151559Y0159034D01*
X0151657Y0159152D01*
X0151757Y0159268D01*
X0151861Y0159381D01*
X0151967Y0159492D01*
X0152076Y0159600D01*
X0152188Y0159705D01*
X0152302Y0159806D01*
X0152420Y0159905D01*
X0152539Y0160001D01*
X0152661Y0160094D01*
X0152786Y0160183D01*
X0152913Y0160270D01*
X0153042Y0160352D01*
X0153173Y0160432D01*
X0153306Y0160508D01*
X0153441Y0160581D01*
X0153578Y0160650D01*
X0153717Y0160715D01*
X0153857Y0160777D01*
X0153999Y0160835D01*
X0154142Y0160890D01*
X0154287Y0160941D01*
X0154433Y0160988D01*
X0154580Y0161031D01*
X0154728Y0161070D01*
X0154877Y0161106D01*
X0155027Y0161137D01*
X0155178Y0161165D01*
X0155329Y0161189D01*
X0155482Y0161209D01*
X0155634Y0161225D01*
X0155787Y0161237D01*
X0155940Y0161245D01*
X0156093Y0161249D01*
X0156247Y0161249D01*
X0156400Y0161245D01*
X0156553Y0161237D01*
X0156706Y0161225D01*
X0156858Y0161209D01*
X0157011Y0161189D01*
X0157162Y0161165D01*
X0157313Y0161137D01*
X0157463Y0161106D01*
X0157612Y0161070D01*
X0157760Y0161031D01*
X0157907Y0160988D01*
X0158053Y0160941D01*
X0158198Y0160890D01*
X0158341Y0160835D01*
X0158483Y0160777D01*
X0158623Y0160715D01*
X0158762Y0160650D01*
X0158899Y0160581D01*
X0159034Y0160508D01*
X0159167Y0160432D01*
X0159298Y0160352D01*
X0159427Y0160270D01*
X0159554Y0160183D01*
X0159679Y0160094D01*
X0159801Y0160001D01*
X0159920Y0159905D01*
X0160038Y0159806D01*
X0160152Y0159705D01*
X0160264Y0159600D01*
X0160373Y0159492D01*
X0160479Y0159381D01*
X0160583Y0159268D01*
X0160683Y0159152D01*
X0160781Y0159034D01*
X0160875Y0158913D01*
X0160966Y0158790D01*
X0161054Y0158664D01*
X0161138Y0158536D01*
X0161220Y0158406D01*
X0161297Y0158274D01*
X0161372Y0158140D01*
X0161443Y0158004D01*
X0161510Y0157866D01*
X0161574Y0157726D01*
X0161634Y0157585D01*
X0161690Y0157443D01*
X0161743Y0157299D01*
X0161792Y0157153D01*
X0161837Y0157007D01*
X0161878Y0156859D01*
X0161915Y0156711D01*
X0161949Y0156561D01*
X0161979Y0156410D01*
X0162004Y0156259D01*
X0162026Y0156108D01*
X0162044Y0155955D01*
X0162058Y0155803D01*
X0162068Y0155650D01*
X0162074Y0155496D01*
X0162076Y0155343D01*
X0162074Y0155190D01*
X0162068Y0155036D01*
X0162058Y0154883D01*
X0162044Y0154731D01*
X0162026Y0154578D01*
X0162004Y0154427D01*
X0161979Y0154276D01*
X0161949Y0154125D01*
X0161915Y0153975D01*
X0161878Y0153827D01*
X0161837Y0153679D01*
X0161792Y0153533D01*
X0161743Y0153387D01*
X0161690Y0153243D01*
X0161634Y0153101D01*
X0161574Y0152960D01*
X0161510Y0152820D01*
X0161443Y0152682D01*
X0161372Y0152546D01*
X0161297Y0152412D01*
X0161220Y0152280D01*
X0161138Y0152150D01*
X0161054Y0152022D01*
X0160966Y0151896D01*
X0160875Y0151773D01*
X0160781Y0151652D01*
X0160683Y0151534D01*
X0160583Y0151418D01*
X0160479Y0151305D01*
X0160373Y0151194D01*
X0160264Y0151086D01*
X0160152Y0150981D01*
X0160038Y0150880D01*
X0159920Y0150781D01*
X0159801Y0150685D01*
X0159679Y0150592D01*
X0159554Y0150503D01*
X0159427Y0150416D01*
X0159298Y0150334D01*
X0159167Y0150254D01*
X0159034Y0150178D01*
X0158899Y0150105D01*
X0158762Y0150036D01*
X0158623Y0149971D01*
X0158483Y0149909D01*
X0158341Y0149851D01*
X0158198Y0149796D01*
X0158053Y0149745D01*
X0157907Y0149698D01*
X0157760Y0149655D01*
X0157612Y0149616D01*
X0157463Y0149580D01*
X0157313Y0149549D01*
X0157162Y0149521D01*
X0157011Y0149497D01*
X0156858Y0149477D01*
X0156706Y0149461D01*
X0156553Y0149449D01*
X0156400Y0149441D01*
X0156247Y0149437D01*
X0156093Y0149437D01*
X0155940Y0149441D01*
X0155787Y0149449D01*
X0155634Y0149461D01*
X0155482Y0149477D01*
X0155329Y0149497D01*
X0155178Y0149521D01*
X0155027Y0149549D01*
X0154877Y0149580D01*
X0154728Y0149616D01*
X0154580Y0149655D01*
X0154433Y0149698D01*
X0154287Y0149745D01*
X0154142Y0149796D01*
X0153999Y0149851D01*
X0153857Y0149909D01*
X0153717Y0149971D01*
X0153578Y0150036D01*
X0153441Y0150105D01*
X0153306Y0150178D01*
X0153173Y0150254D01*
X0153042Y0150334D01*
X0152913Y0150416D01*
X0152786Y0150503D01*
X0152661Y0150592D01*
X0152539Y0150685D01*
X0152420Y0150781D01*
X0152302Y0150880D01*
X0152188Y0150981D01*
X0152076Y0151086D01*
X0151967Y0151194D01*
X0151861Y0151305D01*
X0151757Y0151418D01*
X0151657Y0151534D01*
X0151559Y0151652D01*
X0151465Y0151773D01*
X0151374Y0151896D01*
X0151286Y0152022D01*
X0151202Y0152150D01*
X0151120Y0152280D01*
X0151043Y0152412D01*
X0150968Y0152546D01*
X0150897Y0152682D01*
X0150830Y0152820D01*
X0150766Y0152960D01*
X0150706Y0153101D01*
X0150650Y0153243D01*
X0150597Y0153387D01*
X0150548Y0153533D01*
X0150503Y0153679D01*
X0150462Y0153827D01*
X0150425Y0153975D01*
X0150391Y0154125D01*
X0150361Y0154276D01*
X0150336Y0154427D01*
X0150314Y0154578D01*
X0150296Y0154731D01*
X0150282Y0154883D01*
X0150272Y0155036D01*
X0150266Y0155190D01*
X0150264Y0155343D01*
M02*
