%
M48
M72
T01C0.0157
T02C0.0315
T03C0.0394
T04C0.0400
T05C0.0787
T06C0.1181
%
T01
X12389Y12818
X12389Y12306
X12585Y11794
X12625Y10810
X13885Y11125
X11247Y12149
X10656Y11715
X10105Y12109
X9593Y11991
X9121Y12149
X8176Y12149
X7231Y12149
X6286Y12149
X6326Y10771
X7231Y10692
X4633Y12975
X4658Y13893
X5814Y13920
X6759Y13920
X7704Y13920
X8648Y13920
X9593Y13920
X10538Y13960
X11089Y13881
X12428Y15141
X12940Y14826
X12585Y14353
X8137Y15652
X7192Y15652
X6247Y15652
X5302Y15652
X4160Y11519
X3373Y10983
X3609Y10141
X4397Y10456
X3751Y9310
X4239Y8763
X1877Y7897
X3058Y6086
X2152Y4196
X2271Y3448
X2349Y2739
X3058Y3526
X3609Y3802
X1089Y2739
X10578Y3684
X12034Y4274
X12113Y3330
X12152Y2660
X11601Y2267
X12822Y1440
X15302Y5023
X696Y12936
T02
X9719Y3311
X8932Y3311
X8145Y3311
X7357Y3311
X7357Y1618
X8145Y1618
X8932Y1618
X9719Y1618
T03
X11538Y2865
X11538Y3865
X11538Y4865
X10538Y4865
X9538Y4865
X8538Y4865
X7538Y4865
X6538Y4865
X5538Y4865
X5538Y3865
X5538Y2865
X5538Y5865
X5538Y6865
X5538Y7865
X5538Y8865
X5538Y9865
X6538Y9865
X6538Y8865
X6538Y7865
X6538Y6865
X6538Y5865
X7538Y5865
X7538Y6865
X7538Y7865
X7538Y8865
X7538Y9865
X8538Y9865
X8538Y8865
X8538Y7865
X8538Y6865
X8538Y5865
X9538Y5865
X9538Y6865
X9538Y7865
X9538Y8865
X9538Y9865
X10538Y9865
X11538Y9865
X11538Y8865
X10538Y8865
X10538Y7865
X11538Y7865
X11538Y6865
X10538Y6865
X10538Y5865
X11538Y5865
X12900Y13310
X4160Y13310
T04
X2337Y13448
X1337Y13448
X1337Y12448
X1337Y11448
X1337Y10448
X1337Y9448
X1337Y8448
X2337Y8448
X2337Y9448
X2337Y10448
X2337Y11448
X2337Y12448
X14774Y13471
X15774Y13471
X15774Y12471
X14774Y12471
X14774Y11471
X15774Y11471
X15774Y10471
X14774Y10471
X14774Y9471
X15774Y9471
X15774Y8471
X14774Y8471
X14774Y7471
X15774Y7471
X15774Y6471
X14774Y6471
X14774Y5471
X15774Y5471
T05
X11916Y1597
X5223Y1597
X5223Y11440
X11916Y11440
T06
X1444Y1361
X1444Y15534
X15617Y15534
X15617Y1361
M30
