G75*
%MOIN*%
%OFA0B0*%
%FSLAX25Y25*%
%IPPOS*%
%LPD*%
%AMOC8*
5,1,8,0,0,1.08239X$1,22.5*
%
%ADD10R,0.00984X0.02953*%
%ADD11R,0.02953X0.00984*%
%ADD12R,0.01378X0.09646*%
%ADD13R,0.01000X0.04400*%
%ADD14R,0.03543X0.02756*%
%ADD15R,0.02756X0.03543*%
D10*
X0028264Y0042320D03*
X0030233Y0042320D03*
X0032201Y0042320D03*
X0034170Y0042320D03*
X0034170Y0049406D03*
X0032201Y0049406D03*
X0030233Y0049406D03*
X0028264Y0049406D03*
D11*
X0027674Y0045863D03*
X0034760Y0045863D03*
D12*
X0051052Y0130835D03*
X0053414Y0130835D03*
X0055776Y0130835D03*
X0058138Y0130835D03*
X0060501Y0130835D03*
X0062863Y0130835D03*
X0065225Y0130835D03*
X0067587Y0130835D03*
X0069949Y0130835D03*
X0072312Y0130835D03*
X0074674Y0130835D03*
X0077036Y0130835D03*
X0079398Y0130835D03*
X0081760Y0130835D03*
X0084123Y0130835D03*
X0086485Y0130835D03*
X0088847Y0130835D03*
X0091209Y0130835D03*
X0093571Y0130835D03*
X0095934Y0130835D03*
X0098296Y0130835D03*
X0100658Y0130835D03*
X0103020Y0130835D03*
X0105382Y0130835D03*
X0107745Y0130835D03*
X0110107Y0130835D03*
X0112469Y0130835D03*
X0114831Y0130835D03*
X0117193Y0130835D03*
X0119556Y0130835D03*
X0119556Y0148355D03*
X0117193Y0148355D03*
X0114831Y0148355D03*
X0112469Y0148355D03*
X0110107Y0148355D03*
X0107745Y0148355D03*
X0105382Y0148355D03*
X0103020Y0148355D03*
X0100658Y0148355D03*
X0098296Y0148355D03*
X0095934Y0148355D03*
X0093571Y0148355D03*
X0091209Y0148355D03*
X0088847Y0148355D03*
X0086485Y0148355D03*
X0084123Y0148355D03*
X0081760Y0148355D03*
X0079398Y0148355D03*
X0077036Y0148355D03*
X0074674Y0148355D03*
X0072312Y0148355D03*
X0069949Y0148355D03*
X0067587Y0148355D03*
X0065225Y0148355D03*
X0062863Y0148355D03*
X0060501Y0148355D03*
X0058138Y0148355D03*
X0055776Y0148355D03*
X0053414Y0148355D03*
X0051052Y0148355D03*
D13*
X0012650Y0042632D03*
X0014650Y0042632D03*
X0016650Y0042632D03*
X0016650Y0048432D03*
X0014650Y0048432D03*
X0012650Y0048432D03*
D14*
X0020343Y0070107D03*
X0020343Y0075225D03*
X0025855Y0075225D03*
X0025855Y0070107D03*
X0143965Y0046091D03*
X0143965Y0040973D03*
X0143965Y0035068D03*
X0143965Y0029950D03*
X0152233Y0029950D03*
X0152233Y0035068D03*
X0152233Y0040973D03*
X0152233Y0046091D03*
X0160501Y0046091D03*
X0160501Y0040973D03*
X0160501Y0035068D03*
X0160501Y0029950D03*
D15*
X0134319Y0027391D03*
X0129201Y0027391D03*
X0129201Y0034083D03*
X0134319Y0034083D03*
X0134319Y0040776D03*
X0129201Y0040776D03*
X0129201Y0047469D03*
X0134319Y0047469D03*
X0134319Y0054162D03*
X0129201Y0054162D03*
X0129201Y0020698D03*
X0134319Y0020698D03*
M02*
