G75*
%MOIN*%
%OFA0B0*%
%FSLAX25Y25*%
%IPPOS*%
%LPD*%
%AMOC8*
5,1,8,0,0,1.08239X$1,22.5*
%
%ADD10C,0.08858*%
%ADD11C,0.12795*%
%ADD12C,0.04921*%
%ADD13R,0.01378X0.03445*%
%ADD14R,0.03445X0.01378*%
%ADD15R,0.02362X0.10630*%
%ADD16C,0.06134*%
%ADD17R,0.01984X0.05384*%
%ADD18OC8,0.07584*%
%ADD19C,0.00500*%
%ADD20R,0.04528X0.03740*%
%ADD21R,0.03740X0.04528*%
%ADD22R,0.05584X0.07284*%
%ADD23R,0.00600X0.07200*%
%ADD24OC8,0.07984*%
%ADD25C,0.06921*%
D10*
X0052233Y0015973D03*
X0119162Y0015973D03*
X0119162Y0114398D03*
X0052233Y0114398D03*
D11*
X0014438Y0013611D03*
X0156170Y0013611D03*
X0156170Y0155343D03*
X0014438Y0155343D03*
D12*
X0041603Y0133099D03*
X0129004Y0133099D03*
D13*
X0034170Y0049456D03*
X0032201Y0049456D03*
X0030233Y0049456D03*
X0028264Y0049456D03*
X0028264Y0042270D03*
X0030233Y0042270D03*
X0032201Y0042270D03*
X0034170Y0042270D03*
D14*
X0034810Y0045863D03*
X0027625Y0045863D03*
D15*
X0051052Y0130835D03*
X0053414Y0130835D03*
X0055776Y0130835D03*
X0058138Y0130835D03*
X0060501Y0130835D03*
X0062863Y0130835D03*
X0065225Y0130835D03*
X0067587Y0130835D03*
X0069949Y0130835D03*
X0072312Y0130835D03*
X0074674Y0130835D03*
X0077036Y0130835D03*
X0079398Y0130835D03*
X0081760Y0130835D03*
X0084123Y0130835D03*
X0086485Y0130835D03*
X0088847Y0130835D03*
X0091209Y0130835D03*
X0093571Y0130835D03*
X0095934Y0130835D03*
X0098296Y0130835D03*
X0100658Y0130835D03*
X0103020Y0130835D03*
X0105382Y0130835D03*
X0107745Y0130835D03*
X0110107Y0130835D03*
X0112469Y0130835D03*
X0114831Y0130835D03*
X0117193Y0130835D03*
X0119556Y0130835D03*
X0119556Y0148355D03*
X0117193Y0148355D03*
X0114831Y0148355D03*
X0112469Y0148355D03*
X0110107Y0148355D03*
X0107745Y0148355D03*
X0105382Y0148355D03*
X0103020Y0148355D03*
X0100658Y0148355D03*
X0098296Y0148355D03*
X0095934Y0148355D03*
X0093571Y0148355D03*
X0091209Y0148355D03*
X0088847Y0148355D03*
X0086485Y0148355D03*
X0084123Y0148355D03*
X0081760Y0148355D03*
X0079398Y0148355D03*
X0077036Y0148355D03*
X0074674Y0148355D03*
X0072312Y0148355D03*
X0069949Y0148355D03*
X0067587Y0148355D03*
X0065225Y0148355D03*
X0062863Y0148355D03*
X0060501Y0148355D03*
X0058138Y0148355D03*
X0055776Y0148355D03*
X0053414Y0148355D03*
X0051052Y0148355D03*
D16*
X0073571Y0035684D02*
X0073571Y0030534D01*
X0081445Y0030534D02*
X0081445Y0035684D01*
X0089319Y0035684D02*
X0089319Y0030534D01*
X0097193Y0030534D02*
X0097193Y0035684D01*
X0097193Y0018755D02*
X0097193Y0013605D01*
X0089319Y0013605D02*
X0089319Y0018755D01*
X0081445Y0018755D02*
X0081445Y0013605D01*
X0073571Y0013605D02*
X0073571Y0018755D01*
D17*
X0016650Y0042632D03*
X0014650Y0042632D03*
X0012650Y0042632D03*
X0012650Y0048432D03*
X0014650Y0048432D03*
X0016650Y0048432D03*
D18*
X0013375Y0084477D03*
X0023375Y0084477D03*
X0023375Y0094477D03*
X0023375Y0104477D03*
X0023375Y0114477D03*
X0023375Y0124477D03*
X0023375Y0134477D03*
X0013375Y0134477D03*
X0013375Y0124477D03*
X0013375Y0114477D03*
X0013375Y0104477D03*
X0013375Y0094477D03*
D19*
X0031201Y0154400D02*
X0031864Y0154222D01*
X0032548Y0154162D01*
X0033231Y0154222D01*
X0033894Y0154400D01*
X0034516Y0154690D01*
X0035078Y0155083D01*
X0035564Y0155569D01*
X0035957Y0156131D01*
X0036247Y0156753D01*
X0036425Y0157416D01*
X0036485Y0158099D01*
X0036425Y0158783D01*
X0036247Y0159446D01*
X0035957Y0160068D01*
X0035564Y0160630D01*
X0035078Y0161115D01*
X0034516Y0161509D01*
X0033894Y0161799D01*
X0033231Y0161976D01*
X0032548Y0162036D01*
X0031864Y0161976D01*
X0031201Y0161799D01*
X0030579Y0161509D01*
X0030017Y0161115D01*
X0029532Y0160630D01*
X0029138Y0160068D01*
X0028848Y0159446D01*
X0028671Y0158783D01*
X0028611Y0158099D01*
X0028671Y0157416D01*
X0028848Y0156753D01*
X0029138Y0156131D01*
X0029532Y0155569D01*
X0030017Y0155083D01*
X0030579Y0154690D01*
X0031201Y0154400D01*
X0031407Y0154344D02*
X0033688Y0154344D01*
X0034735Y0154843D02*
X0030360Y0154843D01*
X0029759Y0155341D02*
X0035337Y0155341D01*
X0035754Y0155840D02*
X0029342Y0155840D01*
X0029041Y0156339D02*
X0036054Y0156339D01*
X0036270Y0156837D02*
X0028826Y0156837D01*
X0028692Y0157336D02*
X0036404Y0157336D01*
X0036462Y0157834D02*
X0028634Y0157834D01*
X0028631Y0158333D02*
X0036464Y0158333D01*
X0036412Y0158831D02*
X0028683Y0158831D01*
X0028817Y0159330D02*
X0036278Y0159330D01*
X0036069Y0159828D02*
X0029026Y0159828D01*
X0029319Y0160327D02*
X0035776Y0160327D01*
X0035368Y0160825D02*
X0029727Y0160825D01*
X0030315Y0161324D02*
X0034781Y0161324D01*
X0033807Y0161822D02*
X0031288Y0161822D01*
X0032548Y0027391D02*
X0031864Y0027331D01*
X0031201Y0027153D01*
X0030579Y0026863D01*
X0030017Y0026469D01*
X0029532Y0025984D01*
X0029138Y0025422D01*
X0028848Y0024800D01*
X0028671Y0024137D01*
X0028611Y0023454D01*
X0028671Y0022770D01*
X0028848Y0022107D01*
X0029138Y0021485D01*
X0029532Y0020923D01*
X0030017Y0020438D01*
X0030579Y0020044D01*
X0031201Y0019754D01*
X0031864Y0019576D01*
X0032548Y0019517D01*
X0033231Y0019576D01*
X0033894Y0019754D01*
X0034516Y0020044D01*
X0035078Y0020438D01*
X0035564Y0020923D01*
X0035957Y0021485D01*
X0036247Y0022107D01*
X0036425Y0022770D01*
X0036485Y0023454D01*
X0036425Y0024137D01*
X0036247Y0024800D01*
X0035957Y0025422D01*
X0035564Y0025984D01*
X0035078Y0026469D01*
X0034516Y0026863D01*
X0033894Y0027153D01*
X0033231Y0027331D01*
X0032548Y0027391D01*
X0033629Y0027224D02*
X0031466Y0027224D01*
X0030383Y0026726D02*
X0034713Y0026726D01*
X0035321Y0026227D02*
X0029775Y0026227D01*
X0029353Y0025729D02*
X0035743Y0025729D01*
X0036047Y0025230D02*
X0029049Y0025230D01*
X0028830Y0024732D02*
X0036266Y0024732D01*
X0036399Y0024233D02*
X0028696Y0024233D01*
X0028635Y0023734D02*
X0036460Y0023734D01*
X0036466Y0023236D02*
X0028630Y0023236D01*
X0028679Y0022737D02*
X0036416Y0022737D01*
X0036283Y0022239D02*
X0028813Y0022239D01*
X0029019Y0021740D02*
X0036076Y0021740D01*
X0035787Y0021242D02*
X0029308Y0021242D01*
X0029711Y0020743D02*
X0035384Y0020743D01*
X0034803Y0020245D02*
X0030292Y0020245D01*
X0031229Y0019746D02*
X0033866Y0019746D01*
D20*
X0025855Y0070107D03*
X0025855Y0075225D03*
X0020343Y0075225D03*
X0020343Y0070107D03*
X0143965Y0046091D03*
X0143965Y0040973D03*
X0143965Y0035068D03*
X0143965Y0029950D03*
X0152233Y0029950D03*
X0152233Y0035068D03*
X0152233Y0040973D03*
X0152233Y0046091D03*
X0160501Y0046091D03*
X0160501Y0040973D03*
X0160501Y0035068D03*
X0160501Y0029950D03*
D21*
X0134319Y0027391D03*
X0129201Y0027391D03*
X0129201Y0034083D03*
X0134319Y0034083D03*
X0134319Y0040776D03*
X0129201Y0040776D03*
X0129201Y0047469D03*
X0134319Y0047469D03*
X0134319Y0054162D03*
X0129201Y0054162D03*
X0129201Y0020698D03*
X0134319Y0020698D03*
D22*
X0134666Y0013217D03*
X0140666Y0013217D03*
D23*
X0137666Y0013217D03*
D24*
X0147745Y0054713D03*
X0157745Y0054713D03*
X0157745Y0064713D03*
X0147745Y0064713D03*
X0147745Y0074713D03*
X0157745Y0074713D03*
X0157745Y0084713D03*
X0147745Y0084713D03*
X0147745Y0094713D03*
X0157745Y0094713D03*
X0157745Y0104713D03*
X0147745Y0104713D03*
X0147745Y0114713D03*
X0157745Y0114713D03*
X0157745Y0124713D03*
X0147745Y0124713D03*
X0147745Y0134713D03*
X0157745Y0134713D03*
D25*
X0115382Y0098650D03*
X0105382Y0098650D03*
X0095382Y0098650D03*
X0085382Y0098650D03*
X0075382Y0098650D03*
X0065382Y0098650D03*
X0055382Y0098650D03*
X0055382Y0088650D03*
X0055382Y0078650D03*
X0055382Y0068650D03*
X0055382Y0058650D03*
X0055382Y0048650D03*
X0055382Y0038650D03*
X0055382Y0028650D03*
X0065382Y0048650D03*
X0065382Y0058650D03*
X0065382Y0068650D03*
X0065382Y0078650D03*
X0065382Y0088650D03*
X0075382Y0088650D03*
X0075382Y0078650D03*
X0075382Y0068650D03*
X0075382Y0058650D03*
X0075382Y0048650D03*
X0085382Y0048650D03*
X0085382Y0058650D03*
X0085382Y0068650D03*
X0085382Y0078650D03*
X0085382Y0088650D03*
X0095382Y0088650D03*
X0095382Y0078650D03*
X0095382Y0068650D03*
X0095382Y0058650D03*
X0095382Y0048650D03*
X0105382Y0048650D03*
X0115382Y0048650D03*
X0115382Y0038650D03*
X0115382Y0028650D03*
X0115382Y0058650D03*
X0105382Y0058650D03*
X0105382Y0068650D03*
X0115382Y0068650D03*
X0115382Y0078650D03*
X0105382Y0078650D03*
X0105382Y0088650D03*
X0115382Y0088650D03*
M02*
