G75*
%MOIN*%
%OFA0B0*%
%FSLAX25Y25*%
%IPPOS*%
%LPD*%
%AMOC8*
5,1,8,0,0,1.08239X$1,22.5*
%
%ADD10C,0.00500*%
%ADD11R,0.02000X0.02000*%
%ADD12C,0.00600*%
%ADD13C,0.00000*%
%ADD14C,0.00800*%
D10*
X0007501Y0015313D02*
X0008251Y0015313D01*
X0009002Y0016064D01*
X0009002Y0019817D01*
X0008251Y0019817D02*
X0009753Y0019817D01*
X0011354Y0019817D02*
X0013606Y0019817D01*
X0014356Y0019066D01*
X0014356Y0017565D01*
X0013606Y0016814D01*
X0011354Y0016814D01*
X0011354Y0015313D02*
X0011354Y0019817D01*
X0015958Y0018316D02*
X0017459Y0019817D01*
X0017459Y0015313D01*
X0015958Y0015313D02*
X0018960Y0015313D01*
X0007501Y0015313D02*
X0006750Y0016064D01*
X0073538Y0034538D02*
X0074289Y0033787D01*
X0075039Y0033787D01*
X0075790Y0034538D01*
X0075790Y0038291D01*
X0075039Y0038291D02*
X0076541Y0038291D01*
X0078142Y0038291D02*
X0080394Y0038291D01*
X0081145Y0037540D01*
X0081145Y0036039D01*
X0080394Y0035288D01*
X0078142Y0035288D01*
X0078142Y0033787D02*
X0078142Y0038291D01*
X0082746Y0037540D02*
X0083497Y0038291D01*
X0084998Y0038291D01*
X0085749Y0037540D01*
X0085749Y0036790D01*
X0082746Y0033787D01*
X0085749Y0033787D01*
D11*
X0011800Y0007863D03*
X0021800Y0007863D03*
X0031800Y0007863D03*
X0041800Y0007863D03*
X0051800Y0007863D03*
X0061800Y0007863D03*
X0071800Y0007863D03*
X0081800Y0007863D03*
X0081800Y0045737D03*
X0071800Y0045737D03*
X0061800Y0045737D03*
X0051800Y0045737D03*
X0041800Y0045737D03*
X0031800Y0045737D03*
X0021800Y0045737D03*
X0011800Y0045737D03*
D12*
X0040700Y0030400D02*
X0040700Y0023200D01*
X0052900Y0023200D02*
X0052900Y0030400D01*
D13*
X0052900Y0032900D02*
X0040700Y0032900D01*
X0040700Y0028000D01*
X0040700Y0025600D01*
X0040700Y0020700D01*
X0052900Y0020700D01*
X0052900Y0032900D01*
X0040700Y0028000D02*
X0040769Y0027998D01*
X0040837Y0027992D01*
X0040905Y0027982D01*
X0040972Y0027969D01*
X0041038Y0027951D01*
X0041103Y0027930D01*
X0041167Y0027905D01*
X0041229Y0027877D01*
X0041290Y0027845D01*
X0041349Y0027810D01*
X0041405Y0027771D01*
X0041460Y0027729D01*
X0041511Y0027684D01*
X0041561Y0027636D01*
X0041607Y0027586D01*
X0041650Y0027533D01*
X0041691Y0027477D01*
X0041728Y0027420D01*
X0041761Y0027360D01*
X0041792Y0027298D01*
X0041818Y0027235D01*
X0041841Y0027171D01*
X0041861Y0027105D01*
X0041876Y0027038D01*
X0041888Y0026971D01*
X0041896Y0026903D01*
X0041900Y0026834D01*
X0041900Y0026766D01*
X0041896Y0026697D01*
X0041888Y0026629D01*
X0041876Y0026562D01*
X0041861Y0026495D01*
X0041841Y0026429D01*
X0041818Y0026365D01*
X0041792Y0026302D01*
X0041761Y0026240D01*
X0041728Y0026180D01*
X0041691Y0026123D01*
X0041650Y0026067D01*
X0041607Y0026014D01*
X0041561Y0025964D01*
X0041511Y0025916D01*
X0041460Y0025871D01*
X0041405Y0025829D01*
X0041349Y0025790D01*
X0041290Y0025755D01*
X0041229Y0025723D01*
X0041167Y0025695D01*
X0041103Y0025670D01*
X0041038Y0025649D01*
X0040972Y0025631D01*
X0040905Y0025618D01*
X0040837Y0025608D01*
X0040769Y0025602D01*
X0040700Y0025600D01*
D14*
X0058294Y0018419D02*
X0065700Y0018419D01*
X0065700Y0015950D02*
X0065700Y0020888D01*
X0060762Y0015950D02*
X0058294Y0018419D01*
X0058294Y0013338D02*
X0064466Y0013338D01*
X0065700Y0012103D01*
X0065700Y0009634D01*
X0064466Y0008400D01*
X0058294Y0008400D01*
M02*
